<?xml version="1.0" encoding="UTF-8" standalone="no"?>
<!-- Created with Inkscape (http://www.inkscape.org/) -->

<svg
   width="840"
   height="880"
   viewBox="0 0 222.24999 232.83333"
   version="1.1"
   id="mySVG"
   inkscape:version="1.3 (0e150ed6c4, 2023-07-21)"
   sodipodi:docname="casual_female2.svg"
   xml:space="preserve"
   xmlns:inkscape="http://www.inkscape.org/namespaces/inkscape"
   xmlns:sodipodi="http://sodipodi.sourceforge.net/DTD/sodipodi-0.dtd"
   xmlns="http://www.w3.org/2000/svg"
   xmlns:svg="http://www.w3.org/2000/svg"><sodipodi:namedview
     id="namedview7"
     pagecolor="#ffffff"
     bordercolor="#666666"
     borderopacity="1.0"
     inkscape:showpageshadow="2"
     inkscape:pageopacity="0.0"
     inkscape:pagecheckerboard="0"
     inkscape:deskcolor="#d1d1d1"
     inkscape:document-units="px"
     showgrid="false"
     showguides="true"
     inkscape:zoom="1.4770342"
     inkscape:cx="397.41801"
     inkscape:cy="707.83737"
     inkscape:window-width="1920"
     inkscape:window-height="1009"
     inkscape:window-x="-8"
     inkscape:window-y="-8"
     inkscape:window-maximized="1"
     inkscape:current-layer="layer1"><inkscape:grid
       type="xygrid"
       id="grid9"
       originx="0"
       originy="0"
       spacingy="1"
       spacingx="1"
       units="mm"
       visible="false" /></sodipodi:namedview><defs
     id="defs2"><inkscape:path-effect
       effect="simplify"
       id="path-effect14166"
       is_visible="true"
       lpeversion="1"
       steps="1"
       threshold="0.00243902"
       smooth_angles="360"
       helper_size="0"
       simplify_individual_paths="false"
       simplify_just_coalesce="false" /><inkscape:path-effect
       effect="simplify"
       id="path-effect2574"
       is_visible="true"
       lpeversion="1"
       steps="1"
       threshold="0.00243902"
       smooth_angles="360"
       helper_size="0"
       simplify_individual_paths="false"
       simplify_just_coalesce="false" /><inkscape:path-effect
       effect="simplify"
       id="path-effect441"
       is_visible="true"
       lpeversion="1"
       steps="1"
       threshold="0.00243902"
       smooth_angles="360"
       helper_size="0"
       simplify_individual_paths="false"
       simplify_just_coalesce="false" /><inkscape:path-effect
       effect="simplify"
       id="path-effect437"
       is_visible="true"
       lpeversion="1"
       steps="1"
       threshold="0.00243902"
       smooth_angles="360"
       helper_size="0"
       simplify_individual_paths="false"
       simplify_just_coalesce="false" /></defs><g
     inkscape:label="Ebene 1"
     inkscape:groupmode="layer"
     id="layer1"><path
       id="neck"
       style="fill:#ffe6d5;stroke:#000000;stroke-width:0.500237;stroke-linecap:round;stroke-linejoin:round"
       d="m 95.382119,158.74979 c 0,0 1.190626,-7.0333 1.190626,-10.58333 0,-3.55004 -1.190626,-10.58334 -1.190626,-10.58334 h 1.190626 l 23.812495,-0.007 1.19062,0.007 c 0,0 -1.19062,7.0333 -1.19062,10.58334 0,3.55003 1.19062,10.58333 1.19062,10.58333"
       sodipodi:nodetypes="caccccac" /><path
       id="path5"
       style="display:inline;fill:#000000;stroke:#000000;stroke-width:0.529167;stroke-linecap:round;stroke-linejoin:miter;stroke-dasharray:none;stroke-opacity:1"
       d="m 95.864433,153.6268 c 0,0 -2.159867,1.15009 -3.291789,1.60869 -1.614278,0.65403 -3.302075,1.11116 -4.967655,1.62057 -1.955687,0.59814 -3.928251,1.14008 -5.899382,1.68517 -4.206769,1.16333 -7.118081,1.95211 -12.649357,3.38325 -7.695531,1.99416 -18.745581,3.04129 -22.489583,10.05417 -0.427623,0.62508 -0.803218,1.62186 -1.149801,2.8112 -0.05375,0.16459 -0.105306,0.31931 -0.157613,0.49299 -3.59e-4,0.001 -7.43e-4,0.002 -10e-4,0.004 -0.0038,0.0125 -0.0066,0.0283 -0.01033,0.0408 -0.373047,1.24695 -0.699845,2.71403 -0.888835,4.37028 -6e-5,5.3e-4 6.1e-5,10e-4 0,0.002 -0.0014,0.009 -0.0033,0.0182 -0.0046,0.0274 -0.0056,0.0498 -0.01685,0.091 -0.02222,0.14108 -0.0014,0.0128 -0.0028,0.0391 -0.0041,0.0522 -1.51e-4,0.001 -3.66e-4,0.004 -5.17e-4,0.006 -1.679435,10.94713 -1.994194,29.679 -1.994194,42.32403 v 10.58333 h 18.520834 l 1.452624,-19.81791 c 0.22047,3.36555 2.30836,6.79472 3.571875,9.92187 1.315162,3.25497 5.688542,8.86354 5.688542,8.86354 l 0.199471,1.0325 h 11.577071 25.135416 0.0475 25.13593 11.57707 l 0.19947,-1.0325 c 0,0 4.37338,-5.60857 5.68855,-8.86354 1.26351,-3.12715 3.3514,-6.55632 3.57187,-9.92187 l 1.45263,19.81791 h 18.52135 v -10.58333 c 0,-12.64503 -0.31476,-31.3769 -1.9942,-42.32403 -1.5e-4,-0.002 -3.6e-4,-0.005 -5.1e-4,-0.006 -10e-4,-0.0131 -0.003,-0.0394 -0.004,-0.0522 -0.005,-0.0501 -0.0162,-0.0913 -0.0222,-0.14108 -0.002,-0.009 -0.004,-0.0184 -0.005,-0.0274 -7e-5,-0.001 6e-5,-0.002 0,-0.002 -0.18899,-1.65625 -0.51579,-3.12333 -0.88883,-4.37028 -0.003,-0.0125 -0.006,-0.0283 -0.0103,-0.0408 -3.2e-4,-0.002 -7e-4,-0.003 -10e-4,-0.004 -0.0523,-0.17368 -0.10392,-0.3284 -0.15762,-0.49299 -0.34659,-1.18934 -0.72218,-2.18612 -1.1498,-2.8112 -3.744,-7.01288 -14.79401,-8.06001 -22.48958,-10.05417 -5.53131,-1.43114 -8.44257,-2.21992 -12.64936,-3.38325 -1.97115,-0.54509 -3.94367,-1.08703 -5.89938,-1.68517 -1.66558,-0.50941 -3.35336,-0.96654 -4.96765,-1.62057 -1.13193,-0.4586 -3.29179,-1.60869 -3.29179,-1.60869 0,0 -2.87227,0.77073 -4.33979,0.98909 -1.08262,0.16108 -1.15653,0.18266 -2.59699,0.27655 0,0 -3.80288,0.71396 -9.21951,0.31718 -1.44026,-0.0939 -3.69892,-0.43266 -4.78145,-0.59373 -1.467512,-0.21836 -4.339786,-0.98909 -4.339786,-0.98909 z"
       sodipodi:nodetypes="csssccccccsccsccscccsccccccccscccsccccscccccccssscsccscc" /><path
       id="path10"
       style="display:inline;fill:#4d4d4d;stroke:#000000;stroke-width:0.529167;stroke-linecap:round;stroke-linejoin:miter;stroke-dasharray:none;stroke-opacity:1"
       d="m 95.864433,153.6268 c 0,0 -2.159869,1.15009 -3.291789,1.60869 -1.614274,0.65403 -3.302079,1.11116 -4.967655,1.62057 -1.955683,0.59814 -3.928255,1.14008 -5.899382,1.68517 -4.206761,1.16333 -7.118093,1.95211 -12.649357,3.38325 -7.695523,1.99416 -18.745585,3.0413 -22.489583,10.05417 -0.427623,0.62508 -0.803218,1.62186 -1.149801,2.8112 -0.05375,0.16459 -0.105306,0.31931 -0.157613,0.49299 -3.59e-4,0.001 -7.43e-4,0.002 -10e-4,0.004 -0.0038,0.0125 -0.0066,0.0283 -0.01033,0.0408 -0.373047,1.24695 -0.699845,2.71403 -0.888835,4.37028 -6e-5,5.3e-4 6.1e-5,10e-4 0,0.002 -0.0014,0.009 -0.0033,0.0182 -0.0046,0.0274 -0.0056,0.0498 -0.01685,0.091 -0.02222,0.14108 -0.0014,0.0128 -0.0028,0.0391 -0.0041,0.0522 -1.51e-4,0.001 -3.66e-4,0.004 -5.17e-4,0.006 -0.433522,2.82583 -0.773117,6.1809 -1.042831,9.8056 l 9.089885,-10.01438 92.183475,52.97046 -17.3244,-31.90472 c -6.53125,-10.3442 -12.69119,-20.89728 -18.73479,-31.52888 l -8.32595,-14.64661 c -1.440263,-0.0939 1.11434,0.169 0.0318,0.008 -1.467517,-0.21836 -4.339786,-0.98909 -4.339786,-0.98909 z m 25.278047,0 c 0,0 -2.87227,0.77073 -4.33979,0.98909 -0.68518,0.10194 -1.54409,0.18991 -2.4474,0.26458 -0.5426,0.0448 2.39273,-0.0629 1.8459,-0.0275 l -44.027396,77.52935 92.458536,-52.66466 9.08988,10.01438 c -0.26971,-3.6247 -0.60931,-6.97977 -1.04283,-9.8056 -1.5e-4,-0.002 -3.6e-4,-0.005 -5.1e-4,-0.006 -10e-4,-0.0131 -0.003,-0.0394 -0.004,-0.0522 -0.005,-0.0501 -0.0162,-0.0913 -0.0222,-0.14108 -0.002,-0.009 -0.004,-0.0184 -0.005,-0.0274 -7e-5,-0.001 6e-5,-0.002 0,-0.002 -0.18899,-1.65625 -0.5158,-3.12333 -0.88883,-4.37028 -0.003,-0.0125 -0.006,-0.0283 -0.0103,-0.0408 -3.2e-4,-0.002 -7e-4,-0.003 -0.001,-0.004 -0.0523,-0.17368 -0.10392,-0.3284 -0.15762,-0.49299 -0.34659,-1.18934 -0.72218,-2.18612 -1.1498,-2.8112 -3.74399,-7.01287 -14.79402,-8.06001 -22.48958,-10.05417 -5.53131,-1.43114 -8.44257,-2.21992 -12.64936,-3.38325 -1.97115,-0.54509 -3.94367,-1.08703 -5.89938,-1.68517 -1.66558,-0.50941 -3.35337,-0.96654 -4.96765,-1.62057 -0.56597,-0.2293 -1.38871,-0.63132 -2.07016,-0.97617 -0.68146,-0.34485 -1.22163,-0.63252 -1.22163,-0.63252 z"
       sodipodi:nodetypes="csssccccccsccsccccccccscccscccccccccscccccccsssscc" /><rect
       style="opacity:0.993;fill:#4d4d4d;stroke:none;stroke-width:0.948374;stroke-opacity:0.669207"
       id="rect1"
       width="11.33379"
       height="19.162373"
       x="0.97461092"
       y="204.64883"
       transform="matrix(0.49861637,-0.86682277,0.51048947,0.859884,0,0)" /><rect
       style="opacity:0.993;fill:#4d4d4d;stroke:none;stroke-width:1.39346;stroke-opacity:0.669207"
       id="rect1-1"
       width="18.400608"
       height="25.481403"
       x="121.00725"
       y="231.1077"
       transform="matrix(0.91591838,-0.40136458,-0.00117652,0.99999931,0,0)" /><rect
       style="opacity:0.993;fill:#4d4d4d;stroke:none;stroke-width:1.127;stroke-opacity:0.669207"
       id="rect2"
       width="17.733112"
       height="10.323205"
       x="-139.37305"
       y="177.56763"
       transform="rotate(-60.500546)" /><rect
       style="opacity:0.993;fill:#4d4d4d;stroke:none;stroke-width:1.127;stroke-opacity:0.669207"
       id="rect2-3"
       width="17.733112"
       height="10.323205"
       x="-20.229519"
       y="227.14345"
       transform="rotate(-29.163737)" /></g></svg>
