<?xml version="1.0" encoding="UTF-8" standalone="no"?>
<!-- Created with Inkscape (http://www.inkscape.org/) -->

<svg
   width="210mm"
   height="297mm"
   viewBox="0 0 210 297"
   version="1.1"
   id="mySVG"
   inkscape:version="1.2.1 (9c6d41e410, 2022-07-14)"
   sodipodi:docname="uniform_female3.svg"
   xml:space="preserve"
   xmlns:inkscape="http://www.inkscape.org/namespaces/inkscape"
   xmlns:sodipodi="http://sodipodi.sourceforge.net/DTD/sodipodi-0.dtd"
   xmlns="http://www.w3.org/2000/svg"
   xmlns:svg="http://www.w3.org/2000/svg"><sodipodi:namedview
     id="namedview7"
     pagecolor="#ffffff"
     bordercolor="#666666"
     borderopacity="1.0"
     inkscape:showpageshadow="2"
     inkscape:pageopacity="0.0"
     inkscape:pagecheckerboard="0"
     inkscape:deskcolor="#d1d1d1"
     inkscape:document-units="mm"
     showgrid="false"
     showguides="true"
     inkscape:zoom="1.4770342"
     inkscape:cx="535.19411"
     inkscape:cy="741.35047"
     inkscape:window-width="1920"
     inkscape:window-height="1009"
     inkscape:window-x="1912"
     inkscape:window-y="-8"
     inkscape:window-maximized="1"
     inkscape:current-layer="layer1"><inkscape:grid
       type="xygrid"
       id="grid9" /></sodipodi:namedview><defs
     id="defs2"><inkscape:path-effect
       effect="simplify"
       id="path-effect14166"
       is_visible="true"
       lpeversion="1"
       steps="1"
       threshold="0.00243902"
       smooth_angles="360"
       helper_size="0"
       simplify_individual_paths="false"
       simplify_just_coalesce="false" /><inkscape:path-effect
       effect="simplify"
       id="path-effect2574"
       is_visible="true"
       lpeversion="1"
       steps="1"
       threshold="0.00243902"
       smooth_angles="360"
       helper_size="0"
       simplify_individual_paths="false"
       simplify_just_coalesce="false" /><inkscape:path-effect
       effect="simplify"
       id="path-effect441"
       is_visible="true"
       lpeversion="1"
       steps="1"
       threshold="0.00243902"
       smooth_angles="360"
       helper_size="0"
       simplify_individual_paths="false"
       simplify_just_coalesce="false" /><inkscape:path-effect
       effect="simplify"
       id="path-effect437"
       is_visible="true"
       lpeversion="1"
       steps="1"
       threshold="0.00243902"
       smooth_angles="360"
       helper_size="0"
       simplify_individual_paths="false"
       simplify_just_coalesce="false" /></defs><g
     inkscape:label="Ebene 1"
     inkscape:groupmode="layer"
     id="layer1"><path
       id="neck"
       style="fill:#ffe6d5;stroke:#000000;stroke-width:0.500237;stroke-linecap:round;stroke-linejoin:round"
       d="m 95.382118,158.74979 c 0,0 1.190626,-7.0333 1.190626,-10.58333 0,-3.55004 -1.190626,-10.58334 -1.190626,-10.58334 h 1.190626 l 23.812506,-0.007 1.19062,0.007 c 0,0 -1.19062,7.0333 -1.19062,10.58334 0,3.55003 1.19062,10.58333 1.19062,10.58333"
       sodipodi:nodetypes="caccccac" /><path
       style="fill:#d40000;stroke:#000000;stroke-width:0.529167;stroke-linecap:round;stroke-linejoin:miter;stroke-dasharray:none;stroke-opacity:1"
       d="m 66.275555,193.17178 c 0,0 -3.412412,6.43659 -4.365624,9.92187 -0.87875,3.21302 -1.320447,6.59339 -1.190625,9.92188 0.131449,3.37022 0.596744,6.84776 1.984375,9.92187 1.527635,3.38427 4.551689,5.86886 6.746874,8.86355 0.248996,0.33968 0.728445,1.03238 0.728445,1.03238 h 40.946 l -5.29167,-83.34375 -10.58333,-3.96875 -2.645833,9.525 c 0,0 1.35542,2.05954 -23.547917,6.87917 -7.804908,1.51051 -18.745571,3.04127 -22.489583,10.05417 -3.062373,5.73611 -4.233334,33.30631 -4.233334,50.27083 v 10.58333 h 18.520834 l -0.134861,-19.8178"
       id="uniform_left"
       sodipodi:nodetypes="caaaacccccsssccc" /><path
       id="path4903"
       style="fill:#ffffff;stroke:none;stroke-width:0.529167;stroke-linecap:butt;stroke-linejoin:miter;stroke-dasharray:none;stroke-opacity:1"
       d="m 54.504167,175.94792 -10.656198,9.59786 c -0.0507,0.90083 -0.0947,2.36369 -0.135392,3.31039 l 10.79159,-10.26242 h 22.943819 l -0.287321,-2.64583 z"
       sodipodi:nodetypes="ccccccc" /><path
       style="fill:#1a1a1a;stroke:none;stroke-width:0.529167;stroke-linecap:butt;stroke-linejoin:miter;stroke-dasharray:none;stroke-opacity:1"
       d="M 105.83333,175.94792 H 54.504167 l -10.649601,9.98494 c 0,0 0.28178,-4.23638 0.477578,-6.06459 0.391595,-3.65641 1.468924,-6.45507 2.234518,-7.8891 3.744018,-7.0129 14.684667,-8.54366 22.489583,-10.05417 24.903367,-4.81963 23.547922,-6.87917 23.547922,-6.87917 l 1.984375,-7.27604 11.244788,4.36563"
       id="path4147"
       sodipodi:nodetypes="cccsssccc" /><path
       style="fill:none;stroke:#000000;stroke-width:0.529167;stroke-linecap:round;stroke-linejoin:miter;stroke-dasharray:none;stroke-opacity:1"
       d="m 66.275555,193.17178 c 0,0 -3.412412,6.43659 -4.365624,9.92187 -0.87875,3.21302 -1.320447,6.59339 -1.190625,9.92188 0.131449,3.37022 0.596744,6.84776 1.984375,9.92187 1.527635,3.38427 4.551689,5.86886 6.746874,8.86355 0.248996,0.33968 0.728445,1.03238 0.728445,1.03238 h 40.946 l -5.29167,-83.34375 -10.58333,-3.96875 -2.645833,9.525 c 0,0 1.35542,2.05954 -23.547917,6.87917 -7.804908,1.51051 -18.745571,3.04127 -22.489583,10.05417 -3.062373,5.73611 -4.233334,33.30631 -4.233334,50.27083 v 10.58333 h 18.520834 l -0.134861,-19.8178"
       id="path1378"
       sodipodi:nodetypes="caaaacccccsssccc" /><path
       style="fill:#d40000;stroke:#000000;stroke-width:0.529167;stroke-linecap:round;stroke-linejoin:miter;stroke-dasharray:none;stroke-opacity:1"
       d="m 156.10417,193.14583 c 0,0 3.4124,6.43659 4.36561,9.92187 0.87875,3.21302 1.32045,6.59339 1.19063,9.92188 -0.13145,3.37022 -0.59674,6.84776 -1.98437,9.92187 -1.52763,3.38427 -4.45282,5.94391 -6.74687,8.86355 -0.28061,0.35713 -0.85817,1.05833 -0.85817,1.05833 H 83.34375 l -6.614583,-60.85416 29.104163,-11.90625 v -11.90625 l 15.875,-2.64584 2.64584,9.525 c 0,0 -1.5766,2.06603 26.19375,6.87917 8.65723,1.50047 20.83045,2.39477 25.13541,10.05417 2.92722,5.2081 4.23334,33.30631 4.23334,50.27083 v 10.58333 h -18.52084 l 0.26459,-19.84375"
       id="uniform_right"
       sodipodi:nodetypes="caaaacccccccsssccc" /><path
       id="path5014"
       style="fill:#ffffff;stroke:none;stroke-width:0.529167;stroke-linecap:butt;stroke-linejoin:miter;stroke-dasharray:none;stroke-opacity:1"
       d="m 80.16875,175.94792 v 2.64583 h 87.84167 l 10.52287,11.32386 c -0.0559,-1.42932 -0.11829,-3.35755 -0.1943,-4.68654 l -9.00566,-9.28315 z"
       sodipodi:nodetypes="ccccccc" /><path
       style="fill:#1a1a1a;stroke:none;stroke-width:0.529167;stroke-linecap:butt;stroke-linejoin:miter;stroke-dasharray:none;stroke-opacity:1"
       d="m 122.36979,147.76979 1.98438,7.27604 c 0,0 -1.5766,2.06602 26.19375,6.87916 8.65724,1.50047 20.83044,2.39478 25.13541,10.05418 1.56242,4.85563 2.34024,8.98782 2.59116,13.39469 0.0415,0.72979 -10.52866,-9.42594 -10.52866,-9.42594 h -20.90208 -9.26042 -14.55185 -42.86273 v -2.38125 l 28.31065,-11.90625 v -11.1125 c 5.45904,-0.90547 13.89062,-2.24896 13.89062,-2.24896 z"
       id="path4875"
       sodipodi:nodetypes="ccscccccccccccc" /><path
       style="fill:#cccccc;stroke:#000000;stroke-width:0.362353px;stroke-linecap:butt;stroke-linejoin:miter;stroke-opacity:1"
       d="m 135.99029,179.91667 c -0.98304,3.07264 -2.21554,9.42118 -2.21554,9.42118 0,0 3.60609,-4.65704 6.20142,-4.7106 2.0224,-0.0417 4.97977,3.46825 4.97977,3.46825 0,0 -1.1484,-5.52476 -2.08094,-8.17883 -0.96759,-2.75385 -3.62353,-7.97177 -3.62353,-7.97177 0,0 -2.38633,5.2373 -3.26118,7.97177 z"
       id="path7252"
       sodipodi:nodetypes="acacaca" /><path
       style="fill:none;stroke:#000000;stroke-width:0.529167;stroke-linecap:round;stroke-linejoin:miter;stroke-dasharray:none;stroke-opacity:1"
       d="m 156.10417,193.14583 c 0,0 3.4124,6.43659 4.36561,9.92187 0.87875,3.21302 1.32045,6.59339 1.19063,9.92188 -0.13145,3.37022 -0.59674,6.84776 -1.98437,9.92187 -1.52763,3.38427 -4.45282,5.94391 -6.74687,8.86355 -0.28061,0.35713 -0.85817,1.05833 -0.85817,1.05833 H 83.34375 l -6.614583,-60.85416 29.104163,-11.90625 v -11.90625 l 15.875,-2.64584 2.64584,9.525 c 0,0 -1.5766,2.06603 26.19375,6.87917 8.65723,1.50047 20.83045,2.39477 25.13541,10.05417 2.92722,5.2081 4.23334,33.30631 4.23334,50.27083 v 10.58333 h -18.52084 l 0.26459,-19.84375"
       id="path1376"
       sodipodi:nodetypes="caaaacccccccsssccc" /></g></svg>
