<?xml version="1.0" encoding="UTF-8" standalone="no"?>
<!-- Created with Inkscape (http://www.inkscape.org/) -->

<svg
   width="840"
   height="880"
   viewBox="0 0 222.24999 232.83334"
   version="1.1"
   id="mySVG"
   inkscape:version="1.2.2 (732a01da63, 2022-12-09)"
   sodipodi:docname="mouth_open_scream.svg"
   xmlns:inkscape="http://www.inkscape.org/namespaces/inkscape"
   xmlns:sodipodi="http://sodipodi.sourceforge.net/DTD/sodipodi-0.dtd"
   xmlns="http://www.w3.org/2000/svg"
   xmlns:svg="http://www.w3.org/2000/svg">
  <sodipodi:namedview
     id="namedview7"
     pagecolor="#ffffff"
     bordercolor="#666666"
     borderopacity="1.0"
     inkscape:showpageshadow="2"
     inkscape:pageopacity="0.0"
     inkscape:pagecheckerboard="0"
     inkscape:deskcolor="#d1d1d1"
     inkscape:document-units="mm"
     showgrid="false"
     showguides="true"
     inkscape:zoom="11.816274"
     inkscape:cx="406.60027"
     inkscape:cy="470.53751"
     inkscape:window-width="2560"
     inkscape:window-height="1369"
     inkscape:window-x="1912"
     inkscape:window-y="-8"
     inkscape:window-maximized="1"
     inkscape:current-layer="layer1"
     inkscape:pageshadow="2"
     width="8mm"
     units="px">
    <inkscape:grid
       type="xygrid"
       id="grid9" />
  </sodipodi:namedview>
  <defs
     id="defs2">
    <inkscape:path-effect
       effect="simplify"
       id="path-effect14166"
       is_visible="true"
       lpeversion="1"
       steps="1"
       threshold="0.00243902"
       smooth_angles="360"
       helper_size="0"
       simplify_individual_paths="false"
       simplify_just_coalesce="false" />
    <inkscape:path-effect
       effect="simplify"
       id="path-effect2574"
       is_visible="true"
       lpeversion="1"
       steps="1"
       threshold="0.00243902"
       smooth_angles="360"
       helper_size="0"
       simplify_individual_paths="false"
       simplify_just_coalesce="false" />
    <inkscape:path-effect
       effect="simplify"
       id="path-effect441"
       is_visible="true"
       lpeversion="1"
       steps="1"
       threshold="0.00243902"
       smooth_angles="360"
       helper_size="0"
       simplify_individual_paths="false"
       simplify_just_coalesce="false" />
    <inkscape:path-effect
       effect="simplify"
       id="path-effect437"
       is_visible="true"
       lpeversion="1"
       steps="1"
       threshold="0.00243902"
       smooth_angles="360"
       helper_size="0"
       simplify_individual_paths="false"
       simplify_just_coalesce="false" />
  </defs>
  <g
     inkscape:label="Ebene 1"
     inkscape:groupmode="layer"
     id="layer1">
    <path
       id="path480"
       style="fill-opacity:1;stroke:#000000;stroke-width:0.52916667;stroke-linecap:round;stroke-dasharray:none;fill:#4f0c0f"
       d="m 123.89084,126.34839 c 0.19001,2.53581 -4.18613,-0.43533 -15.61859,0.26729 -12.296228,0.7556 -15.281916,4.14422 -15.36525,-1.85061 -0.04979,-3.58161 -0.177113,-5.98133 15.74524,-5.84054 11.61916,0.10274 14.81726,1.80052 15.2386,7.42386 z"
       sodipodi:nodetypes="sssss" />
    <path
       id="path20709"
       style="fill:#d40000;stroke:#000000;stroke-width:0.254246;stroke-linecap:round;stroke-dasharray:none;stroke-opacity:1"
       d="m 114.59399,125.20135 c 0.8502,1.4233 -1.11819,1.18687 -1.63544,1.18437 -1.66557,-0.008 -4.41032,0.0605 -5.50564,0.15291 -2.24844,0.18885 -2.43377,0.23789 -4.24064,0.42821 -1.23397,0.12997 -2.69646,0.5798 -0.80868,-1.8866 0.80204,-1.04788 2.32987,-2.06567 4.52033,-1.96601 0.70517,0.0321 1.42465,0.33432 1.14147,0.96536 -0.60758,1.14897 -0.78249,1.31717 0.17714,-0.24913 1.91117,-1.20808 5.49856,-0.44696 6.35146,1.37089 z"
       sodipodi:nodetypes="csssssccc" />
    <path
       id="rect427"
       style="fill:#ffffff;stroke:#000000;stroke-width:0.264583;stroke-linecap:round"
       d="m 97.359648,119.64784 c 3.894932,-0.53525 7.414822,-0.71711 10.969902,-0.70953 3.4071,0.007 5.22383,0.0976 8.72053,0.64077 2.37633,0.50287 3.22092,0.78583 4.53539,1.71069 0.32347,0.22759 -2.56704,0.0951 -3.00214,0.0942 l -20.999768,-0.0448 c -0.435101,-9.3e-4 -1.373995,-0.0403 -1.860172,-0.027 l -1.970446,0.0541 c 0.0034,-9e-5 0.936381,-1.10427 3.606704,-1.71839 z"
       sodipodi:nodetypes="csccsssccc" />
  </g>
</svg>
