<?xml version="1.0" encoding="UTF-8" standalone="no"?>
<!-- Created with Inkscape (http://www.inkscape.org/) -->

<svg
   width="840"
   height="880"
   viewBox="0 0 222.24999 232.83334"
   version="1.1"
   id="mySVG"
   inkscape:version="1.1.2 (b8e25be833, 2022-02-05)"
   sodipodi:docname="mouth_happy.svg"
   xmlns:inkscape="http://www.inkscape.org/namespaces/inkscape"
   xmlns:sodipodi="http://sodipodi.sourceforge.net/DTD/sodipodi-0.dtd"
   xmlns="http://www.w3.org/2000/svg"
   xmlns:svg="http://www.w3.org/2000/svg">
  <sodipodi:namedview
     id="namedview7"
     pagecolor="#ffffff"
     bordercolor="#666666"
     borderopacity="1.0"
     inkscape:showpageshadow="2"
     inkscape:pageopacity="0.0"
     inkscape:pagecheckerboard="0"
     inkscape:deskcolor="#d1d1d1"
     inkscape:document-units="mm"
     showgrid="false"
     showguides="true"
     inkscape:zoom="4.1776837"
     inkscape:cx="423.56007"
     inkscape:cy="496.92608"
     inkscape:window-width="1920"
     inkscape:window-height="1094"
     inkscape:window-x="-11"
     inkscape:window-y="-11"
     inkscape:window-maximized="1"
     inkscape:current-layer="layer1"
     inkscape:pageshadow="2"
     units="px">
    <inkscape:grid
       type="xygrid"
       id="grid9" />
  </sodipodi:namedview>
  <defs
     id="defs2">
    <inkscape:path-effect
       effect="simplify"
       id="path-effect4085"
       is_visible="true"
       lpeversion="1"
       steps="1"
       threshold="0.00243902"
       smooth_angles="360"
       helper_size="0"
       simplify_individual_paths="false"
       simplify_just_coalesce="false" />
    <inkscape:path-effect
       effect="simplify"
       id="path-effect14166"
       is_visible="true"
       lpeversion="1"
       steps="1"
       threshold="0.00243902"
       smooth_angles="360"
       helper_size="0"
       simplify_individual_paths="false"
       simplify_just_coalesce="false" />
    <inkscape:path-effect
       effect="simplify"
       id="path-effect2574"
       is_visible="true"
       lpeversion="1"
       steps="1"
       threshold="0.00243902"
       smooth_angles="360"
       helper_size="0"
       simplify_individual_paths="false"
       simplify_just_coalesce="false" />
    <inkscape:path-effect
       effect="simplify"
       id="path-effect441"
       is_visible="true"
       lpeversion="1"
       steps="1"
       threshold="0.00243902"
       smooth_angles="360"
       helper_size="0"
       simplify_individual_paths="false"
       simplify_just_coalesce="false" />
    <inkscape:path-effect
       effect="simplify"
       id="path-effect437"
       is_visible="true"
       lpeversion="1"
       steps="1"
       threshold="0.00243902"
       smooth_angles="360"
       helper_size="0"
       simplify_individual_paths="false"
       simplify_just_coalesce="false" />
    <pattern
       id="EMFhbasepattern"
       patternUnits="userSpaceOnUse"
       width="6"
       height="6"
       x="0"
       y="0" />
  </defs>
  <g
     inkscape:label="Ebene 1"
     inkscape:groupmode="layer"
     id="layer1">
    <path
       style="fill:none;stroke:#000000;stroke-width:0.529167;stroke-linecap:round;stroke-linejoin:round;stroke-miterlimit:4;stroke-dasharray:none;stroke-opacity:1"
       d="m 94.491856,116.70416 c 0,0 -2.904924,1.00772 -3.086836,4.72075 -0.273009,5.57242 2.459874,8.26628 2.459874,8.26628"
       id="path872"
       sodipodi:nodetypes="csc" />
    <path
       style="fill:none;stroke:#000000;stroke-width:0.529167;stroke-linecap:round;stroke-linejoin:round;stroke-miterlimit:4;stroke-dasharray:none;stroke-opacity:1"
       d="m 123.51115,115.71894 c 0,0 2.17562,1.83043 2.32871,5.82177 0.14434,3.76334 -1.52261,6.18003 -1.52261,6.18003"
       id="path874"
       sodipodi:nodetypes="csc" />
    <path
       style="fill:#351407;stroke:#000000;stroke-width:0.529167;stroke-linecap:butt;stroke-linejoin:round;stroke-miterlimit:4;stroke-dasharray:none;stroke-opacity:1;fill-opacity:1"
       d="m 106.77867,123.72012 c 2.38607,-0.0128 4.78106,-0.15379 7.15657,-0.41169 2.45496,-0.26653 6.16733,-1.65547 7.31491,-1.17166 0.88772,0.37425 0.37901,2.00661 -0.095,2.81831 -1.30909,2.2417 -4.12468,3.45153 -6.64992,4.05328 -2.88902,0.68843 -5.65221,0.84747 -8.48657,0.69666 -2.2533,-0.11989 -4.24609,-0.49038 -6.649913,-1.26665 -1.2379,-0.39976 -2.549752,-1.34762 -2.913295,-2.59664 -0.205436,-0.70581 0.042,-1.64504 0.601659,-2.12164 0.623009,-0.53054 1.62069,-0.31851 2.438304,-0.285 2.493125,0.1022 4.864925,0.29801 7.283245,0.28503 z"
       id="path876"
       sodipodi:nodetypes="sasasasaasss" />
    <path
       style="fill:#d2495e;stroke:#000000;stroke-width:0.264583px;stroke-linecap:butt;stroke-linejoin:miter;stroke-opacity:1;fill-opacity:1"
       d="m 99.907086,128.56506 c 0,0 1.672774,-1.17108 2.628304,-1.48831 1.67621,-0.55648 3.49073,-0.63264 5.2566,-0.665 1.30328,-0.0239 2.61308,0.11187 3.89495,0.34833 1.06796,0.197 2.11498,0.51385 3.13496,0.88666 0.5768,0.21082 1.67831,0.75999 1.67831,0.75999 l -4.24328,1.17165 -5.19327,0.34833 -3.92661,-0.53833 z"
       id="path2788"
       sodipodi:nodetypes="caaaaccccc" />
    <path
       style="fill:none;stroke:#000000;stroke-width:0.529167;stroke-linecap:butt;stroke-linejoin:round;stroke-miterlimit:4;stroke-dasharray:none;stroke-opacity:1;fill-opacity:1"
       d="m 106.77867,123.72012 c 2.38607,-0.0128 4.78106,-0.15379 7.15657,-0.41169 2.45496,-0.26653 6.16733,-1.65547 7.31491,-1.17166 0.88772,0.37425 0.37901,2.00661 -0.095,2.81831 -1.30909,2.2417 -4.12468,3.45153 -6.64992,4.05328 -2.88902,0.68843 -5.65221,0.84747 -8.48657,0.69666 -2.2533,-0.11989 -4.24609,-0.49038 -6.649913,-1.26665 -1.2379,-0.39976 -2.549752,-1.34762 -2.913295,-2.59664 -0.205436,-0.70581 0.042,-1.64504 0.601659,-2.12164 0.623009,-0.53054 1.62069,-0.31851 2.438304,-0.285 2.493125,0.1022 4.864925,0.29801 7.283245,0.28503 z"
       id="path9873"
       sodipodi:nodetypes="sasasasaasss" />
  </g>
</svg>
