<?xml version="1.0" encoding="UTF-8" standalone="no"?>
<!-- Created with Inkscape (http://www.inkscape.org/) -->

<svg
   width="840"
   height="880"
   viewBox="0 0 222.24999 232.83334"
   version="1.1"
   id="mySVG"
   inkscape:version="1.2.2 (732a01da63, 2022-12-09)"
   sodipodi:docname="mouth_open_nervous.svg"
   xmlns:inkscape="http://www.inkscape.org/namespaces/inkscape"
   xmlns:sodipodi="http://sodipodi.sourceforge.net/DTD/sodipodi-0.dtd"
   xmlns="http://www.w3.org/2000/svg"
   xmlns:svg="http://www.w3.org/2000/svg">
  <sodipodi:namedview
     id="namedview7"
     pagecolor="#ffffff"
     bordercolor="#666666"
     borderopacity="1.0"
     inkscape:showpageshadow="2"
     inkscape:pageopacity="0.0"
     inkscape:pagecheckerboard="0"
     inkscape:deskcolor="#d1d1d1"
     inkscape:document-units="mm"
     showgrid="false"
     showguides="true"
     inkscape:zoom="8.3553672"
     inkscape:cx="395.01555"
     inkscape:cy="452.04477"
     inkscape:window-width="2560"
     inkscape:window-height="1369"
     inkscape:window-x="1912"
     inkscape:window-y="-8"
     inkscape:window-maximized="1"
     inkscape:current-layer="layer1"
     inkscape:pageshadow="2"
     width="8mm"
     units="px">
    <inkscape:grid
       type="xygrid"
       id="grid9" />
  </sodipodi:namedview>
  <defs
     id="defs2">
    <inkscape:path-effect
       effect="simplify"
       id="path-effect14166"
       is_visible="true"
       lpeversion="1"
       steps="1"
       threshold="0.00243902"
       smooth_angles="360"
       helper_size="0"
       simplify_individual_paths="false"
       simplify_just_coalesce="false" />
    <inkscape:path-effect
       effect="simplify"
       id="path-effect2574"
       is_visible="true"
       lpeversion="1"
       steps="1"
       threshold="0.00243902"
       smooth_angles="360"
       helper_size="0"
       simplify_individual_paths="false"
       simplify_just_coalesce="false" />
    <inkscape:path-effect
       effect="simplify"
       id="path-effect441"
       is_visible="true"
       lpeversion="1"
       steps="1"
       threshold="0.00243902"
       smooth_angles="360"
       helper_size="0"
       simplify_individual_paths="false"
       simplify_just_coalesce="false" />
    <inkscape:path-effect
       effect="simplify"
       id="path-effect437"
       is_visible="true"
       lpeversion="1"
       steps="1"
       threshold="0.00243902"
       smooth_angles="360"
       helper_size="0"
       simplify_individual_paths="false"
       simplify_just_coalesce="false" />
  </defs>
  <g
     inkscape:label="Ebene 1"
     inkscape:groupmode="layer"
     id="layer1">
    <path
       id="path480"
       style="fill:#ffffff;fill-opacity:1;stroke:#000000;stroke-width:0.529167;stroke-linecap:round;stroke-dasharray:none"
       d="m 124.14418,123.78342 c -0.0633,4.27746 -3.77448,2.76297 -15.87193,2.83226 -12.31922,0.0706 -15.471664,0.44159 -15.396916,-2.48394 0.105981,-4.14794 -0.203333,-4.82349 15.713576,-4.38389 11.74582,0.32441 15.63873,-1.60291 15.55527,4.03557 z"
       sodipodi:nodetypes="sssss" />
    <path
       id="path5708"
       style="fill:none;stroke:#000000;stroke-width:0.264583;stroke-linecap:round;stroke-dasharray:none"
       d="m 93.013389,123.25881 c 0.715488,-0.0484 10.685011,0.10583 15.829971,0.0108 9.35496,-0.17273 13.97924,-0.20773 14.40667,-0.0163"
       sodipodi:nodetypes="csc" />
    <path
       id="path5708-7"
       style="fill:none;stroke:#000000;stroke-width:0.247653;stroke-linecap:round;stroke-dasharray:none"
       d="m 90.792324,126.57162 c -0.06434,-0.0933 -0.377836,-0.41023 -0.469548,-1.07968 -0.111779,-0.81592 0.0025,-1.52191 -0.006,-1.69129"
       sodipodi:nodetypes="csc" />
    <path
       id="path5697"
       style="fill:#00000f;stroke:#000000;stroke-width:0.267103;stroke-linecap:round"
       d="m 94.079892,123.34296 c -0.07945,1.15255 -0.372665,2.13371 -0.705882,2.13371 -0.333218,0 -0.236088,-1.07831 -0.236088,-2.2336 0,-1.15531 0.188089,-2.54826 0.503972,-2.4422 0.258444,0.12163 0.464737,1.65572 0.437998,2.54209 z m 0.09701,0.29921 c -0.07945,1.15255 -0.372665,2.13371 -0.705882,2.13371 -0.333218,0 -0.236088,-1.07831 -0.236088,-2.2336 0,-1.15531 0.188089,-2.54826 0.503972,-2.4422 0.258444,0.12163 0.464737,1.65572 0.437998,2.54209 z"
       sodipodi:nodetypes="csscc" />
    <path
       id="path5697-6"
       style="fill:#00000f;stroke:#000000;stroke-width:0.267103;stroke-linecap:round"
       d="m 122.84887,123.3175 c 0.0794,1.15255 0.37267,2.13371 0.70588,2.13371 0.33322,0 0.23609,-1.07831 0.23609,-2.2336 0,-1.15531 -0.18809,-2.54826 -0.50397,-2.4422 -0.25844,0.12163 -0.46474,1.65572 -0.438,2.54209 z m -0.097,0.29921 c 0.0795,1.15255 0.37267,2.13371 0.70588,2.13371 0.33322,0 0.23609,-1.07831 0.23609,-2.2336 0,-1.15531 -0.18809,-2.54826 -0.50397,-2.4422 -0.25844,0.12163 -0.46474,1.65572 -0.438,2.54209 z"
       sodipodi:nodetypes="csscc" />
    <path
       id="path5708-7-2"
       style="fill:none;stroke:#000000;stroke-width:0.264583;stroke-linecap:round;stroke-dasharray:none"
       d="m 126.43642,121.16879 c 0.0419,0.10527 0.27376,0.92799 0.23623,2.69975 -0.0374,1.76576 -0.5939,2.70755 -0.6233,2.87458"
       sodipodi:nodetypes="csc"
       inkscape:transform-center-x="-0.044742323"
       inkscape:transform-center-y="-0.17912669" />
  </g>
</svg>
