<?xml version="1.0" encoding="UTF-8" standalone="no"?>
<!-- Created with Inkscape (http://www.inkscape.org/) -->

<svg
   width="840"
   height="880"
   viewBox="0 0 222.24999 232.83334"
   version="1.1"
   id="mySVG"
   inkscape:version="1.1.2 (b8e25be833, 2022-02-05)"
   sodipodi:docname="head_round.svg"
   xmlns:inkscape="http://www.inkscape.org/namespaces/inkscape"
   xmlns:sodipodi="http://sodipodi.sourceforge.net/DTD/sodipodi-0.dtd"
   xmlns="http://www.w3.org/2000/svg"
   xmlns:svg="http://www.w3.org/2000/svg">
  <sodipodi:namedview
     id="namedview7"
     pagecolor="#ffffff"
     bordercolor="#666666"
     borderopacity="1.0"
     inkscape:showpageshadow="2"
     inkscape:pageopacity="0.0"
     inkscape:pagecheckerboard="0"
     inkscape:deskcolor="#d1d1d1"
     inkscape:document-units="mm"
     showgrid="true"
     showguides="true"
     inkscape:zoom="2.0888418"
     inkscape:cx="377.48191"
     inkscape:cy="351.86963"
     inkscape:window-width="1920"
     inkscape:window-height="1094"
     inkscape:window-x="-11"
     inkscape:window-y="-11"
     inkscape:window-maximized="1"
     inkscape:current-layer="layer1"
     inkscape:pageshadow="2"
     units="px"
     inkscape:guide-bbox="true">
    <inkscape:grid
       type="xygrid"
       id="grid9" />
    <sodipodi:guide
       position="71.437497,125.67709"
       orientation="0,-1"
       id="guide1575" />
  </sodipodi:namedview>
  <defs
     id="defs2">
    <inkscape:path-effect
       effect="simplify"
       id="path-effect4085"
       is_visible="true"
       lpeversion="1"
       steps="1"
       threshold="0.00243902"
       smooth_angles="360"
       helper_size="0"
       simplify_individual_paths="false"
       simplify_just_coalesce="false" />
    <inkscape:path-effect
       effect="simplify"
       id="path-effect14166"
       is_visible="true"
       lpeversion="1"
       steps="1"
       threshold="0.00243902"
       smooth_angles="360"
       helper_size="0"
       simplify_individual_paths="false"
       simplify_just_coalesce="false" />
    <inkscape:path-effect
       effect="simplify"
       id="path-effect2574"
       is_visible="true"
       lpeversion="1"
       steps="1"
       threshold="0.00243902"
       smooth_angles="360"
       helper_size="0"
       simplify_individual_paths="false"
       simplify_just_coalesce="false" />
    <inkscape:path-effect
       effect="simplify"
       id="path-effect441"
       is_visible="true"
       lpeversion="1"
       steps="1"
       threshold="0.00243902"
       smooth_angles="360"
       helper_size="0"
       simplify_individual_paths="false"
       simplify_just_coalesce="false" />
    <inkscape:path-effect
       effect="simplify"
       id="path-effect437"
       is_visible="true"
       lpeversion="1"
       steps="1"
       threshold="0.00243902"
       smooth_angles="360"
       helper_size="0"
       simplify_individual_paths="false"
       simplify_just_coalesce="false" />
  </defs>
  <g
     inkscape:label="Ebene 1"
     inkscape:groupmode="layer"
     id="layer1">
    <path
       id="head"
       style="fill:#ffe6d5;stroke:#000000;stroke-width:0.529167;stroke-linecap:round;stroke-linejoin:round;stroke-dasharray:none"
       d="m 148.27058,84.277802 c 0,7.983204 0.72113,21.470498 -3.04019,31.229978 -2.22935,5.78449 -6.26336,11.03742 -11.08664,14.9318 -7.31058,5.90266 -16.26853,11.65769 -25.66459,11.65769 -9.396053,0 -18.354003,-5.75504 -25.664577,-11.65769 -4.823283,-3.89438 -8.857301,-9.14731 -11.086652,-14.9318 -3.761322,-9.75947 -3.040194,-23.246774 -3.040194,-31.229978 0,-31.932811 17.815227,-46.177801 39.791423,-46.177799 21.97619,0 39.79142,14.24499 39.79142,46.177799 z"
       sodipodi:nodetypes="saaaaasss" />
    <path
       id="marks"
       style="display:inline;fill:#d58f73;fill-opacity:1;fill-rule:nonzero;stroke-width:0.327841;stroke-dasharray:none"
       inkscape:label="#marks"
       d="m 117.39025,38.940776 c -0.46729,0.331621 -0.535,0.815877 -0.58653,1.157035 -0.0423,0.305335 -0.0927,0.436044 -0.32814,0.707967 -0.0467,0.229174 0.24452,0.348422 0.68988,0.435116 0.19373,0.02501 0.51134,0.04863 0.87178,0.06976 -0.36303,-0.02121 -0.68246,-0.04452 -0.87695,-0.06976 -0.44256,-0.0864 -0.73247,-0.205884 -0.68626,-0.434082 -0.0619,0.07144 -0.13226,0.149199 -0.20671,0.237194 -0.29241,0.350036 -0.41246,0.897061 -0.17001,1.23455 0.31542,0.41571 0.73861,0.41095 1.19992,0.49196 0.50512,0.0887 1.27284,0.312026 2.2624,0.462504 1.5854,0.241085 2.94296,0.121903 3.49953,-0.227893 0.496,-0.311723 0.0673,-0.59118 -0.0729,-0.997355 -0.009,-0.02768 -0.0181,-0.05625 -0.0263,-0.08578 -0.0616,-0.210809 -0.0599,-0.438042 -0.007,-0.704867 0.0573,-0.236824 0.17803,-0.446481 0.2744,-0.666626 -1.87966,-0.679092 -3.82915,-1.215066 -5.83737,-1.60972 z m -19.798791,1.626257 c -2.044965,0.01755 -3.942689,0.372851 -5.04517,0.969967 -1.805804,0.978048 -1.245004,2.416083 -0.998905,4.499983 0.672149,0.2537 3.052567,0.314329 5.687508,0.82579 -2.635426,-0.51033 -5.015433,-0.569138 -5.686475,-0.820622 0.07672,0.65114 0.114202,1.238501 0.118339,1.877921 0.012,1.751157 -0.241493,2.908033 0.334347,3.461805 0.575333,0.553274 1.858942,0.413266 3.40806,0.489892 1.334785,0.06602 2.119791,0.253072 3.636471,0.649056 1.510196,0.399151 2.827156,0.647856 4.005956,0.109037 1.07421,-0.491006 1.67298,-1.546155 1.95802,-2.770373 0.1488,-0.639121 0.21848,-1.319424 0.26097,-2.014864 0.0586,-0.961765 0.15567,-3.815011 0.10335,-4.170805 -0.15647,-1.063294 -1.12005,-2.065006 -3.83284,-2.69751 -0.0821,-0.01914 -0.16523,-0.03792 -0.24908,-0.05581 -1.19399,-0.253374 -2.473574,-0.363994 -3.700551,-0.353467 z m 31.003791,2.430342 c -1.73223,4.92e-4 -4.65657,1.356305 -6.7355,2.254126 -2.13819,0.923407 -3.43597,1.324612 -3.94343,2.159559 1.6998,1.065649 4.27846,0.93077 6.40736,0.898653 -2.12936,0.03291 -4.70876,0.169273 -6.40891,-0.896586 -0.45598,0.752973 -0.36476,2.533316 0.90175,3.513997 1.38707,1.074033 2.84846,0.28568 4.52841,-0.102836 1.56902,-0.36286 3.49321,0.312446 5.58157,0.412378 1.07807,0.05159 1.97687,-0.138101 2.53214,-0.643372 0.55131,-0.501681 0.61893,-1.183544 0.42737,-1.827795 -0.18499,-0.622149 -0.59631,-1.16503 -0.81391,-1.580265 -0.25347,-0.483687 -0.28111,-0.81277 -0.29145,-1.436605 -0.008,-0.512677 -0.0409,-1.080184 -0.22428,-1.566313 -0.64074,-0.417103 -1.29486,-0.811776 -1.96112,-1.184941 z m -31.095775,3.918108 c 0.08892,0.01818 0.177879,0.03654 0.267167,0.05581 0.04395,0.0096 0.08779,0.01965 0.131775,0.02946 -0.04447,-0.0099 -0.08888,-0.01978 -0.133325,-0.02946 -0.08872,-0.01912 -0.177258,-0.03777 -0.265617,-0.05581 z M 85.044421,47.4462 c -0.774125,-0.0053 -1.609316,0.210579 -2.554882,0.679028 -1.887247,0.934965 -3.752304,2.681763 -4.489649,4.213179 2.815844,0.232677 4.435643,0.539155 6.501929,1.073837 -2.066969,-0.533709 -3.686313,-0.838553 -6.503479,-1.069702 -0.776452,1.616416 -0.309992,2.845564 0.986503,3.787365 1.113566,0.808924 3.283508,1.613117 4.809525,2.08256 1.76004,0.541434 3.396872,0.831348 5.16351,0.04393 1.724074,-0.768443 3.225733,-2.462674 3.704683,-3.832324 0.49956,-1.428591 -0.185741,-2.0732 -1.309481,-2.978118 C 90.251933,50.559232 88.930098,49.21232 87.514038,48.269922 86.721063,47.742186 85.921752,47.452216 85.044421,47.4462 Z m 51.753949,2.326473 c -0.0761,0.0015 -0.15252,0.01127 -0.22841,0.02946 -0.34823,0.08258 -0.64504,0.38374 -0.79892,0.817521 -0.22414,0.616513 -0.19894,1.466751 -0.21704,2.04277 -0.0387,1.674601 -0.35375,2.06279 -0.82941,2.661853 -0.30208,-0.408965 -0.63633,-0.704885 -1.01699,-0.897103 -0.8285,-0.418368 -1.74074,-0.286315 -2.68407,-0.204639 -0.0672,0.0059 -0.13442,0.01149 -0.20154,0.01654 -1.81925,0.12867 -3.55487,-0.698418 -4.43436,-0.545187 -0.99699,0.173705 -0.34203,1.852782 0.72709,4.298963 0.61036,0.643278 0.99897,1.23319 3.34553,2.431893 -2.34686,-1.197034 -2.73421,-1.785109 -3.34294,-2.425692 1.21173,2.77265 1.47972,3.833565 1.33376,5.705595 -0.12539,1.608271 -0.15143,2.016869 0.89246,1.812292 0.65173,-0.127715 1.29166,-0.296842 2.50217,0.04806 1.43962,0.395138 2.6101,1.104675 3.87573,1.760616 1.09131,0.565595 1.54728,0.624985 1.59164,-0.678511 0.0512,-1.504658 -0.66657,-6.58176 -1.61748,-9.333281 0.37523,0.150342 0.78558,0.323295 1.19218,0.56069 0.39225,0.225877 0.66891,0.444649 1.04438,0.7059 0.10043,0.07518 0.20461,0.143636 0.31212,0.204638 0.12161,0.069 0.24684,0.128501 0.37259,0.178801 0.28978,0.113251 0.5724,0.188242 0.84439,0.210323 0.76665,0.06416 1.2706,-0.30497 1.77871,-0.754476 l 0.003,-0.0036 c 0.3261,-0.318481 0.60166,-0.623324 0.88367,-0.907955 0.0853,-0.07918 0.17466,-0.165901 0.26251,-0.252181 -1.49196,-2.788393 -3.23553,-5.259031 -5.19606,-7.419186 -0.13152,-0.04042 -0.26319,-0.06662 -0.39481,-0.06408 z m -16.72043,3.821988 c -0.21988,0.0012 -0.4959,0.158927 -0.80667,0.7922 -0.46283,0.943154 -0.24369,1.634321 0.73846,2.163176 0.66549,0.358339 1.04808,0.460725 1.68775,0.929659 0.62355,0.459089 1.03469,1.096763 1.40922,1.150834 0.38475,0.05554 0.74156,-0.533229 1.20974,-1.4981 0.69166,-1.424863 1.15142,-2.455207 1.00098,-2.696993 -0.15532,-0.249597 -1.15299,-0.283373 -1.70481,-0.38654 0.011,0.06629 -0.0388,0.144702 -0.12299,0.233578 -0.15845,0.173543 -0.59145,0.517625 -0.99167,0.820622 0.40119,-0.30415 0.83524,-0.649713 0.9927,-0.823206 0.0827,-0.08792 0.13149,-0.165329 0.12041,-0.230994 -0.0451,-0.0084 -0.0886,-0.01774 -0.13074,-0.02687 -0.62056,-0.133141 -0.76003,-0.294678 -1.60869,-0.274402 -0.66862,0.01597 -1.24767,0.04189 -1.53066,-0.08733 -0.0751,-0.03429 -0.1631,-0.06614 -0.26303,-0.06563 z m 17.0248,1.466578 c 0.0696,-9.68e-4 0.13743,0.0042 0.20309,0.01654 0.14927,0.04017 0.29974,0.08296 0.45734,0.116272 0.0945,0.01726 0.1934,0.04333 0.29765,0.07596 -0.10424,-0.03254 -0.20313,-0.05827 -0.29765,-0.07545 -0.15757,-0.03316 -0.3081,-0.07623 -0.45734,-0.116272 -0.12923,-0.02426 -0.26583,-0.01931 -0.41186,0.0031 0.0716,-0.01095 0.14152,-0.01922 0.20877,-0.02015 z m -0.22892,0.02325 c -0.0558,0.0091 -0.11389,0.02201 -0.1726,0.03566 0.0583,-0.01352 0.11724,-0.02663 0.1726,-0.03566 z m -0.38913,0.09147 c -0.0257,0.0072 -0.0497,0.01306 -0.076,0.02067 -0.44629,0.135143 -0.94215,0.304643 -1.50224,0.393774 -3.5e-4,-5.59e-4 -7.4e-4,-0.001 -0.001,-0.0015 0.56045,-0.08896 1.05667,-0.258147 1.50327,-0.393258 0.0268,-0.0077 0.0498,-0.01232 0.076,-0.01964 z m -60.44282,0.518832 c -0.215734,-0.0026 -0.424385,0.02332 -0.629936,0.06253 -1.108998,1.871858 -2.095694,3.900763 -2.950724,6.086967 0.560201,0.336311 1.390769,0.685399 2.245858,1.187525 0.901909,-0.152315 1.964336,-0.949906 2.971395,-1.791622 -1.005953,0.84239 -2.066468,1.640885 -2.967261,1.793689 1.445965,0.849434 2.962031,1.966271 4.611088,2.42104 1.592319,0.439128 3.009779,0.153801 3.932577,-0.523999 0.919922,-0.675651 1.256322,-1.696492 0.879016,-2.927986 -0.38653,-1.261547 -1.411953,-2.446295 -2.788461,-3.577043 -1.225343,-1.006562 -3.044354,-2.260521 -4.430737,-2.612244 -0.29962,-0.07601 -0.590773,-0.115406 -0.872815,-0.118855 z m 22.106661,0.866613 c -1.438198,0.04494 -2.893561,0.08743 -4.323767,0.141077 -0.272922,0.01021 -0.511598,0.614075 -0.50953,1.104842 7.23e-4,0.169955 0.0065,0.349418 0.05529,0.540536 0.08251,0.321915 0.40088,0.649562 0.905371,0.964282 0.484722,0.302385 1.036626,0.523818 1.276408,0.536401 1.870938,0.09817 2.234731,-0.30378 3.149162,-0.527616 0.135851,-0.03326 0.389268,-0.603885 0.325045,-1.162203 -0.02213,-0.192855 -0.04504,-0.356187 -0.07597,-0.547253 -0.09306,-0.575979 -0.471893,-1.060381 -0.802018,-1.050066 z m -9.219592,2.702161 c -0.09038,2.7e-5 -0.189703,0.003 -0.29869,0.0093 -0.828844,0.04718 -1.998016,0.285285 -2.815849,0.66921 -0.837127,0.392974 -1.180287,0.872013 -1.185457,1.390096 0.863744,-0.06582 1.848289,-0.09695 2.835486,-0.136426 -0.987186,0.03987 -1.972083,0.07176 -2.835486,0.137976 -0.0052,0.496806 0.292388,0.977474 0.842842,1.28881 0.55916,0.316261 1.502756,0.522018 2.586406,0.538985 1.103246,0.01724 2.031165,-0.175274 2.371948,-0.630452 0.343825,-0.459234 0.03004,-1.058908 -0.230993,-1.613338 -0.388743,-0.825899 -0.232154,-0.689575 -0.376722,-1.258321 -0.06318,-0.248326 -0.260858,-0.396026 -0.893485,-0.395842 z m 12.614731,1.308964 c -0.97418,0.01021 -2.248884,0.369613 -3.548618,0.527616 -1.61483,0.196313 -3.149622,-0.173725 -4.424019,0.08217 -1.336926,0.268447 -2.18659,1.469696 -2.43396,3.323311 1.471214,-0.900786 3.054996,-1.075596 4.576981,-1.115694 -1.522388,0.04079 -3.106624,0.216767 -4.578015,1.119828 -0.246151,1.853491 0.240035,2.768689 0.84646,2.703711 0.651417,-0.0698 1.618554,-0.779458 2.99775,-0.92139 1.379208,-0.141933 3.105415,0.04611 4.509802,-0.382406 1.418899,-0.432933 2.506869,-1.46 3.152259,-2.695959 0.64615,-1.237363 0.61114,-2.273611 -0.35656,-2.555917 -0.21964,-0.06406 -0.46931,-0.08814 -0.74208,-0.08527 z m 39.09116,0.453202 c -0.4388,0.0032 -0.86762,0.07412 -1.27693,0.210324 -0.53627,0.17845 -0.56832,1.179351 -0.30799,2.291849 0.26032,1.112496 0.6924,2.37677 0.91726,3.610633 0.0236,0.12914 0.0443,0.257395 0.0625,0.384472 0.18286,1.27772 0.18912,2.073574 0.51469,2.763656 0.2899,0.614428 0.86931,1.076965 1.40922,1.136881 1.0765,0.119468 2.06056,0.422752 3.0148,0.655258 0.33403,0.08196 0.65181,0.151015 0.93896,0.185518 0.4031,0.04844 0.4181,-0.647249 0.33952,-1.614372 -0.0768,-0.945717 -0.2227,-2.000248 -0.29404,-2.974495 -0.007,-0.101953 -0.0134,-0.203336 -0.0186,-0.304374 -0.0324,-0.690164 -0.0613,-1.278795 -0.18861,-1.907894 -0.14644,-0.485984 -0.2991,-0.964767 -0.45734,-1.437122 -0.32138,-0.736532 -0.76315,-1.431532 -1.19528,-1.715141 -0.39051,-0.256294 -0.80316,-0.525627 -1.22369,-0.735872 -0.74422,-0.373387 -1.50316,-0.554651 -2.23449,-0.549321 z M 74.339132,64.06844 c -0.737862,-0.004 -1.507187,0.211458 -2.123902,0.561206 -0.336386,0.190773 -0.667342,0.438595 -0.966866,0.716752 -0.18476,0.607805 -0.360735,1.225355 -0.526583,1.854667 0.995407,0.548448 1.732128,1.038184 2.442745,1.532723 -0.710858,-0.493813 -1.447776,-0.98294 -2.443261,-1.530656 -0.183025,0.694603 -0.355787,1.400892 -0.515214,2.121834 0.102562,0.290374 0.227495,0.596809 0.368969,0.928109 0.50079,1.172707 0.543865,2.187963 0.411345,2.928504 -0.109763,0.613362 0.109768,1.315714 1.677417,0.378788 1.551175,-0.927087 2.484379,-2.565849 2.689241,-4.261756 0.236378,-1.956786 -0.14628,-1.890267 0.550871,-2.878894 0.44575,-0.632096 0.749144,-1.494521 -0.153479,-2.007112 -0.416197,-0.236356 -0.906429,-0.341462 -1.411283,-0.344165 z m 5.08341,3.175517 c -0.497026,1.01e-4 -1.126556,0.113948 -1.685168,0.286804 -0.774094,0.239536 -1.079902,0.453454 -1.1467,0.637687 0.20694,0.171093 0.451046,0.296576 0.706933,0.393258 -0.255898,-0.09649 -0.500008,-0.2216 -0.706933,-0.392741 -0.07207,0.199867 0.02468,0.572492 0.06408,1.029911 0.03702,0.429817 -0.09494,0.763629 0.01705,0.860413 0.07548,0.06523 0.695273,0.06952 1.815393,-0.10542 1.169517,-0.182642 2.013064,-0.480635 2.124418,-0.911056 0.100096,-0.386791 -0.349942,-0.709646 -0.373621,-0.983402 -0.02234,-0.258298 0.227892,-0.581228 -0.239261,-0.740524 -0.152311,-0.05193 -0.350267,-0.07498 -0.576193,-0.07493 z M 142.274,72.144434 c -0.17455,0.03572 -0.33552,0.07061 -0.48576,0.106453 -1.83347,0.442048 -3.62188,1.276181 -4.1646,2.461349 0.26902,0.524369 0.59404,1.283913 0.89142,1.976623 0.58177,1.282433 1.30905,2.511525 0.96118,3.532084 0.49201,0.535781 0.98494,1.188017 1.81539,1.44539 0.57195,0.187064 1.22298,0.05899 1.83555,-0.19637 0.38537,-0.161406 0.74835,-0.354338 1.11156,-0.547771 0.29868,-1.296506 0.2218,-2.469407 0.0822,-3.878316 -0.0566,-0.77119 -0.0115,-1.471172 0.22996,-2.105814 -0.0146,-0.893044 -0.15933,-1.457842 -0.75758,-1.967839 -0.30077,-0.294236 -0.7098,-0.524132 -1.51929,-0.825789 z m -66.641924,2.516125 c -0.136698,-3.1e-4 -0.285436,0.0052 -0.485242,0.03617 -0.273437,0.04249 -0.689354,0.142432 -1.095023,0.327628 -0.949113,0.433215 -1.152031,0.944416 -0.944129,1.836064 0.422793,0.521227 0.623051,0.760247 1.654163,0.804602 -1.031215,-0.04352 -1.231711,-0.282011 -1.653646,-0.802535 0.212711,0.91054 0.459636,2.289051 0.406694,3.613733 -0.05832,1.459019 0.07508,2.2235 1.118278,2.375565 0.455509,0.0664 0.998292,-0.02727 1.497583,-0.260966 0.495123,-0.216414 1.043344,-0.46552 1.370459,-0.809769 0.615577,-0.790804 0.166513,-2.602644 0.05013,-4.228166 -0.09627,-1.343527 0.190144,-1.410086 0.412378,-1.640727 0.121715,-0.126319 -0.08254,-0.49483 -1.038697,-0.965832 -0.395815,-0.193872 -0.72586,-0.257051 -0.95653,-0.275952 -0.07879,-0.0064 -0.147355,-0.0083 -0.202055,-0.0088 -0.04447,-5.91e-4 -0.08876,-9.34e-4 -0.134359,-0.001 z m -3.854545,2.573486 c -0.425937,0.0046 -1.253461,0.248722 -1.816943,0.462504 -0.577944,0.21928 -0.838457,0.389978 -0.930693,0.561723 0.02636,0.0033 0.05357,0.0065 0.08113,0.0093 -0.02774,-0.0028 -0.05459,-0.0055 -0.08113,-0.0088 -0.09191,0.171759 -0.04779,0.361673 0.133325,0.510046 0.177791,0.145648 0.496131,0.254974 0.805119,0.296623 0.325636,0.04388 0.676504,0.01298 1.026294,-0.101286 0.324965,-0.106154 0.485021,-0.237469 0.515731,-0.387056 0.03071,-0.149586 0.10884,-0.3882 0.327112,-0.703833 0.233741,-0.338008 0.420135,-0.626503 -0.02015,-0.638721 -0.01292,-3.58e-4 -0.02603,-6.67e-4 -0.03979,-5.17e-4 z m 75.076559,0.918291 c -0.6431,0.01328 -1.00759,0.624459 -1.28468,1.156518 -0.0313,0.06028 -1.12427,1.984272 -1.3038,2.520777 1.13765,1.169424 2.05577,1.586109 2.74247,2.287198 -0.68679,-0.699773 -1.60511,-1.114859 -2.7435,-2.284098 -0.41556,1.244783 -0.17176,2.510355 0.46457,4.241602 0.61088,1.662013 0.98142,2.433065 1.17512,2.477368 0.43106,0.09859 0.6096,-0.322191 1.68465,0.522965 0.30537,0.240076 0.54108,0.478818 0.72347,0.640788 -0.016,-1.970475 -0.0418,-3.835544 -0.0418,-5.437394 0,-1.295721 -0.0322,-2.559478 -0.0899,-3.797184 -0.25052,-1.707639 -0.65653,-2.304174 -1.26349,-2.328024 -0.0213,-8.39e-4 -0.0422,-9.44e-4 -0.063,-5.16e-4 z m -77.649012,4.767667 c -0.179239,6.19e-4 -0.346598,0.02662 -0.505912,0.06976 -0.0065,0.426608 -0.01137,0.855187 -0.01137,1.288294 0,0.135403 -0.0027,0.300208 -0.0031,0.438733 0.362445,0.170186 0.807897,0.295289 1.457276,0.411861 -0.649473,-0.116281 -1.094962,-0.240932 -1.457276,-0.410828 -0.0027,0.966422 -0.01144,1.993534 -0.02325,3.094385 0.07655,-0.02623 0.149879,-0.05169 0.254248,-0.0863 0.268609,-0.08908 0.57142,-0.193102 0.923975,-0.280086 0.879709,-0.213772 1.765045,-0.162913 2.778641,-0.03617 1.123295,0.139046 1.982606,0.243837 2.737818,0.03307 0.715144,-0.199577 0.76157,-0.437676 0.989087,-0.937411 0.376138,-0.826169 0.103253,-2.346786 -0.419096,-2.4722 -0.568115,-0.136403 -1.197459,0.76073 -2.369365,0.426847 -0.138796,-0.03956 -0.277558,-0.08311 -0.418062,-0.132292 -0.604316,-0.211551 -1.031478,-0.438595 -1.66088,-0.741557 -0.851636,-0.4081 -1.624324,-0.66835 -2.27273,-0.666109 z m 1.458309,2.294434 c 0.09999,0.01519 0.20379,0.03012 0.312126,0.04547 0.07217,0.01053 0.145082,0.02152 0.218074,0.03307 -0.073,-0.01154 -0.145879,-0.02203 -0.218074,-0.03256 -0.108346,-0.0153 -0.212155,-0.03084 -0.312126,-0.04599 z m -2.021582,4.982125 c -0.01082,1.586153 -0.01359,3.228368 0.01757,4.955253 0.120289,-9.21e-4 0.272968,-0.02105 0.485758,-0.06873 0.913295,-0.204669 1.805669,-0.796001 1.822628,-1.733227 0.01623,-0.892462 -0.955222,-1.610677 -1.611788,-2.280481 -0.306214,-0.312384 -0.529266,-0.613065 -0.714168,-0.872815 z m 2.072225,5.654952 c -0.464826,0 -0.509094,0.02532 -0.361735,0.08733 0.112834,-0.03606 0.232567,-0.06615 0.361735,-0.08733 z m -0.361735,0.08733 c -1.181702,0.377662 -1.496593,1.510748 -1.595768,2.325439 0.02316,0.541741 0.0507,1.084238 0.08268,1.630392 0.450268,1.176625 1.520305,1.175525 0.907438,3.479375 -0.217539,0.81772 2.982705,0.18991 2.439128,-0.6475 0.02037,-1.21597 -1.323746,-1.53529 -1.038697,-2.812755 0.09327,-0.480726 1.262774,-0.646917 1.332219,-2.300635 0.0453,-1.078985 -1.744633,-1.513409 -2.127002,-1.674316 z m 77.279525,4.558896 c -0.008,-0.002 -0.0147,-0.002 -0.0145,0.004 v 5.1e-4 c 0.032,0.83247 -2.37468,1.44237 -3.4277,2.66392 -0.8419,0.97663 -2.07117,2.53269 -2.59106,3.41375 1.09294,0.21659 2.35699,-0.0635 3.30678,-0.0837 -0.9503,0.0212 -2.2149,0.30271 -3.30884,0.0868 -0.72981,1.23797 -0.92405,2.32962 -0.18449,2.96209 0.62493,0.53445 1.96992,0.62531 2.54972,0.67645 0.70554,0.0623 1.26398,0.0564 1.98902,-0.54002 0.78113,-0.64259 1.03043,-1.32807 1.03456,-2.0867 0.004,-0.74495 0.13893,-1.84169 0.64751,-3.53156 0.0808,-0.26862 0.15594,-0.53138 0.22686,-0.7891 0.0833,-0.84754 0.14961,-1.69536 0.2067,-2.54145 -0.0888,-0.13392 -0.22053,-0.21651 -0.41031,-0.22893 -0.006,-4.2e-4 -0.0161,-0.004 -0.0243,-0.006 z m -75.606242,4.78214 c -0.390544,0.002 -0.896688,0.12153 -1.285193,0.36949 -0.915673,1.38003 -0.409198,0.82836 -0.91519,2.1239 0.19812,1.04926 0.270109,0.55363 0.515214,1.52393 0.338448,0.53682 -6.82e-4,0.90444 0.362252,0.83406 0.365519,-0.0709 0.935231,0.17118 1.147734,-0.0661 0.270647,-0.30225 -0.45849,-0.90381 -0.424781,-1.63815 0.0365,-0.79603 0.288721,-1.19696 0.68678,-1.86913 0.343173,-0.57947 0.754834,-0.98855 0.398425,-1.18856 -0.107683,-0.0604 -0.28067,-0.0908 -0.485241,-0.0894 z m 69.978672,7.10137 c -0.15446,0.005 -0.33258,0.0429 -0.54053,0.11214 -0.61621,0.20545 -1.29058,0.38565 -2.02417,0.5178 -0.9914,0.17861 -1.66382,0.54545 -1.54616,1.23507 0.0917,0.53739 0.26632,1.1469 0.38602,1.75493 0.0935,0.47483 0.36733,1.11461 0.7426,1.61282 0.20205,0.26962 0.42279,0.49124 0.68264,0.65009 0.63763,0.38982 1.17146,0.55776 1.78749,0.78083 0.7554,0.27351 1.58062,0.15846 2.10788,-0.36484 0.1584,-0.15721 0.3011,-0.30992 0.43408,-0.46818 0.20317,-0.40956 0.39775,-0.82236 0.58291,-1.23869 9.2e-4,-0.0322 0.006,-0.0618 0.005,-0.0951 -0.018,-0.6203 -0.39332,-1.33644 -0.75499,-1.88929 -0.38505,-0.58862 -0.70637,-1.20612 -0.92656,-1.77664 -0.22053,-0.57148 -0.47298,-0.84624 -0.93638,-0.83096 z m -3.15123,8.58553 c -0.0248,-0.0504 -1.00981,0.54548 -1.17305,1.15496 -0.37432,1.39578 -1.66019,2.37619 -2.24276,3.699 -0.26711,0.60652 -0.37651,1.73013 0.5085,2.02365 0.0519,0.17758 0.19248,0.49755 0.12454,0.82631 -0.008,0.0412 -0.009,0.0748 -0.0155,0.11317 1.07034,-0.99012 2.09011,-2.04744 3.04685,-3.1626 0.002,-0.0201 0.002,-0.043 0.005,-0.0625 0.0833,-0.60666 0.74641,-1.16066 1.40198,-1.68051 0.55953,-0.73667 1.09211,-1.49288 1.59318,-2.26808 -0.0551,-0.0375 -0.14424,-0.0548 -0.28318,-0.0434 -0.30469,0.0494 -0.62023,0.0899 -1.01183,0.0672 -0.11894,-0.003 -0.26052,-0.0188 -0.42529,-0.0444 -0.15063,-0.0402 -0.27488,-0.0974 -0.37621,-0.17105 -0.17394,-0.0822 -0.17487,-0.21328 -0.34778,-0.26872 -0.21017,-0.0748 -0.3861,-0.18549 -0.78548,-0.17777 -0.006,-0.002 -0.0122,-0.004 -0.0181,-0.005 z" />
    <path
       id="unshaven"
       style="fill:#ac9d93;fill-opacity:1;stroke:none;stroke-width:0.999999px;stroke-linecap:butt;stroke-linejoin:miter;stroke-opacity:1;opacity:0.5"
       d="m 259.5,359.62891 c 0.45996,25.48738 2.73774,53.94678 11.59766,76.93554 C 279.52355,458.42709 294.77027,478.28108 313,493 c 27.63052,22.30923 61.48736,44.06055 97,44.06055 35.51267,0 69.36946,-21.75128 97,-44.06055 18.22972,-14.71892 33.47645,-34.57291 41.90234,-56.43555 4.49878,-11.67295 7.29463,-24.75734 9.02344,-38.14648 l 1.71484,-36.01563 c 10e-6,0 -4.02368,31.98076 -14.64062,42.59766 -2.50001,2.5 -20.00001,10.375 -45.00001,11.62499 -25,1.25 -57.5,-4.125 -90,-4.125 -32.5,0 -65,5.375 -89.99999,4.125 C 295,415.375 277.5,407.5 275,405 263.6991,393.69911 259.5,359.62891 259.5,359.62891 Z"
       transform="scale(0.26458333)"
       sodipodi:nodetypes="csssssccsssssc" />
    <path
       id="path749"
       style="fill:none;stroke:#000000;stroke-width:0.529167;stroke-linecap:round;stroke-linejoin:round;stroke-dasharray:none"
       d="m 148.27058,84.277802 c 0,7.983204 0.72113,21.470498 -3.04019,31.229978 -2.22935,5.78449 -6.26336,11.03742 -11.08664,14.9318 -7.31058,5.90266 -16.26853,11.65769 -25.66459,11.65769 -9.396053,0 -18.354003,-5.75504 -25.664577,-11.65769 -4.823283,-3.89438 -8.857301,-9.14731 -11.086652,-14.9318 -3.761322,-9.75947 -3.040194,-23.246774 -3.040194,-31.229978 0,-31.932811 17.815227,-46.177801 39.791423,-46.177799 21.97619,0 39.79142,14.24499 39.79142,46.177799 z"
       sodipodi:nodetypes="saaaaasss" />
  </g>
</svg>
