<?xml version="1.0" encoding="UTF-8" standalone="no"?>
<!-- Created with Inkscape (http://www.inkscape.org/) -->

<svg
   width="840"
   height="880"
   viewBox="0 0 222.24999 232.83334"
   version="1.1"
   id="mySVG"
   inkscape:version="1.1.2 (b8e25be833, 2022-02-05)"
   sodipodi:docname="head_oval.svg"
   xmlns:inkscape="http://www.inkscape.org/namespaces/inkscape"
   xmlns:sodipodi="http://sodipodi.sourceforge.net/DTD/sodipodi-0.dtd"
   xmlns="http://www.w3.org/2000/svg"
   xmlns:svg="http://www.w3.org/2000/svg">
  <sodipodi:namedview
     id="namedview7"
     pagecolor="#ffffff"
     bordercolor="#666666"
     borderopacity="1.0"
     inkscape:showpageshadow="2"
     inkscape:pageopacity="0.0"
     inkscape:pagecheckerboard="0"
     inkscape:deskcolor="#d1d1d1"
     inkscape:document-units="mm"
     showgrid="false"
     showguides="true"
     inkscape:zoom="2.0888418"
     inkscape:cx="439.23862"
     inkscape:cy="407.4028"
     inkscape:window-width="1920"
     inkscape:window-height="1094"
     inkscape:window-x="-11"
     inkscape:window-y="-11"
     inkscape:window-maximized="1"
     inkscape:current-layer="layer1"
     inkscape:pageshadow="2"
     units="px">
    <inkscape:grid
       type="xygrid"
       id="grid9" />
  </sodipodi:namedview>
  <defs
     id="defs2">
    <inkscape:path-effect
       effect="simplify"
       id="path-effect4085"
       is_visible="true"
       lpeversion="1"
       steps="1"
       threshold="0.00243902"
       smooth_angles="360"
       helper_size="0"
       simplify_individual_paths="false"
       simplify_just_coalesce="false" />
    <inkscape:path-effect
       effect="simplify"
       id="path-effect14166"
       is_visible="true"
       lpeversion="1"
       steps="1"
       threshold="0.00243902"
       smooth_angles="360"
       helper_size="0"
       simplify_individual_paths="false"
       simplify_just_coalesce="false" />
    <inkscape:path-effect
       effect="simplify"
       id="path-effect2574"
       is_visible="true"
       lpeversion="1"
       steps="1"
       threshold="0.00243902"
       smooth_angles="360"
       helper_size="0"
       simplify_individual_paths="false"
       simplify_just_coalesce="false" />
    <inkscape:path-effect
       effect="simplify"
       id="path-effect441"
       is_visible="true"
       lpeversion="1"
       steps="1"
       threshold="0.00243902"
       smooth_angles="360"
       helper_size="0"
       simplify_individual_paths="false"
       simplify_just_coalesce="false" />
    <inkscape:path-effect
       effect="simplify"
       id="path-effect437"
       is_visible="true"
       lpeversion="1"
       steps="1"
       threshold="0.00243902"
       smooth_angles="360"
       helper_size="0"
       simplify_individual_paths="false"
       simplify_just_coalesce="false" />
  </defs>
  <g
     inkscape:label="Ebene 1"
     inkscape:groupmode="layer"
     id="layer1">
    <path
       id="head"
       style="fill:#ffe6d5;stroke:#000000;stroke-width:0.529167;stroke-linecap:round;stroke-linejoin:round;stroke-dasharray:none"
       d="m 148.27058,84.277802 c 0,7.983204 -1.74705,16.115198 -4.09852,23.821648 -2.38222,7.80722 -4.26931,16.55553 -10.02831,22.34013 -6.62926,6.65873 -16.26853,11.65769 -25.66459,11.65769 -9.396053,0 -19.035316,-4.99896 -25.664577,-11.65769 -5.758997,-5.7846 -7.646095,-14.53291 -10.028319,-22.34013 -2.351476,-7.70645 -4.098527,-15.838444 -4.098527,-23.821648 0,-31.932811 17.815227,-46.177801 39.791423,-46.177799 21.97619,0 39.79142,14.24499 39.79142,46.177799 z"
       sodipodi:nodetypes="saaaaasss" />
    <path
       id="marks"
       style="display:inline;fill:#d58f73;fill-opacity:1;fill-rule:nonzero;stroke-width:0.356558;stroke-dasharray:none"
       inkscape:label="marks"
       d="m 99.115397,32.077112 c -0.389792,0.0232 -0.82509,0.0447 -1.221114,0.06408 0.39589,-0.01944 0.831724,-0.04084 1.221114,-0.06408 z m 13.713893,6.217708 c 0.0135,0.315514 0.0258,0.760496 0.0377,0.960148 0.0458,0.763947 0.12088,1.511738 0.28112,2.213819 0.30693,1.344815 0.95119,2.503849 2.10788,3.043225 1.26932,0.591897 2.6878,0.318064 4.31395,-0.120406 1.63315,-0.434993 2.47875,-0.640615 3.91604,-0.713135 1.66806,-0.08417 3.05003,0.06983 3.66955,-0.537952 0.18618,-0.182663 0.28611,-0.432472 0.34313,-0.734322 -4.44471,-2.28562 -9.40292,-3.637582 -14.66939,-4.111377 z m -13.479282,0.689881 c -0.273431,0.05524 -0.546296,0.111594 -0.817521,0.172082 -0.61008,0.258784 -1.292127,0.408232 -2.001428,0.501261 -2.790584,0.773778 -5.448598,1.840011 -7.936467,3.20859 1.783817,-0.229794 3.426857,-0.664936 4.810559,-0.338481 1.808954,0.426788 3.382097,1.293007 4.875672,0.113172 1.262668,-0.997423 1.439423,-2.746102 1.069185,-3.656624 z m -0.83044,0.175183 c -0.665726,0.148693 -1.324353,0.314053 -1.976107,0.494543 0.699863,-0.09293 1.372954,-0.2402 1.976107,-0.494543 z m 29.774922,3.667476 c -0.14687,0.127974 -0.30088,0.268591 -0.44131,0.383956 -1.21003,0.994062 -1.94765,1.702318 -1.40974,3.271635 0.51572,1.504572 2.13245,3.365421 3.98891,4.209562 1.9023,0.864992 3.66468,0.546195 5.55987,-0.04858 0.45098,-0.141531 0.95517,-0.312889 1.47277,-0.502295 -2.67558,-3.018486 -5.7634,-5.450151 -9.1705,-7.314282 z m 6.9355,2.544031 c -0.31778,0.08371 -0.64548,0.172727 -0.98805,0.267167 0.34268,-0.09466 0.67017,-0.183237 0.98805,-0.267167 z m -38.307224,0.199988 c -0.107612,-5.7e-4 -0.202874,0.03416 -0.283704,0.07183 -0.30471,0.14194 -0.927997,0.114175 -1.647961,0.09663 -0.913835,-0.02227 -1.063993,0.155016 -1.76625,0.299538 -0.702258,0.144521 -1.776881,0.18127 -1.944118,0.455454 -0.161993,0.265605 0.333199,1.397385 1.077971,2.96261 0.504126,1.05992 0.888467,1.706905 1.302762,1.645895 0.403283,-0.0594 0.84579,-0.759692 1.517221,-1.264006 0.688776,-0.515128 1.100868,-0.628003 1.81746,-1.021643 1.057566,-0.580952 1.293153,-1.339502 0.794783,-2.375566 -0.334629,-0.695657 -0.631404,-0.869447 -0.868164,-0.870747 z m -6.982003,0.08992 c -0.992844,-0.03938 -2.750799,0.751079 -4.587317,0.618566 -0.07226,-0.0055 -0.144154,-0.0121 -0.216524,-0.0186 -0.502138,-0.04435 -0.995932,-0.101783 -1.474845,-0.09353 -1.357319,1.090348 -2.642494,2.294115 -3.846277,3.614766 0.09656,-0.04125 0.19684,-0.08753 0.289905,-0.125574 -1.02393,3.022571 -1.796606,8.600241 -1.741496,10.253121 0.04777,1.431905 0.538491,1.366485 1.71359,0.745174 1.362825,-0.720557 2.62322,-1.500186 4.173389,-1.934248 1.303457,-0.378885 1.99265,-0.193006 2.694409,-0.05271 1.12406,0.224729 1.096208,-0.223874 0.961182,-1.990577 -0.157171,-2.056443 0.131306,-3.222052 1.360592,-6.091878 1.229286,-2.869827 1.93505,-4.714567 0.861495,-4.905383 -0.05919,-0.01052 -0.121913,-0.01649 -0.188103,-0.01912 z m 30.595037,3.169315 c -0.35547,-0.01133 -0.76336,0.5207 -0.86352,1.153418 -0.0332,0.209889 -0.0579,0.389144 -0.0816,0.600997 -0.0691,0.613318 0.20357,1.239878 0.34985,1.276408 0.98466,0.245885 1.37641,0.688167 3.39101,0.580326 0.25819,-0.01382 0.85264,-0.256938 1.37459,-0.589111 0.54322,-0.345723 0.88634,-0.706256 0.97514,-1.059884 0.0532,-0.209945 0.0581,-0.406549 0.0589,-0.593245 0.002,-0.539114 -0.25441,-1.20267 -0.54829,-1.21388 -1.54003,-0.05892 -3.10742,-0.105669 -4.65604,-0.155029 z m 17.78599,2.316655 c -1.32449,1.161236 -2.30848,2.37405 -2.69493,3.660758 -0.40628,1.352807 -0.0438,2.474132 0.94672,3.216341 0.99366,0.744569 2.51925,1.058062 4.23385,0.575676 0.64313,-0.180942 1.267,-0.459134 1.87585,-0.782381 -1.26881,-2.46328 -2.73059,-4.68463 -4.36149,-6.670394 z m -7.85844,0.651639 c -0.68121,-2.02e-4 -0.89379,0.161811 -0.96169,0.434599 -0.15567,0.624773 0.0129,0.475087 -0.40566,1.382345 -0.28107,0.609046 -0.61879,1.267512 -0.24857,1.771985 0.36695,0.500017 1.3659,0.711911 2.55385,0.692981 1.16687,-0.01864 2.18275,-0.244797 2.78484,-0.592212 0.59273,-0.342005 0.74984,-0.877956 0.90744,-1.415935 1.5e-4,-4.96e-4 -2.3e-4,-0.0011 0,-0.0016 0.31557,-0.646199 -0.25917,-1.100178 -1.27641,-1.527038 -0.90035,-0.377812 -2.13936,-0.683009 -3.03185,-0.734839 -0.11736,-0.0069 -0.22465,-0.01031 -0.32195,-0.01034 z m -13.58366,1.437639 c -0.29372,-0.0032 -0.56191,0.02368 -0.7984,0.09405 -1.04201,0.310117 -1.08025,1.448327 -0.38448,2.80758 0.69496,1.357715 1.86678,2.485996 3.39463,2.961577 1.51222,0.47072 3.37093,0.264214 4.85603,0.420129 1.48511,0.155914 2.5268,0.935662 3.22823,1.012341 0.65299,0.07138 1.17662,-0.934284 0.91039,-2.972755 -0.26623,-2.038471 -1.18129,-3.357788 -2.62088,-3.65268 -1.37224,-0.281103 -3.02524,0.125735 -4.76405,-0.08992 -1.39955,-0.173569 -2.77249,-0.569116 -3.82147,-0.580326 z m -40.460582,0.915189 c -2.17449,3.28542 -3.950764,7.096535 -5.249809,11.454598 0.704567,-0.184193 1.424685,-0.362054 2.197799,-0.449585 0.581376,-0.06582 1.205588,-0.574064 1.517737,-1.249019 0.350573,-0.758062 0.357084,-1.632403 0.553971,-3.03599 0.01959,-0.139595 0.04179,-0.280334 0.06718,-0.422197 0.242125,-1.355409 0.707748,-2.744078 0.988053,-3.966166 0.230586,-1.005279 0.247455,-1.926812 -0.07493,-2.331641 z m 64.280832,6.413562 c -0.24327,-6e-5 -0.45664,0.02563 -0.62063,0.08268 -0.50303,0.174988 -0.23335,0.529127 -0.25735,0.81287 -0.0255,0.300725 -0.51033,0.65566 -0.40256,1.080554 0.1199,0.472821 1.02838,0.800339 2.28771,1.000973 1.20612,0.192163 1.87311,0.187405 1.95441,0.115755 0.12063,-0.106319 -0.0212,-0.473521 0.0186,-0.945679 0.0424,-0.502478 0.14633,-0.911124 0.0716,-1.122352 -0.0748,-0.211227 -0.40388,-0.446446 -1.23741,-0.709577 -0.60152,-0.189885 -1.27916,-0.315116 -1.81436,-0.315227 z m -68.271414,5.371938 c -0.54203,0.149442 -0.718335,0.595414 -1.042186,0.918635 -0.644196,0.560237 -0.800161,1.180608 -0.815971,2.161625 0.260013,0.697161 0.308947,1.465878 0.248047,2.313037 -0.150359,1.5477 -0.67025,3.059379 0.08785,4.260722 0.238362,0.377727 0.78238,0.424207 1.197343,0.601513 0.659606,0.280516 1.360752,0.4215 1.976624,0.216008 0.894226,-0.282726 1.865168,-0.605109 1.954402,-1.588017 0.08923,-0.982908 0.408643,-2.471102 1.035079,-3.879867 0.320211,-0.760948 1.198529,-1.416782 0.960148,-2.171443 -0.525757,-1.664426 -2.832356,-2.140488 -4.48448,-2.703711 -0.354697,-0.120919 -0.574823,-0.277944 -1.116856,-0.128502 z m 72.352814,2.775369 c -0.0491,1e-4 -0.0968,3.84e-4 -0.14469,0.001 -0.0589,6e-4 -0.13276,0.0027 -0.21756,0.0098 -0.24839,0.02076 -0.6037,0.09037 -1.02991,0.30334 -1.02963,0.517401 -1.24935,0.921638 -1.11828,1.060401 0.23929,0.25336 0.54756,0.327114 0.4439,1.802991 -0.12538,1.785652 -0.6091,3.775454 0.0538,4.644161 0.35223,0.37816 0.94274,0.652133 1.47588,0.889868 0.53762,0.256714 1.12233,0.359744 1.61282,0.286804 1.12329,-0.167047 1.26634,-1.007429 1.20354,-2.610177 -0.0403,-1.028233 0.0834,-2.077195 0.23875,-2.962093 -0.0364,-0.213538 -0.0738,-0.425761 -0.11214,-0.63717 -2.37804,0.945866 -0.66646,0.678053 0,-0.001 -0.13892,-0.765636 -0.28941,-1.518372 -0.45372,-2.256193 -0.0796,-0.0447 -0.15818,-0.08924 -0.25063,-0.132291 -0.43682,-0.203439 -0.88483,-0.312998 -1.17926,-0.359668 -0.21515,-0.03415 -0.37524,-0.04013 -0.52245,-0.03979 z m -75.368523,4.99556 c -0.212629,1.472587 -0.262805,2.485814 -0.382512,4.055853 0.568949,-0.427351 1.654669,-0.471856 1.847539,-1.175925 0.273443,-0.998201 -1.370308,-2.70312 -1.404048,-2.76934 -0.01862,-0.03648 -0.04157,-0.07361 -0.06098,-0.110588 z m 1.466061,2.883029 c -0.867371,-0.230303 -1.421863,1.385501 -1.991072,1.812174 -0.139467,1.829899 -0.190148,3.596208 -0.197425,5.559985 0.140892,0.01803 0.267242,0.04506 0.422713,0.0088 0.208579,-0.04867 0.607765,-0.895543 1.265556,-2.721281 0.685192,-1.90179 0.817265,-2.614667 0.729808,-3.95113 -0.01621,-0.247741 0.01038,-0.644835 -0.22958,-0.708548 z m 73.701442,2.40192 c -0.0389,0.0011 -0.0775,0.0061 -0.11575,0.0155 -0.56246,0.13777 -0.85616,1.808042 -0.45114,2.715597 0.24499,0.548963 0.29499,0.810156 1.06505,1.029394 0.81321,0.231525 1.73808,0.117087 2.94763,-0.03566 0.0786,-0.01003 0.15171,-0.01572 0.22892,-0.0248 -0.0233,-1.234567 -0.0759,-2.439347 -0.15296,-3.619418 -0.2006,0.08941 -0.40532,0.175619 -0.63562,0.257866 -0.1513,0.05403 -0.30117,0.102784 -0.45062,0.146244 -1.18303,0.343851 -1.85239,-0.501247 -2.43551,-0.484725 z m 3.6127,8.235156 c -0.61667,0.599023 -1.25178,1.247676 -1.23817,2.014865 0.0117,0.659584 0.41198,1.16061 0.9555,1.496549 0.12511,-1.17101 0.22248,-2.341949 0.28267,-3.511414 z m -79.345026,1.298629 c 0.04925,0.677836 0.109709,1.355822 0.180351,2.033985 0.416266,0.0246 0.972448,-0.175739 0.78732,-0.834343 -0.235138,-0.836518 -0.370545,-0.60755 -0.967671,-1.199639 z m 0.180351,2.037089 c 0.125693,1.20612 0.285556,2.412216 0.472839,3.616317 0.348043,-0.104555 0.67186,-0.245463 0.902271,-0.446485 0.796345,-0.694779 0.586375,-1.893629 0.0041,-2.535461 -0.582248,-0.641831 -0.979983,-0.625291 -1.379237,-0.634371 z m 78.199875,1.426782 c -1.70955,0.572422 -1.96826,0.293739 -1.90066,1.9358 0.0748,1.816628 1.33407,1.998892 1.43454,2.526977 0.30694,1.403314 -1.14028,1.754491 -1.11828,3.090251 -0.2149,0.337754 0.11491,0.643702 0.60513,0.852142 0.63197,-2.733667 1.14669,-5.494985 1.49862,-8.261509 -0.15779,-0.06171 -0.32906,-0.11182 -0.51935,-0.143661 z m -1.45004,10.36061 c -0.2023,0.003 -0.37607,0.0329 -0.48472,0.0951 -0.3087,0.17672 -0.0809,0.50842 0.21187,0.96015 0.0922,-0.35126 0.18405,-0.70279 0.27285,-1.05523 z m -70.186412,7.79745 c -0.498982,-0.0168 -0.770735,0.28535 -1.008207,0.91312 -0.14761,0.39019 -0.341475,0.80027 -0.56379,1.21027 0.518953,1.77587 1.051415,3.5599 1.644344,5.31854 0.160703,-0.026 0.321634,-0.0631 0.479558,-0.12144 0.663336,-0.24503 1.237835,-0.4291 1.92443,-0.85732 0.279804,-0.17449 0.517275,-0.4185 0.734839,-0.71468 0.404085,-0.54728 0.699295,-1.25039 0.799951,-1.77199 0.12889,-0.66793 0.316719,-1.3372 0.415479,-1.92753 0.126697,-0.75755 -0.597495,-1.1603 -1.665015,-1.3565 -0.78991,-0.14517 -1.51567,-0.34327 -2.179195,-0.56896 -0.22391,-0.0761 -0.41607,-0.11751 -0.582394,-0.12351 z m 3.393075,9.43147 c -0.0065,0.001 -0.01294,0.004 -0.01964,0.006 -0.430062,-0.008 -0.619629,0.11314 -0.845943,0.19534 -0.186188,0.0609 -0.186836,0.20477 -0.374138,0.29507 -0.109115,0.0809 -0.24295,0.1439 -0.405143,0.1881 -0.177425,0.028 -0.329786,0.0446 -0.457853,0.0486 -0.08073,0.005 -0.156276,0.005 -0.231511,0.005 0.426146,1.09232 0.890126,2.16111 1.397848,3.20032 0.34926,0.35207 0.611997,0.71916 0.664042,1.10587 0.0095,0.0706 0.01237,0.14941 0.01602,0.22686 0.85883,1.57465 1.844581,3.06006 3.003951,4.4142 0.003,-9.7e-4 0.0069,-0.002 0.0098,-0.003 0.134736,-0.0339 0.248788,-0.19908 0.268718,-0.35553 0.05256,-0.34278 0.029,-0.5597 -0.02946,-0.86403 -0.07315,-0.36115 0.07794,-0.71237 0.133842,-0.90744 0.95296,-0.32244 0.835402,-1.55685 0.54777,-2.22312 -0.627304,-1.45314 -2.012294,-2.53056 -2.415356,-4.06384 -0.175988,-0.67035 -1.238922,-1.32534 -1.262972,-1.26814 z"
       sodipodi:nodetypes="cccccsscssccccccssccccccssscccccscccscscssssccscccscsscsssscscscccscscsccsccscscccscassssssccssscsscscsscsssccccsscccccczcccacczsaazsscccccscscccccccsacassacccsaacscccccccccsccsccsccccccccccscsccccccccscccsccccccsccccccsccccccscccsc" />
    <path
       id="path794"
       style="fill:none;stroke:#000000;stroke-width:0.529167;stroke-linecap:round;stroke-linejoin:round;stroke-dasharray:none"
       d="m 148.27058,84.277802 c 0,7.983204 -1.74705,16.115198 -4.09852,23.821648 -2.38222,7.80722 -4.26931,16.55553 -10.02831,22.34013 -6.62926,6.65873 -16.26853,11.65769 -25.66459,11.65769 -9.396053,0 -19.035316,-4.99896 -25.664577,-11.65769 -5.758997,-5.7846 -7.646095,-14.53291 -10.028319,-22.34013 -2.351476,-7.70645 -4.098527,-15.838444 -4.098527,-23.821648 0,-31.932811 17.815227,-46.177801 39.791423,-46.177799 21.97619,0 39.79142,14.24499 39.79142,46.177799 z"
       sodipodi:nodetypes="saaaaasss" />
  </g>
</svg>
