<?xml version="1.0" encoding="UTF-8" standalone="no"?>
<!-- Created with Inkscape (http://www.inkscape.org/) -->

<svg
   width="210mm"
   height="297mm"
   viewBox="0 0 210 297"
   version="1.1"
   id="mySVG"
   inkscape:version="1.2.2 (732a01da63, 2022-12-09)"
   sodipodi:docname="head_round.svg"
   xmlns:inkscape="http://www.inkscape.org/namespaces/inkscape"
   xmlns:sodipodi="http://sodipodi.sourceforge.net/DTD/sodipodi-0.dtd"
   xmlns="http://www.w3.org/2000/svg"
   xmlns:svg="http://www.w3.org/2000/svg">
  <sodipodi:namedview
     id="namedview7"
     pagecolor="#ffffff"
     bordercolor="#666666"
     borderopacity="1.0"
     inkscape:showpageshadow="2"
     inkscape:pageopacity="0.0"
     inkscape:pagecheckerboard="0"
     inkscape:deskcolor="#d1d1d1"
     inkscape:document-units="mm"
     showgrid="false"
     showguides="true"
     inkscape:zoom="2.0888418"
     inkscape:cx="154.39178"
     inkscape:cy="351.86963"
     inkscape:window-width="2560"
     inkscape:window-height="1369"
     inkscape:window-x="2552"
     inkscape:window-y="-8"
     inkscape:window-maximized="1"
     inkscape:current-layer="layer1">
    <inkscape:grid
       type="xygrid"
       id="grid9" />
  </sodipodi:namedview>
  <defs
     id="defs2">
    <inkscape:path-effect
       effect="simplify"
       id="path-effect4085"
       is_visible="true"
       lpeversion="1"
       steps="1"
       threshold="0.00243902"
       smooth_angles="360"
       helper_size="0"
       simplify_individual_paths="false"
       simplify_just_coalesce="false" />
    <inkscape:path-effect
       effect="simplify"
       id="path-effect14166"
       is_visible="true"
       lpeversion="1"
       steps="1"
       threshold="0.00243902"
       smooth_angles="360"
       helper_size="0"
       simplify_individual_paths="false"
       simplify_just_coalesce="false" />
    <inkscape:path-effect
       effect="simplify"
       id="path-effect2574"
       is_visible="true"
       lpeversion="1"
       steps="1"
       threshold="0.00243902"
       smooth_angles="360"
       helper_size="0"
       simplify_individual_paths="false"
       simplify_just_coalesce="false" />
    <inkscape:path-effect
       effect="simplify"
       id="path-effect441"
       is_visible="true"
       lpeversion="1"
       steps="1"
       threshold="0.00243902"
       smooth_angles="360"
       helper_size="0"
       simplify_individual_paths="false"
       simplify_just_coalesce="false" />
    <inkscape:path-effect
       effect="simplify"
       id="path-effect437"
       is_visible="true"
       lpeversion="1"
       steps="1"
       threshold="0.00243902"
       smooth_angles="360"
       helper_size="0"
       simplify_individual_paths="false"
       simplify_just_coalesce="false" />
  </defs>
  <g
     inkscape:label="Ebene 1"
     inkscape:groupmode="layer"
     id="layer1">
    <path
       id="head"
       style="fill:#ffe6d5;stroke:#000000;stroke-width:0.529167;stroke-linecap:round;stroke-linejoin:round;stroke-dasharray:none"
       d="m 148.27058,84.277802 c 0,7.983204 0.72113,21.470498 -3.04019,31.229978 -2.22935,5.78449 -6.26336,11.03742 -11.08664,14.9318 -7.31058,5.90266 -16.26853,11.65769 -25.66459,11.65769 -9.396053,0 -18.354003,-5.75504 -25.664577,-11.65769 -4.823283,-3.89438 -8.857301,-9.14731 -11.086652,-14.9318 -3.761322,-9.75947 -3.040194,-23.246774 -3.040194,-31.229978 0,-31.932811 17.815227,-46.177801 39.791423,-46.177799 21.97619,0 39.79142,14.24499 39.79142,46.177799 z"
       sodipodi:nodetypes="saaaaasss" />
    <path
       id="marks"
       style="display:inline;fill:#d58f73;fill-opacity:1;fill-rule:nonzero;stroke-width:0.327841;stroke-dasharray:none"
       inkscape:label="#marks"
       d="M 117.39025 38.940776 C 116.92296 39.272397 116.85525 39.756653 116.80372 40.097811 C 116.76142 40.403146 116.71097 40.533855 116.47558 40.805778 C 116.42888 41.034952 116.7201 41.1542 117.16546 41.240894 C 117.35919 41.265904 117.6768 41.289527 118.03724 41.310657 C 117.67421 41.289447 117.35478 41.266134 117.16029 41.240894 C 116.71773 41.154494 116.42782 41.03501 116.47403 40.806812 C 116.41213 40.878251 116.34177 40.956011 116.26732 41.044006 C 115.97491 41.394042 115.85486 41.941067 116.09731 42.278556 C 116.41273 42.694266 116.83592 42.689506 117.29723 42.770516 C 117.80235 42.859216 118.57007 43.082542 119.55963 43.23302 C 121.14503 43.474105 122.50259 43.354923 123.05916 43.005127 C 123.55516 42.693404 123.12649 42.413947 122.98629 42.007772 C 122.97729 41.980092 122.96814 41.951519 122.95994 41.921989 C 122.89834 41.71118 122.90002 41.483947 122.95322 41.217122 C 123.0105 40.980298 123.13125 40.770641 123.22762 40.550496 C 121.34796 39.871404 119.39847 39.33543 117.39025 38.940776 z M 97.591459 40.567033 C 95.546494 40.584583 93.64877 40.939884 92.546289 41.537 C 90.740485 42.515048 91.301285 43.953083 91.547384 46.036983 C 92.219533 46.290683 94.599951 46.351312 97.234892 46.862773 C 94.599466 46.352443 92.219459 46.293635 91.548417 46.042151 C 91.625137 46.693291 91.662619 47.280652 91.666756 47.920072 C 91.678756 49.671229 91.425263 50.828105 92.001103 51.381877 C 92.576436 51.935151 93.860045 51.795143 95.409163 51.871769 C 96.743948 51.937789 97.528954 52.124841 99.045634 52.520825 C 100.55583 52.919976 101.87279 53.168681 103.05159 52.629862 C 104.1258 52.138856 104.72457 51.083707 105.00961 49.859489 C 105.15841 49.220368 105.22809 48.540065 105.27058 47.844625 C 105.32918 46.88286 105.42625 44.029614 105.37393 43.67382 C 105.21746 42.610526 104.25388 41.608814 101.54109 40.97631 C 101.45899 40.95717 101.37586 40.93839 101.29201 40.9205 C 100.09802 40.667126 98.818436 40.556506 97.591459 40.567033 z M 128.59525 42.997375 C 126.86302 42.997867 123.93868 44.35368 121.85975 45.251501 C 119.72156 46.174908 118.42378 46.576113 117.91632 47.41106 C 119.61612 48.476709 122.19478 48.34183 124.32368 48.309713 C 122.19432 48.342623 119.61492 48.478986 117.91477 47.413127 C 117.45879 48.1661 117.55001 49.946443 118.81652 50.927124 C 120.20359 52.001157 121.66498 51.212804 123.34493 50.824288 C 124.91395 50.461428 126.83814 51.136734 128.9265 51.236666 C 130.00457 51.288256 130.90337 51.098565 131.45864 50.593294 C 132.00995 50.091613 132.07757 49.40975 131.88601 48.765499 C 131.70102 48.14335 131.2897 47.600469 131.0721 47.185234 C 130.81863 46.701547 130.79099 46.372464 130.78065 45.748629 C 130.77251 45.235952 130.73972 44.668445 130.55637 44.182316 C 129.91563 43.765213 129.26151 43.37054 128.59525 42.997375 z M 97.499475 46.915483 C 97.588395 46.933663 97.677354 46.952023 97.766642 46.971293 C 97.810592 46.980893 97.854434 46.990939 97.898417 47.000749 C 97.853947 46.990849 97.809538 46.980973 97.765092 46.971293 C 97.676372 46.952173 97.587834 46.933523 97.499475 46.915483 z M 85.044421 47.4462 C 84.270296 47.4409 83.435105 47.656779 82.489539 48.125228 C 80.602292 49.060193 78.737235 50.806991 77.99989 52.338407 C 80.815734 52.571084 82.435533 52.877562 84.501819 53.412244 C 82.43485 52.878535 80.815506 52.573691 77.99834 52.342542 C 77.221888 53.958958 77.688348 55.188106 78.984843 56.129907 C 80.098409 56.938831 82.268351 57.743024 83.794368 58.212467 C 85.554408 58.753901 87.19124 59.043815 88.957878 58.256392 C 90.681952 57.487949 92.183611 55.793718 92.662561 54.424068 C 93.162121 52.995482 92.47682 52.350873 91.35308 51.445955 C 90.251933 50.559232 88.930098 49.21232 87.514038 48.269922 C 86.721063 47.742186 85.921752 47.452216 85.044421 47.4462 z M 136.79837 49.772673 C 136.72227 49.774173 136.64585 49.783938 136.56996 49.802128 C 136.22173 49.884708 135.92492 50.185868 135.77104 50.619649 C 135.5469 51.236162 135.5721 52.0864 135.554 52.662419 C 135.5153 54.33702 135.20025 54.725209 134.72459 55.324272 C 134.42251 54.915307 134.08826 54.619387 133.7076 54.427169 C 132.8791 54.008801 131.96686 54.140854 131.02353 54.22253 C 130.95633 54.22843 130.88911 54.234017 130.82199 54.239067 C 129.00274 54.367737 127.26712 53.540649 126.38763 53.69388 C 125.39064 53.867585 126.0456 55.546662 127.11472 57.992843 C 127.72508 58.636121 128.11369 59.226033 130.46025 60.424736 C 128.11339 59.227702 127.72604 58.639627 127.11731 57.999044 C 128.32904 60.771694 128.59703 61.832609 128.45107 63.704639 C 128.32568 65.31291 128.29964 65.721508 129.34353 65.516931 C 129.99526 65.389216 130.63519 65.220089 131.8457 65.56499 C 133.28532 65.960128 134.4558 66.669665 135.72143 67.325606 C 136.81274 67.891201 137.26871 67.950591 137.31307 66.647095 C 137.36427 65.142437 136.6465 60.065335 135.69559 57.313814 C 136.07082 57.464156 136.48117 57.637109 136.88777 57.874504 C 137.28002 58.100381 137.55668 58.319153 137.93215 58.580404 C 138.03258 58.655584 138.13676 58.72404 138.24427 58.785042 C 138.36588 58.854042 138.49111 58.913543 138.61686 58.963843 C 138.90664 59.077094 139.18926 59.152085 139.46125 59.174166 C 140.2279 59.238326 140.73185 58.869196 141.23996 58.41969 L 141.24306 58.416073 C 141.56916 58.097592 141.84472 57.792749 142.12673 57.508118 C 142.21202 57.428939 142.30139 57.342217 142.38924 57.255937 C 140.89728 54.467544 139.15371 51.996906 137.19318 49.836751 C 137.06166 49.796331 136.92999 49.770128 136.79837 49.772673 z M 120.07794 53.594661 C 119.85806 53.595861 119.58204 53.753588 119.27127 54.386861 C 118.80844 55.330015 119.02758 56.021182 120.00973 56.550037 C 120.67522 56.908376 121.05781 57.010762 121.69748 57.479696 C 122.32103 57.938785 122.73217 58.576459 123.1067 58.63053 C 123.49145 58.68607 123.84826 58.097301 124.31644 57.13243 C 125.0081 55.707567 125.46786 54.677223 125.31742 54.435437 C 125.1621 54.18584 124.16443 54.152064 123.61261 54.048897 C 123.62361 54.115187 123.57382 54.193599 123.48962 54.282475 C 123.33117 54.456018 122.89817 54.8001 122.49795 55.103097 C 122.89914 54.798947 123.33319 54.453384 123.49065 54.279891 C 123.57335 54.191971 123.62214 54.114562 123.61106 54.048897 C 123.56596 54.040497 123.52249 54.031156 123.48032 54.022026 C 122.85976 53.888885 122.72029 53.727348 121.87163 53.747624 C 121.20301 53.763594 120.62396 53.78951 120.34097 53.660291 C 120.26588 53.626001 120.17787 53.594151 120.07794 53.594661 z M 137.10274 55.061239 C 137.17234 55.060271 137.24017 55.065415 137.30583 55.077775 C 137.4551 55.117945 137.60557 55.160733 137.76317 55.194047 C 137.85767 55.211307 137.95657 55.237381 138.06082 55.270011 C 137.95658 55.237471 137.85769 55.211744 137.76317 55.194564 C 137.6056 55.161404 137.45507 55.118337 137.30583 55.078292 C 137.1766 55.054035 137.04 55.058985 136.89397 55.081392 C 136.96553 55.070446 137.03549 55.062173 137.10274 55.061239 z M 136.87382 55.084493 C 136.81806 55.093613 136.75993 55.106506 136.70122 55.12015 C 136.75949 55.106635 136.81846 55.093525 136.87382 55.084493 z M 136.48469 55.17596 C 136.45898 55.183166 136.43502 55.189025 136.40873 55.196631 C 135.96244 55.331774 135.46658 55.501274 134.90649 55.590405 C 134.90614 55.589846 134.90575 55.589355 134.90546 55.588855 C 135.46591 55.499895 135.96213 55.330708 136.40873 55.195597 C 136.43549 55.187865 136.45855 55.183281 136.48469 55.17596 z M 76.04187 55.694792 C 75.826136 55.692153 75.617485 55.718113 75.411934 55.75732 C 74.302936 57.629178 73.31624 59.658083 72.46121 61.844287 C 73.021411 62.180598 73.851979 62.529686 74.707068 63.031812 C 75.608977 62.879497 76.671404 62.081906 77.678463 61.24019 C 76.67251 62.08258 75.611995 62.881075 74.711202 63.033879 C 76.157167 63.883313 77.673233 65.00015 79.32229 65.454919 C 80.914609 65.894047 82.332069 65.60872 83.254867 64.93092 C 84.174789 64.255269 84.511189 63.234428 84.133883 62.002934 C 83.747353 60.741387 82.72193 59.556639 81.345422 58.425891 C 80.120079 57.419329 78.301068 56.16537 76.914685 55.813647 C 76.615065 55.737638 76.323912 55.698241 76.04187 55.694792 z M 98.148531 56.561405 C 96.710333 56.606345 95.25497 56.648839 93.824764 56.702482 C 93.551842 56.712692 93.313166 57.316557 93.315234 57.807324 C 93.315957 57.977279 93.321718 58.156742 93.370528 58.34786 C 93.453038 58.669775 93.771408 58.997422 94.275899 59.312142 C 94.760621 59.614527 95.312525 59.83596 95.552307 59.848543 C 97.423245 59.946713 97.787038 59.544763 98.701469 59.320927 C 98.83732 59.287667 99.090737 58.717042 99.026514 58.158724 C 99.004384 57.965869 98.981479 57.802537 98.950549 57.611471 C 98.857489 57.035492 98.478656 56.55109 98.148531 56.561405 z M 88.928939 59.263566 C 88.838559 59.263593 88.739236 59.266568 88.630249 59.272868 C 87.801405 59.320048 86.632233 59.558153 85.8144 59.942078 C 84.977273 60.335052 84.634113 60.814091 84.628943 61.332174 C 85.492687 61.266354 86.477232 61.235223 87.464429 61.195748 C 86.477243 61.235618 85.492346 61.267504 84.628943 61.333724 C 84.623743 61.83053 84.921331 62.311198 85.471785 62.622534 C 86.030945 62.938795 86.974541 63.144552 88.058191 63.161519 C 89.161437 63.178759 90.089356 62.986245 90.430139 62.531067 C 90.773964 62.071833 90.460181 61.472159 90.199146 60.917729 C 89.810403 60.09183 89.966992 60.228154 89.822424 59.659408 C 89.759244 59.411082 89.561566 59.263382 88.928939 59.263566 z M 101.54367 60.57253 C 100.56949 60.58274 99.294786 60.942143 97.995052 61.100146 C 96.380222 61.296459 94.84543 60.926421 93.571033 61.182312 C 92.234107 61.450759 91.384443 62.652008 91.137073 64.505623 C 92.608287 63.604837 94.192069 63.430027 95.714054 63.389929 C 94.191666 63.430719 92.60743 63.606696 91.136039 64.509757 C 90.889888 66.363248 91.376074 67.278446 91.982499 67.213468 C 92.633916 67.143668 93.601053 66.43401 94.980249 66.292078 C 96.359457 66.150145 98.085664 66.338184 99.490051 65.909672 C 100.90895 65.476739 101.99692 64.449672 102.64231 63.213713 C 103.28846 61.97635 103.25345 60.940102 102.28575 60.657796 C 102.06611 60.593736 101.81644 60.56966 101.54367 60.57253 z M 140.63483 61.025732 C 140.19603 61.028932 139.76721 61.099848 139.3579 61.236056 C 138.82163 61.414506 138.78958 62.415407 139.04991 63.527905 C 139.31023 64.640401 139.74231 65.904675 139.96717 67.138538 C 139.99077 67.267678 140.0115 67.395933 140.0297 67.52301 C 140.21256 68.80073 140.21882 69.596584 140.54439 70.286666 C 140.83429 70.901094 141.4137 71.363631 141.95361 71.423547 C 143.03011 71.543015 144.01417 71.846299 144.96841 72.078805 C 145.30244 72.160764 145.62022 72.22982 145.90737 72.264323 C 146.31047 72.312763 146.32547 71.617074 146.24689 70.649951 C 146.17009 69.704234 146.02419 68.649703 145.95285 67.675456 C 145.94585 67.573503 145.93944 67.47212 145.93424 67.371082 C 145.90188 66.680918 145.87294 66.092287 145.74563 65.463188 C 145.59919 64.977204 145.44653 64.498421 145.28829 64.026066 C 144.96691 63.289534 144.52514 62.594534 144.09301 62.310925 C 143.7025 62.054631 143.28985 61.785298 142.86932 61.575053 C 142.1251 61.201666 141.36616 61.020402 140.63483 61.025732 z M 74.339132 64.068441 C 73.60127 64.064441 72.831945 64.279899 72.21523 64.629647 C 71.878844 64.82042 71.547888 65.068242 71.248364 65.346399 C 71.063604 65.954204 70.887629 66.571754 70.721781 67.201066 C 71.717188 67.749514 72.453909 68.23925 73.164526 68.733789 C 72.453668 68.239976 71.71675 67.750849 70.721265 67.203133 C 70.53824 67.897736 70.365478 68.604025 70.206051 69.324967 C 70.308613 69.615341 70.433546 69.921776 70.57502 70.253076 C 71.07581 71.425783 71.118885 72.441039 70.986365 73.18158 C 70.876602 73.794942 71.096133 74.497294 72.663782 73.560368 C 74.214957 72.633281 75.148161 70.994519 75.353023 69.298612 C 75.589401 67.341826 75.206743 67.408345 75.903894 66.419718 C 76.349644 65.787622 76.653038 64.925197 75.750415 64.412606 C 75.334218 64.17625 74.843986 64.071144 74.339132 64.068441 z M 79.422542 67.243958 C 78.925516 67.244059 78.295986 67.357906 77.737374 67.530762 C 76.96328 67.770298 76.657472 67.984216 76.590674 68.168449 C 76.797614 68.339542 77.04172 68.465025 77.297607 68.561707 C 77.041709 68.465218 76.797599 68.340107 76.590674 68.168966 C 76.518604 68.368833 76.615353 68.741458 76.654753 69.198877 C 76.691773 69.628694 76.559816 69.962506 76.671806 70.05929 C 76.747286 70.124519 77.367079 70.128809 78.487199 69.95387 C 79.656716 69.771228 80.500263 69.473235 80.611617 69.042814 C 80.711713 68.656023 80.261675 68.333168 80.237996 68.059412 C 80.215656 67.801114 80.465888 67.478184 79.998735 67.318888 C 79.846424 67.266958 79.648468 67.243908 79.422542 67.243958 z M 142.274 72.144434 C 142.09945 72.180154 141.93848 72.215041 141.78824 72.250887 C 139.95477 72.692935 138.16636 73.527068 137.62364 74.712236 C 137.89266 75.236605 138.21768 75.996149 138.51506 76.688859 C 139.09683 77.971292 139.82411 79.200384 139.47624 80.220943 C 139.96825 80.756724 140.46118 81.40896 141.29163 81.666333 C 141.86358 81.853397 142.51461 81.725324 143.12718 81.469963 C 143.51255 81.308557 143.87553 81.115625 144.23874 80.922192 C 144.53742 79.625686 144.46054 78.452785 144.32091 77.043876 C 144.26431 76.272686 144.30937 75.572704 144.55087 74.938062 C 144.53627 74.045018 144.39154 73.48022 143.79329 72.970223 C 143.49252 72.675987 143.08349 72.446091 142.274 72.144434 z M 75.632076 74.660559 C 75.495378 74.660249 75.34664 74.665743 75.146834 74.696733 C 74.873397 74.739223 74.45748 74.839165 74.051811 75.024361 C 73.102698 75.457576 72.89978 75.968777 73.107682 76.860425 C 73.530475 77.381652 73.730733 77.620672 74.761845 77.665027 C 73.73063 77.621507 73.530134 77.383016 73.108199 76.862492 C 73.32091 77.773032 73.567835 79.151543 73.514893 80.476225 C 73.456573 81.935244 73.589975 82.699725 74.633171 82.85179 C 75.08868 82.91819 75.631463 82.82452 76.130754 82.590824 C 76.625877 82.37441 77.174098 82.125304 77.501213 81.781055 C 78.11679 80.990251 77.667726 79.178411 77.551339 77.552889 C 77.455069 76.209362 77.741483 76.142803 77.963717 75.912162 C 78.085432 75.785843 77.881175 75.417332 76.92502 74.94633 C 76.529205 74.752458 76.19916 74.689279 75.96849 74.670378 C 75.8897 74.663978 75.821135 74.662093 75.766435 74.661593 C 75.721965 74.661002 75.67768 74.660659 75.632076 74.660559 z M 71.777531 77.234045 C 71.351594 77.238645 70.52407 77.482767 69.960588 77.696549 C 69.382644 77.915829 69.122131 78.086527 69.029895 78.258272 C 69.056255 78.261572 69.083467 78.264774 69.111027 78.267574 C 69.083287 78.264774 69.056435 78.262089 69.029895 78.258789 C 68.937985 78.430548 68.982102 78.620462 69.16322 78.768835 C 69.341011 78.914483 69.659351 79.023809 69.968339 79.065458 C 70.293975 79.109338 70.644843 79.078442 70.994633 78.964172 C 71.319598 78.858018 71.479654 78.726703 71.510364 78.577116 C 71.541074 78.42753 71.619204 78.188916 71.837476 77.873283 C 72.071217 77.535275 72.257611 77.24678 71.817322 77.234562 C 71.804402 77.234204 71.791291 77.233895 71.777531 77.234045 z M 146.85409 78.152336 C 146.21099 78.165616 145.8465 78.776795 145.56941 79.308854 C 145.53811 79.369134 144.44514 81.293126 144.26561 81.829631 C 145.40326 82.999055 146.32138 83.41574 147.00808 84.116829 C 146.32129 83.417056 145.40297 83.00197 144.26458 81.832731 C 143.84902 83.077514 144.09282 84.343086 144.72915 86.074333 C 145.34003 87.736346 145.71057 88.507398 145.90427 88.551701 C 146.33533 88.650291 146.51387 88.22951 147.58892 89.074666 C 147.89429 89.314742 148.13 89.553484 148.31239 89.715454 C 148.29636 87.744979 148.27054 85.87991 148.27054 84.27806 C 148.27054 82.982339 148.23837 81.718582 148.18062 80.480876 C 147.9301 78.773237 147.52409 78.176702 146.91713 78.152852 C 146.89583 78.152013 146.87489 78.151908 146.85409 78.152336 z M 69.205078 82.920003 C 69.025839 82.920622 68.85848 82.946621 68.699166 82.989766 C 68.692645 83.416374 68.687797 83.844953 68.687797 84.27806 C 68.687797 84.413463 68.685086 84.578268 68.684696 84.716793 C 69.047141 84.886979 69.492593 85.012082 70.141972 85.128654 C 69.492499 85.012373 69.04701 84.887722 68.684696 84.717826 C 68.681973 85.684248 68.67326 86.71136 68.661442 87.812211 C 68.737992 87.785982 68.811321 87.760526 68.91569 87.725911 C 69.184299 87.636832 69.48711 87.532809 69.839665 87.445825 C 70.719374 87.232053 71.60471 87.282912 72.618306 87.409652 C 73.741601 87.548698 74.600912 87.653489 75.356124 87.442725 C 76.071268 87.243148 76.117694 87.005049 76.345211 86.505314 C 76.721349 85.679145 76.448464 84.158528 75.926115 84.033114 C 75.358 83.896711 74.728656 84.793844 73.55675 84.459961 C 73.417954 84.420401 73.279192 84.376853 73.138688 84.327669 C 72.534372 84.116118 72.10721 83.889074 71.477808 83.586112 C 70.626172 83.178012 69.853484 82.917762 69.205078 82.920003 z M 70.663387 85.214437 C 70.763377 85.229627 70.867177 85.244562 70.975513 85.259912 C 71.047683 85.270442 71.120595 85.281435 71.193587 85.292985 C 71.120587 85.281445 71.047708 85.270959 70.975513 85.260429 C 70.867167 85.245129 70.763358 85.229587 70.663387 85.214437 z M 68.641805 90.196562 C 68.630984 91.782715 68.628211 93.42493 68.659375 95.151815 C 68.779664 95.150894 68.932343 95.130766 69.145133 95.083085 C 70.058428 94.878416 70.950802 94.287084 70.967761 93.349858 C 70.983991 92.457396 70.012539 91.739181 69.355973 91.069377 C 69.049759 90.756993 68.826707 90.456312 68.641805 90.196562 z M 70.71403 95.851514 C 70.249204 95.851514 70.204936 95.876836 70.352295 95.938847 C 70.465129 95.902786 70.584862 95.8727 70.71403 95.851514 z M 70.352295 95.938847 C 69.170593 96.316509 68.855702 97.449595 68.756527 98.264286 C 68.779692 98.806027 68.807229 99.348524 68.839209 99.894678 C 69.289477 101.0713 70.359514 101.0702 69.746647 103.37405 C 69.529108 104.19177 72.729352 103.56396 72.185775 102.72655 C 72.206145 101.51058 70.862029 101.19126 71.147078 99.913798 C 71.240348 99.433072 72.409852 99.266881 72.479297 97.613163 C 72.524598 96.534178 70.734664 96.099754 70.352295 95.938847 z M 147.63182 100.49774 C 147.6236 100.4957 147.6171 100.49528 147.61735 100.50188 L 147.61735 100.50239 C 147.64935 101.33486 145.24267 101.94476 144.18965 103.16631 C 143.34775 104.14294 142.11848 105.699 141.59859 106.58006 C 142.69153 106.79665 143.95558 106.51654 144.90537 106.49634 C 143.95507 106.51754 142.69047 106.79905 141.59653 106.58316 C 140.86672 107.82113 140.67248 108.91278 141.41204 109.54525 C 142.03697 110.0797 143.38196 110.17056 143.96176 110.2217 C 144.6673 110.284 145.22574 110.27812 145.95078 109.68168 C 146.73191 109.03909 146.98121 108.35361 146.98534 107.59498 C 146.98934 106.85003 147.12427 105.75329 147.63285 104.06342 C 147.7137 103.7948 147.78879 103.53204 147.85971 103.27432 C 147.94297 102.42678 148.00932 101.57896 148.06641 100.73287 C 147.97756 100.59895 147.84588 100.51636 147.6561 100.50394 C 147.6497 100.50352 147.64003 100.49979 147.63182 100.49774 z M 72.025578 105.27988 C 71.635034 105.28188 71.12889 105.40141 70.740385 105.64937 C 69.824712 107.0294 70.331187 106.47773 69.825195 107.77327 C 70.023315 108.82253 70.095304 108.3269 70.340409 109.2972 C 70.678857 109.83402 70.339727 110.20164 70.702661 110.13126 C 71.06818 110.06036 71.637892 110.30244 71.850395 110.06512 C 72.121042 109.76287 71.391905 109.16131 71.425614 108.42697 C 71.462114 107.63094 71.714335 107.23001 72.112394 106.55784 C 72.455567 105.97837 72.867228 105.56929 72.510819 105.36928 C 72.403136 105.30888 72.230149 105.27848 72.025578 105.27988 z M 142.00425 112.38125 C 141.84979 112.38625 141.67167 112.42412 141.46372 112.49339 C 140.84751 112.69884 140.17314 112.87904 139.43955 113.01119 C 138.44815 113.1898 137.77573 113.55664 137.89339 114.24626 C 137.98509 114.78365 138.15971 115.39316 138.27941 116.00119 C 138.37291 116.47602 138.64674 117.1158 139.02201 117.61401 C 139.22406 117.88363 139.4448 118.10525 139.70465 118.2641 C 140.34228 118.65392 140.87611 118.82186 141.49214 119.04493 C 142.24754 119.31844 143.07276 119.20339 143.60002 118.68009 C 143.75842 118.52288 143.90112 118.37017 144.0341 118.21191 C 144.23727 117.80235 144.43185 117.38955 144.61701 116.97322 C 144.61793 116.94107 144.6233 116.91138 144.62218 116.87814 C 144.60418 116.25784 144.22886 115.5417 143.86719 114.98885 C 143.48214 114.40023 143.16082 113.78273 142.94063 113.21221 C 142.7201 112.64073 142.46765 112.36597 142.00425 112.38125 z M 138.85302 120.96678 C 138.82826 120.91635 137.84321 121.51226 137.67997 122.12174 C 137.30565 123.51752 136.01978 124.49793 135.43721 125.82074 C 135.1701 126.42726 135.0607 127.55087 135.94571 127.84439 C 135.99761 128.02197 136.13819 128.34194 136.07025 128.6707 C 136.06218 128.71191 136.06127 128.74555 136.05474 128.78387 C 137.12508 127.79375 138.14485 126.73643 139.10159 125.62127 C 139.10371 125.60116 139.10356 125.57823 139.10624 125.55874 C 139.18953 124.95208 139.85265 124.39808 140.50822 123.87823 C 141.06775 123.14156 141.60033 122.38535 142.1014 121.61015 C 142.04628 121.57262 141.95716 121.55535 141.81822 121.56674 C 141.51353 121.61614 141.19799 121.65662 140.80639 121.63392 C 140.68745 121.63092 140.54587 121.61508 140.3811 121.58948 C 140.23047 121.54928 140.10622 121.49206 140.00489 121.41843 C 139.83095 121.33623 139.83002 121.20515 139.65711 121.14971 C 139.44694 121.07491 139.27101 120.96422 138.87163 120.97194 C 138.86578 120.97 138.8594 120.9678 138.85354 120.96678 L 138.85302 120.96678 z " />
    <path
       id="path749"
       style="fill:none;stroke:#000000;stroke-width:0.529167;stroke-linecap:round;stroke-linejoin:round;stroke-dasharray:none"
       d="m 148.27058,84.277802 c 0,7.983204 0.72113,21.470498 -3.04019,31.229978 -2.22935,5.78449 -6.26336,11.03742 -11.08664,14.9318 -7.31058,5.90266 -16.26853,11.65769 -25.66459,11.65769 -9.396053,0 -18.354003,-5.75504 -25.664577,-11.65769 -4.823283,-3.89438 -8.857301,-9.14731 -11.086652,-14.9318 -3.761322,-9.75947 -3.040194,-23.246774 -3.040194,-31.229978 0,-31.932811 17.815227,-46.177801 39.791423,-46.177799 21.97619,0 39.79142,14.24499 39.79142,46.177799 z"
       sodipodi:nodetypes="saaaaasss" />
  </g>
</svg>
