<?xml version="1.0" encoding="UTF-8" standalone="no"?>
<!-- Created with Inkscape (http://www.inkscape.org/) -->

<svg
   width="840"
   height="880"
   viewBox="0 0 222.24999 232.83334"
   version="1.1"
   id="mySVG"
   inkscape:version="1.1.2 (b8e25be833, 2022-02-05)"
   sodipodi:docname="head_littleEdgy.svg"
   xmlns:inkscape="http://www.inkscape.org/namespaces/inkscape"
   xmlns:sodipodi="http://sodipodi.sourceforge.net/DTD/sodipodi-0.dtd"
   xmlns="http://www.w3.org/2000/svg"
   xmlns:svg="http://www.w3.org/2000/svg">
  <sodipodi:namedview
     id="namedview7"
     pagecolor="#ffffff"
     bordercolor="#666666"
     borderopacity="1.0"
     inkscape:showpageshadow="2"
     inkscape:pageopacity="0.0"
     inkscape:pagecheckerboard="0"
     inkscape:deskcolor="#d1d1d1"
     inkscape:document-units="mm"
     showgrid="false"
     showguides="true"
     inkscape:zoom="5.9081368"
     inkscape:cx="336.23121"
     inkscape:cy="250.33273"
     inkscape:window-width="1920"
     inkscape:window-height="1094"
     inkscape:window-x="-11"
     inkscape:window-y="-11"
     inkscape:window-maximized="1"
     inkscape:current-layer="layer1"
     inkscape:pageshadow="2"
     units="px">
    <inkscape:grid
       type="xygrid"
       id="grid9" />
  </sodipodi:namedview>
  <defs
     id="defs2">
    <inkscape:path-effect
       effect="simplify"
       id="path-effect14166"
       is_visible="true"
       lpeversion="1"
       steps="1"
       threshold="0.00243902"
       smooth_angles="360"
       helper_size="0"
       simplify_individual_paths="false"
       simplify_just_coalesce="false" />
    <inkscape:path-effect
       effect="simplify"
       id="path-effect2574"
       is_visible="true"
       lpeversion="1"
       steps="1"
       threshold="0.00243902"
       smooth_angles="360"
       helper_size="0"
       simplify_individual_paths="false"
       simplify_just_coalesce="false" />
    <inkscape:path-effect
       effect="simplify"
       id="path-effect441"
       is_visible="true"
       lpeversion="1"
       steps="1"
       threshold="0.00243902"
       smooth_angles="360"
       helper_size="0"
       simplify_individual_paths="false"
       simplify_just_coalesce="false" />
    <inkscape:path-effect
       effect="simplify"
       id="path-effect437"
       is_visible="true"
       lpeversion="1"
       steps="1"
       threshold="0.00243902"
       smooth_angles="360"
       helper_size="0"
       simplify_individual_paths="false"
       simplify_just_coalesce="false" />
  </defs>
  <g
     inkscape:label="Ebene 1"
     inkscape:groupmode="layer"
     id="layer1">
    <path
       id="head"
       style="fill:#ffe6d5;stroke:#000000;stroke-width:0.529167;stroke-linecap:round;stroke-linejoin:round;stroke-dasharray:none"
       d="m 148.27058,84.277802 c 0,7.983204 -2.3091,15.965648 -4.09852,23.821648 -0.76963,3.37886 -1.44186,6.83127 -2.84838,9.99841 -1.9687,4.43304 -5.9089,9.7259 -7.7091,12.34172 -7.20083,10.46327 -14.14732,11.65769 -25.13542,11.65769 -10.988098,0 -17.934573,-1.19442 -25.13541,-11.65769 -1.800208,-2.61582 -5.7404,-7.90868 -7.709103,-12.34172 -1.40652,-3.16714 -2.078752,-6.61955 -2.848383,-9.99841 -1.789423,-7.856 -4.098527,-15.838444 -4.098527,-23.821648 0,-31.932811 17.815227,-46.177801 39.791423,-46.177799 21.97619,0 39.79142,14.24499 39.79142,46.177799 z"
       sodipodi:nodetypes="saasssaasss" />
    <path
       id="marks"
       style="display:inline;fill:#d58f73;fill-opacity:1;fill-rule:nonzero;stroke-width:0.3379;stroke-dasharray:none"
       inkscape:label="#marks"
       d="m 108.67502,38.102067 c -0.0292,0.129085 -0.0471,0.253769 -0.063,0.363285 -0.0428,0.320699 -0.15669,0.536214 -0.33177,0.743624 -4e-4,4.75e-4 -10e-4,6.2e-4 -0.002,10e-4 -0.0808,0.07233 -0.16553,0.149857 -0.20929,0.24908 -0.17593,0.398903 -0.41731,0.94209 -0.17208,1.296562 0.31902,0.436627 0.74678,0.431678 1.21336,0.516764 0.51089,0.09317 1.28738,0.327709 2.28824,0.485759 1.60349,0.253215 2.97639,0.128135 3.53931,-0.239262 0.50168,-0.327408 0.0683,-0.620866 -0.0734,-1.047482 -0.009,-0.02907 -0.018,-0.05942 -0.0263,-0.09043 -0.0623,-0.221416 -0.0611,-0.459757 -0.007,-0.740007 0.0832,-0.356941 0.30081,-0.654365 0.38396,-1.011308 0.005,-0.01809 0.004,-0.03742 0.007,-0.05581 -2.12971,-0.306703 -4.31656,-0.463174 -6.5474,-0.471806 z m -3.50883,0.110588 c -4.71815,0.319113 -8.974701,1.680806 -13.309781,3.073714 -0.0021,6.85e-4 -0.0041,0.0017 -0.0062,0.0026 -0.173051,0.07336 -0.418834,0.06345 -0.517798,0.223242 -0.285214,0.460523 0.08544,1.069639 0.08888,1.62264 0.01217,1.839273 -0.244449,3.0538 0.337964,3.635437 0.581899,0.581114 1.880019,0.434215 3.446818,0.514697 1.350021,0.06934 2.144327,0.265703 3.678328,0.681612 1.527429,0.419237 2.859689,0.680652 4.051949,0.114722 1.08646,-0.515715 1.69194,-1.623565 1.98024,-2.909383 0.1505,-0.671282 0.22056,-1.386234 0.26355,-2.116667 0.0593,-1.01016 0.15782,-4.006914 0.10491,-4.380611 -0.0221,-0.155717 -0.0625,-0.309659 -0.11886,-0.461987 z m 17.06976,1.994193 c -0.088,0.03974 -0.19163,0.08626 -0.27699,0.12454 -2.16258,0.969872 -3.38441,0.863418 -3.98838,2.268596 -0.50063,1.164767 -0.0893,2.844978 0.91054,3.692798 1.4029,1.128076 2.88043,0.300061 4.57956,-0.108004 1.58694,-0.381119 3.53345,0.328603 5.64565,0.433565 1.09037,0.05418 1.99949,-0.145232 2.56109,-0.675928 0.21682,-0.20489 0.35812,-0.439104 0.44028,-0.687813 -2.99664,-2.19633 -6.31424,-3.872692 -9.87175,-5.047754 z m -34.892444,3.384806 c -2.16076,1.308934 -4.181429,2.858161 -5.634558,4.265534 -1.45313,1.407374 -2.450011,2.501452 -3.388147,3.677134 0.08704,0.0759 0.177118,0.150635 0.273368,0.223242 1.126276,0.849628 3.321383,1.693881 4.864819,2.186947 1.780139,0.568677 3.435618,0.873551 5.222421,0.04651 1.743753,-0.80711 3.262124,-2.586509 3.746541,-4.025078 C 92.933212,48.465471 92.240566,47.788422 91.104,46.837969 90.02229,45.9334 88.729146,44.576027 87.343506,43.591655 Z m 27.873754,2.571936 c -0.7879,0.918982 -2.38293,0.450169 -3.58893,0.554489 -1.48628,0.128564 -3.157,-0.61322 -4.47466,0.0863 -1.25802,0.667856 -2.21166,1.543339 -2.46176,3.492486 -0.2501,1.949147 0.24128,2.910258 0.85462,2.842011 0.65886,-0.07332 1.63743,-0.818309 3.03237,-0.967382 1.39495,-0.149075 3.14054,0.04803 4.56096,-0.402043 1.43509,-0.454718 2.53618,-1.5332 3.18896,-2.831352 0.65351,-1.299626 0.28185,-2.050764 -0.36122,-2.684591 -0.17941,-0.176828 -0.56192,-0.25711 -0.75034,-0.08992 z m 20.57962,2.223121 c -0.0664,1.5199 -0.37242,1.931301 -0.82631,2.52491 -0.30552,-0.429542 -0.64388,-0.740688 -1.02887,-0.942578 -0.83797,-0.43942 -1.76047,-0.300759 -2.71457,-0.214974 -0.0679,0.0062 -0.13625,0.01227 -0.20412,0.01757 -1.84002,0.135146 -3.59547,-0.733516 -4.485,-0.572575 -1.00839,0.182445 -0.34596,1.946216 0.80903,4.690035 1.155,2.743819 1.42582,3.858341 1.27818,5.824569 -0.12682,1.689199 -0.15303,2.118115 0.90279,1.903243 0.65916,-0.134141 1.30627,-0.312138 2.5306,0.05013 1.45604,0.415021 2.64008,1.160552 3.92017,1.849499 1.10377,0.594055 1.56486,0.65647 1.60972,-0.712618 0.0518,-1.58037 -0.67432,-6.913046 -1.63607,-9.803019 0.3795,0.157906 0.79488,0.339771 1.20612,0.589112 0.39672,0.237242 0.67601,0.467161 1.05575,0.741556 0.10156,0.07897 0.20702,0.150386 0.31575,0.214458 0.12301,0.07247 0.25005,0.134755 0.37723,0.187585 0.2931,0.11895 0.5786,0.197982 0.8537,0.221175 0.44735,0.03888 0.80523,-0.0763 1.12758,-0.269234 -0.89214,-1.398982 -1.82379,-2.691751 -2.88251,-3.920691 -1.6e-4,-1.85e-4 -4.3e-4,-2.91e-4 -5.2e-4,-5.17e-4 v -6e-6 c -0.39549,-1.006842 -1.44329,-1.627576 -2.20865,-2.377632 z m -16.45584,1.539957 c -0.32926,0.734108 -0.21899,1.760768 0.27173,2.398361 0.47609,0.618594 1.51131,0.450925 2.18186,0.850537 0.53501,0.318837 0.80576,1.272498 1.42524,1.208195 0.6608,-0.06859 0.90345,-0.991198 1.22318,-1.573548 0.48256,-0.878923 1.41381,-1.913362 1.01286,-2.832385 -0.27626,-0.633221 -1.21634,-0.763864 -1.90525,-0.815868 -0.54265,-0.04096 -1.03606,0.411215 -1.58026,0.410085 -0.53375,-0.0011 -1.02294,-0.503327 -1.54823,-0.408643 -0.43414,0.07825 -0.9006,0.360758 -1.08113,0.763262 z m -41.407296,2.103233 c -1.54625,2.009257 -2.926942,4.24475 -4.120678,6.712252 0.150272,0.08399 0.301876,0.171358 1.111616,0.665092 0.809739,0.493734 2.343189,1.666902 4.011068,2.144556 1.610506,0.461224 3.044195,0.161552 3.977535,-0.550355 0.930423,-0.709649 1.270449,-1.78232 0.888835,-3.075781 -0.390942,-1.325026 -1.427753,-2.568714 -2.819983,-3.75636 -0.846638,-0.722224 -1.972224,-1.559489 -3.048393,-2.139404 z m 20.043221,0.180868 c -1.312592,-0.636164 -3.164159,-0.667406 -4.373376,0.148311 -0.35091,0.236718 -0.447834,0.742761 -0.515214,1.160653 -0.03025,0.187625 -0.02109,0.39361 0.05581,0.567407 0.184157,0.416223 0.546227,0.747077 0.915707,1.012858 0.381113,0.274149 0.824755,0.507282 1.290877,0.563273 1.070053,0.128536 2.389497,0.17227 3.185335,-0.554488 0.311142,-0.284135 0.301144,-0.80014 0.328662,-1.220597 0.01262,-0.192824 -0.0042,-0.395428 -0.07648,-0.574642 -0.170671,-0.423241 -0.400655,-0.90374 -0.811321,-1.102775 z m -9.325012,2.838069 c -0.0914,2.8e-5 -0.19156,0.0033 -0.30179,0.0098 -0.838306,0.04956 -2.021227,0.299556 -2.848405,0.702799 -0.846682,0.41275 -1.193664,0.915708 -1.198678,1.449461 -0.005,0.533754 0.295708,1.03887 0.852446,1.365871 0.565543,0.332174 1.519842,0.548554 2.615861,0.566374 1.115837,0.0181 2.054147,-0.18441 2.39882,-0.662492 0.347748,-0.482341 0.03041,-1.112143 -0.233578,-1.69447 -0.393178,-0.867458 -0.234637,-0.724002 -0.380855,-1.321366 -0.06385,-0.260822 -0.26397,-0.416189 -0.903821,-0.415996 z m 52.296037,1.85105 c -0.44381,0.0034 -0.87741,0.0776 -1.2914,0.220658 -0.54238,0.18743 -0.5749,1.239129 -0.31161,2.407605 0.26329,1.168476 0.70068,2.496068 0.92811,3.792017 0.0239,0.135639 0.0446,0.270122 0.0631,0.403593 0.18493,1.342014 0.19161,2.177859 0.5209,2.902665 0.2932,0.645347 0.87863,1.131312 1.42471,1.194243 1.08878,0.125478 2.0843,0.444125 3.04943,0.68833 0.33784,0.08608 0.65888,0.158581 0.9493,0.19482 0.1342,0.01675 0.22285,-0.05786 0.28267,-0.192753 -1.01237,-4.272174 -2.45211,-8.068092 -4.25556,-11.404472 -0.45712,-0.140457 -0.91345,-0.210082 -1.3596,-0.206706 z m -67.052242,3.195671 c -0.245163,-0.0014 -0.493521,0.02453 -0.738973,0.06976 -0.568054,1.293659 -1.06558,2.696755 -1.553394,4.061767 -1.83e-4,5.13e-4 -3.55e-4,0.001 -5.16e-4,0.0016 -0.39341,1.269578 -0.775568,2.507967 -1.101225,3.832324 0.09454,0.614395 0.08015,1.159527 0.0031,1.60662 -0.111014,0.644226 0.110997,1.381462 1.696538,0.397392 1.568891,-0.973737 2.512531,-2.694969 2.71973,-4.476213 0.239077,-2.055249 -0.148036,-1.98573 0.557072,-3.024104 0.450837,-0.663904 0.757897,-1.568981 -0.155029,-2.107365 -0.420946,-0.248249 -0.916689,-0.358897 -1.427303,-0.361735 z m 5.141288,3.335197 c -0.502698,1.06e-4 -1.139305,0.119719 -1.704289,0.301273 -0.782929,0.25159 -1.092059,0.476223 -1.162299,0.678437 -0.07024,0.202214 0.05258,0.715173 0.06728,1.073361 0.01236,0.301077 -0.203812,0.699394 0.01757,0.903821 0.450455,0.415955 0.703159,0.07315 1.836063,-0.110588 1.182877,-0.191832 2.036082,-0.504969 2.148706,-0.957047 0.101203,-0.406255 -0.354321,-0.74548 -0.378271,-1.033012 -0.02261,-0.271296 0.230641,-0.609902 -0.241846,-0.777213 -0.15405,-0.05455 -0.35441,-0.07912 -0.58291,-0.07906 z m 63.569244,5.146972 c -0.16626,-0.02426 -0.33587,0.04866 -0.49144,0.112138 -1.52528,0.622299 -3.71677,1.013758 -4.21215,2.584855 -0.22689,0.719583 0.60046,1.348793 0.90124,2.076359 0.5884,1.346964 0.28478,2.632222 0.97255,3.709851 0.42718,0.669326 0.99561,1.247931 1.83555,1.518254 0.57848,0.196477 1.23717,0.06151 1.85673,-0.206706 0.38977,-0.169528 0.90115,-0.218263 1.12448,-0.575158 0.72046,-1.151325 0.22384,-2.59385 0.0827,-4.073654 -0.0572,-0.809996 0.32553,-1.476209 0.23306,-2.211751 -0.0916,-0.728949 -0.16127,-1.53088 -0.76636,-2.06654 -0.49098,-0.36695 -0.95438,-0.782738 -1.53636,-0.867648 z m -67.402602,2.642733 c -0.138263,-3.26e-4 -0.28884,0.0051 -0.490926,0.03772 -0.276559,0.04463 -0.697642,0.14965 -1.107942,0.344165 -0.959946,0.455013 -1.165256,0.992567 -0.952292,1.940036 0.212965,0.947469 0.463235,2.394892 0.409689,3.786229 -0.05898,1.532437 0.07557,2.335737 1.13068,2.495455 0.460708,0.06974 1.010165,-0.02844 1.515153,-0.273885 0.500775,-0.227305 1.055114,-0.489539 1.385962,-0.851111 0.622604,-0.830595 0.167889,-2.733238 0.05013,-4.440556 -0.09732,-1.41113 0.192775,-1.481163 0.417546,-1.723409 0.123105,-0.132674 -0.08352,-0.519705 -1.050582,-1.014408 -0.400333,-0.203627 -0.73408,-0.270053 -0.967383,-0.289905 -0.07973,-0.0068 -0.149313,-0.0087 -0.204638,-0.0093 -0.04499,-6.21e-4 -0.0893,-0.001 -0.135393,-0.001 z m -3.898986,2.703194 c -0.430805,0.0049 -1.267708,0.261219 -1.837614,0.485759 -0.06294,0.0248 -0.108124,0.04712 -0.163815,0.0708 -0.05634,0.426575 -0.109352,0.856842 -0.15813,1.291394 0.107201,0.03231 0.217913,0.0598 0.329696,0.07545 0.329354,0.04609 0.684398,0.01356 1.03818,-0.106453 0.328674,-0.111496 0.490354,-0.249581 0.521415,-0.406694 0.03108,-0.157113 0.109964,-0.407458 0.330729,-0.738973 0.236409,-0.355017 0.425702,-0.657927 -0.01964,-0.67076 -0.01303,-3.75e-4 -0.02693,-6.74e-4 -0.04082,-5.17e-4 z m 75.933868,0.964282 c -0.65043,0.01395 -1.01941,0.656082 -1.29966,1.214913 -0.0317,0.06332 -1.13669,2.0844 -1.43841,3.021152 -0.30171,0.936752 -0.0553,2.266514 0.58833,4.084875 0.61785,1.745644 0.47659,1.96812 1.18907,2.601908 0.44584,0.396601 0.61644,-0.338363 1.70378,0.54932 0.0804,0.06568 0.15104,0.130565 0.22272,0.195337 0.0393,-0.759155 0.0662,-1.518103 0.0662,-2.27738 0,-3.268946 -0.18955,-6.349712 -0.54829,-9.251632 -0.12829,-0.08728 -0.26776,-0.131758 -0.42013,-0.137976 -0.0215,-8.8e-4 -0.0426,-9.33e-4 -0.0636,-5.17e-4 z m -78.435008,5.012098 c -0.03728,0.687779 -0.06804,1.39521 -0.08165,2.093412 -3e-6,1.72e-4 10e-7,3.45e-4 0,5.17e-4 -0.0057,0.76143 -0.03411,1.511451 -0.03411,2.284098 0,0.189173 0.0073,0.378237 0.0098,0.567407 0.19864,-0.06712 0.408543,-0.135144 0.647505,-0.19637 0.88975,-0.224529 1.785001,-0.170838 2.810165,-0.03772 1.136117,0.146042 2.004981,0.255992 2.768823,0.03462 0.723306,-0.20962 0.770341,-0.459554 1.000456,-0.984436 0.38043,-0.867741 0.104564,-2.465015 -0.423747,-2.596741 -0.574599,-0.143266 -1.210955,0.799235 -2.396236,0.448552 -0.140382,-0.04156 -0.281122,-0.08788 -0.42323,-0.139527 -0.611215,-0.222195 -1.043414,-0.460558 -1.680001,-0.778763 -0.818336,-0.407227 -1.562939,-0.671383 -2.197799,-0.695048 z m 1.124479,12.496394 c 0.322301,0.345247 0.54173,0.471813 1.390096,0.274402 0.923719,-0.214967 1.826665,-0.836174 1.843816,-1.82056 0.01638,-0.937369 -0.966332,-1.691695 -1.630392,-2.395203 -0.660158,-0.699354 -0.707644,-1.199882 -1.946253,-0.547689 -1.23861,0.652194 -0.901511,3.156222 0.342733,4.48905 z m 77.958549,-2.17351 c -0.36049,0.03372 -0.82384,0.106563 -1.10898,0.372587 -0.58871,0.549249 -0.89452,1.426342 -0.92604,2.230871 -0.022,0.560859 0.32656,1.074746 0.52193,1.600936 0.11008,0.296483 -0.001,0.949329 0.36587,0.875399 0.10007,-0.02017 0.21584,-0.01567 0.33487,-0.0041 0.32437,-1.689758 0.60583,-3.381813 0.81235,-5.075659 z M 72.905111,93.4775 c -1.335981,0.153928 -2.102286,2.345118 -2.067574,3.464388 0.03471,1.11927 1.818201,1.591651 1.089339,4.436932 -0.220013,0.85888 2.072516,0.0768 2.466516,-0.67954 0.482933,-0.92705 -1.338365,-1.613105 -1.050065,-2.954857 0.0943,-0.504919 1.276967,-0.679459 1.347204,-2.41639 0.06348,-1.570023 -0.933914,-1.948641 -1.78542,-1.850533 z m 72.964539,4.884457 -5.2e-4,10e-4 c -0.84259,-0.0068 -2.4009,1.514734 -3.46594,2.797763 -0.85149,1.02578 -2.09518,2.65991 -2.7282,3.77454 -0.63302,1.11463 -0.82996,2.26099 -0.082,2.92529 0.63206,0.56134 1.99275,0.65682 2.57917,0.71055 0.7136,0.0654 1.27844,0.0596 2.01176,-0.56689 0.005,-0.004 0.009,-0.008 0.0134,-0.0124 0.70421,-3.08408 1.4842,-6.18753 2.17351,-9.302794 -0.0867,-0.192284 -0.23387,-0.309026 -0.46199,-0.324528 -0.013,-8.81e-4 -0.0259,-0.0014 -0.0393,-0.0026 z m -5.67717,12.477273 c -0.15622,0.006 -0.33642,0.045 -0.54674,0.11782 -0.62324,0.2158 -1.30546,0.40536 -2.04742,0.54415 -1.00271,0.1876 -1.68273,0.57275 -1.56373,1.29708 0.0927,0.56443 0.2696,1.20417 0.39067,1.84278 0.0945,0.49873 0.37131,1.17121 0.75086,1.69447 0.20435,0.28319 0.42758,0.51632 0.6904,0.68317 0.64492,0.40943 1.18459,0.5853 1.80764,0.81959 0.62798,0.23611 1.30111,0.19189 1.81798,-0.13488 0.43133,-1.02127 0.79073,-2.07028 1.10587,-3.13521 -0.14416,-0.35063 -0.33421,-0.69295 -0.52141,-0.99012 -0.38945,-0.61824 -0.71472,-1.26681 -0.93741,-1.86604 -0.22306,-0.60024 -0.47802,-0.88886 -0.94671,-0.87281 z m -3.18689,9.01702 v 10e-4 c -0.0225,-0.0547 -1.02118,0.57138 -1.18649,1.21233 -0.3786,1.46602 -1.67939,2.49615 -2.2686,3.88555 -0.27018,0.63704 -0.38092,1.81717 0.51419,2.12546 0.0525,0.18653 0.19479,0.52285 0.12609,0.86816 -0.0549,0.29098 -0.0773,0.49805 -0.0279,0.82579 0.0187,0.1496 0.12615,0.30764 0.2527,0.34003 0.0326,0.0111 0.0712,0.0182 0.10852,0.0264 0.79721,-1.13335 1.71139,-2.43342 2.71818,-3.94756 -0.003,-0.18228 -0.002,-0.35912 0.0186,-0.51366 0.0867,-0.65556 0.79423,-1.25222 1.47536,-1.81178 0.48624,-0.78791 0.95546,-1.58498 1.38907,-2.3766 -0.0382,-0.003 -0.0711,-0.008 -0.12093,-0.004 -0.30816,0.0519 -0.62764,0.0943 -1.02371,0.0703 -0.1203,-0.003 -0.26329,-0.0197 -0.42994,-0.0465 -0.15234,-0.0422 -0.27837,-0.10244 -0.38086,-0.17983 -0.17593,-0.0863 -0.17652,-0.22392 -0.3514,-0.28216 -0.21258,-0.0786 -0.39083,-0.19465 -0.79478,-0.18655 -0.006,-0.002 -0.012,-0.005 -0.0181,-0.006 z"
       sodipodi:nodetypes="ccaaacsssccccccccaaasscsscccccscacscccsacssssccsacaacsscaaaccscccscscccscccccccaaaccsaaaaaaaaassssssasssaaaaaasssccssccsssscacscccccssscacacccsssscacacaaacccacascccasacacasccccsssssccccsccsscscscscccscsaccsscccccssssccccscccccsccccaasscscaccascaccccccccsccccccscccccccccccsccccccccccccccccccc" />
    <path
       id="path950"
       style="fill:none;stroke:#000000;stroke-width:0.529167;stroke-linecap:round;stroke-linejoin:round;stroke-dasharray:none"
       d="m 148.27058,84.277802 c 0,7.983204 -2.3091,15.965648 -4.09852,23.821648 -0.76963,3.37886 -1.44186,6.83127 -2.84838,9.99841 -1.9687,4.43304 -5.9089,9.7259 -7.7091,12.34172 -7.20083,10.46327 -14.14732,11.65769 -25.13542,11.65769 -10.988098,0 -17.934573,-1.19442 -25.13541,-11.65769 -1.800208,-2.61582 -5.7404,-7.90868 -7.709103,-12.34172 -1.40652,-3.16714 -2.078752,-6.61955 -2.848383,-9.99841 -1.789423,-7.856 -4.098527,-15.838444 -4.098527,-23.821648 0,-31.932811 17.815227,-46.177801 39.791423,-46.177799 21.97619,0 39.79142,14.24499 39.79142,46.177799 z"
       sodipodi:nodetypes="saasssaasss" />
  </g>
</svg>
