<?xml version="1.0" encoding="UTF-8" standalone="no"?>
<!-- Created with Inkscape (http://www.inkscape.org/) -->

<svg
   width="210mm"
   height="297mm"
   viewBox="0 0 210 297"
   version="1.1"
   id="mySVG"
   inkscape:version="1.2.2 (732a01da63, 2022-12-09)"
   sodipodi:docname="denubulan_forehead.svg"
   xmlns:inkscape="http://www.inkscape.org/namespaces/inkscape"
   xmlns:sodipodi="http://sodipodi.sourceforge.net/DTD/sodipodi-0.dtd"
   xmlns="http://www.w3.org/2000/svg"
   xmlns:svg="http://www.w3.org/2000/svg">
  <sodipodi:namedview
     id="namedview7"
     pagecolor="#ffffff"
     bordercolor="#666666"
     borderopacity="1.0"
     inkscape:showpageshadow="2"
     inkscape:pageopacity="0.0"
     inkscape:pagecheckerboard="0"
     inkscape:deskcolor="#d1d1d1"
     inkscape:document-units="mm"
     showgrid="false"
     showguides="true"
     inkscape:zoom="2.9540684"
     inkscape:cx="311.60416"
     inkscape:cy="325.31407"
     inkscape:window-width="2560"
     inkscape:window-height="1369"
     inkscape:window-x="2552"
     inkscape:window-y="-8"
     inkscape:window-maximized="1"
     inkscape:current-layer="layer1">
    <inkscape:grid
       type="xygrid"
       id="grid9" />
  </sodipodi:namedview>
  <defs
     id="defs2">
    <inkscape:path-effect
       effect="simplify"
       id="path-effect4085"
       is_visible="true"
       lpeversion="1"
       steps="1"
       threshold="0.00243902"
       smooth_angles="360"
       helper_size="0"
       simplify_individual_paths="false"
       simplify_just_coalesce="false" />
    <inkscape:path-effect
       effect="simplify"
       id="path-effect14166"
       is_visible="true"
       lpeversion="1"
       steps="1"
       threshold="0.00243902"
       smooth_angles="360"
       helper_size="0"
       simplify_individual_paths="false"
       simplify_just_coalesce="false" />
    <inkscape:path-effect
       effect="simplify"
       id="path-effect2574"
       is_visible="true"
       lpeversion="1"
       steps="1"
       threshold="0.00243902"
       smooth_angles="360"
       helper_size="0"
       simplify_individual_paths="false"
       simplify_just_coalesce="false" />
    <inkscape:path-effect
       effect="simplify"
       id="path-effect441"
       is_visible="true"
       lpeversion="1"
       steps="1"
       threshold="0.00243902"
       smooth_angles="360"
       helper_size="0"
       simplify_individual_paths="false"
       simplify_just_coalesce="false" />
    <inkscape:path-effect
       effect="simplify"
       id="path-effect437"
       is_visible="true"
       lpeversion="1"
       steps="1"
       threshold="0.00243902"
       smooth_angles="360"
       helper_size="0"
       simplify_individual_paths="false"
       simplify_just_coalesce="false" />
  </defs>
  <g
     inkscape:label="Ebene 1"
     inkscape:groupmode="layer"
     id="layer1">
    <path
       id="headracial"
       style="fill:#ff2a2a;stroke:none;stroke-width:0.529167;stroke-linecap:round;stroke-linejoin:round;stroke-dasharray:none;stroke-opacity:1"
       d="M 100.19905 39.152132 C 97.681024 39.193546 94.983201 39.997203 92.240881 42.153499 C 92.480213 41.910964 92.615019 41.777295 92.615019 41.777295 C 92.615019 41.777295 80.362502 49.489517 76.99375 55.5625 C 73.090332 62.599347 74.534044 71.470781 73.025 79.375 C 71.92531 85.13506 68.361744 90.787783 69.320833 96.572917 C 70.241994 102.12928 78.018494 111.05885 78.018494 111.05885 L 79.375 108.47917 C 79.375 108.47917 74.498386 100.89611 74.083333 96.572917 C 73.521087 90.716547 76.937741 85.151801 78.052083 79.375 C 78.351164 77.824551 78.550459 76.247767 78.70424 74.659526 L 138.93674 78.991044 C 138.96003 79.119031 138.9824 79.247367 139.00702 79.375 C 140.12136 85.151801 143.53801 90.716547 142.97577 96.572917 C 142.56071 100.89611 137.6841 108.47917 137.6841 108.47917 L 139.04061 111.05885 C 139.04061 111.05885 146.8171 102.12928 147.73827 96.572917 C 148.69736 90.787783 145.13379 85.13506 144.0341 79.375 C 142.52505 71.470781 144.0425 62.557943 140.06535 55.5625 C 137.39552 50.866502 128.91201 45.293428 126.08636 43.522925 C 125.86623 43.350332 125.64235 43.177956 125.41457 43.005644 C 119.90138 39.251859 111.07711 40.628985 110.2341 42.31318 C 107.69121 40.913853 104.16858 39.086846 100.19905 39.152132 z " />
    <path
       style="fill:none;stroke:#000000;stroke-width:0.529167;stroke-linecap:round;stroke-linejoin:miter;stroke-dasharray:none;stroke-opacity:1"
       d="m 110.06668,42.333333 c 5.0599,11.249109 3.9893,21.691574 0,31.749999"
       id="path423"
       sodipodi:nodetypes="cc" />
    <path
       style="fill:none;stroke:#000000;stroke-width:0.529167;stroke-linecap:round;stroke-linejoin:miter;stroke-dasharray:none;stroke-opacity:1"
       d="m 107.42082,71.827611 c -4.21072,1.525108 -9.112678,1.036856 -13.799936,-0.654697"
       id="path3638"
       sodipodi:nodetypes="cc" />
    <path
       style="fill:none;stroke:#000000;stroke-width:0.529167;stroke-linecap:round;stroke-linejoin:round;stroke-dasharray:none;stroke-opacity:1"
       d="m 79.375,108.47917 c 0,0 -4.876614,-7.58306 -5.291667,-11.906253 C 73.521086,90.716541 76.93774,85.151807 78.052083,79.375 79.573587,71.487448 78.54861,62.927246 81.75625,55.5625 84.092028,50.19955 92.615263,41.777159 92.615263,41.777159 v -2e-6 c 0,0 -12.252759,7.712352 -15.621514,13.785341 -3.903422,7.036854 -2.459702,15.908274 -3.968748,23.812501 -1.099691,5.760066 -4.663258,11.412777 -3.704168,17.197916 0.921162,5.556365 8.697668,14.486065 8.697668,14.486065"
       id="path425"
       sodipodi:nodetypes="casaccasac" />
    <path
       style="fill:none;stroke:#000000;stroke-width:0.529167;stroke-linecap:round;stroke-linejoin:miter;stroke-dasharray:none;stroke-opacity:1"
       d="m 79.852087,105.81478 c 0.335568,1.54678 0.18427,1.51421 -1.006254,3.72272 -1.190524,2.20851 -1.579442,2.58401 -0.850016,3.56834"
       id="path3546"
       sodipodi:nodetypes="czc" />
    <path
       style="fill:none;stroke:#000000;stroke-width:0.529167;stroke-linecap:butt;stroke-linejoin:miter;stroke-dasharray:none;stroke-opacity:1"
       d="m 74.536624,106.63 c 0.263877,-1.13153 0.347281,-2.16744 2.555367,-2.08945"
       id="path3549"
       sodipodi:nodetypes="cc" />
    <path
       style="fill:none;stroke:#000000;stroke-width:0.529167;stroke-linecap:butt;stroke-linejoin:miter;stroke-dasharray:none;stroke-opacity:1"
       d="m 71.732917,102.37192 c 0.36715,-1.98491 1.555926,-2.548624 3.485182,-1.83151"
       id="path3614"
       sodipodi:nodetypes="cc" />
    <path
       style="fill:none;stroke:#000000;stroke-width:0.529167;stroke-linecap:butt;stroke-linejoin:miter;stroke-dasharray:none;stroke-opacity:1"
       d="m 70.057758,99.039457 c 1.115233,-1.150378 2.315667,-2.089995 4.2213,-1.285172"
       id="path3616"
       sodipodi:nodetypes="cc" />
    <path
       style="fill:none;stroke:#000000;stroke-width:0.529167;stroke-linecap:butt;stroke-linejoin:miter;stroke-dasharray:none;stroke-opacity:1"
       d="m 69.320832,96.572913 c 1.202177,-1.198782 2.800363,-1.165535 4.7625,2e-6"
       id="path3618"
       sodipodi:nodetypes="cc" />
    <path
       style="fill:none;stroke:#000000;stroke-width:0.529167;stroke-linecap:butt;stroke-linejoin:miter;stroke-dasharray:none;stroke-opacity:1"
       d="m 69.32083,92.117184 c 1.785631,-0.585879 3.356719,-0.170554 4.762502,1.016193"
       id="path3620"
       sodipodi:nodetypes="cc" />
    <path
       style="fill:none;stroke:#000000;stroke-width:0.529167;stroke-linecap:butt;stroke-linejoin:miter;stroke-dasharray:none;stroke-opacity:1"
       d="m 70.108754,88.916914 c 2.034955,-0.253638 3.791447,0.405313 4.435516,2.174783"
       id="path3622"
       sodipodi:nodetypes="cc" />
    <path
       style="fill:none;stroke:#000000;stroke-width:0.529167;stroke-linecap:butt;stroke-linejoin:miter;stroke-dasharray:none;stroke-opacity:1"
       d="m 71.70208,84.263949 c 2.83159,-0.501594 4.062572,0.211066 4.450807,1.563052"
       id="path3624"
       sodipodi:nodetypes="cc" />
    <path
       style="fill:none;stroke:#000000;stroke-width:0.529167;stroke-linecap:butt;stroke-linejoin:miter;stroke-dasharray:none;stroke-opacity:1"
       d="m 73.284674,77.814217 c 2.039182,-1.564162 3.527757,-0.578147 4.767408,1.560782"
       id="path3626"
       sodipodi:nodetypes="cc" />
    <path
       style="fill:none;stroke:#000000;stroke-width:0.529167;stroke-linecap:butt;stroke-linejoin:miter;stroke-dasharray:none;stroke-opacity:1"
       d="m 73.927482,69.095804 c 1.876161,-1.096996 3.556283,-0.681682 5.137645,0.495486"
       id="path3628"
       sodipodi:nodetypes="cc" />
    <path
       style="fill:none;stroke:#000000;stroke-width:0.529167;stroke-linecap:butt;stroke-linejoin:miter;stroke-dasharray:none;stroke-opacity:1"
       d="m 74.164295,66.274888 c 1.794481,-1.45053 3.677692,-1.48454 5.115051,0.398075"
       id="path3630"
       sodipodi:nodetypes="cc" />
    <path
       style="fill:none;stroke:#000000;stroke-width:0.529167;stroke-linecap:butt;stroke-linejoin:miter;stroke-dasharray:none;stroke-opacity:1"
       d="M 74.945969,61.014145 C 76.41,60.064169 78.280431,60.230591 79.983218,61.310046"
       id="path3632"
       sodipodi:nodetypes="cc" />
    <path
       style="fill:none;stroke:#000000;stroke-width:0.529167;stroke-linecap:butt;stroke-linejoin:miter;stroke-dasharray:none;stroke-opacity:1"
       d="m 79.250446,52.525159 c 1.462497,0.186091 2.240576,1.154375 2.875659,2.286082"
       id="path3634"
       sodipodi:nodetypes="cc" />
    <path
       style="fill:none;stroke:#000000;stroke-width:0.529167;stroke-linecap:butt;stroke-linejoin:miter;stroke-dasharray:none;stroke-opacity:1"
       d="m 76.62106,56.270966 c 1.686307,-0.212174 2.99579,0.479296 4.067214,1.741644"
       id="path3636"
       sodipodi:nodetypes="cc" />
    <path
       style="fill:none;stroke:#000000;stroke-width:0.529167;stroke-linecap:round;stroke-linejoin:miter;stroke-dasharray:none;stroke-opacity:1"
       d="m 84.362702,55.969376 c -1.535592,7.170531 0.402482,12.243754 5.194813,15.593652"
       id="path3640"
       sodipodi:nodetypes="cc" />
    <path
       style="fill:none;stroke:#000000;stroke-width:0.529167;stroke-linecap:round;stroke-linejoin:miter;stroke-dasharray:none;stroke-opacity:1"
       d="m 107.6854,68.193134 c -3.46502,0.901059 -6.44393,0.621567 -9.073517,-0.506276"
       id="path3642"
       sodipodi:nodetypes="cc" />
    <path
       style="fill:none;stroke:#000000;stroke-width:0.529167;stroke-linecap:round;stroke-linejoin:round;stroke-dasharray:none;stroke-opacity:1"
       d="m 137.68409,108.47917 c 0,0 4.87661,-7.58306 5.29167,-11.906253 C 143.538,90.716541 140.12135,85.151807 139.00701,79.375 137.4855,71.487448 138.54935,62.910194 135.30284,55.5625 133.12037,50.623012 125.14412,42.942842 125.14412,42.942842 v -2e-6 c 0,0 11.7017,6.956808 14.92122,12.619658 3.97715,6.99545 2.4597,15.908274 3.96875,23.812501 1.09969,5.760066 4.66326,11.412777 3.70417,17.197916 -0.92117,5.556365 -8.69767,14.486065 -8.69767,14.486065"
       id="path4388"
       sodipodi:nodetypes="casaccasac" />
    <path
       style="fill:none;stroke:#000000;stroke-width:0.529167;stroke-linecap:round;stroke-linejoin:miter;stroke-dasharray:none;stroke-opacity:1"
       d="m 137.207,105.81478 c -0.33556,1.54678 -0.18427,1.51421 1.00626,3.72272 1.19052,2.20851 1.57944,2.58401 0.85001,3.56834"
       id="path4390"
       sodipodi:nodetypes="czc" />
    <path
       style="fill:none;stroke:#000000;stroke-width:0.529167;stroke-linecap:butt;stroke-linejoin:miter;stroke-dasharray:none;stroke-opacity:1"
       d="m 142.52247,106.63 c -0.26388,-1.13153 -0.34729,-2.16744 -2.55537,-2.08945"
       id="path4392"
       sodipodi:nodetypes="cc" />
    <path
       style="fill:none;stroke:#000000;stroke-width:0.529167;stroke-linecap:butt;stroke-linejoin:miter;stroke-dasharray:none;stroke-opacity:1"
       d="m 145.32617,102.37192 c -0.36715,-1.98491 -1.55592,-2.548624 -3.48518,-1.83151"
       id="path4394"
       sodipodi:nodetypes="cc" />
    <path
       style="fill:none;stroke:#000000;stroke-width:0.529167;stroke-linecap:butt;stroke-linejoin:miter;stroke-dasharray:none;stroke-opacity:1"
       d="m 147.00133,99.039457 c -1.11523,-1.150378 -2.31567,-2.089995 -4.2213,-1.285172"
       id="path4396"
       sodipodi:nodetypes="cc" />
    <path
       style="fill:none;stroke:#000000;stroke-width:0.529167;stroke-linecap:butt;stroke-linejoin:miter;stroke-dasharray:none;stroke-opacity:1"
       d="m 147.73826,96.572913 c -1.20218,-1.198782 -2.80037,-1.165535 -4.7625,2e-6"
       id="path4398"
       sodipodi:nodetypes="cc" />
    <path
       style="fill:none;stroke:#000000;stroke-width:0.529167;stroke-linecap:butt;stroke-linejoin:miter;stroke-dasharray:none;stroke-opacity:1"
       d="m 147.73826,92.117184 c -1.78563,-0.585879 -3.35672,-0.170554 -4.7625,1.016193"
       id="path4400"
       sodipodi:nodetypes="cc" />
    <path
       style="fill:none;stroke:#000000;stroke-width:0.529167;stroke-linecap:butt;stroke-linejoin:miter;stroke-dasharray:none;stroke-opacity:1"
       d="m 146.95034,88.916914 c -2.03496,-0.253638 -3.79145,0.405313 -4.43552,2.174783"
       id="path4402"
       sodipodi:nodetypes="cc" />
    <path
       style="fill:none;stroke:#000000;stroke-width:0.529167;stroke-linecap:butt;stroke-linejoin:miter;stroke-dasharray:none;stroke-opacity:1"
       d="m 145.35701,84.263949 c -2.83159,-0.501594 -4.06257,0.211066 -4.45081,1.563052"
       id="path4404"
       sodipodi:nodetypes="cc" />
    <path
       style="fill:none;stroke:#000000;stroke-width:0.529167;stroke-linecap:butt;stroke-linejoin:miter;stroke-dasharray:none;stroke-opacity:1"
       d="m 143.77442,77.814217 c -2.03919,-1.564162 -3.52776,-0.578147 -4.76741,1.560782"
       id="path4406"
       sodipodi:nodetypes="cc" />
    <path
       style="fill:none;stroke:#000000;stroke-width:0.529167;stroke-linecap:butt;stroke-linejoin:miter;stroke-dasharray:none;stroke-opacity:1"
       d="m 143.13161,69.095804 c -1.87616,-1.096996 -3.55628,-0.681682 -5.13765,0.495486"
       id="path4408"
       sodipodi:nodetypes="cc" />
    <path
       style="fill:none;stroke:#000000;stroke-width:0.529167;stroke-linecap:butt;stroke-linejoin:miter;stroke-dasharray:none;stroke-opacity:1"
       d="m 142.89479,66.274888 c -1.79448,-1.45053 -3.67769,-1.48454 -5.11505,0.398075"
       id="path4410"
       sodipodi:nodetypes="cc" />
    <path
       style="fill:none;stroke:#000000;stroke-width:0.529167;stroke-linecap:butt;stroke-linejoin:miter;stroke-dasharray:none;stroke-opacity:1"
       d="m 142.11312,61.014145 c -1.46403,-0.949976 -3.33446,-0.783554 -5.03725,0.295901"
       id="path4412"
       sodipodi:nodetypes="cc" />
    <path
       style="fill:none;stroke:#000000;stroke-width:0.529167;stroke-linecap:butt;stroke-linejoin:miter;stroke-dasharray:none;stroke-opacity:1"
       d="m 137.80864,52.525159 c -1.46249,0.186091 -2.24057,1.154375 -2.87566,2.286082"
       id="path4414"
       sodipodi:nodetypes="cc" />
    <path
       style="fill:none;stroke:#000000;stroke-width:0.529167;stroke-linecap:butt;stroke-linejoin:miter;stroke-dasharray:none;stroke-opacity:1"
       d="m 140.43803,56.270966 c -1.68631,-0.212174 -2.99579,0.479296 -4.06721,1.741644"
       id="path4416"
       sodipodi:nodetypes="cc" />
    <path
       style="fill:none;stroke:#000000;stroke-width:0.529167;stroke-linecap:round;stroke-linejoin:miter;stroke-dasharray:none;stroke-opacity:1"
       d="m 131.86451,52.404084 c 3.17644,6.609447 2.48385,11.995915 -1.38786,16.377481"
       id="path4418"
       sodipodi:nodetypes="cc" />
    <path
       style="fill:none;stroke:#000000;stroke-width:0.529167;stroke-linecap:round;stroke-linejoin:miter;stroke-dasharray:none;stroke-opacity:1"
       d="m 112.40638,72.356778 c 4.21074,1.525108 9.11271,1.036856 13.79997,-0.654697"
       id="path4422"
       sodipodi:nodetypes="cc" />
    <path
       style="fill:none;stroke:#000000;stroke-width:0.529167;stroke-linecap:round;stroke-linejoin:miter;stroke-dasharray:none;stroke-opacity:1"
       d="m 114.25846,68.722301 c 1.83503,0.26097 3.61871,0.03409 5.36939,-0.506276"
       id="path4424"
       sodipodi:nodetypes="cc" />
    <path
       style="fill:none;stroke:#000000;stroke-width:0.529167;stroke-linecap:round;stroke-linejoin:round;stroke-dasharray:none;stroke-opacity:1"
       d="m 125.14412,42.94284 c -3.2562,-2.087105 -9.31689,-3.838713 -15.07744,-0.609507 -2.72988,-2.13578 -8.48233,-5.54551 -17.546417,-0.495559"
       id="path4426"
       sodipodi:nodetypes="ccc" />
  </g>
</svg>
