<?xml version="1.0" encoding="UTF-8" standalone="no"?>
<!-- Created with Inkscape (http://www.inkscape.org/) -->

<svg
   width="210mm"
   height="297mm"
   viewBox="0 0 210 297"
   version="1.1"
   id="mySVG"
   inkscape:version="1.2.2 (732a01da63, 2022-12-09)"
   sodipodi:docname="trill_marks.svg"
   xmlns:inkscape="http://www.inkscape.org/namespaces/inkscape"
   xmlns:sodipodi="http://sodipodi.sourceforge.net/DTD/sodipodi-0.dtd"
   xmlns="http://www.w3.org/2000/svg"
   xmlns:svg="http://www.w3.org/2000/svg">
  <sodipodi:namedview
     id="namedview7"
     pagecolor="#ffffff"
     bordercolor="#666666"
     borderopacity="1.0"
     inkscape:showpageshadow="2"
     inkscape:pageopacity="0.0"
     inkscape:pagecheckerboard="0"
     inkscape:deskcolor="#d1d1d1"
     inkscape:document-units="mm"
     showgrid="false"
     showguides="false"
     inkscape:zoom="0.52221045"
     inkscape:cx="449.05268"
     inkscape:cy="576.39597"
     inkscape:window-width="2560"
     inkscape:window-height="1369"
     inkscape:window-x="1912"
     inkscape:window-y="-8"
     inkscape:window-maximized="1"
     inkscape:current-layer="layer1">
    <inkscape:grid
       type="xygrid"
       id="grid9" />
  </sodipodi:namedview>
  <defs
     id="defs2">
    <inkscape:path-effect
       effect="simplify"
       id="path-effect4085"
       is_visible="true"
       lpeversion="1"
       steps="1"
       threshold="0.00243902"
       smooth_angles="360"
       helper_size="0"
       simplify_individual_paths="false"
       simplify_just_coalesce="false" />
    <inkscape:path-effect
       effect="simplify"
       id="path-effect14166"
       is_visible="true"
       lpeversion="1"
       steps="1"
       threshold="0.00243902"
       smooth_angles="360"
       helper_size="0"
       simplify_individual_paths="false"
       simplify_just_coalesce="false" />
    <inkscape:path-effect
       effect="simplify"
       id="path-effect2574"
       is_visible="true"
       lpeversion="1"
       steps="1"
       threshold="0.00243902"
       smooth_angles="360"
       helper_size="0"
       simplify_individual_paths="false"
       simplify_just_coalesce="false" />
    <inkscape:path-effect
       effect="simplify"
       id="path-effect441"
       is_visible="true"
       lpeversion="1"
       steps="1"
       threshold="0.00243902"
       smooth_angles="360"
       helper_size="0"
       simplify_individual_paths="false"
       simplify_just_coalesce="false" />
    <inkscape:path-effect
       effect="simplify"
       id="path-effect437"
       is_visible="true"
       lpeversion="1"
       steps="1"
       threshold="0.00243902"
       smooth_angles="360"
       helper_size="0"
       simplify_individual_paths="false"
       simplify_just_coalesce="false" />
  </defs>
  <g
     inkscape:label="marks"
     inkscape:groupmode="layer"
     id="layer1"
     style="display:inline">
    <path
       id="headracial"
       style="display:inline;fill:#d58f73;fill-opacity:1;fill-rule:nonzero;stroke-width:0.311017;stroke-dasharray:none"
       d="m 118.36797,44.365767 c -0.55842,0.0016 -1.06381,0.04871 -1.40095,0.148829 -0.89129,0.264681 -0.96993,0.89082 -1.03353,1.296044 -0.0409,0.284153 -0.0897,0.405816 -0.31729,0.658875 -0.0452,0.213276 0.23644,0.324463 0.66714,0.405143 0.18736,0.02327 0.49426,0.04493 0.84284,0.0646 -0.35109,-0.01974 -0.65992,-0.04111 -0.84801,-0.0646 -0.428,-0.08041 -0.70822,-0.191741 -0.66352,-0.404109 -0.0598,0.06648 -0.12799,0.138768 -0.19999,0.220658 -0.28279,0.325753 -0.3988,0.83469 -0.16433,1.148767 0.30504,0.386871 0.71401,0.382463 1.16014,0.457853 0.48851,0.08255 1.23098,0.290426 2.18798,0.430465 1.53322,0.22436 2.84603,0.113656 3.38429,-0.211874 0.47969,-0.290098 0.0652,-0.550109 -0.0703,-0.928108 -0.009,-0.02576 -0.0173,-0.05262 -0.0253,-0.0801 -0.0595,-0.196184 -0.0583,-0.40746 -0.007,-0.655774 0.0795,-0.316265 0.2874,-0.579803 0.3669,-0.896069 0.13483,-0.478784 -0.21114,-1.083231 -1.70532,-1.387512 -0.65011,-0.132389 -1.45606,-0.205126 -2.17403,-0.203089 z m -21.014739,1.881539 c -1.977669,0.01633 -3.812573,0.347096 -4.878772,0.902788 -1.746378,0.910199 -1.204349,2.248522 -0.966349,4.187858 0.650026,0.2361 2.952214,0.292448 5.500439,0.768428 -2.548701,-0.474927 -4.85045,-0.529739 -5.499406,-0.763777 0.07424,0.605969 0.110722,1.152634 0.114722,1.747696 0.01163,1.629675 -0.233912,2.706154 0.322977,3.221509 0.5564,0.514892 1.797785,0.384476 3.295923,0.455786 1.290859,0.06144 2.05032,0.235584 3.517098,0.604098 1.460497,0.371461 2.734177,0.603241 3.874187,0.101802 1.03885,-0.456945 1.61776,-1.438846 1.89342,-2.578137 0.14391,-0.594784 0.21108,-1.228141 0.25218,-1.875337 0.0567,-0.895045 0.15085,-3.550306 0.10025,-3.881417 -0.15131,-0.989531 -1.08323,-1.921816 -3.70675,-2.510441 -0.0794,-0.01781 -0.15971,-0.03503 -0.24081,-0.05168 -1.154691,-0.235796 -2.392508,-0.338975 -3.579109,-0.329179 z m 19.777089,0.691948 c 0.34972,0.01969 0.74153,0.03779 1.09709,0.05426 -0.35568,-0.01642 -0.74701,-0.03461 -1.09709,-0.05426 z m 10.22211,1.569413 c -1.67332,-0.0071 -4.51282,1.260044 -6.52931,2.098063 -2.06782,0.859348 -3.32297,1.232672 -3.81372,2.009697 1.64386,0.991722 4.13768,0.86653 6.19652,0.836641 -2.05929,0.03063 -4.55385,0.157345 -6.19807,-0.834574 -0.44097,0.700738 -0.35255,2.357435 0.87229,3.270084 1.34142,0.999525 2.75439,0.265963 4.37906,-0.0956 1.5174,-0.337688 3.37848,0.290956 5.39812,0.383956 1.04259,0.04801 1.91196,-0.128711 2.44895,-0.59893 0.53317,-0.466879 0.59816,-1.10163 0.4129,-1.701188 -0.1789,-0.578989 -0.5766,-1.083765 -0.78704,-1.470195 -0.24513,-0.450132 -0.27163,-0.756827 -0.28163,-1.337386 -0.0187,-1.131465 -0.16234,-2.552267 -2.09807,-2.560568 z m -30.088083,3.646806 c 0.08595,0.01692 0.172035,0.03374 0.258382,0.05168 0.04248,0.0089 0.08512,0.01826 0.127641,0.02739 -0.043,-0.0092 -0.08623,-0.01838 -0.129191,-0.02739 -0.08584,-0.01779 -0.171379,-0.03489 -0.256832,-0.05168 z M 85.219088,52.6495 c -0.748647,-0.0049 -1.556195,0.195535 -2.470651,0.631486 -1.825138,0.870105 -3.628774,2.496028 -4.341853,3.921207 2.723175,0.216535 4.289694,0.501833 6.287988,0.999422 -1.998948,-0.496684 -3.56508,-0.78069 -6.289539,-0.995804 -0.750899,1.504282 -0.299881,2.648383 0.953947,3.524849 1.076919,0.752808 3.175597,1.500989 4.651396,1.937866 1.702128,0.503873 3.284995,0.773615 4.993494,0.04082 1.667338,-0.715134 3.119537,-2.291557 3.582727,-3.566191 0.483119,-1.329483 -0.179314,-1.929265 -1.266073,-2.771407 -1.064919,-0.82521 -2.343493,-2.07887 -3.712952,-2.955892 -0.766885,-0.491126 -1.540018,-0.760763 -2.388484,-0.766361 z m 50.050692,2.164725 c -0.0736,0.0014 -0.14727,0.01046 -0.22066,0.02739 -0.33677,0.07685 -0.62374,0.357504 -0.77256,0.761194 -0.21677,0.573743 -0.19231,1.3646 -0.20981,1.900659 -0.0374,1.558431 -0.34201,1.919864 -0.80202,2.477368 -0.29213,-0.380594 -0.61579,-0.656208 -0.98392,-0.835091 -0.80124,-0.389345 -1.68341,-0.266179 -2.5957,-0.190169 -0.065,0.0055 -0.12992,0.0108 -0.19482,0.0155 -1.75939,0.119745 -3.43808,-0.650063 -4.28863,-0.507462 -0.96419,0.161654 -0.33061,1.724305 0.70332,4.000789 0.59028,0.598653 0.96612,1.147365 3.23546,2.262911 -2.26964,-1.113993 -2.64417,-1.661082 -3.23288,-2.257226 1.17186,2.580305 1.431,3.56759 1.28984,5.309753 -0.12127,1.496703 -0.14655,1.877104 0.863,1.686719 0.63027,-0.118855 1.24934,-0.276538 2.42001,0.04444 1.39225,0.367726 2.5241,1.028222 3.74809,1.638659 1.05539,0.526358 1.49654,0.581585 1.53944,-0.631486 0.0495,-1.400276 -0.64463,-6.125133 -1.56425,-8.685774 0.36288,0.139912 0.75969,0.301005 1.15291,0.521931 0.37934,0.210208 0.64664,0.413681 1.00975,0.656808 0.0971,0.06997 0.19781,0.133399 0.30179,0.190169 0.11761,0.06421 0.2391,0.119588 0.36071,0.166398 0.28025,0.105395 0.55343,0.175304 0.81648,0.195854 0.74142,0.05971 1.22893,-0.28396 1.72031,-0.702283 l 0.003,-0.0031 c 0.31537,-0.296387 0.582,-0.580024 0.85473,-0.84491 0.22379,-0.199898 0.47969,-0.431501 0.64285,-0.65474 0.22309,-0.3052 0.26665,-0.574116 0.11369,-0.827857 -0.15056,-0.249766 -0.49587,-0.459034 -0.8847,-0.859896 -0.40976,-0.403452 -0.73664,-0.797221 -1.3193,-1.506884 l -0.005,-0.0067 c -0.46118,-0.552286 -0.96793,-1.243983 -1.52859,-1.885673 -0.38632,-0.442145 -0.79161,-0.844961 -1.22008,-1.124996 -0.31346,-0.205639 -0.63355,-0.338212 -0.9524,-0.33228 z m -50.574691,3.38739 c 0.285504,0.0711 0.579502,0.146147 0.887284,0.226343 -0.307681,-0.08001 -0.60187,-0.155422 -0.887284,-0.226343 z m 34.404621,0.169499 c -0.21264,0.0011 -0.47926,0.148081 -0.7798,0.737423 -0.4476,0.877726 -0.23566,1.52063 0.71417,2.012797 0.64359,0.333481 1.01333,0.429177 1.63194,0.86558 0.60303,0.427241 1.00051,1.020416 1.36271,1.070736 0.37209,0.05169 0.71718,-0.496294 1.16995,-1.39423 0.6689,-1.326017 1.11391,-2.284912 0.96842,-2.509925 -0.1502,-0.232282 -1.11533,-0.263658 -1.649,-0.359668 0.0106,0.06169 -0.0374,0.134848 -0.11885,0.217558 -0.15324,0.161504 -0.57207,0.481801 -0.95912,0.763778 0.38799,-0.28305 0.80787,-0.604905 0.96015,-0.766362 0.08,-0.08182 0.12697,-0.153864 0.11627,-0.214974 -0.0436,-0.0078 -0.0853,-0.0163 -0.12609,-0.0248 -0.60013,-0.123905 -0.73524,-0.274152 -1.55598,-0.255282 -0.64662,0.01486 -1.20634,0.0386 -1.48001,-0.08165 -0.0726,-0.03191 -0.15811,-0.06146 -0.25476,-0.06098 z m 16.46463,1.364775 c 0.0673,-9.01e-4 0.13288,0.004 0.19637,0.0155 0.14436,0.03738 0.28994,0.077 0.44235,0.108003 0.0914,0.01606 0.18701,0.04044 0.28783,0.0708 -0.10081,-0.03028 -0.19642,-0.05429 -0.28783,-0.07028 -0.15238,-0.03086 -0.29802,-0.07074 -0.44235,-0.108004 -0.25389,-0.04586 -0.53624,0.01783 -0.86765,0.110071 -0.43161,0.125768 -0.91097,0.283439 -1.45263,0.366386 -3.4e-4,-5.2e-4 -6.9e-4,-10e-4 -0.001,-0.0015 0.54201,-0.08279 1.02176,-0.240131 1.45366,-0.365869 0.24854,-0.06911 0.46923,-0.122355 0.67128,-0.125057 z m -59.051181,0.589628 c -1.181951,-0.01391 -2.205006,0.601189 -3.078882,1.798856 -1.051749,1.441436 -1.328668,2.850955 -0.979268,3.433383 0.30445,0.507498 1.515514,0.888424 2.767273,1.595768 0.872225,-0.141749 1.899285,-0.883757 2.87321,-1.667082 -0.972854,0.783952 -1.998441,1.526945 -2.869593,1.669149 1.398379,0.790507 2.864888,1.829871 4.459676,2.253092 1.539929,0.408665 2.91043,0.142954 3.802869,-0.487825 0.889649,-0.62878 1.214967,-1.578837 0.850077,-2.724899 -0.373809,-1.174031 -1.365257,-2.276173 -2.696476,-3.328479 -1.185019,-0.936734 -2.944241,-2.104053 -4.28501,-2.431376 -0.289758,-0.07074 -0.571118,-0.107377 -0.843876,-0.110587 z m 21.379057,0.806669 c -1.390869,0.04182 -2.798518,0.08134 -4.181657,0.131258 -0.26394,0.0095 -0.494476,0.571639 -0.492476,1.028361 7e-4,0.158164 0.0058,0.324952 0.05323,0.502812 0.07985,0.299584 0.38751,0.604732 0.875399,0.897619 0.46877,0.281408 1.00266,0.487485 1.23455,0.499195 1.809368,0.09136 2.16147,-0.283136 3.045809,-0.491443 0.13138,-0.03095 0.376293,-0.562001 0.314193,-1.081588 -0.0214,-0.179476 -0.04348,-0.331201 -0.07338,-0.509013 -0.09002,-0.536022 -0.456403,-0.986801 -0.775663,-0.977201 z m -8.916252,2.514575 c -0.0874,2.5e-5 -0.183472,0.003 -0.288871,0.0088 -0.801569,0.04391 -1.932419,0.26541 -2.723348,0.622701 -0.809579,0.365714 -1.141183,0.811319 -1.146183,1.293461 0.835318,-0.06125 1.78724,-0.08987 2.741951,-0.126607 -0.954699,0.0371 -1.906966,0.06653 -2.741951,0.128157 -0.0046,0.462342 0.282598,0.909673 0.814937,1.19941 0.54076,0.294321 1.453151,0.485989 2.50114,0.501779 1.066938,0.01604 1.964347,-0.163444 2.293916,-0.587045 0.33251,-0.427376 0.02917,-0.985232 -0.223242,-1.5012 -0.375949,-0.768605 -0.224509,-0.641697 -0.364319,-1.170988 -0.06105,-0.231099 -0.252218,-0.368624 -0.86403,-0.368453 z m 12.199776,1.218014 c -0.94212,0.0095 -2.174868,0.344399 -3.431835,0.491442 -1.561689,0.182694 -3.04635,-0.16166 -4.278809,0.07648 -1.292929,0.249824 -2.114622,1.367291 -2.353861,3.092317 1.422806,-0.838297 2.954705,-1.000862 4.426603,-1.038179 -1.472292,0.03796 -3.00467,0.201899 -4.427637,1.042313 -0.23805,1.72491 0.232085,2.576596 0.818555,2.516126 0.629979,-0.06496 1.565756,-0.725226 2.899564,-0.857312 1.333819,-0.132087 3.002796,0.04273 4.360974,-0.356051 1.372206,-0.402899 2.424746,-1.358672 3.048906,-2.508891 0.62488,-1.151524 0.59067,-2.115944 -0.34519,-2.378666 -0.2124,-0.05962 -0.45348,-0.08225 -0.71727,-0.07958 z m 37.80441,0.422196 c -0.42436,0.003 -0.83922,0.06858 -1.23507,0.195337 -0.51861,0.166071 -0.54942,1.097882 -0.29766,2.133203 0.25175,1.03532 0.66983,2.211735 0.88729,3.360002 0.0228,0.120182 0.0429,0.23934 0.0605,0.357601 0.17683,1.189082 0.18278,1.929726 0.49764,2.571936 0.28035,0.571804 0.84056,1.002573 1.36271,1.058333 1.04107,0.11118 1.99275,0.393406 2.91559,0.609782 0.32303,0.07627 0.63025,0.140489 0.90795,0.172599 0.38983,0.04508 0.40466,-0.602202 0.32866,-1.502234 -0.0743,-0.880111 -0.21573,-1.861644 -0.28473,-2.768306 -0.007,-0.09488 -0.0126,-0.189157 -0.0176,-0.283187 -0.0459,-0.940767 -0.0804,-1.677064 -0.4253,-2.629297 -0.3063,-0.84576 -0.83952,-1.754117 -1.35547,-2.079976 -0.37766,-0.238515 -0.7767,-0.489054 -1.18339,-0.684713 -0.71973,-0.347484 -1.45385,-0.51604 -2.16111,-0.51108 z m -42.755532,2.189014 c -0.221286,0.0018 -0.445008,0.0047 -0.669727,0.01034 0.224854,-0.0056 0.448316,-0.0086 0.669727,-0.01034 z m -21.358387,0.642338 c -0.713578,-0.0037 -1.457723,0.196963 -2.054138,0.522448 -0.870089,0.474845 -1.699996,1.32837 -2.022615,2.090829 1.286124,0.639807 2.119753,1.178663 2.940905,1.728577 -0.821615,-0.549228 -1.655087,-1.087294 -2.941939,-1.72651 -0.4232,1.002767 -0.12059,1.88228 0.437699,3.140377 0.48431,1.091354 0.526069,2.036247 0.397909,2.725415 -0.10615,0.570812 0.106065,1.224362 1.622123,0.352433 1.500139,-0.862773 2.402238,-2.387908 2.600358,-3.966166 0.2286,-1.82104 -0.141425,-1.759379 0.532784,-2.679423 0.43108,-0.588247 0.724608,-1.390554 -0.148311,-1.867586 -0.4025,-0.219959 -0.876537,-0.317879 -1.364775,-0.320394 z m 4.915979,2.955375 c -0.480668,9.4e-5 -1.089134,0.105785 -1.629358,0.26665 -0.748619,0.222919 -1.044376,0.422311 -1.108976,0.593763 0.266844,0.212298 0.59687,0.348903 0.933793,0.447517 0.03728,0.01091 0.07476,0.02149 0.112138,0.03152 -0.03754,-0.01006 -0.0747,-0.02058 -0.112138,-0.03152 -0.336958,-0.09847 -0.666971,-0.234643 -0.933793,-0.447001 -0.06972,0.186002 0.02391,0.532395 0.06201,0.958081 0.0358,0.399999 -0.09177,0.710915 0.01654,0.800985 0.07299,0.0607 0.67219,0.06461 1.755449,-0.09819 1.131039,-0.169972 1.946965,-0.447449 2.054655,-0.84801 0.09677,-0.359959 -0.338835,-0.660424 -0.361735,-0.91519 -0.02162,-0.240379 0.220786,-0.540602 -0.230994,-0.688847 -0.1473,-0.04833 -0.339103,-0.06981 -0.557589,-0.06976 z m -1.467094,1.395264 c 0.07456,0.01723 0.148346,0.03342 0.221176,0.04857 -0.0727,-0.01509 -0.146762,-0.03142 -0.221176,-0.04857 z m 62.250464,3.165181 c -0.1688,0.03324 -0.32444,0.06586 -0.46974,0.09922 -1.77314,0.411382 -3.5028,1.187349 -4.02766,2.290299 0.26017,0.487993 0.57437,1.195026 0.86196,1.839681 0.56262,1.193468 1.26608,2.337377 0.92966,3.287138 0.47582,0.498612 0.95232,1.10562 1.75545,1.345138 0.55313,0.174087 1.18268,0.05471 1.77509,-0.182935 0.37269,-0.150209 0.72412,-0.329516 1.07538,-0.50953 0.28885,-1.206566 0.21414,-2.298428 0.0791,-3.609598 -0.0547,-0.717691 -0.0108,-1.368955 0.22272,-1.959571 -0.0142,-0.831091 -0.1542,-1.356794 -0.73277,-1.831412 -0.29086,-0.273824 -0.68631,-0.487698 -1.46916,-0.768429 z m -64.448779,2.341459 c -0.132206,-2.89e-4 -0.275992,0.0047 -0.469222,0.03359 -0.26444,0.03954 -0.667047,0.132543 -1.059367,0.304891 -0.917879,0.403162 -1.114182,0.879147 -0.913122,1.708939 0.408878,0.485069 0.60272,0.707514 1.599902,0.748792 -0.997287,-0.0405 -1.19133,-0.262309 -1.599386,-0.746724 0.20571,0.847374 0.444975,2.1298 0.393775,3.362585 -0.0564,1.357805 0.0722,2.069718 1.081071,2.211235 0.440519,0.06179 0.965631,-0.0254 1.44849,-0.24288 0.47883,-0.201402 1.009151,-0.433591 1.325501,-0.753959 0.595319,-0.735944 0.160659,-2.421886 0.04806,-3.934643 -0.09306,-1.250323 0.184022,-1.312399 0.398942,-1.527039 0.11771,-0.117556 -0.07991,-0.460325 -1.00459,-0.898653 -0.38279,-0.180422 -0.701929,-0.239242 -0.925008,-0.256832 -0.07624,-0.006 -0.142437,-0.0078 -0.195337,-0.0083 -0.04302,-5.5e-4 -0.08564,-9.37e-4 -0.129708,-10e-4 z m -3.727938,2.395203 c -0.411925,0.0043 -1.212068,0.231513 -1.756999,0.430465 -0.558929,0.204068 -0.811003,0.362617 -0.900203,0.522448 0.0255,0.0031 0.0519,0.0062 0.07855,0.0088 -0.02683,-0.0026 -0.05288,-0.0052 -0.07855,-0.0083 -0.08889,0.159844 -0.04596,0.336825 0.129191,0.474906 0.17194,0.135544 0.479427,0.237193 0.778247,0.275953 0.31492,0.04084 0.654425,0.01177 0.992704,-0.09457 0.31427,-0.09879 0.468978,-0.220976 0.498678,-0.360185 0.02971,-0.139209 0.10517,-0.361004 0.31626,-0.65474 0.226049,-0.31456 0.406699,-0.582909 -0.01912,-0.594279 -0.01246,-3.33e-4 -0.02547,-6.56e-4 -0.03876,-5.17e-4 z m 72.605907,0.854211 c -0.62193,0.01236 -0.97433,0.581271 -1.2423,1.07642 -0.0303,0.0561 -1.08728,1.846824 -1.26091,2.34611 1.10021,1.088299 1.98794,1.4761 2.65204,2.128553 -0.66419,-0.651228 -1.55214,-1.037842 -2.65307,-2.125969 -0.40189,1.15843 -0.16632,2.336417 0.44907,3.947563 0.59078,1.546716 0.94955,2.264056 1.13688,2.305286 0.41687,0.09175 0.58915,-0.299734 1.62884,0.486792 0.8679,0.656604 1.1953,1.354771 1.1405,0.0052 -0.0534,-1.315668 -0.23133,-4.599556 -0.43512,-6.900871 -0.2182,-2.463958 -0.64727,-3.241774 -1.35495,-3.268534 -0.0206,-7.8e-4 -0.0409,-9.15e-4 -0.061,-5.17e-4 z m -75.184044,0.107487 c 0.05365,0.0052 0.10941,0.0094 0.166915,0.01292 0.0575,0.0036 0.116425,0.0064 0.176733,0.0088 -0.06031,-0.0023 -0.119226,-0.0052 -0.176733,-0.0088 -0.05733,-0.0035 -0.113417,-0.0078 -0.166915,-0.01292 z m 0.527616,0.02739 c 0.155159,0.0039 0.314037,0.0061 0.468706,0.0098 0.06169,0.0015 0.123142,0.003 0.182934,0.0052 -0.05997,-0.0022 -0.121051,-0.0037 -0.182934,-0.0052 -0.154709,-0.0036 -0.313524,-0.0059 -0.468706,-0.0098 z m -0.437182,4.302063 c -0.209023,6.95e-4 -0.404812,0.02834 -0.585494,0.08733 -0.67139,0.219226 -0.672081,0.726138 -0.603581,1.154968 0.581709,0.475176 1.149395,0.680912 2.599325,0.892969 0.09666,0.01414 0.197018,0.0281 0.30179,0.04238 0.06981,0.0098 0.140249,0.02025 0.21084,0.031 -0.07059,-0.01074 -0.14102,-0.02069 -0.21084,-0.03049 -0.104785,-0.01424 -0.205115,-0.02879 -0.30179,-0.04289 -1.45014,-0.211576 -2.017878,-0.416553 -2.598808,-0.891419 0.09102,0.568734 0.311033,1.146403 0.132098,2.053976 -0.09115,0.462179 -0.19636,1.011609 -0.04461,1.215076 0.15994,0.214449 0.255554,0.140142 0.820983,-0.04031 0.25977,-0.0829 0.553053,-0.179499 0.894003,-0.260449 0.850759,-0.198942 1.706935,-0.151534 2.687174,-0.03359 1.086329,0.1294 1.917015,0.226631 2.647384,0.03049 0.691609,-0.185732 0.736528,-0.407246 0.956558,-0.872313 0.36376,-0.768856 0.100019,-2.183849 -0.405141,-2.300564 -0.549419,-0.12694 -1.158024,0.708057 -2.291363,0.397336 -0.13423,-0.03682 -0.268746,-0.07774 -0.404626,-0.123507 -0.58443,-0.196875 -0.997414,-0.407936 -1.606104,-0.68988 -0.823611,-0.37979 -1.57073,-0.622203 -2.197798,-0.620117 z m 1.226281,6.045109 c -0.177418,0.01015 -0.558958,-0.08521 -0.712946,0.223089 0.103546,2.906308 -0.398125,2.147323 0.658001,4.808119 0.602822,0.204461 0.518171,0.418073 1.32936,0.243159 0.883239,-0.19047 1.746209,-0.74088 1.762609,-1.613089 0.01566,-0.830549 -0.923602,-1.499012 -1.558561,-2.122351 -0.631229,-0.619658 -0.917489,-1.204293 -1.193209,-1.428853 -0.09668,-0.07874 -0.19232,-0.115389 -0.285254,-0.110072 z m 2.791557,5.989356 c -2.222144,0.35073 -1.858683,3.031519 -1.977067,3.069609 0.18193,1.86065 1.738836,1.41015 1.041914,3.9312 -0.210371,0.761 2.884152,0.17694 2.358468,-0.60238 0.01973,-1.13162 -1.280052,-1.42894 -1.004386,-2.61779 0.09016,-0.44738 1.221183,-0.60201 1.288341,-2.141005 0.0607,-1.391109 -0.171885,-1.154694 -1.707274,-1.639634 z m 69.766802,4.328359 c -0.80565,-0.006 -2.29615,1.3421 -3.31452,2.47892 -0.81419,0.90888 -2.003,2.35713 -2.50579,3.17707 1.05698,0.20157 2.27919,-0.0592 3.19773,-0.078 -0.91903,0.0197 -2.14185,0.28206 -3.1998,0.0811 -0.70579,1.15209 -0.89402,2.16782 -0.1788,2.75642 0.60437,0.49737 1.90528,0.58182 2.466,0.62942 0.68233,0.058 1.22222,0.0528 1.9234,-0.5023 0.75543,-0.59801 0.99697,-1.23599 1.00097,-1.942 0.004,-0.69327 0.13395,-1.71397 0.6258,-3.28662 0.52967,-1.69346 0.92472,-3.25566 0.0227,-3.31246 -0.0124,-7.8e-4 -0.0249,-0.001 -0.0377,-0.002 z m -68.498141,4.44624 c -0.377689,0.002 -0.867103,0.1129 -1.242819,0.34365 -0.885541,1.28431 -0.396077,0.77079 -0.885422,1.97645 0.191603,0.97647 0.261606,0.51552 0.498638,1.41852 0.327317,0.49958 -7.32e-4,0.84134 0.350249,0.77584 0.35349,-0.066 0.904129,0.15953 1.109639,-0.0613 0.261739,-0.28128 -0.443018,-0.84088 -0.410418,-1.52428 0.03529,-0.74081 0.278893,-1.11423 0.663849,-1.73977 0.331889,-0.53927 0.730185,-0.91975 0.385506,-1.10588 -0.104139,-0.0562 -0.271385,-0.0845 -0.469222,-0.0832 z m 63.070051,6.60838 c -0.14938,0.005 -0.32186,0.0399 -0.52296,0.10439 -0.59593,0.1912 -1.24807,0.35916 -1.95751,0.48214 -0.95877,0.16622 -1.60879,0.5075 -1.495,1.14928 0.0887,0.50011 0.25735,1.06713 0.37311,1.63298 0.0904,0.44189 0.35538,1.03756 0.7183,1.5012 0.1954,0.25092 0.40861,0.4573 0.65991,0.60513 0.61665,0.36277 1.13281,0.51898 1.72857,0.72657 0.73054,0.25454 1.52874,0.14749 2.03864,-0.33951 0.38912,-0.37163 0.70602,-0.7039 0.91467,-1.21285 0.0558,-0.13627 0.0799,-0.29254 0.0739,-0.46405 -0.0174,-0.57727 -0.38043,-1.24406 -0.73019,-1.75855 -0.37239,-0.54779 -0.68313,-1.12219 -0.89607,-1.65313 -0.21328,-0.53184 -0.45722,-0.78782 -0.90537,-0.7736 z m -3.04736,7.99021 c -0.0216,-0.0485 -0.97646,0.50664 -1.13452,1.07455 -0.362,1.29895 -1.60569,2.21161 -2.16909,3.44267 -0.25833,0.56444 -0.36399,1.61014 0.49189,1.8833 0.0502,0.16526 0.18606,0.46311 0.12036,0.76907 -0.0525,0.25782 -0.074,0.44129 -0.0268,0.73168 0.0179,0.13254 0.12047,0.27274 0.24148,0.30144 0.19637,0.0621 0.49572,0.0733 0.73478,0.0137 0.70941,-0.18797 0.39605,-0.45962 1.03597,-0.80862 0.2804,-0.15398 0.50218,-0.89932 0.76118,-1.05077 0.39598,-0.23157 0.0894,-1.38516 0.18909,-2.08386 0.14918,-1.04558 2.22517,-1.92654 2.60656,-2.73942 0.26971,-0.52178 0.64348,-1.02512 0.0165,-0.97565 -0.29465,0.046 -0.60003,0.0837 -0.97875,0.0625 -0.11502,-0.003 -0.252,-0.0175 -0.41135,-0.0413 -0.14567,-0.0374 -0.2658,-0.0906 -0.3638,-0.15917 -0.16822,-0.0765 -0.16883,-0.19845 -0.33605,-0.25005 -0.20326,-0.0696 -0.37376,-0.17261 -0.76001,-0.16543 -0.006,-0.002 -0.0118,-0.004 -0.0176,-0.005 z"
       inkscape:label="headracial"
       sodipodi:nodetypes="ssccccccccsssccccssscccccsscssccscsccssscccsssssscsccsccsscccssssssssccscsccscccsscsscccscccccsscccscscccscscccsccccccsssscccccccccssssccsscssssssssscsccsssscccscscssssscccsssssssssccsscscscsscscccsscccssssssssscscscscssssscccccccccccccccssccccssccsscscssscccssssssssscccssssssscscsccscscsscscccsccssccssssscssscccssscssscccccscccscccscsscccccscssssssscccccssscccccccccsscccccccscccccccsscccccccccs" />
  </g>
</svg>
