<?xml version="1.0" encoding="UTF-8" standalone="no"?>
<!-- Created with Inkscape (http://www.inkscape.org/) -->

<svg
   width="840"
   height="880"
   viewBox="0 0 222.24999 232.83334"
   version="1.1"
   id="mySVG"
   inkscape:version="1.2.2 (732a01da63, 2022-12-09)"
   sodipodi:docname="beard_khan.svg"
   xmlns:inkscape="http://www.inkscape.org/namespaces/inkscape"
   xmlns:sodipodi="http://sodipodi.sourceforge.net/DTD/sodipodi-0.dtd"
   xmlns="http://www.w3.org/2000/svg"
   xmlns:svg="http://www.w3.org/2000/svg">
  <sodipodi:namedview
     id="namedview7"
     pagecolor="#ffffff"
     bordercolor="#666666"
     borderopacity="1.0"
     inkscape:showpageshadow="2"
     inkscape:pageopacity="0.0"
     inkscape:pagecheckerboard="0"
     inkscape:deskcolor="#d1d1d1"
     inkscape:document-units="mm"
     showgrid="false"
     showguides="true"
     inkscape:zoom="2.9540684"
     inkscape:cx="354.93423"
     inkscape:cy="626.25496"
     inkscape:window-width="2560"
     inkscape:window-height="1369"
     inkscape:window-x="1912"
     inkscape:window-y="-8"
     inkscape:window-maximized="1"
     inkscape:current-layer="layer1"
     inkscape:pageshadow="2"
     units="px"
     inkscape:guide-bbox="true">
    <inkscape:grid
       type="xygrid"
       id="grid9" />
    <sodipodi:guide
       position="70.93245,122.50804"
       orientation="0,-1"
       id="guide1575"
       inkscape:locked="false" />
    <sodipodi:guide
       position="108.17199,116.74478"
       orientation="-1,0"
       id="guide1971"
       inkscape:locked="false"
       inkscape:label=""
       inkscape:color="rgb(0,134,229)" />
  </sodipodi:namedview>
  <defs
     id="defs2">
    <inkscape:path-effect
       effect="envelope"
       id="path-effect2005"
       is_visible="true"
       lpeversion="1"
       yy="true"
       xx="true"
       bendpath1="M 88.931586,121.9133 H 125.58332"
       bendpath2="m 134.71903,122.182 v 27.50477"
       bendpath3="M 79.840663,149.68677 H 134.71903"
       bendpath4="m 79.840663,122.182 v 27.50477"
       bendpath1-nodetypes="cc" />
    <inkscape:path-effect
       effect="simplify"
       id="path-effect4085"
       is_visible="true"
       lpeversion="1"
       steps="1"
       threshold="0.00243902"
       smooth_angles="360"
       helper_size="0"
       simplify_individual_paths="false"
       simplify_just_coalesce="false" />
    <inkscape:path-effect
       effect="simplify"
       id="path-effect14166"
       is_visible="true"
       lpeversion="1"
       steps="1"
       threshold="0.00243902"
       smooth_angles="360"
       helper_size="0"
       simplify_individual_paths="false"
       simplify_just_coalesce="false" />
    <inkscape:path-effect
       effect="simplify"
       id="path-effect2574"
       is_visible="true"
       lpeversion="1"
       steps="1"
       threshold="0.00243902"
       smooth_angles="360"
       helper_size="0"
       simplify_individual_paths="false"
       simplify_just_coalesce="false" />
    <inkscape:path-effect
       effect="simplify"
       id="path-effect441"
       is_visible="true"
       lpeversion="1"
       steps="1"
       threshold="0.00243902"
       smooth_angles="360"
       helper_size="0"
       simplify_individual_paths="false"
       simplify_just_coalesce="false" />
    <inkscape:path-effect
       effect="simplify"
       id="path-effect437"
       is_visible="true"
       lpeversion="1"
       steps="1"
       threshold="0.00243902"
       smooth_angles="360"
       helper_size="0"
       simplify_individual_paths="false"
       simplify_just_coalesce="false" />
  </defs>
  <g
     inkscape:label="Ebene 1"
     inkscape:groupmode="layer"
     id="layer1">
    <path
       id="beard"
       style="fill:#784421;stroke:#000000;stroke-width:0.49186;stroke-linecap:round;stroke-linejoin:round;stroke-dasharray:none;stroke-opacity:1"
       inkscape:label="beard"
       d="M 125.05335 112.90577 C 123.12182 112.91477 121.04838 113.02405 118.82324 113.2396 C 116.28978 113.79464 115.77206 119.17775 119.10332 119.71776 C 151.40628 116.2384 144.03053 146.77987 145.55184 176.74167 C 145.48354 176.88366 147.90688 175.32248 148.78213 164.21478 C 151.05513 135.36842 154.0262 112.77548 125.05335 112.90577 z M 92.412447 112.99569 C 63.439597 112.8654 66.410671 135.45885 68.683663 164.30522 C 69.558912 175.41292 71.982247 176.97358 71.913957 176.83158 C 73.435264 146.86978 66.05951 116.32883 98.362472 119.80819 C 101.69374 119.26818 101.176 113.88456 98.642558 113.32952 C 96.417408 113.11397 94.34397 113.00438 92.412447 112.99569 z M 87.289246 122.03338 C 86.925453 122.07248 85.030787 123.80134 84.515771 124.46992 C 81.987203 127.75251 80.40531 131.42179 80.724788 135.60981 C 81.014924 139.4132 82.819716 142.99392 85.86711 144.19895 C 90.233795 145.92568 94.392271 147.39563 98.381592 148.408 C 102.30963 149.40481 105.8934 149.90113 108.24662 149.60586 C 110.5936 149.90118 114.09515 149.40482 117.94474 148.408 C 121.86068 147.39399 125.93389 145.92749 130.29954 144.19895 C 133.3437 142.99366 135.1389 139.41307 135.42119 135.60929 C 135.732 131.42121 134.14537 127.75091 131.61471 124.46837 C 131.31392 124.07821 130.68367 123.43079 130.01687 122.85658 C 129.37023 122.29973 128.78506 121.89347 128.7849 122.0773 C 128.78439 122.6112 129.04496 123.7997 128.87224 125.31845 C 128.69472 126.88018 128.09889 128.64336 126.7995 130.55224 C 124.28068 134.25252 119.35687 138.12913 112.57039 139.56667 C 112.39139 139.56656 111.31332 137.13297 110.29146 134.71839 C 109.26939 132.30331 108.33971 129.90111 108.25127 130.00447 C 108.15787 129.90217 107.15728 132.30405 106.05296 134.71891 C 104.94886 137.13328 103.78278 139.56655 103.60401 139.56667 C 96.816431 138.12946 91.884045 134.25256 89.355786 130.55275 C 88.051424 128.64397 87.450862 126.88112 87.269092 125.31948 C 87.092329 123.80084 87.349593 122.6127 87.347123 122.07885 C 87.34697 122.04365 87.326816 122.02989 87.289246 122.03389 L 87.289246 122.03338 z " />
  </g>
</svg>
