<?xml version="1.0" encoding="UTF-8" standalone="no"?>
<svg
   width="840"
   height="880"
   viewBox="0 0 222.24999 232.83334"
   version="1.1"
   id="mySVG"
   inkscape:version="1.2.2 (732a01da63, 2022-12-09)"
   sodipodi:docname="beard_full_kaiser.svg"
   xmlns:inkscape="http://www.inkscape.org/namespaces/inkscape"
   xmlns:sodipodi="http://sodipodi.sourceforge.net/DTD/sodipodi-0.dtd"
   xmlns="http://www.w3.org/2000/svg"
   xmlns:svg="http://www.w3.org/2000/svg"
   xmlns:rdf="http://www.w3.org/1999/02/22-rdf-syntax-ns#"
   xmlns:cc="http://creativecommons.org/ns#"
   xmlns:dc="http://purl.org/dc/elements/1.1/">
  <metadata
     id="metadata13">
    <rdf:RDF>
      <cc:Work
         rdf:about="">
        <dc:format>image/svg+xml</dc:format>
        <dc:type
           rdf:resource="http://purl.org/dc/dcmitype/StillImage" />
      </cc:Work>
    </rdf:RDF>
  </metadata>
  <sodipodi:namedview
     id="namedview7"
     pagecolor="#ffffff"
     bordercolor="#666666"
     borderopacity="1.0"
     inkscape:showpageshadow="2"
     inkscape:pageopacity="0.0"
     inkscape:pagecheckerboard="0"
     inkscape:deskcolor="#d1d1d1"
     inkscape:document-units="mm"
     showgrid="false"
     showguides="true"
     inkscape:zoom="5.9081368"
     inkscape:cx="421.87581"
     inkscape:cy="492.20255"
     inkscape:window-width="2560"
     inkscape:window-height="1369"
     inkscape:window-x="1912"
     inkscape:window-y="-8"
     inkscape:window-maximized="1"
     inkscape:current-layer="layer1"
     inkscape:document-rotation="0"
     inkscape:pageshadow="2"
     units="px">
    <inkscape:grid
       type="xygrid"
       id="grid9" />
  </sodipodi:namedview>
  <defs
     id="defs2">
    <inkscape:path-effect
       effect="envelope"
       id="path-effect5207"
       is_visible="true"
       lpeversion="1"
       yy="true"
       xx="true"
       bendpath1="M 73.533484,111.24064 H 143.17085"
       bendpath2="M 143.17085,111.24064 V 122.8337"
       bendpath3="M 73.533484,122.8337 H 143.17085"
       bendpath4="M 73.533484,111.24064 V 122.8337" />
    <inkscape:path-effect
       effect="simplify"
       id="path-effect4085"
       is_visible="true"
       lpeversion="1"
       steps="1"
       threshold="0.00243902"
       smooth_angles="360"
       helper_size="0"
       simplify_individual_paths="false"
       simplify_just_coalesce="false" />
    <inkscape:path-effect
       effect="simplify"
       id="path-effect14166"
       is_visible="true"
       lpeversion="1"
       steps="1"
       threshold="0.00243902"
       smooth_angles="360"
       helper_size="0"
       simplify_individual_paths="false"
       simplify_just_coalesce="false" />
    <inkscape:path-effect
       effect="simplify"
       id="path-effect2574"
       is_visible="true"
       lpeversion="1"
       steps="1"
       threshold="0.00243902"
       smooth_angles="360"
       helper_size="0"
       simplify_individual_paths="false"
       simplify_just_coalesce="false" />
    <inkscape:path-effect
       effect="simplify"
       id="path-effect441"
       is_visible="true"
       lpeversion="1"
       steps="1"
       threshold="0.00243902"
       smooth_angles="360"
       helper_size="0"
       simplify_individual_paths="false"
       simplify_just_coalesce="false" />
    <inkscape:path-effect
       effect="simplify"
       id="path-effect437"
       is_visible="true"
       lpeversion="1"
       steps="1"
       threshold="0.00243902"
       smooth_angles="360"
       helper_size="0"
       simplify_individual_paths="false"
       simplify_just_coalesce="false" />
  </defs>
  <g
     inkscape:label="Ebene 1"
     inkscape:groupmode="layer"
     id="layer1">
    <path
       id="beard"
       style="fill:#552200;stroke:#000000;stroke-width:0.529167;stroke-linecap:square"
       inkscape:label="beard"
       d="m 117.38302,110.58601 c -3.09573,0.004 -6.22697,1.40457 -9.60717,1.40457 -3.66719,0 -8.328647,-1.73905 -11.694893,-1.28519 -8.109376,1.09336 -8.353967,1.31108 -13.800191,4.98161 -5.253918,3.54091 -6.387353,7.42447 -6.754627,8.7359 0.192647,0.4285 1.234742,0.87982 2.904733,1.16892 0.317891,2.71173 3.88805,10.08038 4.147033,14.40997 1.34171,22.48531 16.644164,14.27329 25.656315,14.38775 12.49145,0.15866 20.90246,7.63763 24.90649,-13.53147 0.65597,-3.94597 4.55187,-13.04968 5.00641,-15.91583 0.66312,-0.26592 1.26026,-0.56876 1.78956,-0.9002 0.55557,-0.3479 -2.05258,-3.59986 -7.07916,-7.50032 -4.20201,-3.25684 -6.53655,-5.34632 -14.85594,-5.9371 -0.20613,-0.013 -0.41218,-0.0188 -0.61856,-0.0186 z m -11.48044,10.2216 c 0.55594,-0.002 1.12296,0.0246 1.70274,0.0847 4.29021,-0.22022 7.79193,1.17729 11.17864,2.48202 -0.0781,0.0717 -0.15489,0.14463 -0.22686,0.22221 -2.96397,3.1955 -6.73627,4.07786 -11.06652,4.05492 -5.37799,-0.0285 -8.376381,-0.46371 -11.12902,-4.12313 -0.08692,-0.11556 -0.194442,-0.22732 -0.31626,-0.3359 3.170111,-1.17123 6.28852,-2.37141 9.85728,-2.38487 z"
       sodipodi:nodetypes="cssscccsccscccscccsscs" />
    <path
       id="outline"
       style="fill:#552200;fill-opacity:0;stroke:#000000;stroke-width:0.529167;stroke-linecap:square;stroke-dasharray:none;stroke-opacity:1"
       d="m 132.85774,116.54184 c 5.02658,3.90046 7.63452,7.15239 7.07895,7.50029 -3.13505,1.96315 -8.59264,2.95575 -16.66851,0.86117 -4.92184,-1.27654 -9.4757,-4.32876 -15.66307,-4.01116 -6.18426,-0.64151 -10.904049,2.5194 -16.475614,3.89796 -8.473974,2.09671 -15.086944,0.78123 -15.603287,-0.36726 0.367274,-1.31143 1.5005,-5.19467 6.754423,-8.73559 5.44623,-3.67053 5.691079,-3.88856 13.800463,-4.98192 3.366249,-0.45386 8.027705,1.28537 11.694895,1.28537 3.60555,0 6.92771,-1.59437 10.2258,-1.38611 8.3194,0.59078 10.65393,2.6804 14.85595,5.93725 z"
       sodipodi:nodetypes="csscscssscc"
       inkscape:label="outline" />
  </g>
</svg>
