<?xml version="1.0" encoding="UTF-8" standalone="no"?>
<!-- Created with Inkscape (http://www.inkscape.org/) -->

<svg
   width="210mm"
   height="297mm"
   viewBox="0 0 210 297"
   version="1.1"
   id="mySVG"
   inkscape:version="1.1.2 (b8e25be833, 2022-02-05)"
   sodipodi:docname="ears_human.svg"
   xmlns:inkscape="http://www.inkscape.org/namespaces/inkscape"
   xmlns:sodipodi="http://sodipodi.sourceforge.net/DTD/sodipodi-0.dtd"
   xmlns="http://www.w3.org/2000/svg"
   xmlns:svg="http://www.w3.org/2000/svg">
  <sodipodi:namedview
     id="namedview7"
     pagecolor="#ffffff"
     bordercolor="#666666"
     borderopacity="1.0"
     inkscape:showpageshadow="2"
     inkscape:pageopacity="0.0"
     inkscape:pagecheckerboard="0"
     inkscape:deskcolor="#d1d1d1"
     inkscape:document-units="mm"
     showgrid="false"
     showguides="true"
     inkscape:zoom="1.4770342"
     inkscape:cx="361.19678"
     inkscape:cy="435.33183"
     inkscape:window-width="1920"
     inkscape:window-height="1094"
     inkscape:window-x="-11"
     inkscape:window-y="-11"
     inkscape:window-maximized="1"
     inkscape:current-layer="layer1"
     inkscape:pageshadow="2">
    <inkscape:grid
       type="xygrid"
       id="grid9" />
  </sodipodi:namedview>
  <defs
     id="defs2">
    <inkscape:path-effect
       effect="simplify"
       id="path-effect4085"
       is_visible="true"
       lpeversion="1"
       steps="1"
       threshold="0.00243902"
       smooth_angles="360"
       helper_size="0"
       simplify_individual_paths="false"
       simplify_just_coalesce="false" />
    <inkscape:path-effect
       effect="simplify"
       id="path-effect14166"
       is_visible="true"
       lpeversion="1"
       steps="1"
       threshold="0.00243902"
       smooth_angles="360"
       helper_size="0"
       simplify_individual_paths="false"
       simplify_just_coalesce="false" />
    <inkscape:path-effect
       effect="simplify"
       id="path-effect2574"
       is_visible="true"
       lpeversion="1"
       steps="1"
       threshold="0.00243902"
       smooth_angles="360"
       helper_size="0"
       simplify_individual_paths="false"
       simplify_just_coalesce="false" />
    <inkscape:path-effect
       effect="simplify"
       id="path-effect441"
       is_visible="true"
       lpeversion="1"
       steps="1"
       threshold="0.00243902"
       smooth_angles="360"
       helper_size="0"
       simplify_individual_paths="false"
       simplify_just_coalesce="false" />
    <inkscape:path-effect
       effect="simplify"
       id="path-effect437"
       is_visible="true"
       lpeversion="1"
       steps="1"
       threshold="0.00243902"
       smooth_angles="360"
       helper_size="0"
       simplify_individual_paths="false"
       simplify_just_coalesce="false" />
  </defs>
  <g
     inkscape:label="Ebene 1"
     inkscape:groupmode="layer"
     id="layer1">
    <path
       id="ears"
       style="fill:#ffe6d5;stroke:#000000;stroke-width:0.529167;stroke-linecap:butt;stroke-linejoin:miter;stroke-miterlimit:4;stroke-dasharray:none;stroke-opacity:1"
       d="m 142.34583,97.895836 c 0,0 9.59243,-11.463944 14.81668,-8.995835 3.68244,1.739707 2.72712,8.144515 1.73443,12.094389 -1.56339,6.22066 -5.22413,13.80545 -11.41232,15.49278 -1.0835,0.29543 -2.71964,-0.009 -3.91117,-0.57217 -0.93037,-0.43914 -2.28595,-2.07366 -2.28595,-2.07366 M 74.612514,97.895836 c 0,0 -9.704158,-11.687758 -14.816686,-8.995835 -3.572767,1.881182 -1.740043,8.199327 -0.676092,12.094389 1.636705,5.99187 4.40033,13.72217 10.353994,15.49278 1.076458,0.32013 2.716407,0.007 3.9059,-0.55365 0.935551,-0.44092 2.291213,-2.09219 2.291213,-2.09219" />
    <path
       style="fill:none;stroke:#000000;stroke-width:0.52916667;stroke-linecap:round;stroke-linejoin:miter;stroke-miterlimit:4;stroke-dasharray:none;stroke-opacity:1"
       d="m 146.31458,109.80209 c -0.52615,-1.1002 0.95302,-2.64716 1.92562,-3.11084 0.97261,-0.46368 1.96479,-1.12514 2.04313,-1.91625 0.1229,-1.24118 -2.39218,-2.29402 -2.67187,-3.82352 -0.22105,-1.208792 0.12831,-2.621768 0.90558,-3.573558 1.03279,-1.264692 2.83031,-2.53281 4.41213,-2.127919 1.46996,0.376259 2.35107,1.404839 2.64583,3.704166 0.22428,1.749571 -1.05833,3.704171 -1.05833,3.704171"
       id="path9675"
       sodipodi:nodetypes="cssaaasc" />
    <path
       style="fill:none;stroke:#000000;stroke-width:0.52916667;stroke-linecap:round;stroke-linejoin:miter;stroke-opacity:1;stroke-dasharray:none"
       d="m 70.64377,109.80209 c 0.52615,-1.1002 -0.95302,-2.64716 -1.92562,-3.11084 -0.97261,-0.46368 -1.96479,-1.12514 -2.04313,-1.91625 -0.1229,-1.24118 2.39218,-2.29402 2.67187,-3.82352 0.22105,-1.208792 -0.12831,-2.621768 -0.90558,-3.573558 -1.03279,-1.264692 -2.83031,-2.53281 -4.41213,-2.127919 -1.46996,0.376259 -2.35107,1.404839 -2.64583,3.704166 -0.22428,1.749571 1.05833,3.704171 1.05833,3.704171"
       id="path9687"
       sodipodi:nodetypes="cssaaasc" />
  </g>
</svg>
