<?xml version="1.0" encoding="UTF-8" standalone="no"?>
<!-- Created with Inkscape (http://www.inkscape.org/) -->

<svg
   width="840"
   height="880"
   viewBox="0 0 222.24999 232.83334"
   version="1.1"
   id="mySVG"
   inkscape:version="1.2.2 (732a01da63, 2022-12-09)"
   sodipodi:docname="ears_bajoran_silver3.svg"
   xmlns:inkscape="http://www.inkscape.org/namespaces/inkscape"
   xmlns:sodipodi="http://sodipodi.sourceforge.net/DTD/sodipodi-0.dtd"
   xmlns:xlink="http://www.w3.org/1999/xlink"
   xmlns="http://www.w3.org/2000/svg"
   xmlns:svg="http://www.w3.org/2000/svg">
  <sodipodi:namedview
     id="namedview7"
     pagecolor="#ffffff"
     bordercolor="#666666"
     borderopacity="1.0"
     inkscape:showpageshadow="2"
     inkscape:pageopacity="0.0"
     inkscape:pagecheckerboard="0"
     inkscape:deskcolor="#d1d1d1"
     inkscape:document-units="mm"
     showgrid="false"
     showguides="true"
     inkscape:zoom="4.1776836"
     inkscape:cx="168.15539"
     inkscape:cy="411.95078"
     inkscape:window-width="2560"
     inkscape:window-height="1369"
     inkscape:window-x="1912"
     inkscape:window-y="-8"
     inkscape:window-maximized="1"
     inkscape:current-layer="layer1"
     inkscape:pageshadow="2"
     units="px">
    <inkscape:grid
       type="xygrid"
       id="grid9" />
  </sodipodi:namedview>
  <defs
     id="defs2">
    <linearGradient
       inkscape:collect="always"
       id="linearGradient1962">
      <stop
         style="stop-color:#827c7a;stop-opacity:1;"
         offset="0"
         id="stop1958" />
      <stop
         style="stop-color:#aeaece;stop-opacity:1;"
         offset="1"
         id="stop1960" />
    </linearGradient>
    <inkscape:path-effect
       effect="simplify"
       id="path-effect4085"
       is_visible="true"
       lpeversion="1"
       steps="1"
       threshold="0.00243902"
       smooth_angles="360"
       helper_size="0"
       simplify_individual_paths="false"
       simplify_just_coalesce="false" />
    <inkscape:path-effect
       effect="simplify"
       id="path-effect14166"
       is_visible="true"
       lpeversion="1"
       steps="1"
       threshold="0.00243902"
       smooth_angles="360"
       helper_size="0"
       simplify_individual_paths="false"
       simplify_just_coalesce="false" />
    <inkscape:path-effect
       effect="simplify"
       id="path-effect2574"
       is_visible="true"
       lpeversion="1"
       steps="1"
       threshold="0.00243902"
       smooth_angles="360"
       helper_size="0"
       simplify_individual_paths="false"
       simplify_just_coalesce="false" />
    <inkscape:path-effect
       effect="simplify"
       id="path-effect441"
       is_visible="true"
       lpeversion="1"
       steps="1"
       threshold="0.00243902"
       smooth_angles="360"
       helper_size="0"
       simplify_individual_paths="false"
       simplify_just_coalesce="false" />
    <inkscape:path-effect
       effect="simplify"
       id="path-effect437"
       is_visible="true"
       lpeversion="1"
       steps="1"
       threshold="0.00243902"
       smooth_angles="360"
       helper_size="0"
       simplify_individual_paths="false"
       simplify_just_coalesce="false" />
    <linearGradient
       inkscape:collect="always"
       xlink:href="#linearGradient1962"
       id="linearGradient1964"
       x1="58.202015"
       y1="90.367439"
       x2="56.379578"
       y2="88.759644"
       gradientUnits="userSpaceOnUse" />
  </defs>
  <g
     inkscape:label="Ebene 1"
     inkscape:groupmode="layer"
     id="layer1">
    <path
       style="fill:none;fill-opacity:1;stroke:#827c7a;stroke-width:0.661458;stroke-linecap:round;stroke-dasharray:none;stroke-opacity:1"
       d="m 57.305859,92.626642 c -0.195255,5.343306 2.287923,23.571258 5.342457,27.565108 4.011747,5.24543 7.647079,-3.48018 7.647079,-3.48018"
       id="path20269"
       sodipodi:nodetypes="csc" />
    <path
       id="ears"
       style="fill:#ffe6d5;stroke:#000000;stroke-width:0.529167;stroke-linecap:butt;stroke-linejoin:miter;stroke-miterlimit:4;stroke-dasharray:none;stroke-opacity:1"
       d="m 142.34583,97.895836 c 0,0 9.59243,-11.463944 14.81668,-8.995835 3.68244,1.739707 2.72712,8.144515 1.73443,12.094389 -1.56339,6.22066 -5.22413,13.80545 -11.41232,15.49278 -1.0835,0.29543 -2.71964,-0.009 -3.91117,-0.57217 -0.93037,-0.43914 -2.28595,-2.07366 -2.28595,-2.07366 M 74.612514,97.895836 c 0,0 -9.704158,-11.687758 -14.816686,-8.995835 -3.572767,1.881182 -1.740043,8.199327 -0.676092,12.094389 1.636705,5.99187 4.40033,13.72217 10.353994,15.49278 1.076458,0.32013 2.716407,0.007 3.9059,-0.55365 0.935551,-0.44092 2.291213,-2.09219 2.291213,-2.09219" />
    <path
       style="fill:none;stroke:#000000;stroke-width:0.529167;stroke-linecap:round;stroke-linejoin:miter;stroke-miterlimit:4;stroke-dasharray:none;stroke-opacity:1"
       d="m 146.31458,109.80209 c -0.52615,-1.1002 0.95302,-2.64716 1.92562,-3.11084 0.97261,-0.46368 1.96479,-1.12514 2.04313,-1.91625 0.1229,-1.24118 -2.39218,-2.29402 -2.67187,-3.82352 -0.22105,-1.208792 0.12831,-2.621768 0.90558,-3.573558 1.03279,-1.264692 2.83031,-2.53281 4.41213,-2.127919 1.46996,0.376259 2.35107,1.404839 2.64583,3.704166 0.22428,1.749571 -1.05833,3.704171 -1.05833,3.704171"
       id="path9675"
       sodipodi:nodetypes="cssaaasc" />
    <path
       style="fill:none;stroke:#000000;stroke-width:0.529167;stroke-linecap:round;stroke-linejoin:miter;stroke-dasharray:none;stroke-opacity:1"
       d="m 70.64377,109.80209 c 0.52615,-1.1002 -0.95302,-2.64716 -1.92562,-3.11084 -0.97261,-0.46368 -1.96479,-1.12514 -2.04313,-1.91625 -0.1229,-1.24118 2.39218,-2.29402 2.67187,-3.82352 0.22105,-1.208792 -0.12831,-2.621768 -0.90558,-3.573558 -1.03279,-1.264692 -2.83031,-2.53281 -4.41213,-2.127919 -1.46996,0.376259 -2.35107,1.404839 -2.64583,3.704166 -0.22428,1.749571 1.05833,3.704171 1.05833,3.704171"
       id="path9687"
       sodipodi:nodetypes="cssaaasc" />
    <path
       id="path9449-1"
       style="fill:#827c7a;stroke:#000000;stroke-width:0.364911;stroke-linecap:round;stroke-linejoin:round;stroke-dasharray:none;fill-opacity:1"
       d="m 74.349687,116.10988 c -0.422941,1.46742 -2.015352,2.58868 -3.503204,2.71428 -1.487853,0.1256 -2.800522,-0.74487 -3.227815,-2.14052 -0.427291,-1.39564 0.267506,-3.78159 1.511203,-4.70474 -0.557076,1.80696 -0.334163,3.24227 0.351407,4.1355 0.08428,0.10992 0.175652,0.21155 0.273461,0.30462 0.10609,0.10166 0.219945,0.193 0.340788,0.27365 1.062442,0.71046 2.65298,0.60915 4.254007,-0.58259 z"
       sodipodi:nodetypes="csscsssc" />
    <path
       style="fill:none;fill-opacity:1;stroke:#aeaece;stroke-width:0.276366;stroke-linecap:round;stroke-linejoin:round;stroke-dasharray:none;stroke-opacity:0.48235294"
       d="m 68.137936,116.10641 c 0.506413,2.73594 3.605735,2.00265 3.605735,2.00265"
       id="path22033"
       sodipodi:nodetypes="cc" />
    <path
       id="path1956"
       style="fill:url(#linearGradient1964);stroke:#000000;stroke-width:0.264583;stroke-linecap:round;stroke-linejoin:round"
       d="m 61.4421,90.595741 c 0.358263,8.133709 -0.813654,1.568573 -2.597407,1.522618 -2.366717,-0.06097 -3.515455,6.700656 -2.97806,-1.477835 0.213248,-3.245377 2.180406,-5.980035 2.709363,-5.933731 0.506709,0.04436 2.722986,2.639722 2.866104,5.888948 z"
       sodipodi:nodetypes="sssss" />
  </g>
</svg>
