<?xml version="1.0" encoding="UTF-8" standalone="no"?>
<!-- Created with Inkscape (http://www.inkscape.org/) -->

<svg
   width="840"
   height="880"
   viewBox="0 0 222.24999 232.83334"
   version="1.1"
   id="mySVG"
   inkscape:version="1.2.2 (732a01da63, 2022-12-09)"
   sodipodi:docname="ears_bajoran_silver2.svg"
   xmlns:inkscape="http://www.inkscape.org/namespaces/inkscape"
   xmlns:sodipodi="http://sodipodi.sourceforge.net/DTD/sodipodi-0.dtd"
   xmlns:xlink="http://www.w3.org/1999/xlink"
   xmlns="http://www.w3.org/2000/svg"
   xmlns:svg="http://www.w3.org/2000/svg">
  <sodipodi:namedview
     id="namedview7"
     pagecolor="#ffffff"
     bordercolor="#666666"
     borderopacity="1.0"
     inkscape:showpageshadow="2"
     inkscape:pageopacity="0.0"
     inkscape:pagecheckerboard="0"
     inkscape:deskcolor="#d1d1d1"
     inkscape:document-units="mm"
     showgrid="false"
     showguides="true"
     inkscape:zoom="5.9081368"
     inkscape:cx="194.22367"
     inkscape:cy="399.78763"
     inkscape:window-width="2560"
     inkscape:window-height="1369"
     inkscape:window-x="1912"
     inkscape:window-y="-8"
     inkscape:window-maximized="1"
     inkscape:current-layer="layer1"
     inkscape:pageshadow="2"
     units="px">
    <inkscape:grid
       type="xygrid"
       id="grid9" />
  </sodipodi:namedview>
  <defs
     id="defs2">
    <linearGradient
       inkscape:collect="always"
       id="linearGradient21127">
      <stop
         style="stop-color:#aeaece;stop-opacity:1;"
         offset="0"
         id="stop21123" />
      <stop
         style="stop-color:#827c7a;stop-opacity:1;"
         offset="1"
         id="stop21125" />
    </linearGradient>
    <inkscape:path-effect
       effect="simplify"
       id="path-effect4085"
       is_visible="true"
       lpeversion="1"
       steps="1"
       threshold="0.00243902"
       smooth_angles="360"
       helper_size="0"
       simplify_individual_paths="false"
       simplify_just_coalesce="false" />
    <inkscape:path-effect
       effect="simplify"
       id="path-effect14166"
       is_visible="true"
       lpeversion="1"
       steps="1"
       threshold="0.00243902"
       smooth_angles="360"
       helper_size="0"
       simplify_individual_paths="false"
       simplify_just_coalesce="false" />
    <inkscape:path-effect
       effect="simplify"
       id="path-effect2574"
       is_visible="true"
       lpeversion="1"
       steps="1"
       threshold="0.00243902"
       smooth_angles="360"
       helper_size="0"
       simplify_individual_paths="false"
       simplify_just_coalesce="false" />
    <inkscape:path-effect
       effect="simplify"
       id="path-effect441"
       is_visible="true"
       lpeversion="1"
       steps="1"
       threshold="0.00243902"
       smooth_angles="360"
       helper_size="0"
       simplify_individual_paths="false"
       simplify_just_coalesce="false" />
    <inkscape:path-effect
       effect="simplify"
       id="path-effect437"
       is_visible="true"
       lpeversion="1"
       steps="1"
       threshold="0.00243902"
       smooth_angles="360"
       helper_size="0"
       simplify_individual_paths="false"
       simplify_just_coalesce="false" />
    <linearGradient
       inkscape:collect="always"
       xlink:href="#linearGradient21127"
       id="linearGradient21129"
       x1="41.006191"
       y1="84.335197"
       x2="41.971298"
       y2="85.905235"
       gradientUnits="userSpaceOnUse" />
  </defs>
  <g
     inkscape:label="Ebene 1"
     inkscape:groupmode="layer"
     id="layer1">
    <path
       style="fill:none;fill-opacity:1;stroke:#ffd030;stroke-width:0.661458;stroke-linecap:round;stroke-dasharray:none;stroke-opacity:1"
       d="m 57.305859,92.626642 c -0.195255,5.343306 2.287923,23.571258 5.342457,27.565108 4.011747,5.24543 7.647079,-3.48018 7.647079,-3.48018"
       id="path20269"
       sodipodi:nodetypes="csc" />
    <path
       id="ears"
       style="fill:#ffe6d5;stroke:#000000;stroke-width:0.529167;stroke-linecap:butt;stroke-linejoin:miter;stroke-miterlimit:4;stroke-dasharray:none;stroke-opacity:1"
       d="m 142.34583,97.895836 c 0,0 9.59243,-11.463944 14.81668,-8.995835 3.68244,1.739707 2.72712,8.144515 1.73443,12.094389 -1.56339,6.22066 -5.22413,13.80545 -11.41232,15.49278 -1.0835,0.29543 -2.71964,-0.009 -3.91117,-0.57217 -0.93037,-0.43914 -2.28595,-2.07366 -2.28595,-2.07366 M 74.612514,97.895836 c 0,0 -9.704158,-11.687758 -14.816686,-8.995835 -3.572767,1.881182 -1.740043,8.199327 -0.676092,12.094389 1.636705,5.99187 4.40033,13.72217 10.353994,15.49278 1.076458,0.32013 2.716407,0.007 3.9059,-0.55365 0.935551,-0.44092 2.291213,-2.09219 2.291213,-2.09219" />
    <path
       style="fill:none;stroke:#000000;stroke-width:0.529167;stroke-linecap:round;stroke-linejoin:miter;stroke-miterlimit:4;stroke-dasharray:none;stroke-opacity:1"
       d="m 146.31458,109.80209 c -0.52615,-1.1002 0.95302,-2.64716 1.92562,-3.11084 0.97261,-0.46368 1.96479,-1.12514 2.04313,-1.91625 0.1229,-1.24118 -2.39218,-2.29402 -2.67187,-3.82352 -0.22105,-1.208792 0.12831,-2.621768 0.90558,-3.573558 1.03279,-1.264692 2.83031,-2.53281 4.41213,-2.127919 1.46996,0.376259 2.35107,1.404839 2.64583,3.704166 0.22428,1.749571 -1.05833,3.704171 -1.05833,3.704171"
       id="path9675"
       sodipodi:nodetypes="cssaaasc" />
    <path
       style="fill:none;stroke:#000000;stroke-width:0.529167;stroke-linecap:round;stroke-linejoin:miter;stroke-dasharray:none;stroke-opacity:1"
       d="m 70.64377,109.80209 c 0.52615,-1.1002 -0.95302,-2.64716 -1.92562,-3.11084 -0.97261,-0.46368 -1.96479,-1.12514 -2.04313,-1.91625 -0.1229,-1.24118 2.39218,-2.29402 2.67187,-3.82352 0.22105,-1.208792 -0.12831,-2.621768 -0.90558,-3.573558 -1.03279,-1.264692 -2.83031,-2.53281 -4.41213,-2.127919 -1.46996,0.376259 -2.35107,1.404839 -2.64583,3.704166 -0.22428,1.749571 1.05833,3.704171 1.05833,3.704171"
       id="path9687"
       sodipodi:nodetypes="cssaaasc" />
    <ellipse
       style="fill:#827c7a;fill-opacity:1;stroke:#000000;stroke-width:0.264583;stroke-linecap:round;stroke-dasharray:none"
       id="path9449"
       cx="71.723717"
       cy="116.79195"
       rx="2.7315817"
       ry="2.6999154" />
    <path
       sodipodi:type="star"
       style="fill:url(#linearGradient21129);fill-opacity:1;stroke:#000000;stroke-width:0.30226;stroke-linecap:round;stroke-dasharray:none;stroke-opacity:1"
       id="path17244"
       inkscape:flatsided="true"
       sodipodi:sides="3"
       sodipodi:cx="42.432804"
       sodipodi:cy="85.498932"
       sodipodi:r1="4.9293714"
       sodipodi:r2="2.4646859"
       sodipodi:arg1="0.74905054"
       sodipodi:arg2="1.7962481"
       inkscape:rounded="0"
       inkscape:randomized="0"
       d="m 46.042759,88.855556 -8.321854,-1.908624 5.813844,-6.252625 z"
       inkscape:transform-center-x="-0.59497549"
       inkscape:transform-center-y="-0.44351514"
       transform="matrix(0.82671623,-0.3676862,0.39067234,0.75308953,-10.596824,41.650992)" />
    <path
       style="fill:none;fill-opacity:1;stroke:#aeaece;stroke-width:0.396875;stroke-linecap:round;stroke-dasharray:none;stroke-opacity:0.48235294"
       d="m 71.075686,118.6779 c 3.723891,0.25875 2.27454,-2.91622 2.27454,-2.91622"
       id="path22033"
       sodipodi:nodetypes="cc" />
  </g>
</svg>
