<?xml version="1.0" encoding="UTF-8" standalone="no"?>
<!-- Created with Inkscape (http://www.inkscape.org/) -->

<svg
   width="840"
   height="880"
   viewBox="0 0 222.24999 232.83334"
   version="1.1"
   id="mySVG"
   inkscape:version="1.1.2 (b8e25be833, 2022-02-05)"
   sodipodi:docname="ears_ferengi_standard2.svg"
   xml:space="preserve"
   xmlns:inkscape="http://www.inkscape.org/namespaces/inkscape"
   xmlns:sodipodi="http://sodipodi.sourceforge.net/DTD/sodipodi-0.dtd"
   xmlns="http://www.w3.org/2000/svg"
   xmlns:svg="http://www.w3.org/2000/svg"><sodipodi:namedview
     id="namedview7"
     pagecolor="#ffffff"
     bordercolor="#666666"
     borderopacity="1.0"
     inkscape:showpageshadow="2"
     inkscape:pageopacity="0.0"
     inkscape:pagecheckerboard="0"
     inkscape:deskcolor="#d1d1d1"
     inkscape:document-units="mm"
     showgrid="false"
     showguides="true"
     inkscape:zoom="1.0444209"
     inkscape:cx="400.70052"
     inkscape:cy="268.09115"
     inkscape:window-width="1920"
     inkscape:window-height="1094"
     inkscape:window-x="-11"
     inkscape:window-y="-11"
     inkscape:window-maximized="1"
     inkscape:current-layer="layer1"
     inkscape:pageshadow="2"
     units="px"
     inkscape:snap-global="false"><inkscape:grid
       type="xygrid"
       id="grid9" /></sodipodi:namedview><defs
     id="defs2"><inkscape:path-effect
       effect="simplify"
       id="path-effect4085"
       is_visible="true"
       lpeversion="1"
       steps="1"
       threshold="0.00243902"
       smooth_angles="360"
       helper_size="0"
       simplify_individual_paths="false"
       simplify_just_coalesce="false" /><inkscape:path-effect
       effect="simplify"
       id="path-effect14166"
       is_visible="true"
       lpeversion="1"
       steps="1"
       threshold="0.00243902"
       smooth_angles="360"
       helper_size="0"
       simplify_individual_paths="false"
       simplify_just_coalesce="false" /><inkscape:path-effect
       effect="simplify"
       id="path-effect2574"
       is_visible="true"
       lpeversion="1"
       steps="1"
       threshold="0.00243902"
       smooth_angles="360"
       helper_size="0"
       simplify_individual_paths="false"
       simplify_just_coalesce="false" /><inkscape:path-effect
       effect="simplify"
       id="path-effect441"
       is_visible="true"
       lpeversion="1"
       steps="1"
       threshold="0.00243902"
       smooth_angles="360"
       helper_size="0"
       simplify_individual_paths="false"
       simplify_just_coalesce="false" /><inkscape:path-effect
       effect="simplify"
       id="path-effect437"
       is_visible="true"
       lpeversion="1"
       steps="1"
       threshold="0.00243902"
       smooth_angles="360"
       helper_size="0"
       simplify_individual_paths="false"
       simplify_just_coalesce="false" /></defs><g
     inkscape:label="Ebene 1"
     inkscape:groupmode="layer"
     id="layer1"><path
       id="hair"
       style="fill:#ffe6d5;fill-opacity:1;stroke:#000000;stroke-width:2;stroke-linecap:round;stroke-linejoin:miter;stroke-miterlimit:4;stroke-dasharray:none;stroke-opacity:1"
       transform="scale(0.26458333)"
       d="m 240.89258,334.79883 c 1.45351,-1.54472 3.28734,-3.79278 6.04492,-6.37305 2.75758,-2.58026 11.48894,-8.79023 31.11914,-11.44726 19.63019,-2.65704 53.34317,12.62536 70.50391,19.53125 17.16073,6.90589 25.62319,8.78631 36.48242,11.7539 9.66106,2.64017 17.66174,-1.17858 23.46289,-6.54101 -3.88535,-3.5364 -6.78087,-8.09937 -7.78906,-13.24219 -1.35037,-6.75414 0.008,-10.74569 7.12109,-14.94727 -9.08035,-5.3396 -22.74127,-6.95468 -33.77734,-8.86718 -17.71349,-3.93931 -35.22255,-8.78167 -52.70703,-13.67579 -11.50724,-3.22101 -22.41361,-7.70569 -33.54688,-11.7832 -4.12374,-1.70242 -8.83053,-2.38291 -13.50195,-2.38086 -8.91817,0.004 -17.70876,2.49627 -22.08008,5.11328 -3.20595,1.91933 -6.62028,3.53466 -9.5957,5.79493 -5.33625,4.05366 -10.11139,8.84129 -14.62891,13.79101 -3.13633,3.43638 -8.73852,11.30855 -9.20898,11.85742 m 368.97492,-15.96919 c 0,0 -6.02959,-5.66571 -9.33536,-8.13848 -1.99022,-1.48872 -6.28762,-4.00764 -6.28762,-4.00764 -5.72836,-3.3574 -21.86865,-9.6988 -34.24592,-8.83526 -12.37727,0.86354 -21.67979,8.39064 -32.7538,11.89682 -17.37725,5.50188 -35.42994,11.33813 -52.77555,14.31407 -17.34561,2.97594 -27.81271,2.92695 -39.40562,8.24785 -11.59291,5.3209 -13.87309,9.44685 -12.24525,17.58885 1.97835,10.09166 11.21344,17.96409 20.96515,20.18887 9.33275,1.39954 18.21812,-2.86036 27.11917,-4.98413 24.72431,-7.47961 46.85798,-22.08406 71.75565,-28.69307 9.09264,-2.41361 18.7386,-5.79747 27.95222,-3.89719 6.07842,1.25366 10.83677,6.09477 15.91861,9.65761 1.99707,1.40011 5.63448,4.96942 6.61765,5.84333"
       sodipodi:nodetypes="cssssccccsccsssccscsssscccsssc" /><path
       style="fill:none;stroke:#000000;stroke-width:0.529167;stroke-linecap:round;stroke-linejoin:miter;stroke-miterlimit:4;stroke-dasharray:none;stroke-opacity:1"
       d="m 104.37203,65.165001 c 4.89035,0.909888 7.86031,0.539522 10.76653,0.126664"
       id="path6115"
       sodipodi:nodetypes="cc" /><path
       style="fill:none;stroke:#000000;stroke-width:0.529167;stroke-linecap:round;stroke-linejoin:miter;stroke-miterlimit:4;stroke-dasharray:none;stroke-opacity:1"
       d="m 98.925433,69.471613 c 7.926627,2.473398 14.009737,2.006121 19.878737,0.542442"
       id="path6117"
       sodipodi:nodetypes="cc" /><path
       style="fill:none;stroke:#000000;stroke-width:0.529167;stroke-linecap:round;stroke-linejoin:miter;stroke-miterlimit:4;stroke-dasharray:none;stroke-opacity:1"
       d="m 91.578859,72.258244 c 12.160771,4.682416 23.085471,3.678899 33.566241,0.633328"
       id="path6119"
       sodipodi:nodetypes="cc" /></g></svg>
