<?xml version="1.0" encoding="UTF-8" standalone="no"?>
<!-- Created with Inkscape (http://www.inkscape.org/) -->

<svg
   width="840"
   height="880"
   viewBox="0 0 222.24999 232.83334"
   version="1.1"
   id="mySVG"
   inkscape:version="1.1.2 (b8e25be833, 2022-02-05)"
   sodipodi:docname="ears_ferengi_variation1.svg"
   xml:space="preserve"
   xmlns:inkscape="http://www.inkscape.org/namespaces/inkscape"
   xmlns:sodipodi="http://sodipodi.sourceforge.net/DTD/sodipodi-0.dtd"
   xmlns="http://www.w3.org/2000/svg"
   xmlns:svg="http://www.w3.org/2000/svg"><sodipodi:namedview
     id="namedview7"
     pagecolor="#ffffff"
     bordercolor="#666666"
     borderopacity="1.0"
     inkscape:showpageshadow="2"
     inkscape:pageopacity="0.0"
     inkscape:pagecheckerboard="0"
     inkscape:deskcolor="#d1d1d1"
     inkscape:document-units="mm"
     showgrid="false"
     showguides="true"
     inkscape:zoom="2.0888418"
     inkscape:cx="441.15356"
     inkscape:cy="371.019"
     inkscape:window-width="1920"
     inkscape:window-height="1094"
     inkscape:window-x="-11"
     inkscape:window-y="-11"
     inkscape:window-maximized="1"
     inkscape:current-layer="layer1"
     inkscape:pageshadow="2"
     units="px"
     inkscape:snap-global="false"><inkscape:grid
       type="xygrid"
       id="grid9" /></sodipodi:namedview><defs
     id="defs2"><inkscape:path-effect
       effect="simplify"
       id="path-effect4085"
       is_visible="true"
       lpeversion="1"
       steps="1"
       threshold="0.00243902"
       smooth_angles="360"
       helper_size="0"
       simplify_individual_paths="false"
       simplify_just_coalesce="false" /><inkscape:path-effect
       effect="simplify"
       id="path-effect14166"
       is_visible="true"
       lpeversion="1"
       steps="1"
       threshold="0.00243902"
       smooth_angles="360"
       helper_size="0"
       simplify_individual_paths="false"
       simplify_just_coalesce="false" /><inkscape:path-effect
       effect="simplify"
       id="path-effect2574"
       is_visible="true"
       lpeversion="1"
       steps="1"
       threshold="0.00243902"
       smooth_angles="360"
       helper_size="0"
       simplify_individual_paths="false"
       simplify_just_coalesce="false" /><inkscape:path-effect
       effect="simplify"
       id="path-effect441"
       is_visible="true"
       lpeversion="1"
       steps="1"
       threshold="0.00243902"
       smooth_angles="360"
       helper_size="0"
       simplify_individual_paths="false"
       simplify_just_coalesce="false" /><inkscape:path-effect
       effect="simplify"
       id="path-effect437"
       is_visible="true"
       lpeversion="1"
       steps="1"
       threshold="0.00243902"
       smooth_angles="360"
       helper_size="0"
       simplify_individual_paths="false"
       simplify_just_coalesce="false" /></defs><g
     inkscape:label="Ebene 1"
     inkscape:groupmode="layer"
     id="layer1"><path
       id="hair_long"
       style="opacity:1;fill:#ffe6d5;stroke:#000000;stroke-width:0.52916667;stroke-linecap:butt;stroke-linejoin:miter;stroke-miterlimit:4;stroke-dasharray:none;stroke-opacity:1"
       d="m 74.612514,73.554169 c 0,0 -6.485124,-0.680604 -11.641686,3.704165 -5.156561,4.384769 -12.185283,15.137094 -12.846925,24.265226 -0.477547,6.58832 1.923981,14.05254 6.649827,18.66777 6.428789,6.27832 25.601733,8.44219 25.601733,8.44219 M 142.34583,73.554169 c 0,0 6.48512,-0.680601 11.64168,3.70417 5.15656,4.384771 12.06952,15.146227 12.84693,24.265231 0.55625,6.52485 -1.48012,14.04733 -6.12066,18.66777 -6.4866,6.45851 -26.1309,8.44219 -26.1309,8.44219"
       sodipodi:nodetypes="csaaccsaac" /><path
       id="path1419"
       style="opacity:1;fill:none;stroke:#000000;stroke-width:2;stroke-linecap:butt;stroke-linejoin:miter;stroke-miterlimit:4;stroke-dasharray:none;stroke-opacity:1"
       d="m 541.29102,309.39844 c 1.67829,23.20051 2.6537,50.77888 -0.082,69.04101 -4.41947,29.50186 -24.81641,72.68578 -33.26562,92.23438 19.44584,-2.63133 60.8227,-13.80735 77.20117,-28.82617 15.55926,-14.26761 22.38653,-33.49633 20.52149,-53.64454 -2.60659,-28.15878 -26.36811,-54.67637 -43.07422,-68.92968 -6.52085,-5.56345 -13.37367,-8.67263 -21.30078,-9.875 z m -265.70704,0.79101 c -5.88233,1.6842 -12.27915,4.47688 -18.1621,9.08399 -17.28944,13.53983 -40.85581,40.74272 -43.07422,68.92968 -1.60117,20.34422 6.44963,39.39303 22.29492,53.64454 16.36791,14.72155 57.31512,26.10364 76.10351,28.81054 -4.48247,-12.33085 -24.45533,-62.04958 -30.5332,-94.13281 -3.31459,-17.49673 -5.37593,-43.82273 -6.62891,-66.33594 z"
       transform="scale(0.26458333)"
       sodipodi:nodetypes="cscsssccssscscs" /><path
       id="path1617"
       style="opacity:1;fill:none;stroke:#000000;stroke-width:2;stroke-linecap:butt;stroke-linejoin:miter;stroke-miterlimit:4;stroke-dasharray:none;stroke-opacity:1"
       d="m 277.51953,344.29102 c -0.3808,0.24554 -0.76039,0.49362 -1.13672,0.7539 -15.14172,10.47254 -31.78177,24.15357 -33.72461,45.95508 -1.40226,15.7355 5.65038,25.56291 19.52735,36.58594 10.07677,8.00437 26.78,15.18606 43.92773,18.29883 -8.0689,-23.40143 -19.635,-46.84368 -23.90039,-69.35938 -1.98396,-10.4727 -3.50954,-18.13714 -4.69336,-32.23437 z m 265.25195,0.17773 c 0.3792,14.70498 0.0783,23.01746 -1.5625,33.9707 -3.32574,22.20076 -15.79365,43.75254 -25.37304,67.3711 17.27242,-3.07638 33.63905,-10.19125 43.55859,-18.22461 13.62652,-11.03547 19.60606,-21.00204 17.97266,-36.58594 -2.28272,-21.77971 -18.58288,-35.48253 -33.72461,-45.95508 -0.28815,-0.19929 -0.58028,-0.38554 -0.8711,-0.57617 z"
       transform="scale(0.26458333)"
       sodipodi:nodetypes="ccsscsccscsssc" /></g></svg>
