<?xml version="1.0" encoding="UTF-8" standalone="no"?>
<!-- Created with Inkscape (http://www.inkscape.org/) -->

<svg
   width="840"
   height="880"
   viewBox="0 0 222.24999 232.83334"
   version="1.1"
   id="mySVG"
   inkscape:version="1.1.2 (b8e25be833, 2022-02-05)"
   sodipodi:docname="ears_ferengi_small1.svg"
   xml:space="preserve"
   xmlns:inkscape="http://www.inkscape.org/namespaces/inkscape"
   xmlns:sodipodi="http://sodipodi.sourceforge.net/DTD/sodipodi-0.dtd"
   xmlns="http://www.w3.org/2000/svg"
   xmlns:svg="http://www.w3.org/2000/svg"><sodipodi:namedview
     id="namedview7"
     pagecolor="#ffffff"
     bordercolor="#666666"
     borderopacity="1.0"
     inkscape:showpageshadow="2"
     inkscape:pageopacity="0.0"
     inkscape:pagecheckerboard="0"
     inkscape:deskcolor="#d1d1d1"
     inkscape:document-units="mm"
     showgrid="false"
     showguides="true"
     inkscape:zoom="0.52221045"
     inkscape:cx="39.256204"
     inkscape:cy="618.52458"
     inkscape:window-width="1920"
     inkscape:window-height="1094"
     inkscape:window-x="-11"
     inkscape:window-y="-11"
     inkscape:window-maximized="1"
     inkscape:current-layer="layer1"
     inkscape:pageshadow="2"
     units="px"
     inkscape:snap-global="false"><inkscape:grid
       type="xygrid"
       id="grid9" /></sodipodi:namedview><defs
     id="defs2"><inkscape:path-effect
       effect="simplify"
       id="path-effect4085"
       is_visible="true"
       lpeversion="1"
       steps="1"
       threshold="0.00243902"
       smooth_angles="360"
       helper_size="0"
       simplify_individual_paths="false"
       simplify_just_coalesce="false" /><inkscape:path-effect
       effect="simplify"
       id="path-effect14166"
       is_visible="true"
       lpeversion="1"
       steps="1"
       threshold="0.00243902"
       smooth_angles="360"
       helper_size="0"
       simplify_individual_paths="false"
       simplify_just_coalesce="false" /><inkscape:path-effect
       effect="simplify"
       id="path-effect2574"
       is_visible="true"
       lpeversion="1"
       steps="1"
       threshold="0.00243902"
       smooth_angles="360"
       helper_size="0"
       simplify_individual_paths="false"
       simplify_just_coalesce="false" /><inkscape:path-effect
       effect="simplify"
       id="path-effect441"
       is_visible="true"
       lpeversion="1"
       steps="1"
       threshold="0.00243902"
       smooth_angles="360"
       helper_size="0"
       simplify_individual_paths="false"
       simplify_just_coalesce="false" /><inkscape:path-effect
       effect="simplify"
       id="path-effect437"
       is_visible="true"
       lpeversion="1"
       steps="1"
       threshold="0.00243902"
       smooth_angles="360"
       helper_size="0"
       simplify_individual_paths="false"
       simplify_just_coalesce="false" /></defs><g
     inkscape:label="Ebene 1"
     inkscape:groupmode="layer"
     id="layer1"><path
       id="hair_long"
       style="opacity:1;fill:#ffe6d5;stroke:#000000;stroke-width:0.529167;stroke-linecap:butt;stroke-linejoin:miter;stroke-miterlimit:4;stroke-dasharray:none;stroke-opacity:1"
       d="m 79.904181,73.554169 c 0,0 -6.485124,-0.680604 -11.641686,3.704165 -5.156561,4.384769 -11.974651,14.033685 -12.846925,22.677726 -0.557871,5.52838 1.93868,11.30368 6.649827,15.49277 5.478884,4.87175 20.310066,8.44219 20.310066,8.44219 M 137.58333,74.612502 c 0,0 6.48512,-1.738934 11.64168,2.645837 5.15656,4.384771 11.14774,14.157572 12.84693,22.677731 1.09664,5.49883 -1.11052,11.3421 -6.64983,15.49277 -5.9978,4.49422 -20.83923,8.44219 -20.83923,8.44219"
       sodipodi:nodetypes="csssccsssc" /><path
       id="path1419"
       style="opacity:1;fill:none;stroke:#000000;stroke-width:2;stroke-linecap:butt;stroke-linejoin:miter;stroke-miterlimit:4;stroke-dasharray:none;stroke-opacity:1"
       d="m 541.29102,315.39844 c 1.67829,23.20051 4.54109,42.54218 -0.082,63.04101 -5.69913,25.26999 -24.81641,50.68578 -33.26562,70.23438 19.44584,-2.63133 36.20419,-6.93513 51.20117,-16.82617 21.09873,-13.91536 25.73621,-26.75515 26.52149,-43.64454 0.86563,-18.61752 -9.75236,-32.62055 -20.08213,-51.99958 -4.6814,-8.78248 -15.80077,-20.59146 -24.29287,-20.8051 z m -265.70704,-3.20899 c -5.88233,1.6842 -14.30909,13.97936 -22.23134,24.13592 -11.28188,14.46371 -19.25416,32.01955 -19.00498,51.87775 0.21254,16.9387 6.67361,31.03872 28.29492,43.64454 15.21848,8.87279 31.31512,14.10364 50.10351,16.81054 -4.48247,-12.33085 -24.03442,-46.84489 -30.5332,-72.13281 -5.36608,-20.88035 -5.37593,-41.82273 -6.62891,-64.33594 z"
       sodipodi:nodetypes="cacsssccsssssas"
       transform="scale(0.26458333)" /><path
       id="path1617"
       style="opacity:1;fill:none;stroke:#000000;stroke-width:2;stroke-linecap:butt;stroke-linejoin:miter;stroke-miterlimit:4;stroke-dasharray:none;stroke-opacity:1"
       d="m 277.51953,348.29102 c -0.3808,0.24554 -0.76039,0.49362 -1.13672,0.7539 -15.14172,10.47254 -22.40486,21.65687 -23.72461,35.95508 -0.75101,8.13647 3.73663,16.82107 9.52735,22.58594 11.24135,11.19117 26.78,15.18606 43.92773,18.29883 -8.0689,-23.40143 -18.60936,-29.10875 -23.90039,-45.35938 -3.36159,-10.32462 -3.50954,-18.13714 -4.69336,-32.23437 z m 265.25195,0.17773 c 0.3792,14.70498 1.65337,23.1009 -1.5625,33.9707 -4.75173,16.06111 -15.79365,19.75254 -25.37304,43.3711 17.27242,-3.07638 32.75055,-6.78314 43.55859,-18.22461 5.48255,-5.80386 8.94398,-14.66132 7.97266,-22.58594 -1.74691,-14.25233 -8.58288,-25.48253 -23.72461,-35.95508 -0.28815,-0.19929 -0.58028,-0.38554 -0.8711,-0.57617 z"
       sodipodi:nodetypes="ccaacaccacaasc"
       transform="scale(0.26458333)" /></g></svg>
