<?xml version="1.0" encoding="UTF-8" standalone="no"?>
<!-- Created with Inkscape (http://www.inkscape.org/) -->

<svg
   width="840"
   height="880"
   viewBox="0 0 222.24999 232.83334"
   version="1.1"
   id="mySVG"
   inkscape:version="1.1.2 (b8e25be833, 2022-02-05)"
   sodipodi:docname="ears_ferengi_standard1.svg"
   xml:space="preserve"
   xmlns:inkscape="http://www.inkscape.org/namespaces/inkscape"
   xmlns:sodipodi="http://sodipodi.sourceforge.net/DTD/sodipodi-0.dtd"
   xmlns="http://www.w3.org/2000/svg"
   xmlns:svg="http://www.w3.org/2000/svg"><sodipodi:namedview
     id="namedview7"
     pagecolor="#ffffff"
     bordercolor="#666666"
     borderopacity="1.0"
     inkscape:showpageshadow="2"
     inkscape:pageopacity="0.0"
     inkscape:pagecheckerboard="0"
     inkscape:deskcolor="#d1d1d1"
     inkscape:document-units="mm"
     showgrid="false"
     showguides="true"
     inkscape:zoom="2.0888418"
     inkscape:cx="406.20597"
     inkscape:cy="345.16736"
     inkscape:window-width="1920"
     inkscape:window-height="1094"
     inkscape:window-x="-11"
     inkscape:window-y="-11"
     inkscape:window-maximized="1"
     inkscape:current-layer="layer1"
     inkscape:pageshadow="2"
     units="px"
     inkscape:snap-global="false"><inkscape:grid
       type="xygrid"
       id="grid9" /></sodipodi:namedview><defs
     id="defs2"><inkscape:path-effect
       effect="simplify"
       id="path-effect4085"
       is_visible="true"
       lpeversion="1"
       steps="1"
       threshold="0.00243902"
       smooth_angles="360"
       helper_size="0"
       simplify_individual_paths="false"
       simplify_just_coalesce="false" /><inkscape:path-effect
       effect="simplify"
       id="path-effect14166"
       is_visible="true"
       lpeversion="1"
       steps="1"
       threshold="0.00243902"
       smooth_angles="360"
       helper_size="0"
       simplify_individual_paths="false"
       simplify_just_coalesce="false" /><inkscape:path-effect
       effect="simplify"
       id="path-effect2574"
       is_visible="true"
       lpeversion="1"
       steps="1"
       threshold="0.00243902"
       smooth_angles="360"
       helper_size="0"
       simplify_individual_paths="false"
       simplify_just_coalesce="false" /><inkscape:path-effect
       effect="simplify"
       id="path-effect441"
       is_visible="true"
       lpeversion="1"
       steps="1"
       threshold="0.00243902"
       smooth_angles="360"
       helper_size="0"
       simplify_individual_paths="false"
       simplify_just_coalesce="false" /><inkscape:path-effect
       effect="simplify"
       id="path-effect437"
       is_visible="true"
       lpeversion="1"
       steps="1"
       threshold="0.00243902"
       smooth_angles="360"
       helper_size="0"
       simplify_individual_paths="false"
       simplify_just_coalesce="false" /></defs><g
     inkscape:label="Ebene 1"
     inkscape:groupmode="layer"
     id="layer1"><path
       id="hair_long"
       style="opacity:1;fill:#ffe6d5;stroke:#000000;stroke-width:0.52916667;stroke-linecap:butt;stroke-linejoin:miter;stroke-miterlimit:4;stroke-dasharray:none;stroke-opacity:1"
       d="m 74.612514,73.554169 c 0,0 -6.485124,-0.680604 -11.641686,3.704165 -5.156561,4.384769 -12.185283,15.137094 -12.846925,24.265226 -0.477547,6.58832 1.923981,14.05254 6.649827,18.66777 6.428789,6.27832 25.601733,8.44219 25.601733,8.44219 M 142.34583,73.554169 c 0,0 6.48512,-0.680601 11.64168,3.70417 5.15656,4.384771 12.06952,15.146227 12.84693,24.265231 0.55625,6.52485 -1.48012,14.04733 -6.12066,18.66777 -6.4866,6.45851 -26.1309,8.44219 -26.1309,8.44219"
       sodipodi:nodetypes="csaaccsaac" /><path
       id="path1419"
       style="opacity:1;fill:none;stroke:#000000;stroke-width:2;stroke-linecap:round;stroke-linejoin:miter;stroke-miterlimit:4;stroke-dasharray:none;stroke-opacity:1"
       d="m 601.93943,420.23061 c 3.41859,-10.60915 4.65915,-21.95338 3.72663,-32.02749 -2.60655,-28.15878 -26.36811,-54.67637 -43.07422,-68.92968 -6.52085,-5.56345 -13.37367,-8.67263 -21.30078,-9.875 m -265.70708,0.79101 c -5.88233,1.6842 -12.27915,4.47688 -18.1621,9.08399 -17.28944,13.53983 -40.8558,40.74272 -43.07422,68.92968 -0.80059,10.17211 0.81182,21.52037 4.60504,32.10704"
       transform="scale(0.26458333)"
       sodipodi:nodetypes="cssccssc" /><path
       id="path1617"
       style="opacity:1;fill:none;stroke:#000000;stroke-width:2;stroke-linecap:butt;stroke-linejoin:miter;stroke-miterlimit:4;stroke-dasharray:none;stroke-opacity:1"
       d="m 277.51953,338.29102 c -0.3808,0.24554 -0.76039,0.49362 -1.13672,0.7539 -15.14172,10.47254 -35.78177,30.15357 -37.72461,51.95508 -1.40226,15.7355 5.65038,35.56291 19.52735,46.58594 10.07677,8.00437 30.78,15.18606 47.92773,18.29883 -8.0689,-23.40143 -19.635,-56.84368 -23.90039,-79.35938 -1.98396,-10.4727 -3.50954,-24.13714 -4.69336,-38.23437 z m 265.25195,0.17773 c 0.3792,14.70498 0.0783,29.01746 -1.5625,39.9707 -3.32574,22.20076 -15.79365,53.75254 -25.37304,77.3711 17.27242,-3.07638 37.63905,-10.19125 47.55859,-18.22461 13.62652,-11.03547 19.60606,-31.00204 17.97266,-46.58594 -2.28272,-21.77971 -22.58288,-41.48253 -37.72461,-51.95508 -0.28815,-0.19929 -0.58028,-0.38554 -0.8711,-0.57617 z"
       transform="scale(0.26458333)"
       sodipodi:nodetypes="ccsscsccscsssc" /><path
       id="path1619"
       style="opacity:1;fill:none;stroke:#000000;stroke-width:2;stroke-linecap:butt;stroke-linejoin:miter;stroke-miterlimit:4;stroke-dasharray:none;stroke-opacity:1"
       d="M 281.90625 374.81641 C 279.63972 375.56898 277.61166 376.37432 275.93164 377.23828 C 263.67626 383.54072 257.44909 393.73368 258.6875 402.73047 C 260.40331 415.19546 278.63156 429.87951 292.00391 435.86719 C 294.46072 436.96726 297.03391 437.82995 299.59766 438.51172 C 292.73235 417.59482 285.41624 393.43491 282.21289 376.52539 C 282.10828 375.97316 282.0084 375.38589 281.90625 374.81641 z M 541.5957 375.5293 C 541.47404 376.51771 541.34992 377.49868 541.20898 378.43945 C 538.7608 394.78213 531.34505 417.31999 523.78125 437.49805 C 525.21916 437.01722 526.64678 436.48797 528.0332 435.86719 C 541.40563 429.87947 559.33365 415.18307 561.34961 402.73047 C 562.79214 393.82042 557.51077 383.5478 545.47656 377.23828 C 544.33508 376.6398 543.02485 376.07256 541.5957 375.5293 z "
       transform="scale(0.26458333)" /></g></svg>
