<?xml version="1.0" encoding="UTF-8" standalone="no"?>
<!-- Created with Inkscape (http://www.inkscape.org/) -->

<svg
   width="840"
   height="880"
   viewBox="0 0 222.24999 232.83334"
   version="1.1"
   id="mySVG"
   inkscape:version="1.1.2 (b8e25be833, 2022-02-05)"
   sodipodi:docname="ears_ferengi_variation2.svg"
   xml:space="preserve"
   xmlns:inkscape="http://www.inkscape.org/namespaces/inkscape"
   xmlns:sodipodi="http://sodipodi.sourceforge.net/DTD/sodipodi-0.dtd"
   xmlns="http://www.w3.org/2000/svg"
   xmlns:svg="http://www.w3.org/2000/svg"><sodipodi:namedview
     id="namedview7"
     pagecolor="#ffffff"
     bordercolor="#666666"
     borderopacity="1.0"
     inkscape:showpageshadow="2"
     inkscape:pageopacity="0.0"
     inkscape:pagecheckerboard="0"
     inkscape:deskcolor="#d1d1d1"
     inkscape:document-units="mm"
     showgrid="false"
     showguides="true"
     inkscape:zoom="2.0888418"
     inkscape:cx="441.15356"
     inkscape:cy="371.019"
     inkscape:window-width="1920"
     inkscape:window-height="1094"
     inkscape:window-x="-11"
     inkscape:window-y="-11"
     inkscape:window-maximized="1"
     inkscape:current-layer="layer1"
     inkscape:pageshadow="2"
     units="px"
     inkscape:snap-global="false"><inkscape:grid
       type="xygrid"
       id="grid9" /></sodipodi:namedview><defs
     id="defs2"><inkscape:path-effect
       effect="simplify"
       id="path-effect4085"
       is_visible="true"
       lpeversion="1"
       steps="1"
       threshold="0.00243902"
       smooth_angles="360"
       helper_size="0"
       simplify_individual_paths="false"
       simplify_just_coalesce="false" /><inkscape:path-effect
       effect="simplify"
       id="path-effect14166"
       is_visible="true"
       lpeversion="1"
       steps="1"
       threshold="0.00243902"
       smooth_angles="360"
       helper_size="0"
       simplify_individual_paths="false"
       simplify_just_coalesce="false" /><inkscape:path-effect
       effect="simplify"
       id="path-effect2574"
       is_visible="true"
       lpeversion="1"
       steps="1"
       threshold="0.00243902"
       smooth_angles="360"
       helper_size="0"
       simplify_individual_paths="false"
       simplify_just_coalesce="false" /><inkscape:path-effect
       effect="simplify"
       id="path-effect441"
       is_visible="true"
       lpeversion="1"
       steps="1"
       threshold="0.00243902"
       smooth_angles="360"
       helper_size="0"
       simplify_individual_paths="false"
       simplify_just_coalesce="false" /><inkscape:path-effect
       effect="simplify"
       id="path-effect437"
       is_visible="true"
       lpeversion="1"
       steps="1"
       threshold="0.00243902"
       smooth_angles="360"
       helper_size="0"
       simplify_individual_paths="false"
       simplify_just_coalesce="false" /></defs><g
     inkscape:label="Ebene 1"
     inkscape:groupmode="layer"
     id="layer1"><path
       id="hair"
       style="fill:#ffe6d5;fill-opacity:1;stroke:#000000;stroke-width:0.529167;stroke-linecap:round;stroke-linejoin:miter;stroke-miterlimit:4;stroke-dasharray:none;stroke-opacity:1"
       d="m 152.96718,88.486773 c -0.38458,-0.408707 -0.90659,-0.966176 -1.59939,-1.686203 -0.76816,-0.798358 -3.43171,-3.026544 -8.36027,-2.933755 -5.24025,0.09866 -14.11372,3.34046 -18.65416,5.167643 -4.54045,1.827183 -6.77947,2.324711 -9.65264,3.109886 -2.55616,0.698544 -4.67301,-0.311833 -6.20789,-1.730642 1.028,-0.935673 1.7941,-2.142959 2.06085,-3.503663 0.35729,-1.787033 -0.002,-2.84313 -1.88412,-3.954798 2.40251,-1.41277 6.01696,-1.840093 8.93692,-2.346108 4.6867,-1.042276 9.3193,-2.323484 13.9454,-3.618386 3.04463,-0.852226 5.93027,-2.038798 8.87595,-3.117639 1.09107,-0.450432 2.33641,-0.630478 3.57239,-0.629936 2.3596,0.0011 3.70215,0.318118 5.43036,0.941227 1.14653,0.413384 2.1933,1.092157 3.17218,1.818239 1.42412,1.05633 2.67531,2.339258 3.87057,3.648871 0.82982,0.909209 2.31207,2.992054 2.43654,3.137276 m -96.6113,-4.985173 c 0,0 1.59533,-1.499052 2.46998,-2.153306 0.52658,-0.39389 1.6636,-1.060354 1.6636,-1.060354 1.51563,-0.888313 4.551095,-1.679485 7.825915,-1.451007 3.27482,0.228478 5.73611,2.220024 8.66611,3.1477 4.59773,1.455706 9.37417,2.99988 13.96353,3.787265 4.589365,0.787384 7.358795,0.774422 10.426085,2.182243 3.06729,1.407822 3.67059,2.499479 3.23989,4.653717 -0.52344,2.670085 -2.96689,4.752998 -5.54703,5.341638 -2.46929,0.370295 -4.82023,-0.756803 -7.175295,-1.318718 -6.54164,-1.97898 -12.39784,-5.843074 -18.98535,-7.591708 -2.40576,-0.6386 -4.767922,-0.995586 -7.205692,-0.492804 -1.60825,0.331698 -3.088894,1.422576 -4.433464,2.365245 -0.52839,0.370445 -1.49079,1.314825 -1.75092,1.546047"
       sodipodi:nodetypes="cssssccccsccaasccscsssscccsssc" /></g></svg>
