<?xml version="1.0" encoding="UTF-8" standalone="no"?>
<!-- Created with Inkscape (http://www.inkscape.org/) -->

<svg
   width="840"
   height="880"
   viewBox="0 0 222.24999 232.83334"
   version="1.1"
   id="mySVG"
   inkscape:version="1.1.2 (b8e25be833, 2022-02-05)"
   sodipodi:docname="ears_ferengi_small2.svg"
   xml:space="preserve"
   xmlns:inkscape="http://www.inkscape.org/namespaces/inkscape"
   xmlns:sodipodi="http://sodipodi.sourceforge.net/DTD/sodipodi-0.dtd"
   xmlns="http://www.w3.org/2000/svg"
   xmlns:svg="http://www.w3.org/2000/svg"><sodipodi:namedview
     id="namedview7"
     pagecolor="#ffffff"
     bordercolor="#666666"
     borderopacity="1.0"
     inkscape:showpageshadow="2"
     inkscape:pageopacity="0.0"
     inkscape:pagecheckerboard="0"
     inkscape:deskcolor="#d1d1d1"
     inkscape:document-units="mm"
     showgrid="false"
     showguides="true"
     inkscape:zoom="1.0444209"
     inkscape:cx="655.38711"
     inkscape:cy="511.28812"
     inkscape:window-width="1920"
     inkscape:window-height="1094"
     inkscape:window-x="-11"
     inkscape:window-y="-11"
     inkscape:window-maximized="1"
     inkscape:current-layer="layer1"
     inkscape:pageshadow="2"
     units="px"
     inkscape:snap-global="false"><inkscape:grid
       type="xygrid"
       id="grid9" /></sodipodi:namedview><defs
     id="defs2"><inkscape:path-effect
       effect="simplify"
       id="path-effect4085"
       is_visible="true"
       lpeversion="1"
       steps="1"
       threshold="0.00243902"
       smooth_angles="360"
       helper_size="0"
       simplify_individual_paths="false"
       simplify_just_coalesce="false" /><inkscape:path-effect
       effect="simplify"
       id="path-effect14166"
       is_visible="true"
       lpeversion="1"
       steps="1"
       threshold="0.00243902"
       smooth_angles="360"
       helper_size="0"
       simplify_individual_paths="false"
       simplify_just_coalesce="false" /><inkscape:path-effect
       effect="simplify"
       id="path-effect2574"
       is_visible="true"
       lpeversion="1"
       steps="1"
       threshold="0.00243902"
       smooth_angles="360"
       helper_size="0"
       simplify_individual_paths="false"
       simplify_just_coalesce="false" /><inkscape:path-effect
       effect="simplify"
       id="path-effect441"
       is_visible="true"
       lpeversion="1"
       steps="1"
       threshold="0.00243902"
       smooth_angles="360"
       helper_size="0"
       simplify_individual_paths="false"
       simplify_just_coalesce="false" /><inkscape:path-effect
       effect="simplify"
       id="path-effect437"
       is_visible="true"
       lpeversion="1"
       steps="1"
       threshold="0.00243902"
       smooth_angles="360"
       helper_size="0"
       simplify_individual_paths="false"
       simplify_just_coalesce="false" /></defs><g
     inkscape:label="Ebene 1"
     inkscape:groupmode="layer"
     id="layer1"><path
       id="hair"
       style="fill:#ffe6d5;fill-opacity:1;stroke:#000000;stroke-width:0.529167;stroke-linecap:round;stroke-linejoin:miter;stroke-miterlimit:4;stroke-dasharray:none;stroke-opacity:1"
       d="m 149.87452,89.388797 c -0.88938,-1.730354 -3.36976,-4.030358 -5.76156,-5.185633 -0.99762,-0.481866 -4.14823,-0.966532 -9.07679,-0.873743 -5.24025,0.09866 -8.82934,1.590284 -13.36978,3.417467 -4.54045,1.827183 -4.0925,1.966448 -6.96567,2.751623 -2.55616,0.698544 -4.67301,-0.311833 -6.20789,-1.730642 1.028,-0.935673 1.74932,-2.053393 2.06085,-3.503663 0.37968,-1.675076 -0.58418,-2.949152 -1.70499,-3.456251 2.40251,-1.41277 5.9232,-1.711011 8.93692,-2.346108 4.23915,-0.893337 8.61236,-1.07864 12.8335,-2.053509 2.44807,-0.565379 4.77759,-1.569202 7.21132,-2.193423 1.40928,-0.361461 2.81692,-0.920643 4.27161,-0.896526 1.60547,0.02662 3.26828,0.378221 4.67895,1.145175 1.55777,0.84693 2.68716,2.32846 3.87057,3.648871 1.1023,1.229905 2.86066,3.809341 2.98513,3.954563 m -91.976276,2.739873 c 0.238366,-0.372368 5.569833,-7.828431 10.554338,-10.494119 1.66121,-0.888407 3.562963,-1.50795 5.446811,-1.507387 3.086969,9.22e-4 5.926458,1.737527 8.923941,2.47541 4.789933,1.179126 9.745234,1.688258 14.467006,3.116069 2.09983,0.634966 4.03367,0.949315 6.32845,1.846372 1.56385,0.611329 3.63613,1.109804 3.17272,4.020821 -0.41148,2.244648 -2.96689,4.752998 -5.54703,5.341638 -2.46929,0.370295 -6.817615,-3.257617 -10.405255,-4.403692 -4.774516,-1.525225 -9.669649,-3.140231 -14.680601,-3.252813 -1.85682,-0.04172 -3.787307,0.214684 -5.488576,0.959805 -2.3795,1.042172 -4.325754,2.925006 -6.19218,4.731825 -0.817183,0.791085 -1.692663,1.829402 -2.158623,2.642492"
       sodipodi:nodetypes="csssscccaaaaaaccsaassccaaaac" /></g></svg>
