<?xml version="1.0" encoding="UTF-8" standalone="no"?>
<!-- Created with Inkscape (http://www.inkscape.org/) -->

<svg
   width="840"
   height="880"
   viewBox="0 0 222.24999 232.83334"
   version="1.1"
   id="mySVG"
   inkscape:version="1.1.2 (b8e25be833, 2022-02-05)"
   sodipodi:docname="ears_ferengi_edgy2.svg"
   xml:space="preserve"
   xmlns:inkscape="http://www.inkscape.org/namespaces/inkscape"
   xmlns:sodipodi="http://sodipodi.sourceforge.net/DTD/sodipodi-0.dtd"
   xmlns="http://www.w3.org/2000/svg"
   xmlns:svg="http://www.w3.org/2000/svg"><sodipodi:namedview
     id="namedview7"
     pagecolor="#ffffff"
     bordercolor="#666666"
     borderopacity="1.0"
     inkscape:showpageshadow="2"
     inkscape:pageopacity="0.0"
     inkscape:pagecheckerboard="0"
     inkscape:deskcolor="#d1d1d1"
     inkscape:document-units="mm"
     showgrid="false"
     showguides="true"
     inkscape:zoom="1.0444209"
     inkscape:cx="-8.1384813"
     inkscape:cy="197.71722"
     inkscape:window-width="1782"
     inkscape:window-height="999"
     inkscape:window-x="116"
     inkscape:window-y="73"
     inkscape:window-maximized="0"
     inkscape:current-layer="layer1"
     inkscape:pageshadow="2"
     units="px"
     inkscape:snap-global="false"><inkscape:grid
       type="xygrid"
       id="grid9" /></sodipodi:namedview><defs
     id="defs2"><inkscape:path-effect
       effect="simplify"
       id="path-effect4085"
       is_visible="true"
       lpeversion="1"
       steps="1"
       threshold="0.00243902"
       smooth_angles="360"
       helper_size="0"
       simplify_individual_paths="false"
       simplify_just_coalesce="false" /><inkscape:path-effect
       effect="simplify"
       id="path-effect14166"
       is_visible="true"
       lpeversion="1"
       steps="1"
       threshold="0.00243902"
       smooth_angles="360"
       helper_size="0"
       simplify_individual_paths="false"
       simplify_just_coalesce="false" /><inkscape:path-effect
       effect="simplify"
       id="path-effect2574"
       is_visible="true"
       lpeversion="1"
       steps="1"
       threshold="0.00243902"
       smooth_angles="360"
       helper_size="0"
       simplify_individual_paths="false"
       simplify_just_coalesce="false" /><inkscape:path-effect
       effect="simplify"
       id="path-effect441"
       is_visible="true"
       lpeversion="1"
       steps="1"
       threshold="0.00243902"
       smooth_angles="360"
       helper_size="0"
       simplify_individual_paths="false"
       simplify_just_coalesce="false" /><inkscape:path-effect
       effect="simplify"
       id="path-effect437"
       is_visible="true"
       lpeversion="1"
       steps="1"
       threshold="0.00243902"
       smooth_angles="360"
       helper_size="0"
       simplify_individual_paths="false"
       simplify_just_coalesce="false" /><pattern
       id="EMFhbasepattern"
       patternUnits="userSpaceOnUse"
       width="6"
       height="6"
       x="0"
       y="0" /></defs><g
     inkscape:label="Ebene 1"
     inkscape:groupmode="layer"
     id="layer1"><path
       id="eyebrows"
       style="fill:#ffe6d5;fill-opacity:1;stroke:#000000;stroke-width:0.529165;stroke-linecap:round;stroke-linejoin:miter;stroke-miterlimit:4;stroke-dasharray:none;stroke-opacity:1"
       d="m 160.57243,84.154488 c -0.79994,-0.894239 -2.63881,-1.647869 -3.25634,-1.803 -2.18032,-0.547719 -4.42178,-1.045592 -6.66941,-1.0015 -2.90918,0.05707 -5.75672,0.909841 -8.57494,1.633833 -5.42112,1.392667 -10.57735,3.687041 -15.96712,5.1965 -3.50814,0.982489 -7.06222,1.509629 -10.63782,2.507501 -1.7504,0.488497 -3.8669,0.681833 -5.40178,-0.737167 1.02799,-0.936 1.79409,-2.143 2.06085,-3.503 0.35729,-1.788 -0.002,-2.844 -1.88412,-3.955 2.4025,-1.413 5.13267,-2.586896 7.8621,-3.445667 3.96953,-1.248949 8.23104,-1.335822 12.24361,-2.438667 2.73583,-0.751936 5.38742,-1.791782 8.02504,-2.837334 4.08081,-1.617635 7.77456,-2.962181 12.05159,-5.309159 2.64412,-1.450931 6.21368,-4.081624 8.71522,-2.555667 1.58582,0.967356 3.02603,2.67866 3.79502,4.36866 0.82472,1.814 1.754,3.395455 2.59042,5.11334 0.5824,1.196167 1.69025,3.615676 1.69025,3.615676 M 48.225583,84.889819 c 0,0 1.745757,-10.605331 2.802157,-13.026331 0.701,-1.606 1.902007,-3.546 3.446677,-4.374 1.58307,-0.849 3.612,-0.273 5.38868,0 3.1425,0.467 6.069903,1.879274 9.1139,2.789 7.365262,2.201176 14.752482,4.32839 22.138609,6.4585 5.91823,1.706779 14.703104,3.657667 17.770374,5.065667 3.06729,1.407 3.67059,2.499 3.23989,4.653 -0.52345,2.67 -2.96689,4.753 -5.54701,5.342 -2.46929,0.37 -9.358994,-2.119136 -13.982214,-3.395667 -6.153727,-1.699124 -12.121542,-4.038069 -18.293429,-5.67 -2.794882,-0.739004 -5.512,-1.1265 -8.47045,-1.8625 -1.57321,-0.391 -3.36101,-1.156 -4.83874,-0.49 -2.45356,1.107 -5.023233,7.290666 -5.023233,7.290666"
       sodipodi:nodetypes="csaaascccaaasssaccsssaasccaassc" /></g></svg>
