<?xml version="1.0" encoding="UTF-8" standalone="no"?>
<!-- Created with Inkscape (http://www.inkscape.org/) -->

<svg
   width="840"
   height="880"
   viewBox="0 0 222.24999 232.83334"
   version="1.1"
   id="mySVG"
   inkscape:version="1.1.2 (b8e25be833, 2022-02-05)"
   sodipodi:docname="ears_ferengi_edgy1.svg"
   xml:space="preserve"
   xmlns:inkscape="http://www.inkscape.org/namespaces/inkscape"
   xmlns:sodipodi="http://sodipodi.sourceforge.net/DTD/sodipodi-0.dtd"
   xmlns="http://www.w3.org/2000/svg"
   xmlns:svg="http://www.w3.org/2000/svg"><sodipodi:namedview
     id="namedview7"
     pagecolor="#ffffff"
     bordercolor="#666666"
     borderopacity="1.0"
     inkscape:showpageshadow="2"
     inkscape:pageopacity="0.0"
     inkscape:pagecheckerboard="0"
     inkscape:deskcolor="#d1d1d1"
     inkscape:document-units="mm"
     showgrid="false"
     showguides="true"
     inkscape:zoom="2.0888418"
     inkscape:cx="460.30293"
     inkscape:cy="476.10116"
     inkscape:window-width="1782"
     inkscape:window-height="999"
     inkscape:window-x="116"
     inkscape:window-y="73"
     inkscape:window-maximized="0"
     inkscape:current-layer="layer1"
     inkscape:pageshadow="2"
     units="px"
     inkscape:snap-global="false"><inkscape:grid
       type="xygrid"
       id="grid9" /></sodipodi:namedview><defs
     id="defs2"><inkscape:path-effect
       effect="simplify"
       id="path-effect4085"
       is_visible="true"
       lpeversion="1"
       steps="1"
       threshold="0.00243902"
       smooth_angles="360"
       helper_size="0"
       simplify_individual_paths="false"
       simplify_just_coalesce="false" /><inkscape:path-effect
       effect="simplify"
       id="path-effect14166"
       is_visible="true"
       lpeversion="1"
       steps="1"
       threshold="0.00243902"
       smooth_angles="360"
       helper_size="0"
       simplify_individual_paths="false"
       simplify_just_coalesce="false" /><inkscape:path-effect
       effect="simplify"
       id="path-effect2574"
       is_visible="true"
       lpeversion="1"
       steps="1"
       threshold="0.00243902"
       smooth_angles="360"
       helper_size="0"
       simplify_individual_paths="false"
       simplify_just_coalesce="false" /><inkscape:path-effect
       effect="simplify"
       id="path-effect441"
       is_visible="true"
       lpeversion="1"
       steps="1"
       threshold="0.00243902"
       smooth_angles="360"
       helper_size="0"
       simplify_individual_paths="false"
       simplify_just_coalesce="false" /><inkscape:path-effect
       effect="simplify"
       id="path-effect437"
       is_visible="true"
       lpeversion="1"
       steps="1"
       threshold="0.00243902"
       smooth_angles="360"
       helper_size="0"
       simplify_individual_paths="false"
       simplify_just_coalesce="false" /><pattern
       id="EMFhbasepattern"
       patternUnits="userSpaceOnUse"
       width="6"
       height="6"
       x="0"
       y="0" /></defs><g
     inkscape:label="Ebene 1"
     inkscape:groupmode="layer"
     id="layer1"><path
       id="ears"
       style="opacity:1;fill:#ffe6d5;stroke:#000000;stroke-width:0.529167;stroke-linecap:butt;stroke-linejoin:miter;stroke-miterlimit:4;stroke-dasharray:none;stroke-opacity:1"
       d="m 74.612514,73.554169 c 0,0 -19.567024,-7.156561 -22.84736,-1.235773 -1.603659,2.894498 -3.112419,9.095804 -4.006167,15.697539 -0.961698,7.103644 -1.211315,14.670915 -0.100867,19.080885 2.839068,11.2749 9.768911,17.29518 17.982166,24.06936 5.880708,4.85034 22.561771,-3.33766 22.561771,-3.33766 M 140.75833,80.962502 c 0,0 19.37367,-15.133901 22.75582,-9.270679 3.64605,6.320697 10.31619,20.825315 8.93096,28.731337 -1.83084,10.44929 -5.47331,21.13288 -11.25882,28.71559 -5.82131,7.62962 -26.3996,-2.42724 -26.3996,-2.42724"
       sodipodi:nodetypes="cssssccsssc" /><path
       id="path1419"
       style="opacity:1;fill:none;stroke:#000000;stroke-width:0.529167;stroke-linecap:round;stroke-linejoin:miter;stroke-miterlimit:4;stroke-dasharray:none;stroke-opacity:1"
       d="m 152.65331,123.11812 c 0,0 5.31641,-2.47729 8.56445,-8.02022 3.59707,-6.13856 5.78389,-13.81351 4.63554,-20.835057 -1.23854,-7.57302 -8.50531,-13.116134 -8.95934,-14.189132 m -97.425128,0.220771 c -0.330971,-0.124114 -3.433155,6.042122 -4.040211,9.397322 -1.20871,6.680544 -1.914465,14.201666 0.978336,20.343516 2.577714,5.47287 7.086245,10.55961 13.420606,12.2172"
       sodipodi:nodetypes="cssccaac" /><path
       id="path1617"
       style="opacity:1;fill:none;stroke:#000000;stroke-width:2;stroke-linecap:round;stroke-linejoin:miter;stroke-miterlimit:4;stroke-dasharray:none;stroke-opacity:1"
       d="m 250.36105,302.63535 c -10.13679,5.52916 -22.09519,31.78544 -23.26051,46.09995 -1.93599,23.7813 -2.60549,39.80021 19.52735,70.52265 16.66947,23.13877 52.71507,23.08617 52.71507,23.08617 m 262.12676,-6.46147 c 18.54771,-2.01329 40.95696,-26.35232 38.4514,-55.20316 -2.63095,-30.29469 -12.12592,-53.53595 -27.26765,-64.0085"
       sodipodi:nodetypes="cssccsc"
       transform="scale(0.26458333)" /><path
       id="path1619"
       style="opacity:1;fill:none;stroke:#000000;stroke-width:0.529167;stroke-linecap:butt;stroke-linejoin:miter;stroke-miterlimit:4;stroke-dasharray:none;stroke-opacity:1"
       d="m 74.587694,93.878504 c -0.599686,0.199118 -1.136277,0.412197 -1.580782,0.640787 -3.242569,1.667513 -4.890174,4.364388 -4.562512,6.744779 0.453975,3.29803 5.276866,7.18319 8.814967,8.76743 0.650031,0.29106 1.330854,0.51931 2.00918,0.69969 -1.816447,-5.53426 -3.752168,-11.926561 -4.599721,-16.400518 -0.02768,-0.146111 -0.0541,-0.301493 -0.08113,-0.452168 z m 68.709496,0.188619 c -0.0322,0.261517 -0.065,0.521065 -0.10232,0.769977 -0.64774,4.323976 -2.60983,10.28712 -4.61108,15.62589 0.38044,-0.12722 0.75817,-0.26725 1.12499,-0.43149 3.53812,-1.58425 8.28158,-5.47268 8.81497,-8.76743 0.38167,-2.357441 -1.01569,-5.075386 -4.19975,-6.744779 -0.30201,-0.158348 -0.64868,-0.30843 -1.02681,-0.452168 z" /></g></svg>
