<?xml version="1.0" encoding="UTF-8" standalone="no"?>
<!-- Created with Inkscape (http://www.inkscape.org/) -->

<svg
   width="840"
   height="880"
   viewBox="0 0 222.24999 232.83334"
   version="1.1"
   id="mySVG"
   inkscape:version="1.1.2 (b8e25be833, 2022-02-05)"
   sodipodi:docname="hair_bun_with_ponytail.svg"
   xmlns:inkscape="http://www.inkscape.org/namespaces/inkscape"
   xmlns:sodipodi="http://sodipodi.sourceforge.net/DTD/sodipodi-0.dtd"
   xmlns:xlink="http://www.w3.org/1999/xlink"
   xmlns="http://www.w3.org/2000/svg"
   xmlns:svg="http://www.w3.org/2000/svg">
  <sodipodi:namedview
     id="namedview7"
     pagecolor="#ffffff"
     bordercolor="#666666"
     borderopacity="1.0"
     inkscape:showpageshadow="2"
     inkscape:pageopacity="0.0"
     inkscape:pagecheckerboard="0"
     inkscape:deskcolor="#d1d1d1"
     inkscape:document-units="mm"
     showgrid="false"
     showguides="true"
     inkscape:zoom="4"
     inkscape:cx="381.625"
     inkscape:cy="230.5"
     inkscape:window-width="1920"
     inkscape:window-height="1094"
     inkscape:window-x="-11"
     inkscape:window-y="-11"
     inkscape:window-maximized="1"
     inkscape:current-layer="layer3"
     inkscape:pageshadow="2"
     width="840mm"
     units="px">
    <inkscape:grid
       type="xygrid"
       id="grid9" />
  </sodipodi:namedview>
  <defs
     id="defs2">
    <linearGradient
       id="linearGradient1220"
       inkscape:swatch="solid">
      <stop
         style="stop-color:#3e1500;stop-opacity:1;"
         offset="0"
         id="stop1218" />
    </linearGradient>
    <linearGradient
       id="linearGradient2028"
       inkscape:swatch="solid">
      <stop
         style="stop-color:#000000;stop-opacity:1;"
         offset="0"
         id="stop2026" />
    </linearGradient>
    <linearGradient
       id="linearGradient2022"
       inkscape:swatch="solid">
      <stop
         style="stop-color:#2b1100;stop-opacity:1;"
         offset="0"
         id="stop2020" />
    </linearGradient>
    <inkscape:path-effect
       effect="envelope"
       id="path-effect1498"
       is_visible="true"
       lpeversion="1"
       yy="true"
       xx="true"
       bendpath1="M 39.847866,7.6309039 54.383891,8.3956994"
       bendpath2="m 54.150391,13.843681 2.00476,1.4463"
       bendpath3="m 41.444295,14.10278 c 5.927267,-5.0601623 10.112236,-2.037283 14.50965,0"
       bendpath4="M 41.761656,11.36031 41.59673,14.725356"
       bendpath3-nodetypes="cc"
       bendpath2-nodetypes="cc"
       bendpath1-nodetypes="cc"
       bendpath4-nodetypes="cc" />
    <inkscape:path-effect
       effect="envelope"
       id="path-effect1382"
       is_visible="true"
       lpeversion="1"
       yy="true"
       xx="true"
       bendpath1="m 143.07284,7.286971 32.2899,6.122575"
       bendpath2="M 182.77773,4.3066139 C 182.1444,34.52558 176.90961,48.365617 176.27629,57.696572"
       bendpath3="m 129.07173,41.546152 47.75231,8.239277"
       bendpath4="m 129.33786,4.8878971 6.95378,46.5381319"
       bendpath4-nodetypes="cc"
       bendpath2-nodetypes="cc"
       bendpath1-nodetypes="cc"
       bendpath3-nodetypes="cc" />
    <inkscape:path-effect
       effect="envelope"
       id="path-effect1380"
       is_visible="true"
       lpeversion="1"
       yy="true"
       xx="true"
       bendpath1="m 47.304482,-159.49416 31.321373,-3.83596"
       bendpath2="m 84.289052,-167.09386 19.903368,31.1729"
       bendpath3="m 54.873592,-137.73284 30.459766,-10.51807"
       bendpath4="m 25.058335,-145.59501 29.815257,7.86217"
       bendpath3-nodetypes="cc"
       bendpath1-nodetypes="cc"
       bendpath4-nodetypes="cc"
       bendpath2-nodetypes="cc" />
    <inkscape:path-effect
       effect="envelope"
       id="path-effect1368"
       is_visible="true"
       lpeversion="1"
       yy="true"
       xx="true"
       bendpath1="m 83.650941,-119.94515 45.790999,0.29813"
       bendpath2="m 129.44194,-119.64702 v 25.724509"
       bendpath3="m 89.081554,-93.922511 c 10.228209,-7.073349 22.549226,-9.556929 40.360386,0"
       bendpath4="m 80.436725,-111.69188 8.644829,17.769369"
       bendpath1-nodetypes="cc"
       bendpath4-nodetypes="cc"
       bendpath3-nodetypes="cc" />
    <inkscape:path-effect
       effect="envelope"
       id="path-effect1366"
       is_visible="true"
       lpeversion="1"
       yy="true"
       xx="true"
       bendpath1="M 91.428023,26.037581 C 107.37382,23.849786 121.62772,20.390235 138.87319,21.831102"
       bendpath2="M 138.6948,22.719752 V 48.444264"
       bendpath3="m 98.334408,48.444264 c 13.636892,-15.121987 26.979652,-5.995728 40.360392,0"
       bendpath4="M 98.334408,22.719752 V 48.444264"
       bendpath1-nodetypes="cc"
       bendpath3-nodetypes="cc" />
    <inkscape:path-effect
       effect="envelope"
       id="path-effect1364"
       is_visible="true"
       lpeversion="1"
       yy="true"
       xx="true"
       bendpath1="M 56.572886,58.619549 73.77488,53.720337"
       bendpath2="M 91.250864,56.656331 86.66645,72.014508"
       bendpath3="M 56.013497,72.014508 88.21945,72.951109"
       bendpath4="m 49.245026,70.564489 6.768471,1.450019"
       bendpath4-nodetypes="cc"
       bendpath1-nodetypes="cc"
       bendpath2-nodetypes="cc"
       bendpath3-nodetypes="cc" />
    <inkscape:path-effect
       effect="envelope"
       id="path-effect1202"
       is_visible="true"
       lpeversion="1"
       yy="true"
       xx="true"
       bendpath1="m 141.95751,57.537865 12.67416,0.06606"
       bendpath2="m 156.81743,30.746675 -0.60616,96.531765"
       bendpath3="m 137.72468,135.61585 13.44798,-26.17073"
       bendpath4="m 144.68063,60.625127 7.08889,56.657293"
       bendpath1-nodetypes="cc"
       bendpath2-nodetypes="cc"
       bendpath4-nodetypes="cc"
       bendpath3-nodetypes="cc" />
    <inkscape:path-effect
       effect="envelope"
       id="path-effect1200"
       is_visible="true"
       lpeversion="1"
       yy="true"
       xx="true"
       bendpath1="m -92.33842,-157.03652 h 23.341607"
       bendpath2="m -68.996813,-157.03652 v 48.36667"
       bendpath3="m -92.33842,-108.66985 h 23.341607"
       bendpath4="m -92.33842,-157.03652 v 48.36667" />
    <inkscape:path-effect
       effect="envelope"
       id="path-effect1191"
       is_visible="true"
       lpeversion="1"
       yy="true"
       xx="true"
       bendpath1="m -89.764874,-139.50799 -5.839141,-27.87449"
       bendpath2="m -81.062341,-159.85868 10.46772,26.908"
       bendpath3="m -81.686002,-113.24046 18.902503,7.70081"
       bendpath4="m -79.820435,-143.7142 -7.373119,30.31183"
       bendpath1-nodetypes="cc"
       bendpath4-nodetypes="cc"
       bendpath3-nodetypes="cc"
       bendpath2-nodetypes="cc" />
    <inkscape:path-effect
       effect="envelope"
       id="path-effect1189"
       is_visible="true"
       lpeversion="1"
       yy="true"
       xx="true"
       bendpath1="M 98.901233,32.761818 C 95.744224,31.844157 125.32531,30.085123 136.19706,33.81863"
       bendpath2="m 134.80808,33.17584 7.0849,27.408102"
       bendpath3="m 91.191645,47.0858 c 23.809995,-9.894035 51.443325,1.163871 48.980625,5.759686"
       bendpath4="m 104.43042,29.949402 c -4.21914,4.753346 -5.310799,14.831259 -4.526229,21.185712"
       bendpath4-nodetypes="cc"
       bendpath3-nodetypes="cc"
       bendpath1-nodetypes="cc"
       bendpath2-nodetypes="cc" />
    <inkscape:path-effect
       effect="envelope"
       id="path-effect1187"
       is_visible="true"
       lpeversion="1"
       yy="true"
       xx="true"
       bendpath1="M 75.891663,31.87838 106.86593,27.200356"
       bendpath2="m 106.86593,27.200356 0.90475,19.15954"
       bendpath3="M 73.92605,50.504633 C 79.084628,49.842631 94.069124,32.733785 103.99649,45.35126"
       bendpath4="m 76.075098,40.743943 1.061222,9.141402"
       bendpath1-nodetypes="cc"
       bendpath4-nodetypes="cc"
       bendpath3-nodetypes="cc"
       bendpath2-nodetypes="cc" />
    <inkscape:path-effect
       effect="envelope"
       id="path-effect1140"
       is_visible="true"
       lpeversion="1"
       yy="true"
       xx="true"
       bendpath1="M 84.052493,-4.9837387 103.52641,-15.627807"
       bendpath2="M 99.20246,-14.42166 C 93.743023,-1.1876145 99.62041,6.7900175 90.926611,20.729432"
       bendpath3="m 87.690158,21.98336 10.322979,3.878648"
       bendpath4="M 88.793182,-7.1966568 88.739767,17.445754"
       bendpath3-nodetypes="cc"
       bendpath2-nodetypes="cc"
       bendpath4-nodetypes="cc"
       bendpath1-nodetypes="cc" />
    <inkscape:path-effect
       effect="envelope"
       id="path-effect1042"
       is_visible="true"
       lpeversion="1"
       yy="true"
       xx="true"
       bendpath1="M 67.765828,58.772599 C 73.577949,58.041475 78.174724,51.931098 85.20219,56.579228"
       bendpath2="m 71.945775,64.092533 c 8.217463,16.632817 2.026641,14.397599 2.533301,26.09301"
       bendpath3="m 73.972417,98.672104 0.253329,-0.25333"
       bendpath4="m 66.245847,60.672575 c 3.096162,11.573448 7.752236,22.21318 0.126665,35.086232"
       bendpath3-nodetypes="cc"
       bendpath4-nodetypes="cc"
       bendpath2-nodetypes="cc"
       bendpath1-nodetypes="cc" />
    <inkscape:path-effect
       effect="simplify"
       id="path-effect4085"
       is_visible="true"
       lpeversion="1"
       steps="1"
       threshold="0.00243902"
       smooth_angles="360"
       helper_size="0"
       simplify_individual_paths="false"
       simplify_just_coalesce="false" />
    <inkscape:path-effect
       effect="simplify"
       id="path-effect14166"
       is_visible="true"
       lpeversion="1"
       steps="1"
       threshold="0.00243902"
       smooth_angles="360"
       helper_size="0"
       simplify_individual_paths="false"
       simplify_just_coalesce="false" />
    <inkscape:path-effect
       effect="simplify"
       id="path-effect2574"
       is_visible="true"
       lpeversion="1"
       steps="1"
       threshold="0.00243902"
       smooth_angles="360"
       helper_size="0"
       simplify_individual_paths="false"
       simplify_just_coalesce="false" />
    <inkscape:path-effect
       effect="simplify"
       id="path-effect441"
       is_visible="true"
       lpeversion="1"
       steps="1"
       threshold="0.00243902"
       smooth_angles="360"
       helper_size="0"
       simplify_individual_paths="false"
       simplify_just_coalesce="false" />
    <inkscape:path-effect
       effect="simplify"
       id="path-effect437"
       is_visible="true"
       lpeversion="1"
       steps="1"
       threshold="0.00243902"
       smooth_angles="360"
       helper_size="0"
       simplify_individual_paths="false"
       simplify_just_coalesce="false" />
    <linearGradient
       inkscape:collect="always"
       xlink:href="#linearGradient1220"
       id="linearGradient1222"
       x1="71.659111"
       y1="78.848679"
       x2="159.57812"
       y2="78.848679"
       gradientUnits="userSpaceOnUse"
       gradientTransform="matrix(1.0106903,0.08021561,-0.0813376,0.99674864,-2.6371507,-2.9864855)" />
  </defs>
  <g
     inkscape:groupmode="layer"
     id="layer3"
     inkscape:label="hair_bun"
     style="fill:#552200">
    <path
       id="hair_shade"
       style="display:inline;fill:#2b1100;stroke:none;stroke-width:0.529167;stroke-dasharray:none;stroke-opacity:1"
       d="m 150.73289,16.885563 c -1.75492,-0.0041 -3.47713,0.2644 -5.11559,0.835586 -3.27496,1.14168 -5.76813,3.331714 -7.52117,5.963284 -1.01075,1.517308 -1.72932,3.112114 -2.23424,4.630597 -0.58006,-0.396078 -1.21362,-0.81536 -1.76633,-1.121869 -1.55495,-0.86231 -2.65833,-1.540596 -4.84784,-2.236491 -2.78626,-0.889147 -5.72037,-1.290757 -8.64562,-1.318225 -1.32966,-0.01248 -2.65729,0.05201 -3.9686,0.183448 -0.25597,0.02566 -0.51026,0.0536 -0.76187,0.08371 -0.0899,0.01076 -0.17934,0.02177 -0.2688,0.03307 -3.25813,0.411648 -6.53313,1.201778 -8.949,2.100073 -1.83917,0.698391 -3.24532,1.477847 -4.29085,2.326923 -0.0584,-0.01821 -0.1142,-0.0369 -0.17396,-0.05477 -2.629794,-0.78674 -6.00313,-1.069926 -9.35038,-0.816985 -3.340455,0.252433 -6.062352,0.979919 -8.032568,1.743516 -1.859489,0.720688 -3.409386,1.541524 -4.269367,2.133141 -0.876368,0.602892 -2.259686,1.383639 -3.472397,2.476264 -1.44735,1.304027 -3.242103,3.145318 -4.878228,5.262059 -2.002118,2.590247 -3.492846,5.883461 -4.282989,7.795165 -1.574353,3.809052 -1.520296,5.926659 -1.81558,8.066461 -1.14922,8.327843 -1.635643,16.039406 0.592091,19.367245 0.278334,0.415787 8.047231,-25.639542 8.789719,-26.835311 0.766967,-1.235177 1.678788,-2.229844 3.407426,-2.657123 1.758704,-0.434717 3.891894,-0.203781 6.586394,-0.0078 2.686417,0.195485 5.143862,0.256078 16.593309,-1.312548 11.44945,-1.568621 14.20138,-2.207675 17.65908,-1.7833 0.0852,0.01045 0.17005,0.02142 0.25518,0.03307 0.23825,0.03259 0.4768,0.06993 0.71523,0.111615 2.65052,0.463383 5.34268,1.436011 7.81879,2.186371 1.25394,2.189371 2.61776,4.518031 3.77211,6.891372 0.39356,0.808812 0.75661,1.60468 1.10402,2.417869 2.16641,5.071046 3.25043,9.903368 5.58402,13.099082 0.1803,0.795316 0.40663,1.581573 0.6796,2.423034 0.67236,2.072642 1.35985,3.822514 1.77524,6.375141 0.0796,10.571767 2.29796,10.829121 8.73365,5.770544 2.01237,-3.852325 3.25504,-6.980769 3.97122,-10.276599 1.15567,-5.030744 1.53202,-6.607564 1.72808,-8.988855 2.94471,0.802268 6.29383,0.853138 9.71821,-0.235641 2.30229,-0.737921 4.62599,-1.969272 6.66971,-3.680802 2.77834,-2.326747 4.75379,-5.298408 5.6296,-8.588896 0.87629,-3.292295 0.54715,-6.455365 -0.38512,-9.251882 -0.9075,-2.722212 -2.35788,-5.019829 -3.58819,-6.81024 -0.92225,-1.342094 -2.78791,-3.897596 -3.72548,-5.118402 -1.27736,-1.663241 -2.9302,-3.660703 -5.2403,-5.577792 -2.34297,-1.944377 -5.37094,-3.801801 -8.8856,-4.834192 -1.76993,-0.519898 -3.5577,-0.796858 -5.31261,-0.800963 z" />
    <path
       id="hair_band"
       style="display:inline;fill:#a02c2c;stroke:#000000;stroke-width:0.529167;stroke-linecap:square;stroke-dasharray:none;stroke-opacity:1;paint-order:normal"
       inkscape:label="hair_band"
       d="m 140.63323,29.994462 c -0.70269,-0.0028 -1.31506,0.03942 -1.73961,0.111102 0.20887,0.08794 0.42181,0.173784 0.6382,0.25734 1.58106,0.610467 3.32133,1.129763 4.60996,1.932127 1.03301,0.643209 1.51549,1.778958 2.03774,3.035902 0.29238,0.703658 0.75611,1.571103 1.24497,2.385833 l 0.21641,0.164326 c 0.0655,-1.647391 -0.36021,-5.464974 -2.32175,-6.951313 -0.88951,-0.67403 -3.00886,-0.928621 -4.68592,-0.935317 z" />
    <path
       id="wwww"
       style="display:inline;fill:none;fill-opacity:1;stroke:#000000;stroke-width:0.529167;stroke-dasharray:none;stroke-opacity:1;paint-order:markers fill stroke"
       d="m 120.6021,23.638444 c -1.32966,-0.01248 -2.65729,0.05201 -3.9686,0.183446 -0.25597,0.02566 -0.51026,0.05361 -0.76187,0.08372 -0.0899,0.01076 -0.17934,0.02178 -0.2688,0.03308 -3.25814,0.411646 -6.53313,1.201773 -8.949,2.100069 -1.83917,0.69839 -3.24532,1.477849 -4.29085,2.326923 -0.0584,-0.01821 -0.1142,-0.0369 -0.17397,-0.05478 -2.629787,-0.786738 -6.003115,-1.069925 -9.350367,-0.816982 -3.340461,0.252431 -6.062352,0.979917 -8.03257,1.743514 -1.859491,0.720689 -3.409148,1.541655 -4.269129,2.133272 -0.87637,0.602893 -2.260003,1.383618 -3.472716,2.476243 -1.447351,1.304029 -3.241915,3.145155 -4.878041,5.261899 -2.002121,2.59025 -3.492846,5.883572 -4.282991,7.795279 -1.574353,3.809055 -1.520614,5.926677 -1.815901,8.06648 -1.149218,8.327851 -1.635207,16.0392 0.592528,19.367044 0.278336,0.415785 8.047009,-25.639424 8.789499,-26.835192 0.766964,-1.235183 1.67879,-2.229842 3.407425,-2.657126 1.758704,-0.434718 3.891894,-0.203827 6.586393,-0.0078 2.686423,0.195489 5.143821,0.256005 16.59328,-1.312622 11.44946,-1.568627 14.2014,-2.207602 17.65911,-1.783225 0.0852,0.01045 0.17004,0.02142 0.25517,0.03307 0.23825,0.03259 0.47681,0.06993 0.71524,0.111618 2.65052,0.46338 5.34268,1.436007 7.81879,2.186364 1.25395,2.189376 2.61775,4.51803 3.7721,6.891373 0.39357,0.808818 0.75662,1.604676 1.10403,2.417867 2.16641,5.071052 3.25043,9.903368 5.58402,13.099083 0.18029,0.795317 0.40664,1.581576 0.67961,2.423039 0.67235,2.072641 1.35983,3.822505 1.77522,6.375136 0.0796,10.571779 2.29782,10.829267 8.73353,5.770683 2.01237,-3.852327 3.2553,-6.980683 3.97149,-10.276514 1.37656,-5.992339 1.65156,-7.07072 1.82748,-10.463971 0.17537,-2.036312 0.0478,-4.699398 -0.85685,-8.42792 -0.90084,-3.712963 -2.74942,-7.8165 -4.32946,-9.792576 -1.58004,-1.976076 -1.43082,-1.585748 -2.21296,-2.653356 -0.78215,-1.067608 -1.85134,-2.847537 -2.3736,-4.104485 -0.52226,-1.256946 -1.00466,-2.393072 -2.03768,-3.036282 -1.28863,-0.802365 -3.0289,-1.321521 -4.60996,-1.931988 -0.79052,-0.305233 -1.54124,-0.633293 -2.1758,-1.030997 -0.63455,-0.397702 -2.12275,-1.5079 -3.26052,-2.138861 -1.55496,-0.862316 -2.65815,-1.540452 -4.84765,-2.236343 -2.78628,-0.889151 -5.72038,-1.290759 -8.64563,-1.318228 z"
       sodipodi:nodetypes="sssccccssssssssssscsssccccsccccszzssssacss"
       inkscape:label="hair_shade" />
    <path
       id="path680"
       style="display:inline;fill:none;stroke:#000000;stroke-width:0.529167;stroke-dasharray:none;stroke-opacity:1"
       d="m 150.73289,16.885563 c -1.75492,-0.0041 -3.47713,0.2644 -5.11559,0.835586 -3.27496,1.14168 -5.76813,3.331714 -7.52117,5.963284 -1.01062,1.517099 -1.72881,3.111779 -2.23372,4.630075 0.6141,0.419311 1.16701,0.812955 1.49334,1.017484 0.63455,0.397699 1.38556,0.725681 2.17608,1.030916 1.58105,0.610465 3.32132,1.129758 4.60995,1.932125 1.03302,0.643211 1.51548,1.778952 2.03775,3.035901 0.52226,1.256949 1.59146,3.036931 2.37361,4.104539 0.78215,1.067609 0.63272,0.677435 2.21276,2.653511 1.58004,1.976076 3.42878,6.07944 4.32962,9.7924 0.90461,3.728518 1.03207,6.391875 0.8567,8.428183 -0.0281,0.541585 -0.0592,1.020736 -0.0964,1.47377 2.94416,0.801682 6.29156,0.85389 9.71507,-0.234605 2.30229,-0.737921 4.62599,-1.969272 6.66971,-3.680802 2.77834,-2.326747 4.75379,-5.298408 5.6296,-8.588896 0.87629,-3.292295 0.54715,-6.455365 -0.38512,-9.251882 -0.9075,-2.722212 -2.35788,-5.019829 -3.58819,-6.81024 -0.92225,-1.342094 -2.78791,-3.897596 -3.72548,-5.118402 -1.27736,-1.663241 -2.9302,-3.660703 -5.2403,-5.577792 -2.34297,-1.944377 -5.37094,-3.801801 -8.8856,-4.834192 -1.76993,-0.519898 -3.5577,-0.796858 -5.31261,-0.800963 z" />
    <path
       id="hair_highlight"
       style="fill:#823000;fill-opacity:1;stroke:none;stroke-width:0.529167;stroke-linecap:square;stroke-dasharray:none;stroke-opacity:1;paint-order:normal"
       d="m 150.72188,17.125853 c -0.24612,5.6e-4 -0.49129,0.0076 -0.73408,0.0217 -1.9342,0.112513 -3.30253,0.34782 -5.07997,1.108427 -1.41082,0.603729 -2.76796,1.474447 -4.05662,2.633872 -1.0914,0.981939 -1.98691,2.066223 -2.73202,3.293761 -0.85038,1.400958 -1.333,2.384282 -1.333,2.384282 -0.12296,0.452578 -0.44369,1.080067 -0.50669,1.419511 -0.0121,0.06518 0.007,0.09349 0.0723,0.100766 8.80314,-4.403857 9.33378,-8.662482 16.31822,-9.046732 0,0 3.90696,-0.202736 7.02235,1.668584 2.89322,1.737867 7.06424,4.107308 11.17957,8.857085 0.78292,0.903615 -1.20803,-1.665744 -1.956,-2.5977 -1.83972,-2.292219 -3.76349,-4.009343 -5.98854,-5.615516 -2.11032,-1.523349 -4.5266,-2.703322 -7.06112,-3.440517 -1.63296,-0.474967 -3.42152,-0.79145 -5.14441,-0.787526 z m -29.36945,6.72601 c -0.93819,-0.0043 -2.03011,0.03934 -3.43624,0.129187 -4.29822,0.274642 -6.60065,0.842838 -10.2448,1.982251 -3.84077,1.20089 -5.25758,2.7026 -5.25758,2.7026 0,0 -3.784132,-1.421259 -9.330469,-0.934283 -3.556177,0.312236 -5.27837,0.637425 -8.144179,1.765216 -2.275017,0.895296 -4.445873,2.015046 -6.617914,3.661048 -0.81729,0.670639 -1.140113,0.810389 -3.926975,3.684632 -1.883722,1.942785 -3.271221,4.310573 -3.459527,4.60342 -1.482523,2.305571 -2.674323,5.070779 -3.339675,7.043605 -0.586776,1.739841 -0.735948,2.773405 -0.735948,2.773405 0,0 3.448819,-6.11562 7.675407,-10.873826 3.757,-4.229554 8.17077,-7.095059 10.680244,-8.077033 2.873871,-1.124564 5.267089,-2.072456 8.328619,-2.310903 4.308652,-0.33558 8.626237,1.17147 8.626237,1.17147 -0.0169,-0.0275 5.05166,-3.868883 16.25901,-5.606731 6.61785,-0.473933 8.52993,0.364478 12.17566,1.021097 1.03267,0.185989 4.08965,1.26552 4.08965,1.26552 0,0 -3.30251,-2.320355 -7.66474,-3.257589 -2.292,-0.492442 -3.61273,-0.733715 -5.67678,-0.743086 z"
       inkscape:label="hair_highlight"
       sodipodi:nodetypes="sssssccccssssssssscssscssscssccscsss" />
    <path
       id="hair"
       style="display:inline;fill:url(#linearGradient1222);fill-opacity:1;stroke:#000000;stroke-width:0.529167;stroke-linecap:round;stroke-dasharray:none;stroke-opacity:1;paint-order:normal"
       inkscape:label="hair"
       d="m 101.47746,39.853756 c 0,0 -10.998218,-5.03724 -18.219424,-4.921171 -11.987765,0.192684 -18.229715,9.262708 -19.300676,19.493786 -0.655516,6.262258 1.789502,14.812094 1.680779,22.248647 -0.0938,6.415709 -3.252364,14.216607 -2.010564,19.143896 1.2418,4.927286 7.39033,13.701686 5.57987,10.160216 -1.522525,-2.97823 -2.759574,-9.742368 -1.240663,-14.268362 1.039725,-3.098133 2.748526,-6.724275 3.594027,-9.708188 1.91677,-6.764597 -0.603884,-14.572321 1.636959,-21.348453 1.086196,-3.28457 2.653284,-6.86304 5.532465,-8.780991 4.464546,-2.974033 10.598444,-3.299797 15.624911,-2.214141 2.774981,0.599362 7.909446,3.158868 7.909446,3.158868 0,0 3.94342,-2.567312 6.10521,-3.461444 4.84702,-2.004764 10.72831,-2.468583 15.65622,-0.343974 4.88143,2.104566 9.30228,6.252632 11.4722,11.077289 2.22227,4.941044 -0.13901,10.853255 0.64097,16.203524 0.96004,6.585437 3.94486,12.775339 4.94032,19.355659 0.87609,5.791273 0.96776,11.689743 0.88316,17.544513 -0.1177,8.14487 -3.79123,19.07469 -1.93339,24.36259 0.92892,2.64396 2.28286,4.62882 2.82914,5.40937 2.4155,3.45138 1.52437,0.85392 0.29316,-3.89688 -1.82721,-7.05057 5.28313,-17.8186 6.89444,-26.94423 1.29435,-7.33051 2.58952,-14.784978 2.20616,-22.216185 -0.26998,-5.233398 -2.59253,-10.198712 -3.15572,-15.40936 -0.84629,-7.829793 2.55382,-16.271662 -0.31379,-23.620425 -2.9358,-7.523513 -8.92371,-14.48167 -16.19974,-18.155796 -5.01966,-2.534743 -11.37876,-2.826063 -16.88363,-1.547246 -5.4095,1.256661 -14.22184,8.678488 -14.22184,8.678488 z"
       sodipodi:nodetypes="cssassssasscssaaaasssaaaasac" />
  </g>
</svg>
