<?xml version="1.0" encoding="UTF-8" standalone="no"?>
<!-- Created with Inkscape (http://www.inkscape.org/) -->

<svg
   width="840"
   height="880"
   viewBox="0 0 222.24999 232.83334"
   version="1.1"
   id="mySVG"
   inkscape:version="1.1.2 (b8e25be833, 2022-02-05)"
   sodipodi:docname="hair_long2A.svg"
   xmlns:inkscape="http://www.inkscape.org/namespaces/inkscape"
   xmlns:sodipodi="http://sodipodi.sourceforge.net/DTD/sodipodi-0.dtd"
   xmlns="http://www.w3.org/2000/svg"
   xmlns:svg="http://www.w3.org/2000/svg">
  <sodipodi:namedview
     id="namedview7"
     pagecolor="#ffffff"
     bordercolor="#666666"
     borderopacity="1.0"
     inkscape:showpageshadow="2"
     inkscape:pageopacity="0.0"
     inkscape:pagecheckerboard="0"
     inkscape:deskcolor="#d1d1d1"
     inkscape:document-units="mm"
     showgrid="false"
     showguides="true"
     inkscape:zoom="14.481547"
     inkscape:cx="207.8162"
     inkscape:cy="334.66728"
     inkscape:window-width="1782"
     inkscape:window-height="999"
     inkscape:window-x="0"
     inkscape:window-y="34"
     inkscape:window-maximized="0"
     inkscape:current-layer="layer1"
     inkscape:pageshadow="2"
     inkscape:snap-global="false"
     units="px">
    <inkscape:grid
       type="xygrid"
       id="grid9" />
  </sodipodi:namedview>
  <defs
     id="defs2">
    <inkscape:path-effect
       effect="simplify"
       id="path-effect6043"
       is_visible="true"
       lpeversion="1"
       steps="1"
       threshold="0.00243902"
       smooth_angles="360"
       helper_size="0"
       simplify_individual_paths="false"
       simplify_just_coalesce="false" />
    <inkscape:path-effect
       effect="simplify"
       id="path-effect14166"
       is_visible="true"
       lpeversion="1"
       steps="1"
       threshold="0.00243902"
       smooth_angles="360"
       helper_size="0"
       simplify_individual_paths="false"
       simplify_just_coalesce="false" />
    <inkscape:path-effect
       effect="simplify"
       id="path-effect2574"
       is_visible="true"
       lpeversion="1"
       steps="1"
       threshold="0.00243902"
       smooth_angles="360"
       helper_size="0"
       simplify_individual_paths="false"
       simplify_just_coalesce="false" />
    <inkscape:path-effect
       effect="simplify"
       id="path-effect441"
       is_visible="true"
       lpeversion="1"
       steps="1"
       threshold="0.00243902"
       smooth_angles="360"
       helper_size="0"
       simplify_individual_paths="false"
       simplify_just_coalesce="false" />
    <inkscape:path-effect
       effect="simplify"
       id="path-effect437"
       is_visible="true"
       lpeversion="1"
       steps="1"
       threshold="0.00243902"
       smooth_angles="360"
       helper_size="0"
       simplify_individual_paths="false"
       simplify_just_coalesce="false" />
  </defs>
  <g
     inkscape:label="Ebene 1"
     inkscape:groupmode="layer"
     id="layer1">
    <path
       id="hair"
       style="fill:#803300;fill-opacity:1;stroke:none;stroke-width:1.99937;stroke-linecap:round;stroke-linejoin:miter;stroke-miterlimit:4;stroke-dasharray:none;stroke-opacity:1"
       d="m 384.26758,106.94336 c -1.24557,0.002 -2.49101,0.0171 -3.73438,0.0449 -1.58856,0.0356 -3.17223,0.10175 -4.75195,0.18555 -14.90624,0.79068 -29.29029,3.88775 -40.68164,12.49805 -2.81503,2.12771 -4.66689,5.05922 -5.50391,8.77148 -0.0593,0.16438 -0.21289,0.54492 -0.21289,0.54492 0,0 -2.98012,-0.44837 -5.15625,-0.48437 -0.002,-4e-5 -0.004,3e-5 -0.006,0 -0.017,0.008 -0.0338,0.0158 -0.0508,0.0234 -0.0228,-0.006 -0.0477,-0.0222 -0.0703,-0.0273 -6.35331,-1.45518 -13.11298,1.98957 -18.91211,4.96484 C 285.86704,143.37737 264.7764,165.60278 255,175 c -2.10256,2.2708 -4.05658,4.54587 -5.91016,6.82617 -0.6457,0.79421 -1.21872,1.59308 -1.83593,2.38867 -1.15372,1.48752 -2.3049,2.97575 -3.36329,4.46875 -0.67382,0.95026 -1.29058,1.90468 -1.92773,2.85743 -0.89866,1.34433 -1.79205,2.68927 -2.62109,4.03906 -0.63515,1.03363 -1.22971,2.07224 -1.82618,3.10937 -0.72896,1.26825 -1.44491,2.53858 -2.11914,3.8125 -0.57673,1.08916 -1.1329,2.18176 -1.67187,3.27539 -0.60941,1.23724 -1.19579,2.47929 -1.75977,3.72266 -0.51029,1.12442 -1.01474,2.25108 -1.49023,3.38086 -0.50735,1.2061 -0.98664,2.41828 -1.45703,3.63086 -0.4567,1.1768 -0.91936,2.35382 -1.34375,3.53711 -0.42158,1.17585 -0.80897,2.36037 -1.20117,3.54297 -0.40426,1.21869 -0.82162,2.43586 -1.19727,3.66211 -0.0417,0.1361 -0.0914,0.27004 -0.13281,0.40625 l 0.0176,-0.01 C 218.34887,250.07394 216.01877,273.7913 210,300 c -1.27018,6.33402 -2.5523,12.75703 -3.83203,19.1543 l 50.18359,17.91992 c -1.5e-4,2.44318 2.0577,5.83481 2.23633,7.33789 0.60725,5.11277 3.64649,5.00976 3.64649,5.00977 0,0 1.69535,-8.86263 6.61718,-20.75586 l 0.14844,0.0234 3.23242,-6.96484 c 5.40388,-10.92662 13.63678,-24.65272 26.2168,-40.5 C 331.1065,240.08562 340.5,197.74414 340.5,197.74414 c 11.08904,23.57928 20.86428,34.10081 35.28125,42.4043 7.71828,4.44536 16.76362,8.25675 28.06055,13.09179 31.44097,11.1137 76.17198,5.73075 103.8789,29.75 22.47636,19.48489 38.72217,41.99745 51.47266,67.47852 0,0 3.83992,16.13856 6.75391,23.88086 0.30783,0.81789 0.87201,1.53126 1.12695,2.36715 0.5845,1.91644 0.5241,3.97444 0.88477,5.94531 1.22361,6.68635 2.80101,13.30405 4.33597,19.92587 1.62781,7.02233 4.19002,13.85714 5.1677,20.99905 6.15976,44.99673 4.19559,136.18454 4.19559,136.18454 0,0 15.82461,-115.19379 12.58007,-135.55078 -1.7822,-11.18203 1.30141,-8.53243 -1.41992,-22.42382 -0.68032,-3.47286 10.87317,79.48848 12.41797,101.11523 1.54047,21.56615 -2.53346,65.0005 -1.41965,78.66062 1.11381,13.66011 -3.88699,84.39016 -3.88699,84.39016 0,0 12.51503,-51.34476 15.31524,-64.13451 2.8002,-12.78975 7.50152,-71.52327 7.19062,-86.67213 -0.36809,-17.93528 -12.86725,-103.96716 -13.36133,-134.13672 l 0.18359,0.0176 -0.1875,-0.22852 c -0.002,-0.14212 -0.005,-0.367 -0.008,-0.50781 l -0.45117,-0.0586 -0.01,-0.0117 0.46094,0.0703 14.54297,2.20703 C 619.3745,359.51849 614.80409,335.47926 610,310 603.39307,273.38904 596.93191,232.88591 578.5332,202.77539 l 0.0488,0.0293 c -1.04354,-1.70957 -2.13024,-3.38052 -3.25195,-5.02149 -0.4054,-0.59209 -0.83582,-1.16159 -1.25196,-1.74414 -0.9935,-1.39358 -2.01934,-2.75904 -3.07617,-4.0957 -0.45666,-0.57642 -0.91201,-1.15339 -1.38086,-1.71875 C 568.13679,188.43148 566.61295,186.67491 565,185 544.84994,164.56515 520.17945,145.04678 493.58594,131.90625 467.60561,119.06871 438.9233,109.7952 410,108 c -8.27522,-0.51362 -17.01344,-1.07398 -25.73242,-1.05664 z"
       transform="scale(0.26458333)"
       sodipodi:nodetypes="ccssccsccccccccccccccccccsccccccccccscscscaaaaacsssscssccccccccccccccccssc" />
    <path
       id="hair_highlight"
       style="fill:#a05a2c;fill-opacity:1;stroke:none;stroke-width:2;stroke-linecap:butt;stroke-linejoin:miter;stroke-miterlimit:4;stroke-dasharray:none;stroke-opacity:1"
       d="m 388.00391,106.9707 c -2.48992,-0.0385 -4.98398,-0.0381 -7.47071,0.0176 -16.57819,0.37148 -32.83501,3.16081 -45.43359,12.6836 -2.75592,2.08307 -4.56038,4.95862 -5.42188,8.56054 -0.11002,0.2923 -0.29492,0.75586 -0.29492,0.75586 0,0 -2.98535,-0.44926 -5.16211,-0.48437 -0.0202,0.009 -0.0403,0.0183 -0.0605,0.0273 -0.0193,-0.005 -0.0414,-0.0268 -0.0606,-0.0312 -0.79416,-0.1819 -1.59425,-0.28691 -2.39844,-0.32617 -5.62935,-0.27483 -11.43943,2.68765 -16.51367,5.29101 C 285.86689,143.37736 264.7764,165.60278 255,175 c -9.4056,10.15825 -16.16727,20.40245 -21.30859,30.85156 10.21441,-9.13228 29.82241,-29.27627 46.82226,-41.26953 9.05995,-6.39172 18.69721,-12.26889 29.08985,-16.13281 4.91212,-1.8263 10.17052,-3.67246 15.39062,-3.20899 3.29535,0.29258 9.20703,3.70704 9.20703,3.70704 0,0 1.5532,-5.13036 2.9668,-7.36915 1.8898,-2.99294 4.0482,-6.18118 7.1875,-7.8164 19.31524,-10.06105 45.19062,-8.69294 64.75781,-8.67383 17.37271,0.21524 34.76179,2.62463 51.33203,7.08008 28.78674,7.74027 54.02742,25.61562 79.04102,41.83008 11.86424,7.69069 29.89026,22.35522 40.46679,31.15039 C 575.68654,197.79586 570.77594,190.99779 565,185 544.84994,164.56515 520.17945,145.04678 493.58594,131.90625 467.60561,119.06871 438.9233,109.7952 410,108 c -7.09304,-0.44024 -14.52635,-0.91367 -21.99609,-1.0293 z m -56.79297,18.58985 c -0.23994,0.2075 -0.4718,0.52265 -0.68555,0.875 0.20555,-0.33722 0.42886,-0.65301 0.68555,-0.875 z m -0.7168,0.92773 c -0.14243,0.2396 -0.26267,0.49591 -0.38476,0.75 0.12088,-0.26325 0.23403,-0.49706 0.38476,-0.75 z"
       sodipodi:nodetypes="scscccccssccssscsscssccssscccccc"
       transform="scale(0.26458333)" />
    <path
       id="path16042"
       style="fill:#ff2a2a;stroke:#000000;stroke-width:2;stroke-linecap:butt;stroke-linejoin:miter;stroke-miterlimit:4;stroke-dasharray:none;stroke-opacity:1"
       d="m 522.55469,149.0918 c 3.09828,2.14448 6.15161,4.35783 9.15429,6.62695 0.0212,0.016 0.0414,0.0328 0.0625,0.0488 -3.02346,-2.28624 -6.09631,-4.51591 -9.21679,-6.67578 z"
       transform="scale(0.26458333)" />
    <path
       style="fill:#ff2a2a;stroke:#000000;stroke-width:2;stroke-linecap:butt;stroke-linejoin:miter;stroke-miterlimit:4;stroke-dasharray:none;stroke-opacity:1"
       d="m 577.59375,201.31055 c 0.79772,1.26654 1.59942,2.5293 2.35547,3.83203 -0.75605,-1.30272 -1.55637,-2.56674 -2.35547,-3.83203 z"
       transform="scale(0.26458333)"
       id="path16840" />
    <path
       style="fill:#ff2a2a;stroke:#000000;stroke-width:2;stroke-linecap:butt;stroke-linejoin:miter;stroke-miterlimit:4;stroke-dasharray:none;stroke-opacity:1"
       d="m 573.88867,195.78711 c 0.73856,1.03199 1.46655,2.07323 2.17188,3.13477 -0.70701,-1.0601 -1.4313,-2.10452 -2.17188,-3.13477 z"
       transform="scale(0.26458333)"
       id="path16838" />
    <path
       style="fill:#ff2a2a;stroke:#000000;stroke-width:2;stroke-linecap:butt;stroke-linejoin:miter;stroke-miterlimit:4;stroke-dasharray:none;stroke-opacity:1"
       d="m 242.33398,190.9707 c -1.58495,2.34226 -3.07093,4.69156 -4.44726,7.05078 1.37173,-2.35959 2.86842,-4.70795 4.44726,-7.05078 z"
       transform="scale(0.26458333)"
       id="path16836" />
    <path
       style="fill:#ff2a2a;stroke:#000000;stroke-width:2;stroke-linecap:butt;stroke-linejoin:miter;stroke-miterlimit:4;stroke-dasharray:none;stroke-opacity:1"
       d="m 569.70117,190.31445 c 0.6102,0.7403 1.19197,1.50636 1.78125,2.26563 -0.59081,-0.75803 -1.16974,-1.52638 -1.78125,-2.26563 z"
       transform="scale(0.26458333)"
       id="path16834" />
    <path
       style="fill:#ff2a2a;stroke:#000000;stroke-width:2;stroke-linecap:butt;stroke-linejoin:miter;stroke-miterlimit:4;stroke-dasharray:none;stroke-opacity:1"
       d="m 244.1875,188.28906 c -0.43738,0.61185 -0.88468,1.22309 -1.30664,1.83594 0.42049,-0.61319 0.87069,-1.22376 1.30664,-1.83594 z"
       transform="scale(0.26458333)"
       id="path16832" />
    <path
       style="fill:#ff2a2a;stroke:#000000;stroke-width:2;stroke-linecap:butt;stroke-linejoin:miter;stroke-miterlimit:4;stroke-dasharray:none;stroke-opacity:1"
       d="m 249.28906,181.5957 c -0.23344,0.28585 -0.48123,0.57141 -0.71094,0.85742 0.22925,-0.28619 0.47791,-0.5714 0.71094,-0.85742 z"
       transform="scale(0.26458333)"
       id="path16830" />
    <path
       style="fill:#ff2a2a;stroke:#000000;stroke-width:2;stroke-linecap:butt;stroke-linejoin:miter;stroke-miterlimit:4;stroke-dasharray:none;stroke-opacity:1"
       d="m 233.69141,205.85156 c 1.26705,-2.57513 2.63798,-5.13742 4.11718,-7.68945 -1.48373,2.55097 -2.85035,5.11478 -4.11718,7.68945 z"
       transform="scale(0.26458333)"
       id="path16826" />
    <path
       id="path1856"
       style="fill:none;fill-opacity:1;stroke:#000000;stroke-width:2;stroke-linecap:butt;stroke-linejoin:miter;stroke-dasharray:none;stroke-opacity:1"
       d="M 640.0293,482.8125 C 633.4234,432.51394 622.36923,375.60216 610,310 601.98018,265.55982 594.22123,215.3436 565,185 M 255,175 c -35.37124,38.2017 -34.09765,77.52586 -45,125 -11.95039,59.59323 -24.69022,122.24968 -30.74219,182.8125"
       transform="scale(0.26458333)"
       sodipodi:nodetypes="cccccc" />
    <path
       id="path18281"
       style="fill:none;fill-opacity:1;stroke:#000000;stroke-width:2;stroke-linecap:round;stroke-linejoin:miter;stroke-miterlimit:4;stroke-dasharray:none;stroke-opacity:1"
       d="m 262.23438,349.42188 c 0,0 1.04,-7.58428 6.76562,-20.73243 l 3.23242,-6.96484 c 5.40388,-10.92662 13.63678,-24.65272 26.2168,-40.5 C 331.1065,240.08562 340.5,197.74414 340.5,197.74414 c 17.02568,36.2027 30.94337,41.62966 63.3418,55.49609 31.44097,11.1137 76.17198,5.73075 103.8789,29.75 22.47636,19.48489 38.72217,41.99745 51.47266,67.47852 0,0 17.66523,62.99349 21.20704,95.36524 4.59743,42.02009 -0.10938,126.81249 -0.10938,126.81249 0,0 8.54899,-54.25626 10.57226,-81.61328 2.22716,-30.11386 4.42641,-76.68087 1.70508,-90.57226 -0.68032,-3.47286 11.17831,72.3728 12.66797,108.88086 2.18262,53.49082 -5.50196,160.51172 -5.50196,160.51172 0,0 13.63389,-56.85328 17.52149,-85.7754 3.10698,-23.11462 4.69591,-56.05284 4.59571,-69.81641 m 1.7539,-131.7539 C 619.3745,359.51847 614.80409,335.47926 610,310 603.39307,273.38904 596.93191,232.88591 578.5332,202.77539 l 0.0488,0.0293 c -1.04354,-1.70957 -2.13024,-3.38052 -3.25195,-5.02149 -0.4054,-0.59209 -0.83582,-1.16159 -1.25196,-1.74414 -0.99355,-1.39358 -2.01934,-2.75904 -3.07617,-4.0957 -0.45666,-0.57642 -0.91201,-1.15339 -1.38086,-1.71875 C 568.13673,188.43148 566.61295,186.67491 565,185 544.84994,164.56515 520.17945,145.04678 493.58594,131.90625 467.60561,119.06871 438.9233,109.7952 410,108 c -8.27522,-0.51362 -17.01344,-1.07398 -25.73242,-1.05664 -1.24557,0.002 -2.49101,0.0171 -3.73438,0.0449 -16.57819,0.37148 -32.83501,3.16081 -45.43359,12.6836 -2.81503,2.12775 -4.66689,5.05922 -5.50391,8.77148 -0.0593,0.16438 -0.21289,0.54492 -0.21289,0.54492 0,0 -2.98012,-0.44837 -5.15625,-0.48437 -0.002,-4e-5 -0.004,3e-5 -0.006,0 -0.017,0.008 -0.0338,0.0158 -0.0508,0.0234 -0.0228,-0.006 -0.0477,-0.0222 -0.0703,-0.0273 -6.35331,-1.45518 -13.11298,1.98957 -18.91211,4.96484 C 285.86689,143.37736 264.7764,165.60278 255,175 c -2.10256,2.2708 -4.05658,4.54587 -5.91016,6.82617 -0.6457,0.79421 -1.21872,1.59308 -1.83593,2.38867 -1.15372,1.48752 -2.3049,2.97575 -3.36329,4.46875 -0.67386,0.95026 -1.29058,1.90468 -1.92773,2.85743 -0.89866,1.34433 -1.79205,2.68927 -2.62109,4.03906 -0.63515,1.03363 -1.22971,2.07224 -1.82618,3.10937 -0.729,1.26825 -1.44491,2.53858 -2.11914,3.8125 -0.57673,1.08916 -1.1329,2.18176 -1.67187,3.27539 -0.60941,1.23724 -1.19579,2.47929 -1.75977,3.72266 -0.51029,1.12442 -1.01474,2.25108 -1.49023,3.38086 -0.50735,1.2061 -0.98664,2.41828 -1.45703,3.63086 -0.4567,1.1768 -0.91936,2.35382 -1.34375,3.53711 -0.42158,1.17585 -0.80897,2.36037 -1.20117,3.54297 -0.40426,1.21869 -0.82162,2.43586 -1.19727,3.66211 -0.0417,0.1361 -0.0914,0.27004 -0.13281,0.40625 l 0.0176,-0.01 C 218.34889,250.07371 216.01877,273.7913 210,300 c -1.27018,6.33402 -2.5523,12.75703 -3.83203,19.1543"
       transform="scale(0.26458333)"
       sodipodi:nodetypes="cccsccscacasacaccccccccccsssssccscccsccccccccccccccscccc" />
  </g>
</svg>
