<?xml version="1.0" encoding="UTF-8" standalone="no"?>
<!-- Created with Inkscape (http://www.inkscape.org/) -->

<svg
   width="840"
   height="880"
   viewBox="0 0 222.24999 232.83334"
   version="1.1"
   id="mySVG"
   inkscape:version="1.2.2 (732a01da63, 2022-12-09)"
   sodipodi:docname="hair_klingon_long_smooth.svg"
   xmlns:inkscape="http://www.inkscape.org/namespaces/inkscape"
   xmlns:sodipodi="http://sodipodi.sourceforge.net/DTD/sodipodi-0.dtd"
   xmlns="http://www.w3.org/2000/svg"
   xmlns:svg="http://www.w3.org/2000/svg">
  <sodipodi:namedview
     id="namedview7"
     pagecolor="#ffffff"
     bordercolor="#666666"
     borderopacity="1.0"
     inkscape:showpageshadow="2"
     inkscape:pageopacity="0.0"
     inkscape:pagecheckerboard="0"
     inkscape:deskcolor="#d1d1d1"
     inkscape:document-units="mm"
     showgrid="false"
     showguides="true"
     inkscape:zoom="4.1776836"
     inkscape:cx="208.84779"
     inkscape:cy="346.36419"
     inkscape:window-width="2560"
     inkscape:window-height="1369"
     inkscape:window-x="1912"
     inkscape:window-y="-8"
     inkscape:window-maximized="1"
     inkscape:current-layer="layer1"
     inkscape:pageshadow="2"
     units="px"
     inkscape:guide-bbox="true">
    <inkscape:grid
       type="xygrid"
       id="grid9" />
    <sodipodi:guide
       position="71.437497,125.67709"
       orientation="0,-1"
       id="guide1575"
       inkscape:locked="false" />
    <sodipodi:guide
       position="108.67865,166.58749"
       orientation="-1,0"
       id="guide2462"
       inkscape:locked="false"
       inkscape:label=""
       inkscape:color="rgb(0,134,229)" />
  </sodipodi:namedview>
  <defs
     id="defs2">
    <inkscape:path-effect
       effect="envelope"
       id="path-effect1007"
       is_visible="true"
       lpeversion="1"
       yy="true"
       xx="true"
       bendpath1="M 45.213986,34.578765 H 170.04703"
       bendpath2="M 178.28026,33.818774 170.04703,195.76406"
       bendpath3="M 45.213986,195.76406 H 170.04703"
       bendpath4="M 34.067458,34.4521 45.213986,195.76406"
       bendpath2-nodetypes="cc"
       bendpath4-nodetypes="cc" />
    <inkscape:path-effect
       effect="envelope"
       id="path-effect989"
       is_visible="true"
       lpeversion="1"
       yy="true"
       xx="true"
       bendpath1="M 46.453049,34.611583 H 169.38755"
       bendpath2="M 178.52326,34.611583 166.70058,196.7032"
       bendpath3="M 46.453049,196.16581 H 169.38755"
       bendpath4="M 36.95908,33.357663 48.065232,195.09102"
       bendpath2-nodetypes="cc"
       bendpath4-nodetypes="cc" />
    <inkscape:path-effect
       effect="envelope"
       id="path-effect876"
       is_visible="true"
       lpeversion="1"
       yy="true"
       xx="true"
       bendpath1="M 36.294051,34.644364 H 181.1004"
       bendpath2="M 181.1004,34.644364 165.87422,199.59675"
       bendpath3="m 55.281989,197.80543 106.830471,1.61218"
       bendpath4="M 36.294051,34.644364 49.012387,206.76201"
       bendpath3-nodetypes="cc"
       bendpath2-nodetypes="cc"
       bendpath4-nodetypes="cc" />
    <inkscape:path-effect
       effect="simplify"
       id="path-effect4085"
       is_visible="true"
       lpeversion="1"
       steps="1"
       threshold="0.00243902"
       smooth_angles="360"
       helper_size="0"
       simplify_individual_paths="false"
       simplify_just_coalesce="false" />
    <inkscape:path-effect
       effect="simplify"
       id="path-effect14166"
       is_visible="true"
       lpeversion="1"
       steps="1"
       threshold="0.00243902"
       smooth_angles="360"
       helper_size="0"
       simplify_individual_paths="false"
       simplify_just_coalesce="false" />
    <inkscape:path-effect
       effect="simplify"
       id="path-effect2574"
       is_visible="true"
       lpeversion="1"
       steps="1"
       threshold="0.00243902"
       smooth_angles="360"
       helper_size="0"
       simplify_individual_paths="false"
       simplify_just_coalesce="false" />
    <inkscape:path-effect
       effect="simplify"
       id="path-effect441"
       is_visible="true"
       lpeversion="1"
       steps="1"
       threshold="0.00243902"
       smooth_angles="360"
       helper_size="0"
       simplify_individual_paths="false"
       simplify_just_coalesce="false" />
    <inkscape:path-effect
       effect="simplify"
       id="path-effect437"
       is_visible="true"
       lpeversion="1"
       steps="1"
       threshold="0.00243902"
       smooth_angles="360"
       helper_size="0"
       simplify_individual_paths="false"
       simplify_just_coalesce="false" />
  </defs>
  <g
     inkscape:label="Ebene 1"
     inkscape:groupmode="layer"
     id="layer1">
    <path
       id="hair_long"
       style="display:inline;fill:#803300;stroke:#000000;stroke-width:0.49186;stroke-linecap:round;stroke-linejoin:round"
       d="m 108.51545,34.54565 1e-5,0.0018 c -15.976971,0.165029 -30.89768,3.346657 -38.542023,12.7376 -2.701557,3.14967 -4.626119,6.989224 -6.012979,10.900164 -1.013379,2.436371 -3.23653,7.010784 -5.086404,10.536361 -1.293346,6.524231 -0.378666,10.479656 -0.315246,10.676209 0.673165,3.310622 0.112362,8.253279 -1.570374,12.593691 -1.708982,2.838499 -2.488837,6.169224 -3.246145,9.394775 -0.929204,3.36277 -1.835672,7.51563 -1.348129,11.04352 -1.254952,5.2493 -4.494227,10.53008 -3.436855,15.82272 0.07977,3.86922 -3.610982,7.74476 -4.355981,11.95562 -1.052144,3.58543 -0.975492,7.46992 -0.64085,11.19152 0.397234,5.01817 0.215138,10.26738 2.022687,14.96553 0.673242,1.91125 1.503159,7.89296 2.37462,9.56147 1.271667,4.56496 0.846382,14.40847 6.499117,16.68714 5.288024,2.13165 17.426669,0.0372 23.746858,2.18991 6.830976,2.32673 13.110785,-2.23273 18.191573,-1.34421 5.064021,0.88557 11.498541,1.37184 12.352971,0.0397 1.77684,2.73448 10.84047,2.59354 24.78245,0.44164 7.47943,-1.15443 16.78146,-2.21196 23.67972,-1.84997 7.81846,0.41041 8.16189,-13.30833 9.14091,-19.42349 2.86377,-11.53241 5.36288,-22.97905 3.25764,-35.00421 -1.60332,-9.48561 -7.80414,-17.26864 -7.49635,-26.39352 0.459,-8.20198 -0.91222,-12.445427 -4.15603,-19.779158 -3.26477,-9.020644 2.77868,-13.923833 -1.27296,-22.812098 -3.0979,-8.361384 -4.77308,-14.167132 -10.33556,-21.33325 -7.39403,-9.497982 -22.10793,-12.691407 -38.1247,-12.797902 v -0.0018 c -0.0189,1.79e-4 -0.0353,7.66e-4 -0.0543,9.45e-4 -0.018,-1.12e-4 -0.0357,-6.73e-4 -0.0537,-7.48e-4 v 2.9e-5 h -1e-5 v -2.9e-5 z m 26.43211,17.231407 c 3.33637,3.401972 7.00589,10.438703 6.58899,22.382769 -0.15108,4.32862 -1.92112,10.393542 -9.66603,18.651246 -7.84651,8.366028 -14.36507,18.275318 -19.79336,30.123508 -2.28985,4.99799 -3.40824,12.66306 -3.92052,20.47853 -0.60641,-7.79206 -1.78308,-15.46575 -4.09085,-20.41841 C 98.55614,111.17057 90.104612,101.30813 82.140366,92.902655 74.298107,84.625926 74.234614,78.175342 74.188498,73.748106 74.062777,61.679948 78.668491,55.479077 82.082512,52.1252 92.938394,41.46058 96.63144,40.683963 107.54441,39.660931 c 13.25469,0.965136 19.08058,3.495924 27.40315,12.116126 z"
       sodipodi:nodetypes="cccccccccccccccsscsscccccccscssscccscsssscccc"
       inkscape:label="hair_long" />
    <path
       id="hair_highlight"
       style="display:inline;fill:#ac9d93;stroke:none;stroke-width:0.49186;stroke-linecap:round;stroke-linejoin:round"
       inkscape:label="shade"
       d="m 108.62334,34.545178 c -0.0189,1.79e-4 -0.0353,8.55e-4 -0.0543,10e-4 -0.018,-1.12e-4 -0.0357,-4.42e-4 -0.0537,-5.17e-4 v 0.0015 c -15.976955,0.165029 -30.897498,3.34679 -38.541833,12.737724 -2.701555,3.14967 -4.626236,6.989162 -6.01307,10.90011 -1.013378,2.436369 -3.236639,7.010734 -5.086511,10.536308 -2.159315,5.200451 -0.357179,11.389305 0.570929,10.575923 -0.293696,-3.167566 -1.048881,-6.584019 0.543977,-9.74169 1.313913,-3.448546 3.253907,-6.777532 4.462531,-10.20007 1.313364,-3.175393 4.018582,-7.147958 6.976835,-10.873238 7.346513,-9.25134 21.686158,-12.385495 37.040632,-12.548071 v -0.0021 c 0.0173,7.3e-5 0.0345,9.23e-4 0.0517,10e-4 0.0182,-1.76e-4 0.0341,-8.57e-4 0.0522,-10e-4 v 0.0015 c 15.39274,0.104911 29.53316,3.251228 36.63911,12.608016 2.84488,3.745967 4.89108,7.651806 6.09552,10.809388 1.66866,5.316356 2.24051,6.698972 3.83772,10.206383 1.63473,3.421491 1.75969,7.881524 1.46937,10.587117 -0.6785,3.130999 -0.33206,8.662681 0.76713,11.88593 2.93071,8.175889 5.40963,9.381239 4.17316,19.709019 0.48568,5.86279 2.92397,13.80067 4.97225,17.43816 1.35443,-2.79547 -5.12249,-9.4951 -4.01439,-17.90805 0.44846,-8.19313 -0.89854,-12.451077 -4.15582,-19.779147 -3.26453,-9.021077 2.77867,-13.923207 -1.2733,-22.812045 -1.69722,-3.46539 -3.52897,-8.022209 -4.45591,-10.438639 -2.08996,-3.839143 -4.07535,-8.562891 -5.87938,-10.894942 C 139.35413,37.846941 124.6401,34.65374 108.62334,34.547245 Z M 58.9651,78.040976 c -0.381774,0.01308 0.140237,2.479188 -0.234835,2.479174 0.365738,3.2451 -0.239805,7.596373 -1.742012,11.471134 -1.708826,2.838549 -2.488492,6.169263 -3.245797,9.394776 -0.929203,3.36277 -1.835781,7.51588 -1.348238,11.04377 -1.188477,3.2421 -3.816958,8.77574 -3.507103,16.00457 2.155261,-3.9609 3.614753,-10.96141 4.887034,-15.58564 0.07104,-5.20506 -0.07886,-7.67491 0.954294,-11.19553 2.257739,-6.32453 7.408135,-15.689733 4.236657,-23.612254 z m 109.98969,61.177964 c 0.40934,2.24383 0.63037,6.60553 0.68757,9.31101 -0.43148,7.42335 -1.33875,10.67212 -1.88355,15.27142 -1.02173,7.99838 -0.65608,4.90557 -1.10621,8.51616 -0.94088,6.02424 -1.27115,20.17239 -8.785,19.76808 -6.62949,-0.35661 -16.26589,0.43203 -23.45392,1.5693 -13.39879,2.11993 -23.75567,2.51204 -25.46329,-0.18179 -0.82114,1.31234 -7.00491,0.76981 -11.871619,-0.10263 -4.882836,-0.87531 -11.741658,3.36328 -18.306493,1.07114 -6.073948,-2.12076 -18.816002,0.13249 -23.897999,-1.96751 -5.4325,-2.24478 -5.087343,-12.06887 -6.309464,-16.56596 -0.460128,-2.78989 -1.676503,-5.70459 -2.371487,-8.44543 -1.028666,-5.06049 -1.029663,-10.51539 -1.200209,-15.77176 0.02945,-2.82722 0.155198,-8.11455 0.564173,-10.48409 0.507512,-2.96819 4.63305,-6.53131 3.594199,-13.60987 -0.413491,4.32021 -3.918117,9.03898 -4.550079,12.61094 -1.052063,3.58547 -0.975424,7.46994 -0.640788,11.19156 0.397161,5.01816 0.215047,10.26737 2.022616,14.9655 0.673241,1.91125 1.503072,7.89318 2.374532,9.56169 1.271666,4.56495 0.846615,14.40817 6.499345,16.68684 5.288018,2.13164 17.426688,0.0373 23.746871,2.19004 6.830969,2.32673 13.110354,-2.23262 18.191137,-1.3441 5.064015,0.88557 11.498825,1.37193 12.353255,0.0398 1.77683,2.73448 10.8405,2.59321 24.78246,0.44132 7.47943,-1.15443 16.78144,-2.21201 23.67969,-1.85002 7.81846,0.41041 8.16203,-13.30795 9.14105,-19.4231 2.86344,-11.53236 5.31785,-23.20377 3.2129,-35.22849 -4.1731,-18.53342 -3.32973,-6.33268 -4.06594,-9.47277 2.37313,7.41232 2.02107,5.12338 3.05625,11.25272 z m -61.15724,0.3374 c 0.12203,1.20041 0.23425,2.40863 0.3266,3.6251 0.002,-0.0254 0.004,-0.0505 0.006,-0.076 -0.0951,-1.19141 -0.20815,-2.37419 -0.33228,-3.54914 z"
       sodipodi:nodetypes="ccccccccccscccccscccccccccccccccccccccccccccscssccccccccccssscscccccccccc" />
    <path
       id="path2261"
       style="fill:none;stroke:#000000;stroke-width:0.529167;stroke-linecap:round;stroke-linejoin:round;stroke-dasharray:none"
       d="m 108.51545,34.54565 1e-5,0.0018 c -12.46634,-0.437969 -25.132678,2.335912 -33.425307,8.025432 -6.138126,4.211329 -9.333302,10.54651 -11.129695,15.612332 -1.013379,2.436371 -3.679858,7.074117 -5.086404,10.536361 -1.792323,5.551192 -0.315333,10.352991 -0.251913,10.549544 0.673165,3.310622 0.04903,8.379944 -1.633707,12.720356 -1.708982,2.838499 -2.488837,6.169224 -3.246145,9.394775 -0.929204,3.36277 -1.835672,7.51563 -1.348129,11.04352 -1.254952,5.2493 -4.494227,10.53008 -3.436855,15.82272 0.07977,3.86922 -3.610982,7.74476 -4.355981,11.95562 -1.052144,3.58543 -0.975492,7.46992 -0.64085,11.19152 0.397234,5.01817 0.215138,10.26738 2.022687,14.96553 0.673242,1.91125 1.771856,7.93774 2.643317,9.60625 1.271667,4.56496 0.577685,14.36369 6.23042,16.64236 5.288024,2.13165 17.426669,0.0372 23.746858,2.18991 6.830976,2.32673 13.110785,-2.23273 18.191573,-1.34421 5.064021,0.88557 11.498541,1.37184 12.352971,0.0397 1.77684,2.73448 10.84047,2.59354 24.78245,0.44164 7.47943,-1.15443 16.78146,-2.21196 23.67972,-1.84997 7.81846,0.41041 8.16189,-13.30833 9.14091,-19.42349 3.84157,-11.51069 5.1392,-25.47465 3.25764,-35.00421 -1.255,-11.50199 -7.70123,-13.53133 -7.49635,-26.39352 0.38682,-8.00557 -0.78395,-12.692602 -4.15603,-19.779158 -3.26477,-9.020644 2.77868,-13.923833 -1.27296,-22.812098 -2.64718,-6.896649 -5.88055,-15.390945 -10.33556,-21.33325 -7.39403,-9.497982 -22.10793,-12.691407 -38.1247,-12.797902 v -0.0018 c -0.0189,1.79e-4 -0.0353,7.66e-4 -0.0543,9.45e-4 -0.018,-1.12e-4 -0.0357,-6.73e-4 -0.0537,-7.48e-4 v 2.9e-5 h -1e-5 v -2.9e-5 z m 26.43211,17.231407 c 3.33637,3.401972 7.00589,10.438703 6.58899,22.382769 -0.15108,4.32862 -1.92112,10.393542 -9.66603,18.651246 -7.84651,8.366028 -14.36507,18.275318 -19.79336,30.123508 -2.28985,4.99799 -3.40824,12.66306 -3.92052,20.47853 -0.60641,-7.79206 -1.78308,-15.46575 -4.09085,-20.41841 C 98.55614,111.17057 90.104612,101.30813 82.140366,92.902655 74.298107,84.625926 74.234614,78.175342 74.188498,73.748106 74.062777,61.679948 78.668491,55.479077 82.082512,52.1252 92.938394,41.46058 96.63144,40.683963 107.54441,39.660931 c 13.25469,0.965136 19.08058,3.495924 27.40315,12.116126 z"
       sodipodi:nodetypes="ccsccccccccccccsscsscccccccscssscccscsssscccc"
       inkscape:label="kontur" />
  </g>
</svg>
