<?xml version="1.0" encoding="UTF-8" standalone="no"?>
<!-- Created with Inkscape (http://www.inkscape.org/) -->

<svg
   width="840"
   height="880"
   viewBox="0 0 222.24999 232.83334"
   version="1.1"
   id="mySVG"
   inkscape:version="1.1.2 (b8e25be833, 2022-02-05)"
   sodipodi:docname="hair_benzite.svg"
   xmlns:inkscape="http://www.inkscape.org/namespaces/inkscape"
   xmlns:sodipodi="http://sodipodi.sourceforge.net/DTD/sodipodi-0.dtd"
   xmlns="http://www.w3.org/2000/svg"
   xmlns:svg="http://www.w3.org/2000/svg">
  <sodipodi:namedview
     id="namedview7"
     pagecolor="#ffffff"
     bordercolor="#666666"
     borderopacity="1.0"
     inkscape:showpageshadow="2"
     inkscape:pageopacity="0.0"
     inkscape:pagecheckerboard="0"
     inkscape:deskcolor="#d1d1d1"
     inkscape:document-units="mm"
     showgrid="false"
     showguides="true"
     inkscape:zoom="2.0888418"
     inkscape:cx="443.0685"
     inkscape:cy="380.11495"
     inkscape:window-width="1920"
     inkscape:window-height="1094"
     inkscape:window-x="-11"
     inkscape:window-y="-11"
     inkscape:window-maximized="1"
     inkscape:current-layer="layer1"
     inkscape:pageshadow="2"
     units="px"
     inkscape:guide-bbox="true"
     inkscape:snap-global="false">
    <inkscape:grid
       type="xygrid"
       id="grid9" />
    <sodipodi:guide
       position="77.295236,125.26487"
       orientation="0,-1"
       id="guide894" />
  </sodipodi:namedview>
  <defs
     id="defs2">
    <inkscape:path-effect
       effect="bspline"
       id="path-effect11756"
       is_visible="true"
       lpeversion="1"
       weight="33.333333"
       steps="2"
       helper_size="0"
       apply_no_weight="true"
       apply_with_weight="true"
       only_selected="false" />
    <inkscape:path-effect
       effect="bspline"
       id="path-effect11750"
       is_visible="true"
       lpeversion="1"
       weight="33.333333"
       steps="2"
       helper_size="0"
       apply_no_weight="true"
       apply_with_weight="true"
       only_selected="false" />
    <inkscape:path-effect
       effect="bspline"
       id="path-effect11143"
       is_visible="true"
       lpeversion="1"
       weight="33.333333"
       steps="2"
       helper_size="0"
       apply_no_weight="true"
       apply_with_weight="true"
       only_selected="false" />
    <inkscape:path-effect
       effect="bspline"
       id="path-effect9776"
       is_visible="true"
       lpeversion="1"
       weight="33.333333"
       steps="2"
       helper_size="0"
       apply_no_weight="true"
       apply_with_weight="true"
       only_selected="false" />
    <inkscape:path-effect
       effect="bspline"
       id="path-effect9739"
       is_visible="true"
       lpeversion="1"
       weight="33.333333"
       steps="2"
       helper_size="0"
       apply_no_weight="true"
       apply_with_weight="true"
       only_selected="false" />
    <inkscape:path-effect
       effect="bspline"
       id="path-effect8092"
       is_visible="true"
       lpeversion="1"
       weight="33.333333"
       steps="2"
       helper_size="0"
       apply_no_weight="true"
       apply_with_weight="true"
       only_selected="false" />
    <inkscape:path-effect
       effect="bspline"
       id="path-effect3916"
       is_visible="true"
       lpeversion="1"
       weight="33.333333"
       steps="2"
       helper_size="0"
       apply_no_weight="true"
       apply_with_weight="true"
       only_selected="false" />
    <inkscape:path-effect
       effect="bspline"
       id="path-effect3879"
       is_visible="true"
       lpeversion="1"
       weight="33.333333"
       steps="2"
       helper_size="0"
       apply_no_weight="true"
       apply_with_weight="true"
       only_selected="false" />
    <inkscape:path-effect
       effect="simplify"
       id="path-effect14166"
       is_visible="true"
       lpeversion="1"
       steps="1"
       threshold="0.00243902"
       smooth_angles="360"
       helper_size="0"
       simplify_individual_paths="false"
       simplify_just_coalesce="false" />
    <inkscape:path-effect
       effect="simplify"
       id="path-effect2574"
       is_visible="true"
       lpeversion="1"
       steps="1"
       threshold="0.00243902"
       smooth_angles="360"
       helper_size="0"
       simplify_individual_paths="false"
       simplify_just_coalesce="false" />
    <inkscape:path-effect
       effect="simplify"
       id="path-effect441"
       is_visible="true"
       lpeversion="1"
       steps="1"
       threshold="0.00243902"
       smooth_angles="360"
       helper_size="0"
       simplify_individual_paths="false"
       simplify_just_coalesce="false" />
    <inkscape:path-effect
       effect="simplify"
       id="path-effect437"
       is_visible="true"
       lpeversion="1"
       steps="1"
       threshold="0.00243902"
       smooth_angles="360"
       helper_size="0"
       simplify_individual_paths="false"
       simplify_just_coalesce="false" />
  </defs>
  <g
     inkscape:label="Ebene 1"
     inkscape:groupmode="layer"
     id="layer1">
    <path
       id="hair_long"
       style="fill:#ff0000;fill-opacity:1;stroke:none;stroke-width:0.529167;stroke-linecap:round;stroke-linejoin:round;stroke-miterlimit:4;stroke-dasharray:none;stroke-opacity:1"
       d="m 142.87571,80.999404 c 0,0 -1.87091,4.887768 -6.44873,5.821774 -4.93609,0.307046 -8.63711,0.334839 -12.5392,1.970447 -3.97601,1.666587 -10.38963,7.702653 -10.38963,7.702653 0.72684,-13.86801 7.82597,-21.618627 29.37756,-15.494874 z m -68.536143,0 c 0,0 1.870908,4.887768 6.448733,5.821774 4.936088,0.307046 8.637106,0.334839 12.539205,1.970447 3.976005,1.666587 10.389625,7.702653 10.389625,7.702653 -0.72684,-13.86801 -7.825968,-21.618627 -29.377563,-15.494874 z" />
    <path
       style="fill:none;fill-opacity:1;stroke:#000000;stroke-width:0.529167;stroke-linecap:round;stroke-linejoin:round;stroke-miterlimit:4;stroke-dasharray:none;stroke-opacity:1"
       d="m 74.339567,80.999404 c 0,0 1.870908,4.887768 6.448733,5.821774 4.936088,0.307046 8.637106,0.334839 12.539205,1.970447 3.976005,1.666587 10.389625,7.702653 10.389625,7.702653"
       id="path1071"
       sodipodi:nodetypes="ccac" />
    <path
       id="hair_shade"
       style="fill:#800080;stroke:none;stroke-width:0.529167;stroke-linecap:butt;stroke-linejoin:miter;stroke-miterlimit:4;stroke-dasharray:none;stroke-opacity:1"
       d="m 108.87309,116.04199 c 0,0 5.16696,6.37716 8.61182,8.45451 4.48714,2.70587 14.97458,4.78199 14.97458,4.78199 l -4.11661,-11.33653 z m 0.10809,0 c 0,0 -5.16696,6.37716 -8.61183,8.45451 -4.487136,2.70587 -14.974575,4.78199 -14.974575,4.78199 l 4.116615,-11.33653 z" />
    <path
       style="fill:none;stroke:#000000;stroke-width:0.529167;stroke-linecap:butt;stroke-linejoin:miter;stroke-miterlimit:4;stroke-dasharray:none;stroke-opacity:1"
       d="m 108.98118,116.04199 c 0,0 -5.16696,6.37716 -8.61183,8.45451 -4.487136,2.70587 -14.974575,4.78199 -14.974575,4.78199 l 4.116615,-11.33653 z"
       id="path12510"
       sodipodi:nodetypes="caccc" />
    <path
       style="fill:none;stroke:#000000;stroke-width:0.529167;stroke-linecap:butt;stroke-linejoin:miter;stroke-miterlimit:4;stroke-dasharray:none;stroke-opacity:1"
       d="m 108.87309,116.04199 c 0,0 5.16696,6.37716 8.61182,8.45451 4.48714,2.70587 14.97458,4.78199 14.97458,4.78199 l -4.11661,-11.33653 z"
       id="path12536"
       sodipodi:nodetypes="caccc" />
    <path
       id="hair_highlight"
       style="fill:#008080;fill-opacity:1;stroke:#000000;stroke-width:0.529167;stroke-linecap:round;stroke-linejoin:round;stroke-miterlimit:4;stroke-dasharray:none;stroke-opacity:1"
       d="m 117.61332,116.82263 c 0,1.37361 0,2.74695 0.17796,4.71044 0.17796,1.96348 0.53382,4.51695 0.88971,7.07064 -1.48491,-2.55369 -2.96953,-5.10688 -3.85642,-7.17594 -0.88688,-2.06906 -1.1755,-3.65318 -1.46416,-5.23753 m -19.253364,1.28403 c 0,1.37361 0,2.74695 -0.230749,4.19182 -0.230748,1.44486 -0.692125,2.96113 -1.153562,4.4776 0.847121,-1.60091 1.694177,-3.2017 2.143743,-4.75195 0.449567,-1.55025 0.501519,-3.04992 0.553481,-4.54986 m 27.246651,0.63239 c 0,1.37361 0,2.74695 0.23075,4.19182 0.23075,1.44486 0.69212,2.96113 1.15356,4.4776 -0.84712,-1.60091 -1.69418,-3.20169 -2.14375,-4.75195 -0.44957,-1.55025 -0.50152,-3.04992 -0.55348,-4.54986 m -22.193379,-0.0192 c 0,1.37361 0,2.74695 -0.177963,4.71047 -0.177962,1.96352 -0.533809,4.51692 -0.889695,7.07061 1.484896,-2.55369 2.969727,-5.10726 3.856497,-7.17613 0.88678,-2.06888 1.17539,-3.653 1.46405,-5.23734"
       inkscape:original-d="m 117.61332,116.82263 c -2.6e-4,1.37361 -2.6e-4,2.74695 0,4.12002 0.35614,2.55387 1.06767,7.66106 1.06767,7.66106 0,0 -2.96945,-5.10693 -4.45472,-7.66106 -0.28838,-1.58398 -0.577,-3.1681 -0.86586,-4.75241 m -19.253364,1.28403 c 2.65e-4,1.37361 2.65e-4,2.74695 0,4.12002 -0.461182,1.51676 -1.384311,4.5494 -1.384311,4.5494 0,0 1.694492,-3.20153 2.541364,-4.80273 0.05222,-1.49946 0.104171,-2.99913 0.15586,-4.49908 m 27.246651,0.63239 c -2.7e-4,1.37361 -2.7e-4,2.74695 0,4.12002 0.46118,1.51676 1.38431,4.5494 1.38431,4.5494 0,0 -1.69449,-3.20153 -2.54137,-4.80273 -0.0522,-1.49946 -0.10417,-2.99913 -0.15586,-4.49908 m -22.193379,-0.0192 c 2.6e-4,1.37361 2.6e-4,2.74695 0,4.12002 -0.355629,2.55401 -1.067658,7.66106 -1.067658,7.66106 0,0 2.970037,-5.10708 4.454687,-7.66106 0.28889,-1.58389 0.57751,-3.16801 0.86586,-4.75241"
       inkscape:path-effect="#path-effect11750" />
    <path
       id="hair"
       style="fill:#00ff00;stroke:none;stroke-width:0.529167;stroke-linecap:round;stroke-linejoin:round;stroke-miterlimit:4;stroke-dasharray:none;stroke-opacity:1"
       d="m 72.923714,102.5824 c -0.644208,2.81896 -2.34677,8.81254 -1.317749,10.39317 1.029017,1.58062 3.730749,1.92317 4.991944,3.77393 1.261192,1.85076 1.082132,5.2099 2.646349,6.75514 1.564216,1.54524 4.871326,1.27707 4.13308,3.31298 -0.738243,2.0359 -5.521259,6.37544 -10.304796,10.7151 3.642339,-1.60394 7.284662,-3.20769 10.270172,-5.35316 2.985516,-2.14546 5.313688,-4.83265 7.200077,-7.31066 1.886392,-2.47801 3.330655,-4.74682 5.993435,-6.03064 2.66278,-1.28382 6.543754,-1.58249 10.424684,-1.88102 h 3.26285 c 3.88096,0.29853 7.76189,0.5972 10.42469,1.88102 2.66279,1.28382 4.10651,3.55263 5.99291,6.03064 1.8864,2.47801 4.21507,5.1652 7.2006,7.31066 2.98553,2.14547 6.62834,3.74921 10.27069,5.35316 -4.78356,-4.33966 -9.56707,-8.6792 -10.30531,-10.7151 -0.73825,-2.03591 2.56885,-1.76773 4.13308,-3.31298 1.56422,-1.54524 1.38515,-4.90438 2.64635,-6.75514 1.26119,-1.85076 3.96292,-2.19331 4.99194,-3.77393 1.02902,-1.58063 -0.67354,-7.57421 -1.31775,-10.39317 -25.21661,10.85766 -47.553547,10.39723 -71.337246,0 z"
       sodipodi:nodetypes="csssscsssccssscsssscc" />
    <path
       id="path8090"
       style="fill:none;stroke:#000000;stroke-width:0.529167;stroke-linecap:round;stroke-linejoin:round;stroke-miterlimit:4;stroke-dasharray:none;stroke-opacity:1"
       d="m 72.923714,102.05323 c -0.644208,2.81896 -2.34677,9.34171 -1.317749,10.92234 1.029017,1.58062 3.730749,1.92317 4.991944,3.77393 1.261192,1.85076 1.213334,4.80711 2.646349,6.75514 1.046265,1.42229 4.871326,1.27707 4.13308,3.31298 -0.738243,2.0359 -5.521259,6.37544 -10.304796,10.7151 3.642339,-1.60394 7.284662,-3.20769 10.270172,-5.35316 2.985516,-2.14546 5.313688,-4.83265 7.200077,-7.31066 1.886392,-2.47801 3.330655,-4.74682 5.993435,-6.03064 2.66278,-1.28382 6.543754,-1.58249 10.424684,-1.88102 h 3.26285 c 3.88096,0.29853 7.76189,0.5972 10.42469,1.88102 2.66279,1.28382 4.10651,3.55263 5.99291,6.03064 1.8864,2.47801 4.21507,5.1652 7.2006,7.31066 2.98553,2.14547 6.62834,3.74921 10.27069,5.35316 -4.78356,-4.33966 -9.56707,-8.6792 -10.30531,-10.7151 -0.73825,-2.03591 3.08681,-1.89069 4.13308,-3.31298 1.43301,-1.94803 1.38515,-4.90438 2.64635,-6.75514 1.26119,-1.85076 3.96292,-2.19331 4.99194,-3.77393 1.02902,-1.58063 -0.67354,-8.10338 -1.31775,-10.92234"
       sodipodi:nodetypes="cssascsssccssscsassc" />
    <path
       style="fill:none;fill-opacity:1;stroke:#000000;stroke-width:0.529167;stroke-linecap:round;stroke-linejoin:round;stroke-miterlimit:4;stroke-dasharray:none;stroke-opacity:1"
       d="m 142.87571,80.999404 c 0,0 -1.87091,4.887768 -6.44873,5.821774 -4.93609,0.307046 -8.63711,0.334839 -12.5392,1.970447 -3.97601,1.666587 -10.38963,7.702653 -10.38963,7.702653"
       id="path10654"
       sodipodi:nodetypes="ccac" />
  </g>
</svg>
