<?xml version="1.0" encoding="UTF-8" standalone="no"?>
<!-- Created with Inkscape (http://www.inkscape.org/) -->

<svg
   width="840"
   height="880"
   viewBox="0 0 222.24999 232.83334"
   version="1.1"
   id="mySVG"
   inkscape:version="1.2.2 (732a01da63, 2022-12-09)"
   sodipodi:docname="hair_klingon_long.svg"
   xmlns:inkscape="http://www.inkscape.org/namespaces/inkscape"
   xmlns:sodipodi="http://sodipodi.sourceforge.net/DTD/sodipodi-0.dtd"
   xmlns="http://www.w3.org/2000/svg"
   xmlns:svg="http://www.w3.org/2000/svg">
  <sodipodi:namedview
     id="namedview7"
     pagecolor="#ffffff"
     bordercolor="#666666"
     borderopacity="1.0"
     inkscape:showpageshadow="2"
     inkscape:pageopacity="0.0"
     inkscape:pagecheckerboard="0"
     inkscape:deskcolor="#d1d1d1"
     inkscape:document-units="mm"
     showgrid="false"
     showguides="true"
     inkscape:zoom="2.9540684"
     inkscape:cx="332.59216"
     inkscape:cy="451.58061"
     inkscape:window-width="2560"
     inkscape:window-height="1369"
     inkscape:window-x="1912"
     inkscape:window-y="-8"
     inkscape:window-maximized="1"
     inkscape:current-layer="layer1"
     inkscape:pageshadow="2"
     units="px"
     inkscape:guide-bbox="true">
    <inkscape:grid
       type="xygrid"
       id="grid9" />
    <sodipodi:guide
       position="71.437497,125.67709"
       orientation="0,-1"
       id="guide1575"
       inkscape:locked="false" />
    <sodipodi:guide
       position="108.67865,166.58749"
       orientation="-1,0"
       id="guide2462"
       inkscape:locked="false"
       inkscape:label=""
       inkscape:color="rgb(0,134,229)" />
  </sodipodi:namedview>
  <defs
     id="defs2">
    <inkscape:path-effect
       effect="simplify"
       id="path-effect4085"
       is_visible="true"
       lpeversion="1"
       steps="1"
       threshold="0.00243902"
       smooth_angles="360"
       helper_size="0"
       simplify_individual_paths="false"
       simplify_just_coalesce="false" />
    <inkscape:path-effect
       effect="simplify"
       id="path-effect14166"
       is_visible="true"
       lpeversion="1"
       steps="1"
       threshold="0.00243902"
       smooth_angles="360"
       helper_size="0"
       simplify_individual_paths="false"
       simplify_just_coalesce="false" />
    <inkscape:path-effect
       effect="simplify"
       id="path-effect2574"
       is_visible="true"
       lpeversion="1"
       steps="1"
       threshold="0.00243902"
       smooth_angles="360"
       helper_size="0"
       simplify_individual_paths="false"
       simplify_just_coalesce="false" />
    <inkscape:path-effect
       effect="simplify"
       id="path-effect441"
       is_visible="true"
       lpeversion="1"
       steps="1"
       threshold="0.00243902"
       smooth_angles="360"
       helper_size="0"
       simplify_individual_paths="false"
       simplify_just_coalesce="false" />
    <inkscape:path-effect
       effect="simplify"
       id="path-effect437"
       is_visible="true"
       lpeversion="1"
       steps="1"
       threshold="0.00243902"
       smooth_angles="360"
       helper_size="0"
       simplify_individual_paths="false"
       simplify_just_coalesce="false" />
  </defs>
  <g
     inkscape:label="Ebene 1"
     inkscape:groupmode="layer"
     id="layer1">
    <path
       id="path749"
       style="fill:none;stroke:#000000;stroke-width:0.529167;stroke-linecap:round;stroke-linejoin:round;stroke-dasharray:none"
       d="m 148.27058,84.277802 c 0,7.983204 0.72113,21.470498 -3.04019,31.229978 -2.22935,5.78449 -6.26336,11.03742 -11.08664,14.9318 -7.31058,5.90266 -16.26853,11.65769 -25.66459,11.65769 -9.396053,0 -18.354003,-5.75504 -25.664577,-11.65769 -4.823283,-3.89438 -8.857301,-9.14731 -11.086652,-14.9318 -3.761322,-9.75947 -3.040194,-23.246774 -3.040194,-31.229978 0,-31.932811 17.815227,-46.177801 39.791423,-46.177799 21.97619,0 39.79142,14.24499 39.79142,46.177799 z"
       sodipodi:nodetypes="saaaaasss" />
    <path
       id="hair_long"
       style="fill:#803300;stroke:#000000;stroke-width:0.49186;stroke-linecap:round;stroke-linejoin:round"
       d="m 108.6435,34.644397 v 0.0021 c -16.439695,0.169241 -29.74887,5.707978 -35.927525,15.760278 -2.512328,4.087407 -4.84317,8.345342 -5.971729,11.580172 -0.272809,0.78198 1.298387,-0.903152 1.024227,-0.101286 -0.914949,2.676005 -2.686784,6.931664 -4.389913,10.484632 -1.612448,3.363792 -2.482998,7.802461 -2.478918,10.531657 10e-4,0.847313 0.941615,-0.273682 1.014925,0.462504 0.32994,3.313231 0.174067,7.663587 -1.649512,11.612211 -0.821959,1.779795 -3.684707,5.974875 -4.672066,8.105445 -0.464359,1.00199 1.359817,-0.74908 0.937927,0.31523 -1.173428,2.96022 -2.528121,6.71289 -2.633431,10.01231 -0.165099,5.17271 -6.033082,11.63948 -8.534879,14.34279 -1.182499,1.27775 3.079613,-1.63083 2.912484,-0.73742 -0.65474,3.49993 -4.662774,5.88702 -6.239413,9.35085 -0.900599,1.97858 -3.904855,7.11733 -4.629175,9.61646 -0.331659,1.14434 1.769887,-1.21354 1.498617,0.009 -0.831909,3.75012 -2.559554,10.81514 -2.610694,15.12465 -0.0196,1.65495 0.736279,-2.70253 0.891419,-1.0666 0.18769,1.97904 -0.434491,7.72372 0.06253,9.58391 0.858106,18.37917 65.760116,28.74593 70.308876,24.18598 4.54876,4.55995 73.88406,-0.86687 72.58886,-24.18598 -0.10678,-1.92248 -0.12516,-7.60487 0.0625,-9.58391 0.15514,-1.63593 0.91102,2.72155 0.89142,1.0666 -0.0511,-4.30951 -1.77879,-11.37453 -2.6107,-15.12465 -0.27127,-1.22285 1.83028,1.13503 1.49862,-0.009 -0.72432,-2.49913 -3.72806,-7.63788 -4.62866,-9.61646 -1.57664,-3.46383 -5.58519,-5.85092 -6.23993,-9.35085 -0.16713,-0.89341 4.09499,2.01517 2.91249,0.73742 -2.5018,-2.70331 -8.36978,-9.17008 -8.53488,-14.34279 -0.10531,-3.29942 -1.46001,-7.05209 -2.63343,-10.01231 -0.42189,-1.06431 1.40228,0.68676 0.93792,-0.31523 -0.98736,-2.13057 -3.8501,-6.32565 -4.67206,-8.105445 -1.82358,-3.948624 -1.97894,-8.29898 -1.649,-11.612211 0.0733,-0.736186 1.01341,0.384809 1.01441,-0.462504 0.004,-2.729196 -0.86647,-7.167865 -2.47892,-10.531657 -1.70313,-3.552968 -3.47496,-7.808627 -4.38991,-10.484632 -0.27416,-0.801866 1.29704,0.883266 1.02423,0.101286 -1.12856,-3.23483 -3.45889,-7.492765 -5.97122,-11.580172 C 138.50037,40.354449 125.19118,34.815713 108.7515,34.646464 v -0.0021 c -0.0182,1.61e-4 -0.0361,8.59e-4 -0.0543,10e-4 -0.018,-1.73e-4 -0.0357,-8.75e-4 -0.0537,-10e-4 z m 30.63895,18.416964 c 2.96567,3.707639 7.53851,12.960571 7.88686,25.058418 0.25545,8.871313 -22.61429,26.820011 -34.10644,48.946881 -2.43506,4.68842 -3.72059,11.89423 -4.36563,19.01538 -0.64504,-7.12115 -1.93057,-14.32696 -4.36562,-19.01538 C 92.839462,104.93979 69.969721,86.991092 70.225171,78.119779 70.573521,66.021932 75.146878,56.769 78.112545,53.061361 c 9.76475,-12.20775 19.991254,-12.776533 30.459635,-13.545427 19.79691,0.781317 27.74879,9.979527 30.71027,13.545427 z"
       sodipodi:nodetypes="ccsssscsssssssssscsccsscsssssssssscssssccccccscsssccc"
       inkscape:label="hair_long" />
    <path
       id="hair_highlight"
       style="display:inline;fill:#ac9d93;fill-opacity:1;stroke:none;stroke-width:0.49186;stroke-linecap:round;stroke-linejoin:round"
       inkscape:label="shade"
       d="m 108.6435,34.644397 v 0.0021 c -16.439681,0.169241 -29.748876,5.707988 -35.927525,15.760278 -2.512326,4.087403 -4.843171,8.345345 -5.971729,11.580172 -0.272808,0.781979 1.298387,-0.903151 1.024227,-0.101286 -0.914948,2.676003 -2.686785,6.931667 -4.389913,10.484632 -1.612446,3.363788 -2.482998,7.802463 -2.478918,10.531657 7.52e-4,0.637438 1.325048,0.572868 1.62003,0.611133 0.158848,-2.720356 1.14458,-6.900869 1.92486,-10.142163 0.914823,-3.800191 2.080788,-6.562254 2.978797,-9.223435 0.810771,-4.984676 4.191854,-9.650895 5.869355,-12.428645 6.064253,-9.996618 19.127143,-15.504641 35.262446,-15.672945 0.0314,-0.0029 0.0753,-0.0015 0.1059,-0.0021 v 0.0021 c 16.13528,0.168312 29.1977,5.676301 35.26193,15.672945 5.37761,7.796575 5.36023,13.554029 8.7843,21.778745 2.52518,8.391202 2.65848,6.775492 2.78708,9.796589 0.13061,-0.579898 0.9995,0.423358 1.00046,-0.392224 0.004,-2.729194 -0.86647,-7.167869 -2.47892,-10.531657 -1.70313,-3.552965 -3.47496,-7.808629 -4.38991,-10.484632 -0.27416,-0.801865 1.29704,0.883265 1.02423,0.101286 -1.12856,-3.234827 -3.45889,-7.492769 -5.97122,-11.580172 C 138.50041,40.354426 125.19117,34.815713 108.7515,34.646464 v -0.0021 c -0.0182,1.61e-4 -0.0361,8.93e-4 -0.0543,10e-4 -0.018,-1.73e-4 -0.0357,-9.09e-4 -0.0537,-10e-4 z M 72.008008,83.528752 c 4.695277,9.680647 22.621779,25.515578 32.314822,44.425198 2.38996,4.66245 3.65191,11.82877 4.28501,18.91047 0.0249,-0.27813 0.0574,-0.55582 0.0842,-0.83406 -0.64657,-7.1043 -1.9313,-14.28663 -4.36045,-18.9637 C 94.83055,108.77342 77.565382,93.341922 72.008008,83.528752 Z m -9.98581,-0.343796 c 0.203745,3.162677 -0.109122,8.223186 -1.757143,11.791676 -0.821958,1.779793 -3.684708,5.974878 -4.672066,8.105448 -0.464358,1.00199 1.359817,-0.74908 0.937927,0.31523 -1.173426,2.96021 -2.528121,6.71289 -2.633431,10.01231 -0.165098,5.1727 -6.033085,11.63948 -8.534879,14.34279 -0.985484,1.06486 1.803172,-0.77117 2.66547,-0.89762 2.753985,-3.17306 6.091038,-8.24753 6.224424,-12.48193 0.843122,-3.34727 1.213422,-6.69031 2.550638,-9.89017 0.969077,-2.11877 2.829038,-6.417741 3.635778,-8.187677 1.789814,-3.926752 3.082839,-6.574425 2.252348,-14.334248 -0.09806,-0.400601 -0.380152,1.129525 -0.669066,1.224191 z m 92.438882,0.865783 c -0.52133,3.294878 -0.4122,8.064192 1.68184,11.990944 0.91528,1.716326 3.41517,6.009407 4.38425,8.128177 1.20452,4.51398 1.71979,6.9652 1.8655,10.203 0.13352,4.23854 4.04831,9.31885 6.80269,12.49123 0.53659,-0.21312 3.90525,2.04314 2.83652,0.88832 -2.5018,-2.70331 -8.36978,-9.17009 -8.53488,-14.34279 -0.10531,-3.29942 -1.46002,-7.0521 -2.63343,-10.01231 -0.42189,-1.06431 1.40228,0.68676 0.93792,-0.31523 -0.98736,-2.13057 -3.70502,-6.400131 -4.67206,-8.105448 -2.5974,-4.580327 -0.99384,-16.560899 -2.01052,-14.309099 -0.46999,-1.482277 0.29109,-0.504744 -0.65783,3.383206 z m -10.76753,2.155885 c -6.79891,9.833962 -21.95434,24.154686 -30.63068,40.860036 -2.15979,4.15841 -3.41229,10.29796 -4.11862,16.60157 0.70825,-5.98599 1.91833,-11.75454 3.94808,-15.71428 8.84441,-17.25407 24.55125,-31.951585 30.80122,-41.747326 z M 47.910771,128.20768 c -1.203629,2.88333 -4.484121,5.10223 -5.875094,8.15816 -0.900598,1.97857 -3.904855,7.11734 -4.629175,9.61646 -0.331658,1.14434 1.769887,-1.21375 1.498617,0.009 -4.19e-4,0.002 -0.0011,0.005 -0.0016,0.007 0.479396,-2.65079 0.724667,-3.3387 4.233276,-8.90396 4.171936,-6.61741 5.696882,-7.73367 5.660462,-10.90103 -1.076953,-1.10103 -0.448836,-0.70076 -0.886486,2.01437 z m 122.139189,2.2206 c 2.81173,4.67962 2.63714,3.95222 3.98541,6.77368 0.88393,1.96762 2.99281,5.70047 3.70372,8.18576 2.08465,8.93337 2.05632,15.25171 1.56599,23.77813 -0.96903,7.02784 -5.44172,12.85261 -13.21601,16.74808 8.56434,-3.97956 14.4427,-9.33685 14.05702,-16.28066 -0.10678,-1.92248 -0.12513,-7.60488 0.0625,-9.58391 0.15514,-1.63593 0.91102,2.72155 0.89142,1.0666 -0.0511,-4.30951 -1.77879,-11.37454 -2.6107,-15.12466 -0.27127,-1.22285 1.83028,1.13524 1.49862,-0.009 -0.72432,-2.49912 -3.36131,-7.85021 -4.62866,-9.61646 -1.83772,-2.56115 -5.39282,-6.68669 -6.40193,-9.08416 -0.11629,-0.27628 0.3473,-0.62488 0.2672,-0.83825 -0.0756,-0.2013 -2.47278,-2.78926 -2.11632,-2.3342 0.95012,1.95402 2.36247,5.28932 2.94174,6.31905 z M 39.551741,142.99185 c -0.04745,-0.94188 -0.544906,3.05683 -0.774736,2.96464 0.237164,1.35077 -2.435588,11.19937 -2.48258,15.15926 -0.0196,1.65495 0.736279,-2.70253 0.891419,-1.0666 0.18769,1.97903 -0.434492,7.72372 0.06253,9.58391 0.219052,4.69171 4.616497,8.86008 11.113017,12.39252 -5.807545,-3.38579 -8.979619,-7.4568 -10.069498,-11.86704 -0.485573,-3.0861 -0.730343,-5.50303 -0.746384,-8.34361 0.474512,-5.52982 2.195181,-15.07278 2.006232,-18.82308 z"
       sodipodi:nodetypes="ccssssccscccccccccssscccccccsccsccssssscccscccscccssssscccscsccssscscccccccsscscsssccsccsccccs" />
    <path
       id="path22698"
       style="fill:none;stroke:#000000;stroke-width:0.49186;stroke-linecap:round;stroke-linejoin:round"
       d="m 108.6435,34.644397 v 0.0021 c -16.439695,0.169241 -29.74887,5.707978 -35.927525,15.760278 -2.512328,4.087407 -4.84317,8.345342 -5.971729,11.580172 -0.272809,0.78198 1.298387,-0.903152 1.024227,-0.101286 -0.914949,2.676005 -2.686784,6.931664 -4.389913,10.484632 -1.612448,3.363792 -2.482998,7.802461 -2.478918,10.531657 10e-4,0.847313 0.941615,-0.273682 1.014925,0.462504 0.32994,3.313231 0.174067,7.663587 -1.649512,11.612211 -0.821959,1.779795 -3.684707,5.974875 -4.672066,8.105445 -0.464359,1.00199 1.359817,-0.74908 0.937927,0.31523 -1.173428,2.96022 -2.528121,6.71289 -2.633431,10.01231 -0.165099,5.17271 -6.033082,11.63948 -8.534879,14.34279 -1.182499,1.27775 3.079613,-1.63083 2.912484,-0.73742 -0.65474,3.49993 -4.662774,5.88702 -6.239413,9.35085 -0.900599,1.97858 -3.904855,7.11733 -4.629175,9.61646 -0.331659,1.14434 1.769887,-1.21354 1.498617,0.009 -0.831909,3.75012 -2.559554,10.81514 -2.610694,15.12465 -0.0196,1.65495 0.736279,-2.70253 0.891419,-1.0666 0.18769,1.97904 -0.434491,7.72372 0.06253,9.58391 0.858106,18.37917 65.760116,28.74593 70.308876,24.18598 4.54876,4.55995 73.88406,-0.86687 72.58886,-24.18598 -0.10678,-1.92248 -0.12516,-7.60487 0.0625,-9.58391 0.15514,-1.63593 0.91102,2.72155 0.89142,1.0666 -0.0511,-4.30951 -1.77879,-11.37453 -2.6107,-15.12465 -0.27127,-1.22285 1.83028,1.13503 1.49862,-0.009 -0.72432,-2.49913 -3.72806,-7.63788 -4.62866,-9.61646 -1.57664,-3.46383 -5.58519,-5.85092 -6.23993,-9.35085 -0.16713,-0.89341 4.09499,2.01517 2.91249,0.73742 -2.5018,-2.70331 -8.36978,-9.17008 -8.53488,-14.34279 -0.10531,-3.29942 -1.46001,-7.05209 -2.63343,-10.01231 -0.42189,-1.06431 1.40228,0.68676 0.93792,-0.31523 -0.98736,-2.13057 -3.8501,-6.32565 -4.67206,-8.105445 -1.82358,-3.948624 -1.97894,-8.29898 -1.649,-11.612211 0.0733,-0.736186 1.01341,0.384809 1.01441,-0.462504 0.004,-2.729196 -0.86647,-7.167865 -2.47892,-10.531657 -1.70313,-3.552968 -3.47496,-7.808627 -4.38991,-10.484632 -0.27416,-0.801866 1.29704,0.883266 1.02423,0.101286 -1.12856,-3.23483 -3.45889,-7.492765 -5.97122,-11.580172 C 138.50037,40.354449 125.19118,34.815713 108.7515,34.646464 v -0.0021 c -0.0182,1.61e-4 -0.0361,8.59e-4 -0.0543,10e-4 -0.018,-1.73e-4 -0.0357,-8.75e-4 -0.0537,-10e-4 z m 30.63895,18.416964 c 2.96567,3.707639 7.53851,12.960571 7.88686,25.058418 0.25545,8.871313 -22.61429,26.820011 -34.10644,48.946881 -2.43506,4.68842 -3.72059,11.89423 -4.36563,19.01538 -0.64504,-7.12115 -1.93057,-14.32696 -4.36562,-19.01538 C 92.839462,104.93979 69.969721,86.991092 70.225171,78.119779 70.573521,66.021932 75.146878,56.769 78.112545,53.061361 c 9.76475,-12.20775 19.991254,-12.776533 30.459635,-13.545427 19.79691,0.781317 27.74879,9.979527 30.71027,13.545427 z"
       sodipodi:nodetypes="ccsssscsssssssssscsccsscsssssssssscssssccccccscsssccc"
       inkscape:label="kontur" />
  </g>
</svg>
