<?xml version="1.0" encoding="UTF-8" standalone="no"?>
<!-- Created with Inkscape (http://www.inkscape.org/) -->

<svg
   width="840"
   height="880"
   viewBox="0 0 222.24999 232.83334"
   version="1.1"
   id="mySVG"
   inkscape:version="1.2.2 (732a01da63, 2022-12-09)"
   sodipodi:docname="hair_klingon_long.svg"
   xmlns:inkscape="http://www.inkscape.org/namespaces/inkscape"
   xmlns:sodipodi="http://sodipodi.sourceforge.net/DTD/sodipodi-0.dtd"
   xmlns="http://www.w3.org/2000/svg"
   xmlns:svg="http://www.w3.org/2000/svg">
  <sodipodi:namedview
     id="namedview7"
     pagecolor="#ffffff"
     bordercolor="#666666"
     borderopacity="1.0"
     inkscape:showpageshadow="2"
     inkscape:pageopacity="0.0"
     inkscape:pagecheckerboard="0"
     inkscape:deskcolor="#d1d1d1"
     inkscape:document-units="mm"
     showgrid="false"
     showguides="true"
     inkscape:zoom="4.1776836"
     inkscape:cx="589.92021"
     inkscape:cy="267.13368"
     inkscape:window-width="2560"
     inkscape:window-height="1369"
     inkscape:window-x="1912"
     inkscape:window-y="-8"
     inkscape:window-maximized="1"
     inkscape:current-layer="layer1"
     inkscape:pageshadow="2"
     units="px"
     inkscape:guide-bbox="true">
    <inkscape:grid
       type="xygrid"
       id="grid9" />
    <sodipodi:guide
       position="71.437497,125.67709"
       orientation="0,-1"
       id="guide1575"
       inkscape:locked="false" />
    <sodipodi:guide
       position="108.67865,166.58749"
       orientation="-1,0"
       id="guide2462"
       inkscape:locked="false"
       inkscape:label=""
       inkscape:color="rgb(0,134,229)" />
  </sodipodi:namedview>
  <defs
     id="defs2">
    <inkscape:path-effect
       effect="envelope"
       id="path-effect1007"
       is_visible="true"
       lpeversion="1"
       yy="true"
       xx="true"
       bendpath1="M 45.213986,34.578765 H 170.04703"
       bendpath2="M 178.28026,33.818774 170.04703,195.76406"
       bendpath3="M 45.213986,195.76406 H 170.04703"
       bendpath4="M 34.067458,34.4521 45.213986,195.76406"
       bendpath2-nodetypes="cc"
       bendpath4-nodetypes="cc" />
    <inkscape:path-effect
       effect="envelope"
       id="path-effect989"
       is_visible="true"
       lpeversion="1"
       yy="true"
       xx="true"
       bendpath1="M 46.453049,34.611583 H 169.38755"
       bendpath2="M 178.52326,34.611583 166.70058,196.7032"
       bendpath3="M 46.453049,196.16581 H 169.38755"
       bendpath4="M 36.95908,33.357663 48.065232,195.09102"
       bendpath2-nodetypes="cc"
       bendpath4-nodetypes="cc" />
    <inkscape:path-effect
       effect="envelope"
       id="path-effect876"
       is_visible="true"
       lpeversion="1"
       yy="true"
       xx="true"
       bendpath1="M 36.294051,34.644364 H 181.1004"
       bendpath2="M 181.1004,34.644364 165.87422,199.59675"
       bendpath3="m 55.281989,197.80543 106.830471,1.61218"
       bendpath4="M 36.294051,34.644364 49.012387,206.76201"
       bendpath3-nodetypes="cc"
       bendpath2-nodetypes="cc"
       bendpath4-nodetypes="cc" />
    <inkscape:path-effect
       effect="simplify"
       id="path-effect4085"
       is_visible="true"
       lpeversion="1"
       steps="1"
       threshold="0.00243902"
       smooth_angles="360"
       helper_size="0"
       simplify_individual_paths="false"
       simplify_just_coalesce="false" />
    <inkscape:path-effect
       effect="simplify"
       id="path-effect14166"
       is_visible="true"
       lpeversion="1"
       steps="1"
       threshold="0.00243902"
       smooth_angles="360"
       helper_size="0"
       simplify_individual_paths="false"
       simplify_just_coalesce="false" />
    <inkscape:path-effect
       effect="simplify"
       id="path-effect2574"
       is_visible="true"
       lpeversion="1"
       steps="1"
       threshold="0.00243902"
       smooth_angles="360"
       helper_size="0"
       simplify_individual_paths="false"
       simplify_just_coalesce="false" />
    <inkscape:path-effect
       effect="simplify"
       id="path-effect441"
       is_visible="true"
       lpeversion="1"
       steps="1"
       threshold="0.00243902"
       smooth_angles="360"
       helper_size="0"
       simplify_individual_paths="false"
       simplify_just_coalesce="false" />
    <inkscape:path-effect
       effect="simplify"
       id="path-effect437"
       is_visible="true"
       lpeversion="1"
       steps="1"
       threshold="0.00243902"
       smooth_angles="360"
       helper_size="0"
       simplify_individual_paths="false"
       simplify_just_coalesce="false" />
  </defs>
  <g
     inkscape:label="Ebene 1"
     inkscape:groupmode="layer"
     id="layer1">
    <path
       id="hair_long"
       style="display:inline;fill:#803300;stroke:#000000;stroke-width:0.49186;stroke-linecap:round;stroke-linejoin:round"
       d="m 108.51545,34.54565 1e-5,0.0018 c -15.976971,0.165029 -30.89768,3.346657 -38.542023,12.7376 -3.078182,3.781493 -5.89309,7.814086 -7.259698,11.037396 -0.325299,0.767272 1.572208,-0.919787 1.246719,-0.137232 -1.013379,2.436371 -3.23653,7.010784 -5.086404,10.536361 -1.84949,3.524839 -2.590015,8.043564 -2.349591,10.846996 0.07328,0.858265 1.884744,-0.906532 2.034345,-0.170787 0.673165,3.310622 0.112362,8.253279 -1.570374,12.593691 -0.760323,1.96115 -3.565855,6.834905 -4.391791,9.266795 -0.388447,1.14368 1.475612,-1.06617 1.145646,0.12798 -0.929204,3.36277 -1.835672,7.51563 -1.348129,11.04352 0.713193,5.16068 -4.438725,14.00408 -6.417231,17.56909 -0.974359,1.75567 2.960009,-2.73404 2.980376,-1.74637 0.07977,3.86922 -3.610982,7.74476 -4.355981,11.95562 -0.425555,2.4053 -2.104271,8.97317 -2.134918,11.84306 -0.01403,1.31412 1.435908,-2.01601 1.494068,-0.65154 0.183607,4.30259 0.399853,11.98374 1.468302,16.40408 0.402082,1.6633 -0.0021,-3.01845 0.554385,-1.43855 0.673242,1.91125 1.503159,7.89296 2.37462,9.56147 1.271667,4.56496 0.846382,14.40847 6.499117,16.68714 5.288024,2.13165 17.426669,0.0372 23.746858,2.18991 6.830976,2.32673 13.110785,-2.23273 18.191573,-1.34421 5.064021,0.88557 11.498541,1.37184 12.352971,0.0397 1.77684,2.73448 10.84047,2.59354 24.78245,0.44164 7.47943,-1.15443 16.78146,-2.21196 23.67972,-1.84997 7.81846,0.41041 8.16189,-13.30833 9.14091,-19.42349 0.34155,-2.13342 1.50572,-7.56255 2.1833,-9.65361 0.5188,-1.60097 0.18016,2.9952 0.54966,1.33037 0.98125,-4.42155 1.10494,-11.84971 1.2381,-15.98997 0.0423,-1.31621 1.47392,1.74519 1.44662,0.488 -0.0595,-2.74629 -1.7341,-8.90129 -2.16004,-11.179 -0.74572,-3.98751 -4.30888,-7.49909 -4.23799,-11.23687 0.0182,-0.95413 3.80667,3.15344 2.86635,1.52055 -1.91325,-3.32235 -6.85582,-11.5982 -6.12471,-16.6772 0.49373,-3.42986 -0.33264,-7.43663 -1.18013,-10.68269 -0.30118,-1.153582 1.46284,0.9525 1.10504,-0.14957 -0.76081,-2.343378 -3.38366,-7.041959 -4.08094,-8.946898 -1.54473,-4.220172 -1.25276,-8.568266 -0.51943,-11.820514 0.16286,-0.722339 1.14951,0.50548 1.24178,-0.335988 0.3021,-2.746422 -0.29432,-7.182476 -1.99531,-10.655596 -1.69722,-3.465394 -3.7532,-8.021949 -4.68014,-10.438381 -0.29861,-0.778441 1.5127,0.90522 1.2144,0.142287 -1.25326,-3.20523 -3.90961,-7.234663 -6.86982,-11.037156 -7.39403,-9.497982 -22.10793,-12.691407 -38.1247,-12.797902 v -0.0018 c -0.0189,1.79e-4 -0.0353,7.66e-4 -0.0543,9.45e-4 -0.018,-1.12e-4 -0.0357,-6.73e-4 -0.0537,-7.48e-4 v 2.9e-5 h -1e-5 v -2.9e-5 z m 26.43211,17.231407 c 3.33637,3.401972 7.00589,10.438703 6.58899,22.382769 -0.15108,4.32862 -1.92112,10.393542 -9.66603,18.651246 -7.84651,8.366028 -14.36507,18.275318 -19.79336,30.123508 -2.28985,4.99799 -3.40824,12.66306 -3.92052,20.47853 -0.60641,-7.79206 -1.78308,-15.46575 -4.09085,-20.41841 C 98.55614,111.17057 90.104612,101.30813 82.140366,92.902655 74.298107,84.625926 74.234614,78.175342 74.188498,73.748106 74.062777,61.679948 78.668491,55.479077 82.082512,52.1252 92.938394,41.46058 96.63144,40.683963 107.54441,39.660931 c 13.25469,0.965136 19.08058,3.495924 27.40315,12.116126 z"
       sodipodi:nodetypes="ccsssscsssssssssscsccsscsssssssssscssssccccccscssscccscsssscccc"
       inkscape:label="hair_long" />
    <path
       id="hair_highlight"
       style="display:inline;fill:#ac9d93;stroke:none;stroke-width:0.49186;stroke-linecap:round;stroke-linejoin:round"
       inkscape:label="shade"
       d="m 108.62334,34.545178 c -0.0189,1.79e-4 -0.0353,8.55e-4 -0.0543,10e-4 -0.018,-1.12e-4 -0.0357,-4.42e-4 -0.0537,-5.17e-4 v 0.0015 c -15.976955,0.165029 -30.897498,3.34679 -38.541833,12.737724 -3.078179,3.781489 -5.893416,7.814262 -7.260022,11.037569 -0.325299,0.767271 1.572441,-0.920013 1.246952,-0.137459 -1.013378,2.436369 -3.236639,7.010734 -5.086511,10.536308 -1.849488,3.524835 -2.589635,8.04397 -2.349211,10.8474 0.06596,0.77254 1.536472,-0.574908 1.939417,-0.31626 -0.0087,-2.755904 0.727067,-6.584019 2.297534,-9.652124 0.64217,-3.448546 2.481073,-6.822315 3.689697,-10.244853 1.313364,-3.175393 4.018582,-7.147958 6.976835,-10.873238 7.346513,-9.25134 21.686158,-12.385495 37.040632,-12.548071 v -0.0021 c 0.0173,7.3e-5 0.0345,9.23e-4 0.0517,10e-4 0.0182,-1.76e-4 0.0341,-8.57e-4 0.0522,-10e-4 v 0.0015 c 15.39274,0.104911 29.53316,3.251228 36.63911,12.608016 2.84488,3.745967 4.89108,7.651806 6.09552,10.809388 1.66866,5.316356 2.24051,6.698972 3.83772,10.206383 1.63473,3.421491 2.20752,7.791958 1.9172,10.497551 -0.6785,3.130999 -0.77989,8.752247 0.3193,11.975496 0.67011,1.87662 2.68391,6.378719 3.41507,8.687259 0.80495,4.92551 0.99572,7.48584 0.57896,10.79785 0.48568,5.86279 2.25223,12.94979 4.30051,16.58728 -0.0244,-0.24145 0.0906,-1.43339 0.0952,-1.67656 0.0182,-0.95413 3.80629,3.15321 2.86597,1.52032 -1.91325,-3.32234 -6.8558,-11.59802 -6.12469,-16.67702 0.49373,-3.42985 -0.33228,-7.43649 -1.17977,-10.68255 -0.30118,-1.153576 1.46264,0.95221 1.10484,-0.14986 -0.76081,-2.343372 -3.38361,-7.0418 -4.08089,-8.946737 -1.54473,-4.220168 -1.25268,-8.568223 -0.51935,-11.820468 0.16286,-0.722338 1.14952,0.505571 1.24179,-0.335896 0.3021,-2.74642 -0.29476,-7.182564 -1.99574,-10.655681 -1.69722,-3.46539 -3.75288,-8.022209 -4.67982,-10.438639 -0.29861,-0.77844 1.51269,0.905559 1.21439,0.142627 -1.25326,-3.205227 -3.90965,-7.23508 -6.86986,-11.037569 C 139.35413,37.846941 124.6401,34.65374 108.62334,34.547245 Z M 58.393788,77.910082 c -0.381774,0.01308 0.711549,2.610082 0.336477,2.610068 0.365738,3.2451 -0.239805,7.596373 -1.742012,11.471134 -0.760322,1.961148 -3.565528,6.835247 -4.391463,9.267136 -0.388447,1.14368 1.475632,-1.06651 1.145666,0.12764 -0.929203,3.36277 -1.835781,7.51588 -1.348238,11.04377 0.713192,5.16067 -4.438675,14.00395 -6.417179,17.56895 -0.974358,1.75567 2.959812,-2.73381 2.980179,-1.74614 0.0046,0.22477 -0.0058,0.44949 -0.02532,0.67437 2.155261,-3.9609 3.886633,-11.54902 4.842251,-16.07825 0.07104,-5.20506 -0.07886,-7.67491 0.954294,-11.19553 2.257739,-6.32453 7.153485,-16.580617 3.665345,-23.743148 z M 167.56652,137.51719 c 0.40934,2.24383 2.01864,8.30728 2.07584,11.01276 -0.43148,7.42335 -1.33875,10.67212 -1.88355,15.27142 -1.02173,7.99838 -0.65608,4.90557 -1.10621,8.51616 -0.94088,6.02424 -1.27115,20.17239 -8.785,19.76808 -6.62949,-0.35661 -16.26589,0.43203 -23.45392,1.5693 -13.39879,2.11993 -23.75567,2.51204 -25.46329,-0.18179 -0.82114,1.31234 -7.00491,0.76981 -11.871619,-0.10263 -4.882836,-0.87531 -11.741658,3.36328 -18.306493,1.07114 -6.073948,-2.12076 -18.816002,0.13249 -23.897999,-1.96751 -5.4325,-2.24478 -5.087343,-12.06887 -6.309464,-16.56596 -0.460128,-2.78989 -1.676503,-5.70459 -2.371487,-8.44543 -1.028666,-5.06049 -1.029663,-10.51539 -1.200209,-15.77176 0.02945,-2.82722 0.692592,-9.23412 1.101567,-11.60366 0.104467,-2.78906 1.49825,-2.94868 2.65376,-10.07202 -0.771754,3.2902 -3.515072,6.6207 -4.147034,10.19266 -0.425555,2.4053 -2.104107,8.97332 -2.134753,11.8432 -0.01403,1.31412 1.435805,-2.0161 1.493965,-0.65164 0.183607,4.30259 0.39968,11.98384 1.468128,16.40417 0.402081,1.6633 -0.002,-3.01857 0.554488,-1.43867 0.673241,1.91125 1.503072,7.89318 2.374532,9.56169 1.271666,4.56495 0.846615,14.40817 6.499345,16.68684 5.288018,2.13164 17.426688,0.0373 23.746871,2.19004 6.830969,2.32673 13.110354,-2.23262 18.191137,-1.3441 5.064015,0.88557 11.498825,1.37193 12.353255,0.0398 1.77683,2.73448 10.8405,2.59321 24.78246,0.44132 7.47943,-1.15443 16.78144,-2.21201 23.67969,-1.85002 7.81846,0.41041 8.16203,-13.30795 9.14105,-19.4231 0.34155,-2.13342 1.50575,-7.56262 2.18333,-9.65368 0.5188,-1.60097 0.17982,2.99498 0.54932,1.33015 0.98125,-4.42154 1.10501,-11.84946 1.23817,-15.98972 0.0423,-1.31621 1.47372,1.74502 1.44642,0.48783 -0.0595,-2.74629 -1.73362,-8.90146 -2.15956,-11.17916 -0.63525,-3.3968 -3.68799,-6.51181 -4.4242,-9.6519 1.43269,7.9945 1.34933,6.95948 1.98146,9.50619 z m -59.76897,2.03915 c 0.12203,1.20041 0.23425,2.40863 0.3266,3.6251 0.002,-0.0254 0.004,-0.0505 0.006,-0.076 -0.0951,-1.19141 -0.20815,-2.37419 -0.33228,-3.54914 z"
       sodipodi:nodetypes="ccccssssccccscccccsccccccccsssssscssccccccsssssccccccccccscssccccccssccccssscscsscscsccccccc" />
    <path
       id="path2261"
       style="fill:none;stroke:#000000;stroke-width:0.49186;stroke-linecap:round;stroke-linejoin:round"
       d="m 108.51545,34.54565 1e-5,0.0018 c -15.976971,0.165029 -30.89768,3.346657 -38.542023,12.7376 -3.078182,3.781493 -5.89309,7.814086 -7.259698,11.037396 -0.325299,0.767272 1.572208,-0.919787 1.246719,-0.137232 -1.013379,2.436371 -3.23653,7.010784 -5.086404,10.536361 -1.84949,3.524839 -2.590015,8.043564 -2.349591,10.846996 0.07328,0.858265 1.884744,-0.906532 2.034345,-0.170787 0.673165,3.310622 0.112362,8.253279 -1.570374,12.593691 -0.760323,1.96115 -3.565855,6.834905 -4.391791,9.266795 -0.388447,1.14368 1.475612,-1.06617 1.145646,0.12798 -0.929204,3.36277 -1.835672,7.51563 -1.348129,11.04352 0.713193,5.16068 -4.438725,14.00408 -6.417231,17.56909 -0.974359,1.75567 2.960009,-2.73404 2.980376,-1.74637 0.07977,3.86922 -3.610982,7.74476 -4.355981,11.95562 -0.425555,2.4053 -2.104271,8.97317 -2.134918,11.84306 -0.01403,1.31412 1.435908,-2.01601 1.494068,-0.65154 0.183607,4.30259 0.399853,11.98374 1.468302,16.40408 0.402082,1.6633 -0.0021,-3.01845 0.554385,-1.43855 0.673242,1.91125 1.503159,7.89296 2.37462,9.56147 1.271667,4.56496 0.846382,14.40847 6.499117,16.68714 5.288024,2.13165 17.426669,0.0372 23.746858,2.18991 6.830976,2.32673 13.110785,-2.23273 18.191573,-1.34421 5.064021,0.88557 11.498541,1.37184 12.352971,0.0397 1.77684,2.73448 10.84047,2.59354 24.78245,0.44164 7.47943,-1.15443 16.78146,-2.21196 23.67972,-1.84997 7.81846,0.41041 8.16189,-13.30833 9.14091,-19.42349 0.34155,-2.13342 1.50572,-7.56255 2.1833,-9.65361 0.5188,-1.60097 0.18016,2.9952 0.54966,1.33037 0.98125,-4.42155 1.10494,-11.84971 1.2381,-15.98997 0.0423,-1.31621 1.47392,1.74519 1.44662,0.488 -0.0595,-2.74629 -1.7341,-8.90129 -2.16004,-11.179 -0.74572,-3.98751 -4.30888,-7.49909 -4.23799,-11.23687 0.0182,-0.95413 3.80667,3.15344 2.86635,1.52055 -1.91325,-3.32235 -6.85582,-11.5982 -6.12471,-16.6772 0.49373,-3.42986 -0.33264,-7.43663 -1.18013,-10.68269 -0.30118,-1.153582 1.46284,0.9525 1.10504,-0.14957 -0.76081,-2.343378 -3.38366,-7.041959 -4.08094,-8.946898 -1.54473,-4.220172 -1.25276,-8.568266 -0.51943,-11.820514 0.16286,-0.722339 1.14951,0.50548 1.24178,-0.335988 0.3021,-2.746422 -0.29432,-7.182476 -1.99531,-10.655596 -1.69722,-3.465394 -3.7532,-8.021949 -4.68014,-10.438381 -0.29861,-0.778441 1.5127,0.90522 1.2144,0.142287 -1.25326,-3.20523 -3.90961,-7.234663 -6.86982,-11.037156 -7.39403,-9.497982 -22.10793,-12.691407 -38.1247,-12.797902 v -0.0018 c -0.0189,1.79e-4 -0.0353,7.66e-4 -0.0543,9.45e-4 -0.018,-1.12e-4 -0.0357,-6.73e-4 -0.0537,-7.48e-4 v 2.9e-5 h -1e-5 v -2.9e-5 z m 26.43211,17.231407 c 3.33637,3.401972 7.00589,10.438703 6.58899,22.382769 -0.15108,4.32862 -1.92112,10.393542 -9.66603,18.651246 -7.84651,8.366028 -14.36507,18.275318 -19.79336,30.123508 -2.28985,4.99799 -3.40824,12.66306 -3.92052,20.47853 -0.60641,-7.79206 -1.78308,-15.46575 -4.09085,-20.41841 C 98.55614,111.17057 90.104612,101.30813 82.140366,92.902655 74.298107,84.625926 74.234614,78.175342 74.188498,73.748106 74.062777,61.679948 78.668491,55.479077 82.082512,52.1252 92.938394,41.46058 96.63144,40.683963 107.54441,39.660931 c 13.25469,0.965136 19.08058,3.495924 27.40315,12.116126 z"
       sodipodi:nodetypes="ccsssscsssssssssscsccsscsssssssssscssssccccccscssscccscsssscccc"
       inkscape:label="kontur" />
  </g>
</svg>
