<?xml version="1.0" encoding="UTF-8" standalone="no"?>
<!-- Created with Inkscape (http://www.inkscape.org/) -->

<svg
   width="840"
   height="880"
   viewBox="0 0 222.24999 232.83334"
   version="1.1"
   id="mySVG"
   inkscape:version="1.1.2 (b8e25be833, 2022-02-05)"
   sodipodi:docname="hair_vulcan.svg"
   xmlns:inkscape="http://www.inkscape.org/namespaces/inkscape"
   xmlns:sodipodi="http://sodipodi.sourceforge.net/DTD/sodipodi-0.dtd"
   xmlns="http://www.w3.org/2000/svg"
   xmlns:svg="http://www.w3.org/2000/svg">
  <sodipodi:namedview
     id="namedview7"
     pagecolor="#ffffff"
     bordercolor="#666666"
     borderopacity="1.0"
     inkscape:showpageshadow="2"
     inkscape:pageopacity="0.0"
     inkscape:pagecheckerboard="0"
     inkscape:deskcolor="#d1d1d1"
     inkscape:document-units="mm"
     showgrid="false"
     showguides="true"
     inkscape:zoom="2.9540684"
     inkscape:cx="296.03241"
     inkscape:cy="212.92669"
     inkscape:window-width="1920"
     inkscape:window-height="1094"
     inkscape:window-x="-11"
     inkscape:window-y="-11"
     inkscape:window-maximized="1"
     inkscape:current-layer="layer1"
     inkscape:pageshadow="2"
     width="840mm"
     units="px">
    <inkscape:grid
       type="xygrid"
       id="grid9" />
  </sodipodi:namedview>
  <defs
     id="defs2">
    <inkscape:path-effect
       effect="simplify"
       id="path-effect14166"
       is_visible="true"
       lpeversion="1"
       steps="1"
       threshold="0.00243902"
       smooth_angles="360"
       helper_size="0"
       simplify_individual_paths="false"
       simplify_just_coalesce="false" />
    <inkscape:path-effect
       effect="simplify"
       id="path-effect2574"
       is_visible="true"
       lpeversion="1"
       steps="1"
       threshold="0.00243902"
       smooth_angles="360"
       helper_size="0"
       simplify_individual_paths="false"
       simplify_just_coalesce="false" />
    <inkscape:path-effect
       effect="simplify"
       id="path-effect441"
       is_visible="true"
       lpeversion="1"
       steps="1"
       threshold="0.00243902"
       smooth_angles="360"
       helper_size="0"
       simplify_individual_paths="false"
       simplify_just_coalesce="false" />
    <inkscape:path-effect
       effect="simplify"
       id="path-effect437"
       is_visible="true"
       lpeversion="1"
       steps="1"
       threshold="0.00243902"
       smooth_angles="360"
       helper_size="0"
       simplify_individual_paths="false"
       simplify_just_coalesce="false" />
  </defs>
  <g
     inkscape:label="Ebene 1"
     inkscape:groupmode="layer"
     id="layer1">
    <path
       style="fill:#803300;stroke:#000000;stroke-width:0.529167;stroke-linecap:butt;stroke-linejoin:miter;stroke-dasharray:none;stroke-opacity:1"
       d="M 74.083333,60.854167 H 142.875 l 0.99219,8.598958 c 0,0 0.66145,5.732639 0.99218,8.598958 0.49609,4.29948 0.45321,11.218451 1.48829,12.898438 0.38607,0.572686 1.16914,1.226075 1.819,0.992188 1.1172,-0.402084 1.09838,-2.141362 1.32292,-3.307292 2.50174,-12.990464 7.02791,-28.479497 0,-39.687501 C 141.42193,36.081743 123.66007,29.510974 108.47916,29.104167 93.660991,28.70708 75.677223,33.958795 67.468749,46.302083 c -7.813997,11.750103 -0.566302,40.474444 -0.447828,42.053441 0.118474,1.578997 0.653546,3.185099 1.770746,3.587185 0.649863,0.233889 1.655111,-0.321246 1.81901,-0.992188 0.996111,-4.077722 0.997019,-8.640833 1.488281,-12.898438 l 0.992187,-8.598958 z"
       id="hair"
       sodipodi:nodetypes="cccscssaaszssscc" />
    <path
       id="hair_highlight"
       style="fill:#a05a2c"
       d="M 107.08132,29.083496 C 92.546808,29.0422 75.420701,34.344535 67.46875,46.302083 64.15276,51.28842 63.655157,59.664895 64.176444,67.657886 64.107427,61.123228 64.937133,54.794059 67.643416,50.724552 75.851882,38.381277 93.835683,33.129549 108.65383,33.526636 c 15.1809,0.406806 32.94278,6.97759 41.01042,19.84375 1.72524,2.751386 2.60042,6.545973 2.94349,10.702189 -0.013,-5.826612 -0.79511,-11.419904 -3.11816,-15.124658 -8.06764,-12.86616 -25.82952,-19.436944 -41.01041,-19.84375 -0.46307,-0.01241 -0.929,-0.01934 -1.39785,-0.02067 z" />
    <path
       style="fill:none;stroke:#000000;stroke-width:0.529167;stroke-linecap:round;stroke-linejoin:round;stroke-dasharray:none;stroke-opacity:1"
       d="M 74.083333,60.854167 H 142.875 l 0.99219,8.598958 c 0,0 0.66145,5.732639 0.99218,8.598958 0.49609,4.29948 0.49349,11.310045 1.48828,12.898438 0.38608,0.572688 1.16915,1.226076 1.81901,0.992187 1.1172,-0.402086 1.09838,-2.141361 1.32292,-3.307291 2.50174,-12.990464 7.02791,-28.479497 0,-39.687501 C 141.42193,36.081743 123.66007,29.510974 108.47916,29.104167 93.660991,28.70708 75.677223,33.958795 67.468749,46.302083 c -7.813997,11.750103 -0.486966,41.518196 -0.380653,42.4229 0.106313,0.904704 0.586371,2.81564 1.703571,3.217726 0.649863,0.233889 1.655111,-0.321246 1.81901,-0.992188 0.996111,-4.077722 0.997019,-8.640833 1.488281,-12.898438 l 0.992187,-8.598958 z"
       id="path828"
       sodipodi:nodetypes="cccscssaaszssscc" />
  </g>
</svg>
