<?xml version="1.0" encoding="UTF-8" standalone="no"?>
<!-- Created with Inkscape (http://www.inkscape.org/) -->

<svg
   width="840"
   height="880"
   viewBox="0 0 222.24999 232.83333"
   version="1.1"
   id="mySVG"
   inkscape:version="1.3 (0e150ed6c4, 2023-07-21)"
   sodipodi:docname="uniform_male1_2370.svg"
   xml:space="preserve"
   xmlns:inkscape="http://www.inkscape.org/namespaces/inkscape"
   xmlns:sodipodi="http://sodipodi.sourceforge.net/DTD/sodipodi-0.dtd"
   xmlns="http://www.w3.org/2000/svg"
   xmlns:svg="http://www.w3.org/2000/svg"><sodipodi:namedview
     id="namedview7"
     pagecolor="#ffffff"
     bordercolor="#666666"
     borderopacity="1.0"
     inkscape:showpageshadow="2"
     inkscape:pageopacity="0.0"
     inkscape:pagecheckerboard="0"
     inkscape:deskcolor="#d1d1d1"
     inkscape:document-units="px"
     showgrid="false"
     showguides="true"
     inkscape:zoom="0.7385171"
     inkscape:cx="474.59971"
     inkscape:cy="387.26253"
     inkscape:window-width="1346"
     inkscape:window-height="1000"
     inkscape:window-x="259"
     inkscape:window-y="138"
     inkscape:window-maximized="0"
     inkscape:current-layer="layer1"><inkscape:grid
       type="xygrid"
       id="grid9"
       originx="0"
       originy="0"
       spacingy="1"
       spacingx="1"
       units="mm"
       visible="false" /></sodipodi:namedview><defs
     id="defs2"><inkscape:path-effect
       effect="simplify"
       id="path-effect14166"
       is_visible="true"
       lpeversion="1"
       steps="1"
       threshold="0.00243902"
       smooth_angles="360"
       helper_size="0"
       simplify_individual_paths="false"
       simplify_just_coalesce="false" /><inkscape:path-effect
       effect="simplify"
       id="path-effect2574"
       is_visible="true"
       lpeversion="1"
       steps="1"
       threshold="0.00243902"
       smooth_angles="360"
       helper_size="0"
       simplify_individual_paths="false"
       simplify_just_coalesce="false" /><inkscape:path-effect
       effect="simplify"
       id="path-effect441"
       is_visible="true"
       lpeversion="1"
       steps="1"
       threshold="0.00243902"
       smooth_angles="360"
       helper_size="0"
       simplify_individual_paths="false"
       simplify_just_coalesce="false" /><inkscape:path-effect
       effect="simplify"
       id="path-effect437"
       is_visible="true"
       lpeversion="1"
       steps="1"
       threshold="0.00243902"
       smooth_angles="360"
       helper_size="0"
       simplify_individual_paths="false"
       simplify_just_coalesce="false" /></defs><g
     inkscape:label="Ebene 1"
     inkscape:groupmode="layer"
     id="layer1"><path
       id="neck"
       style="fill:#ffe6d5;stroke:#000000;stroke-width:0.500237;stroke-linecap:round;stroke-linejoin:round"
       d="m 95.382119,158.74979 c 0,0 1.190626,-7.0333 1.190626,-10.58333 0,-3.55004 -1.190626,-10.58334 -1.190626,-10.58334 h 1.190626 l 23.812495,-0.007 1.19062,0.007 c 0,0 -1.19062,7.0333 -1.19062,10.58334 0,3.55003 1.19062,10.58333 1.19062,10.58333"
       sodipodi:nodetypes="caccccac" /><path
       id="path1"
       style="fill:#ff0000;stroke:#000000;stroke-width:0.529;stroke-linecap:butt;stroke-linejoin:miter;stroke-dasharray:none;stroke-opacity:1"
       d="m 96.546562,147.19412 c 0.01549,0.34246 0.02636,0.67329 0.02636,0.97255 0,2.53933 -0.605009,6.82467 -0.95188,9.07955 l -3.801319,-0.007 -0.316776,54.53466 34.265603,0.75964 -1.20354,-55.23074 -3.22048,-0.006 c -0.34556,-2.24142 -0.95911,-6.57268 -0.95911,-9.12967 0,-0.28602 0.0101,-0.60083 0.0243,-0.92656 z" /><path
       id="path13"
       style="fill:#000000;stroke:#000000;stroke-width:0.529167;stroke-linecap:round;stroke-linejoin:miter;stroke-dasharray:none;stroke-opacity:1"
       d="m 81.705607,158.54123 c -1.051688,0.29083 -2.287107,0.55813 -3.63492,0.81804 1.347813,-0.25991 2.583231,-0.52721 3.63492,-0.81804 z m 53.595693,0 c 1.0517,0.29083 2.28711,0.55813 3.63492,0.81804 -1.34781,-0.25991 -2.58322,-0.52721 -3.63492,-0.81804 z m -70.478383,3.38325 c -1.157647,0.29999 -2.410451,0.57963 -3.683496,0.863 1.275965,-0.28124 2.523465,-0.5624 3.683496,-0.863 z m 87.361073,0 c 1.16888,0.3029 2.42665,0.58578 3.71295,0.8692 -1.28368,-0.28547 -2.54616,-0.56684 -3.71295,-0.8692 z m -95.950213,1.98851 c -0.613994,0.13384 -1.226623,0.25447 -1.840715,0.4067 -2.539325,0.62945 -5.026842,1.57125 -7.176306,2.88612 2.61659,-1.51974 5.793306,-2.50061 9.017021,-3.29282 z m 104.547623,0.002 c 3.21837,0.79124 6.38938,1.77123 9.00255,3.28766 -2.14723,-1.31258 -4.63105,-2.25317 -7.16545,-2.88148 -0.61301,-0.15197 -1.2243,-0.27241 -1.8371,-0.40618 z m -115.899902,4.94079 c -0.02487,0.0214 -0.04715,0.0451 -0.07183,0.0667 0.02459,-0.0217 0.04705,-0.0452 0.07183,-0.0667 z m 127.247532,0.004 c 0.0259,0.0225 0.0498,0.0466 0.0754,0.0692 -0.0258,-0.0226 -0.0495,-0.0469 -0.0754,-0.0692 z M 43.928585,169.7698 c -0.09596,0.10253 -0.178835,0.21602 -0.270785,0.32195 0.09142,-0.10634 0.175369,-0.219 0.270785,-0.32195 z m 129.150255,0.001 c 0.0973,0.10502 0.18332,0.2196 0.27647,0.32814 -0.0937,-0.1081 -0.17859,-0.22358 -0.27647,-0.32814 z m -130.003433,1.02939 c -0.271277,0.37297 -0.52086,0.76438 -0.742074,1.17874 0.221269,-0.41446 0.471969,-0.80453 0.742074,-1.17874 z m 130.857643,0.003 c 0.26933,0.37339 0.5198,0.76272 0.74053,1.17616 -0.22077,-0.41351 -0.46981,-0.80386 -0.74053,-1.17616 z m 2.16266,4.9351 c 0.30105,1.07145 0.56151,2.28381 0.73381,3.63647 -0.17232,-1.35264 -0.43274,-2.56504 -0.73381,-3.63647 z m 0.78652,3.9672 c 0.001,0.007 0.002,0.0149 0.004,0.0222 0.006,0.0498 0.0172,0.091 0.0222,0.14108 9.4e-4,0.0119 0.003,0.0348 0.004,0.0486 -0.001,-0.0138 -0.002,-0.0363 -0.003,-0.0481 -0.005,-0.0501 -0.0162,-0.0913 -0.0222,-0.14108 -0.002,-0.007 -0.003,-0.0152 -0.004,-0.0227 z m -128.740982,0.0129 -8.351429,9.76995 c -0.0015,0.68957 0.0043,1.16176 -0.0052,1.92856 -0.06563,5.30889 -0.09195,14.05034 -0.07751,21.99918 5.48e-4,3.03099 -0.001,6.21097 -0.001,8.83512 v 10.58333 h 0.01188 22.213115 0.01188 l 0.249597,-2.19625 1.061434,-8.91625 -0.0052,-0.29869 c 0.695556,3.08027 1.459859,5.85494 1.459859,5.85494 l -1.719792,5.55625 h 0.0124 45.495928 0.0124 27.76884 17.72709 0.0124 l -1.71979,-5.55625 c 0,0 0.7643,-2.77467 1.45986,-5.85494 l -0.005,0.29869 1.06143,8.91625 0.2496,2.19625 h 0.0119 22.21311 0.0119 V 222.2512 c 0,-2.62369 -0.002,-5.80316 -0.001,-8.83357 0.0145,-7.94921 -0.0111,-16.69093 -0.077,-22.00021 -0.01,-0.7668 -0.004,-1.23899 -0.005,-1.92856 l -8.35195,-9.77047 h -58.1458 -5.2e-4 l -2.21589,26.59218 -2.2164,-26.59218 z" /><path
       id="path12"
       style="fill:#4d4d4d;stroke:#000000;stroke-width:0.529167;stroke-linecap:round;stroke-linejoin:miter;stroke-dasharray:none;stroke-opacity:1"
       d="m 95.864433,153.6268 c 0,0 -2.15987,1.15009 -3.291789,1.60869 -1.614272,0.65403 -3.302081,1.11116 -4.967655,1.62057 -1.955681,0.59814 -3.928257,1.14008 -5.899382,1.68517 -1.051689,0.29083 -2.287107,0.55813 -3.63492,0.81804 -2.695626,0.5198 -5.840925,1.00952 -8.867676,1.59628 -1.513375,0.29338 -2.997281,0.61115 -4.380094,0.96893 -1.160031,0.3006 -2.407531,0.58176 -3.683496,0.863 -1.601284,0.35643 -3.245873,0.71798 -4.900477,1.12448 -0.0017,4.2e-4 -0.0035,6.1e-4 -0.0052,0.001 -3.223715,0.79221 -6.400431,1.77308 -9.017021,3.29282 -0.433521,0.2652 -0.874362,0.52278 -1.275891,0.82114 -1.89e-4,1.4e-4 -3.28e-4,3.8e-4 -5.17e-4,5.2e-4 -3.98e-4,2.8e-4 -6.35e-4,7.5e-4 -10e-4,10e-4 -0.368127,0.26172 -0.721357,0.53709 -1.057817,0.82683 -0.02478,0.0215 -0.04724,0.045 -0.07183,0.0667 -0.308607,0.26979 -0.603568,0.55096 -0.881083,0.84749 -0.09542,0.10295 -0.179363,0.21561 -0.270785,0.32195 -0.200435,0.23091 -0.402128,0.46064 -0.582393,0.70848 -0.270105,0.37421 -0.520805,0.76428 -0.742074,1.17874 -0.21381,0.31254 -0.414456,0.71825 -0.605131,1.19424 -0.190674,0.476 -0.371378,1.02229 -0.544669,1.61696 -0.05375,0.16459 -0.105306,0.31931 -0.157613,0.49299 -3.59e-4,0.001 -7.77e-4,0.002 -10e-4,0.004 -0.0038,0.0125 -0.0066,0.0283 -0.01034,0.0408 -0.373047,1.24695 -0.699845,2.71403 -0.888835,4.37028 -6e-5,5.3e-4 6.1e-5,0.001 0,0.002 -0.0014,0.009 -0.0034,0.0182 -0.0047,0.0274 -0.0056,0.0498 -0.01685,0.091 -0.02222,0.14108 -0.0014,0.0128 -0.0028,0.0391 -0.0041,0.0522 -1.51e-4,0.001 -3.65e-4,0.004 -5.16e-4,0.006 -0.370905,2.41766 -0.295624,5.47656 -0.304375,9.56117 l 8.351429,-9.76995 h 58.145807 l -2.06085,-24.72975 c -1.44026,-0.0939 -2.93894,-0.211 -4.02146,-0.37207 -1.467524,-0.21836 -4.339795,-0.98909 -4.339795,-0.98909 z m 25.278047,0 c 0,0 -2.87227,0.77073 -4.33979,0.98909 -0.68518,0.10194 -1.54409,0.18991 -2.4474,0.26458 -0.5426,0.0448 -1.02723,0.0638 -1.57406,0.0992 l -2.06137,24.73802 h 58.1458 l 8.35195,9.77047 c -0.009,-4.08495 0.066,-7.144 -0.30489,-9.56169 -1.4e-4,-0.002 -3.8e-4,-0.004 -5.2e-4,-0.006 -1e-5,-1.3e-4 10e-6,-3.8e-4 0,-5.2e-4 -7e-5,-9.1e-4 -4.4e-4,-0.003 -5.2e-4,-0.004 -10e-4,-0.0138 -0.003,-0.0367 -0.004,-0.0486 -0.005,-0.0501 -0.0162,-0.0913 -0.0222,-0.14108 -0.002,-0.007 -0.003,-0.0148 -0.004,-0.0222 -2.3e-4,-0.002 -8.7e-4,-0.003 -0.001,-0.005 -1e-5,-2.5e-4 0,-2.8e-4 0,-5.1e-4 -5e-5,-7.5e-4 0,-10e-4 0,-0.002 -2e-5,-1.8e-4 2e-5,-3.4e-4 0,-5.2e-4 -0.0131,-0.11455 -0.0373,-0.21077 -0.0517,-0.3235 -0.1723,-1.35266 -0.43276,-2.56502 -0.73381,-3.63647 -0.0366,-0.1302 -0.0657,-0.28404 -0.10335,-0.40979 -4e-5,-1.5e-4 3e-5,-3.7e-4 0,-5.2e-4 -0.003,-0.0123 -0.006,-0.0279 -0.0103,-0.0403 -3e-5,-2.4e-4 4e-5,-3.1e-4 0,-5.2e-4 -3.2e-4,-0.002 -7.3e-4,-0.003 -0.001,-0.004 -0.0523,-0.17368 -0.10391,-0.3284 -0.15761,-0.49299 -0.17325,-0.5945 -0.35406,-1.14106 -0.54467,-1.61696 -7e-5,-1.6e-4 6e-5,-3.5e-4 0,-5.1e-4 -0.19062,-0.47579 -0.3914,-0.8813 -0.60513,-1.19373 -0.22073,-0.41344 -0.4712,-0.80277 -0.74053,-1.17616 -0.17894,-0.24608 -0.3789,-0.47443 -0.57774,-0.70383 -0.0932,-0.10854 -0.17916,-0.22312 -0.27647,-0.32814 -0.27546,-0.2943 -0.56829,-0.57385 -0.87436,-0.84181 -0.0257,-0.0226 -0.0496,-0.0468 -0.0754,-0.0692 -0.33584,-0.28942 -0.68788,-0.56483 -1.05523,-0.82631 -0.40589,-0.30205 -0.85126,-0.56285 -1.28985,-0.83095 -2.61317,-1.51643 -5.78418,-2.49642 -9.00255,-3.28766 -0.002,-4.6e-4 -0.004,-5.7e-4 -0.006,-0.001 -1.64683,-0.40477 -3.28424,-0.76523 -4.87878,-1.11983 -1.2863,-0.28342 -2.54407,-0.5663 -3.71295,-0.8692 -1.3807,-0.35723 -2.8619,-0.67438 -4.37286,-0.96738 -0.002,-4.4e-4 -0.004,-10e-4 -0.007,-0.002 -1.6e-4,-3e-5 -3.5e-4,3e-5 -5.1e-4,0 -3.02675,-0.58676 -6.17206,-1.07648 -8.86768,-1.59628 -1.34781,-0.25991 -2.58322,-0.52721 -3.63492,-0.81804 -1.97115,-0.54509 -3.94367,-1.08703 -5.89938,-1.68517 -1.66558,-0.50941 -3.35338,-0.96654 -4.96765,-1.62057 -0.56597,-0.2293 -1.38871,-0.63132 -2.07016,-0.97617 -0.68146,-0.34485 -1.22163,-0.63252 -1.22163,-0.63252 z" /><rect
       style="opacity:0.993;fill:#666666;stroke:none;stroke-width:0.529;stroke-dasharray:none"
       id="rect1"
       width="14.059828"
       height="5.6999321"
       x="132.23834"
       y="188.82347" /><path
       style="display:inline;fill:#cccccc;stroke:#000000;stroke-width:0.362353px;stroke-linecap:butt;stroke-linejoin:miter;stroke-opacity:1"
       d="m 135.99029,191.02924 c -0.98304,3.07264 -2.21554,9.42118 -2.21554,9.42118 0,0 3.60609,-4.65704 6.20142,-4.7106 2.0224,-0.0417 4.97977,3.46825 4.97977,3.46825 0,0 -1.1484,-5.52476 -2.08094,-8.17883 -0.96759,-2.75385 -3.62353,-7.97177 -3.62353,-7.97177 0,0 -2.38633,5.2373 -3.26118,7.97177 z"
       id="path7252"
       sodipodi:nodetypes="acacaca" /></g></svg>
