<?xml version="1.0" encoding="UTF-8" standalone="no"?>
<!-- Created with Inkscape (http://www.inkscape.org/) -->

<svg
   width="840"
   height="880"
   viewBox="0 0 222.24999 232.83334"
   version="1.1"
   id="mySVG"
   inkscape:version="1.2.2 (732a01da63, 2022-12-09)"
   sodipodi:docname="eyes_smaller_f.svg"
   xmlns:inkscape="http://www.inkscape.org/namespaces/inkscape"
   xmlns:sodipodi="http://sodipodi.sourceforge.net/DTD/sodipodi-0.dtd"
   xmlns="http://www.w3.org/2000/svg"
   xmlns:svg="http://www.w3.org/2000/svg">
  <sodipodi:namedview
     id="namedview7"
     pagecolor="#ffffff"
     bordercolor="#666666"
     borderopacity="1.0"
     inkscape:showpageshadow="2"
     inkscape:pageopacity="0.0"
     inkscape:pagecheckerboard="0"
     inkscape:deskcolor="#d1d1d1"
     inkscape:document-units="mm"
     showgrid="false"
     showguides="true"
     inkscape:zoom="5.9081368"
     inkscape:cx="352.90314"
     inkscape:cy="372.70633"
     inkscape:window-width="2560"
     inkscape:window-height="1369"
     inkscape:window-x="2552"
     inkscape:window-y="-8"
     inkscape:window-maximized="1"
     inkscape:current-layer="layer1"
     inkscape:pageshadow="2"
     units="px">
    <inkscape:grid
       type="xygrid"
       id="grid9" />
  </sodipodi:namedview>
  <defs
     id="defs2">
    <inkscape:path-effect
       effect="simplify"
       id="path-effect14166"
       is_visible="true"
       lpeversion="1"
       steps="1"
       threshold="0.00243902"
       smooth_angles="360"
       helper_size="0"
       simplify_individual_paths="false"
       simplify_just_coalesce="false" />
    <inkscape:path-effect
       effect="simplify"
       id="path-effect2574"
       is_visible="true"
       lpeversion="1"
       steps="1"
       threshold="0.00243902"
       smooth_angles="360"
       helper_size="0"
       simplify_individual_paths="false"
       simplify_just_coalesce="false" />
    <inkscape:path-effect
       effect="simplify"
       id="path-effect441"
       is_visible="true"
       lpeversion="1"
       steps="1"
       threshold="0.00243902"
       smooth_angles="360"
       helper_size="0"
       simplify_individual_paths="false"
       simplify_just_coalesce="false" />
    <inkscape:path-effect
       effect="simplify"
       id="path-effect437"
       is_visible="true"
       lpeversion="1"
       steps="1"
       threshold="0.00243902"
       smooth_angles="360"
       helper_size="0"
       simplify_individual_paths="false"
       simplify_just_coalesce="false" />
  </defs>
  <g
     inkscape:label="Ebene 1"
     inkscape:groupmode="layer"
     id="layer1">
    <path
       style="fill:#000000;stroke:#000000;stroke-width:0.264583px;stroke-linecap:butt;stroke-linejoin:miter;stroke-opacity:1"
       d="m 98.925132,91.073611 c 0,0 -14.54124,-1.511247 -21.644785,-3.154579 -1.505551,-0.348293 -4.415022,-1.41404 -4.415022,-1.41404 0,0 1.528499,1.34429 2.046432,2.202127 0.455836,0.754988 0.876342,2.496428 0.876342,2.496428 l 0.800468,-2.084133 z"
       id="path301"
       sodipodi:nodetypes="cacaccc" />
    <path
       style="fill:#000000;stroke:#000000;stroke-width:0.264583px;stroke-linecap:butt;stroke-linejoin:miter;stroke-opacity:1"
       d="m 98.925132,91.073611 c 0,0 -14.54124,-1.511247 -21.644785,-3.154579 -1.505551,-0.348293 -4.415022,-1.41404 -4.415022,-1.41404 0,0 1.528499,1.34429 2.046432,2.202127 0.455836,0.754988 0.876342,2.496428 0.876342,2.496428 l 0.800468,-2.084133 z"
       id="path453"
       sodipodi:nodetypes="cacaccc" />
    <path
       id="ellipse14985"
       style="fill:#ffffff;stroke:#000000;stroke-width:0.529167;stroke-linecap:round;stroke-linejoin:round;stroke-dasharray:none"
       d="m 76.499405,89.179321 c -0.572737,0.549019 -0.895909,1.156646 -0.953647,1.793041 -0.252931,2.890543 4.908013,6.761612 11.52734,7.34078 6.619337,0.579065 12.190302,-2.353083 12.443151,-5.243634 0.05545,-0.63644 -0.155377,-1.290781 -0.622124,-1.930903 z"
       sodipodi:nodetypes="cccccc" />
    <circle
       style="fill:#000000;stroke:none;stroke-width:0.52916667;stroke-linecap:round;stroke-linejoin:round;stroke-dasharray:none"
       id="pupil_left"
       cx="95.669373"
       cy="85.280151"
       r="1.984375"
       transform="rotate(5)" />
    <path
       id="path14106"
       style="fill:none;stroke:#000000;stroke-width:0.529167;stroke-linecap:round;stroke-linejoin:round"
       d="m 95.631259,88.706032 c 1.023113,0.484096 1.869179,1.028421 2.508415,1.606061 1.278473,1.155281 1.729627,2.443824 1.115197,3.650323 -1.228859,2.412998 -6.365295,4.859541 -12.181763,4.350666 C 81.25664,97.804207 76.4393,94.486821 75.648121,91.897093 c -0.39559,-1.294864 0.272463,-2.485489 1.732126,-3.401214 0.729831,-0.457862 1.657564,-0.847 2.749196,-1.14608"
       sodipodi:nodetypes="csssssc" />
    <path
       style="fill:#000000;stroke:#000000;stroke-width:0.264583px;stroke-linecap:butt;stroke-linejoin:miter;stroke-opacity:1"
       d="m 118.03867,91.073213 c 0,0 14.54123,-1.511245 21.64477,-3.154578 1.50555,-0.348293 4.41503,-1.414041 4.41503,-1.414041 0,0 -1.5285,1.344291 -2.04644,2.202128 -0.45583,0.754988 -0.87634,2.496428 -0.87634,2.496428 l -0.80047,-2.084133 z"
       id="path457"
       sodipodi:nodetypes="cacaccc" />
    <path
       id="path15000"
       style="fill:#ffffff;stroke:#000000;stroke-width:0.529167;stroke-linecap:round;stroke-linejoin:round;stroke-dasharray:none"
       d="m 118.06969,91.138287 c -0.4687,0.640133 -0.68145,1.294648 -0.6278,1.9314 0.25284,2.890552 5.82381,5.822703 12.44315,5.243638 6.61933,-0.579169 11.78028,-4.45024 11.52734,-7.340784 -0.0559,-0.6364 -0.37716,-1.244191 -0.94797,-1.793538 z"
       sodipodi:nodetypes="cccccc" />
    <path
       id="ellipse14901"
       style="fill:none;stroke:#000000;stroke-width:0.529167;stroke-linecap:round;stroke-linejoin:round"
       d="m 121.3271,88.706263 c -1.02311,0.484095 -1.86918,1.02842 -2.50841,1.606061 -1.27847,1.15528 -1.72963,2.443823 -1.1152,3.650321 1.22887,2.412997 6.3653,4.859541 12.18177,4.350666 5.81647,-0.508875 10.6338,-3.826261 11.42498,-6.415989 0.39559,-1.294863 -0.27246,-2.485488 -1.73213,-3.401213 -0.72982,-0.457864 -1.65755,-0.847001 -2.74918,-1.14608"
       sodipodi:nodetypes="csssssc" />
    <circle
       style="fill:#000000;stroke:none;stroke-width:0.529167;stroke-linecap:round;stroke-linejoin:round;stroke-dasharray:none"
       id="pupil_right"
       cx="136.72559"
       cy="81.688431"
       r="1.984375"
       transform="rotate(5)" />
  </g>
</svg>
