<?xml version="1.0" encoding="UTF-8" standalone="no"?>
<!-- Created with Inkscape (http://www.inkscape.org/) -->

<svg
   width="840"
   height="880"
   viewBox="0 0 222.24999 232.83334"
   version="1.1"
   id="mySVG"
   inkscape:version="1.2.2 (732a01da63, 2022-12-09)"
   sodipodi:docname="eyes_tellarite_smaller_f.svg"
   xmlns:inkscape="http://www.inkscape.org/namespaces/inkscape"
   xmlns:sodipodi="http://sodipodi.sourceforge.net/DTD/sodipodi-0.dtd"
   xmlns="http://www.w3.org/2000/svg"
   xmlns:svg="http://www.w3.org/2000/svg">
  <sodipodi:namedview
     id="namedview7"
     pagecolor="#ffffff"
     bordercolor="#666666"
     borderopacity="1.0"
     inkscape:showpageshadow="2"
     inkscape:pageopacity="0.0"
     inkscape:pagecheckerboard="0"
     inkscape:deskcolor="#d1d1d1"
     inkscape:document-units="mm"
     showgrid="false"
     showguides="true"
     inkscape:zoom="5.9081368"
     inkscape:cx="356.54218"
     inkscape:cy="355.44201"
     inkscape:window-width="2560"
     inkscape:window-height="1369"
     inkscape:window-x="1912"
     inkscape:window-y="-8"
     inkscape:window-maximized="1"
     inkscape:current-layer="layer1"
     inkscape:pageshadow="2"
     units="px"
     inkscape:guide-bbox="true">
    <inkscape:grid
       type="xygrid"
       id="grid9" />
    <sodipodi:guide
       position="71.437497,125.67709"
       orientation="0,-1"
       id="guide1575"
       inkscape:locked="false" />
    <sodipodi:guide
       position="108.67865,166.58749"
       orientation="-1,0"
       id="guide2462"
       inkscape:locked="false"
       inkscape:label=""
       inkscape:color="rgb(0,134,229)" />
  </sodipodi:namedview>
  <defs
     id="defs2">
    <inkscape:path-effect
       effect="simplify"
       id="path-effect4085"
       is_visible="true"
       lpeversion="1"
       steps="1"
       threshold="0.00243902"
       smooth_angles="360"
       helper_size="0"
       simplify_individual_paths="false"
       simplify_just_coalesce="false" />
    <inkscape:path-effect
       effect="simplify"
       id="path-effect14166"
       is_visible="true"
       lpeversion="1"
       steps="1"
       threshold="0.00243902"
       smooth_angles="360"
       helper_size="0"
       simplify_individual_paths="false"
       simplify_just_coalesce="false" />
    <inkscape:path-effect
       effect="simplify"
       id="path-effect2574"
       is_visible="true"
       lpeversion="1"
       steps="1"
       threshold="0.00243902"
       smooth_angles="360"
       helper_size="0"
       simplify_individual_paths="false"
       simplify_just_coalesce="false" />
    <inkscape:path-effect
       effect="simplify"
       id="path-effect441"
       is_visible="true"
       lpeversion="1"
       steps="1"
       threshold="0.00243902"
       smooth_angles="360"
       helper_size="0"
       simplify_individual_paths="false"
       simplify_just_coalesce="false" />
    <inkscape:path-effect
       effect="simplify"
       id="path-effect437"
       is_visible="true"
       lpeversion="1"
       steps="1"
       threshold="0.00243902"
       smooth_angles="360"
       helper_size="0"
       simplify_individual_paths="false"
       simplify_just_coalesce="false" />
  </defs>
  <g
     inkscape:label="Ebene 1"
     inkscape:groupmode="layer"
     id="layer1">
    <circle
       style="fill:#c87137;stroke:#000000;stroke-width:0.529167;stroke-linecap:round;stroke-linejoin:round;stroke-dasharray:none;stroke-opacity:1"
       id="eye_right"
       cx="129.43788"
       cy="93.205765"
       r="12.919839" />
    <circle
       style="fill:#c87137;stroke:#000000;stroke-width:0.529167;stroke-linecap:round;stroke-linejoin:round;stroke-dasharray:none;stroke-opacity:1"
       id="eye_left"
       cx="-86.625465"
       cy="93.116203"
       r="12.919839"
       transform="scale(-1,1)" />
    <path
       style="fill:#000000;stroke:#000000;stroke-width:0.20177px;stroke-linecap:butt;stroke-linejoin:miter;stroke-opacity:1"
       d="m 98.55103,93.70878 c 0,0 -11.08909,-1.152471 -16.506223,-2.405669 C 80.89668,91.037504 78.67793,90.22477 78.67793,90.22477 c 0,0 1.165627,1.02515 1.5606,1.679333 0.347619,0.57575 0.668295,1.903765 0.668295,1.903765 l 0.610433,-1.589351 z"
       id="path301"
       sodipodi:nodetypes="cacaccc" />
    <path
       style="fill:#000000;stroke:#000000;stroke-width:0.20177px;stroke-linecap:butt;stroke-linejoin:miter;stroke-opacity:1"
       d="m 98.55103,93.70878 c 0,0 -11.08909,-1.152471 -16.506223,-2.405669 C 80.89668,91.037504 78.67793,90.22477 78.67793,90.22477 c 0,0 1.165627,1.02515 1.5606,1.679333 0.347619,0.57575 0.668295,1.903765 0.668295,1.903765 l 0.610433,-1.589351 z"
       id="path453"
       sodipodi:nodetypes="cacaccc" />
    <path
       id="ellipse14985"
       style="fill:#e3dbdb;stroke:#000000;stroke-width:0.40354;stroke-linecap:round;stroke-linejoin:round;stroke-dasharray:none;fill-opacity:1"
       d="m 81.449264,92.264202 c -0.436767,0.41868 -0.683217,0.882053 -0.727247,1.367365 -0.192885,2.204316 3.742829,5.156377 8.7907,5.598047 5.047878,0.441597 9.296273,-1.79445 9.489093,-3.998772 0.0423,-0.485346 -0.11849,-0.984344 -0.47443,-1.472498 z"
       sodipodi:nodetypes="cccccc" />
    <circle
       style="fill:#000000;stroke:none;stroke-width:0.40354;stroke-linecap:round;stroke-linejoin:round;stroke-dasharray:none"
       id="pupil_left"
       cx="98.094337"
       cy="87.184135"
       transform="rotate(5)"
       r="1.5132759" />
    <path
       id="path14106"
       style="fill:none;stroke:#000000;stroke-width:0.52916667;stroke-linecap:round;stroke-linejoin:round;stroke-dasharray:none"
       d="m 96.03913,91.903274 c 0.78023,0.369169 1.42543,0.784269 1.91291,1.224775 0.97496,0.881013 1.31901,1.86365 0.85044,2.783721 -0.93712,1.840142 -4.854142,3.705868 -9.289755,3.317799 -4.435614,-0.388066 -8.109297,-2.91789 -8.712647,-4.892806 -0.301675,-0.987457 0.207779,-1.895423 1.320912,-2.593751 0.556566,-0.349164 1.264051,-0.645919 2.096525,-0.873996"
       sodipodi:nodetypes="csssssc" />
    <path
       style="fill:#000000;stroke:#000000;stroke-width:0.20177px;stroke-linecap:butt;stroke-linejoin:miter;stroke-opacity:1"
       d="m 117.3702,93.835141 c 0,0 11.08909,-1.152469 16.50622,-2.405668 1.14812,-0.265606 3.36688,-1.078341 3.36688,-1.078341 0,0 -1.16563,1.02515 -1.5606,1.679333 -0.34762,0.575751 -0.6683,1.903765 -0.6683,1.903765 l -0.61043,-1.589351 z"
       id="path457"
       sodipodi:nodetypes="cacaccc" />
    <path
       id="path15000"
       style="fill:#e3dbdb;stroke:#000000;stroke-width:0.40354;stroke-linecap:round;stroke-linejoin:round;stroke-dasharray:none;fill-opacity:1"
       d="m 117.39386,93.884766 c -0.35743,0.488163 -0.51967,0.987293 -0.47876,1.472878 0.19282,2.204322 4.44122,4.440369 9.4891,3.998773 5.04788,-0.441669 8.98359,-3.393731 8.7907,-5.598048 -0.0426,-0.485316 -0.28762,-0.948815 -0.72291,-1.367744 z"
       sodipodi:nodetypes="cccccc" />
    <path
       id="ellipse14901"
       style="fill:none;stroke:#000000;stroke-width:0.52916667;stroke-linecap:round;stroke-linejoin:round;stroke-dasharray:none"
       d="m 119.87795,92.030115 c -0.78022,0.369169 -1.42543,0.784269 -1.91291,1.224775 -0.97495,0.881012 -1.319,1.863649 -0.85044,2.78372 0.93713,1.840141 4.85416,3.705861 9.28977,3.317799 4.43562,-0.388066 8.10929,-2.91789 8.71264,-4.892806 0.30168,-0.987457 -0.20777,-1.895423 -1.32091,-2.593751 -0.55656,-0.349165 -1.26404,-0.645919 -2.09652,-0.873995"
       sodipodi:nodetypes="csssssc" />
    <circle
       style="fill:#000000;stroke:none;stroke-width:0.40354;stroke-linecap:round;stroke-linejoin:round;stroke-dasharray:none"
       id="pupil_right"
       cx="133.6418"
       cy="84.201462"
       transform="rotate(5)"
       r="1.5132759" />
  </g>
</svg>
