<?xml version="1.0" encoding="UTF-8" standalone="no"?>
<!-- Created with Inkscape (http://www.inkscape.org/) -->

<svg
   width="210mm"
   height="297mm"
   viewBox="0 0 210 297"
   version="1.1"
   id="mySVG"
   inkscape:version="1.2.2 (732a01da63, 2022-12-09)"
   sodipodi:docname="eyes_tense.svg"
   xmlns:inkscape="http://www.inkscape.org/namespaces/inkscape"
   xmlns:sodipodi="http://sodipodi.sourceforge.net/DTD/sodipodi-0.dtd"
   xmlns="http://www.w3.org/2000/svg"
   xmlns:svg="http://www.w3.org/2000/svg">
  <sodipodi:namedview
     id="namedview7"
     pagecolor="#ffffff"
     bordercolor="#666666"
     borderopacity="1.0"
     inkscape:showpageshadow="2"
     inkscape:pageopacity="0.0"
     inkscape:pagecheckerboard="0"
     inkscape:deskcolor="#d1d1d1"
     inkscape:document-units="mm"
     showgrid="false"
     showguides="true"
     inkscape:zoom="4.1776836"
     inkscape:cx="450.60856"
     inkscape:cy="357.85381"
     inkscape:window-width="2560"
     inkscape:window-height="1369"
     inkscape:window-x="2552"
     inkscape:window-y="-8"
     inkscape:window-maximized="1"
     inkscape:current-layer="layer1">
    <inkscape:grid
       type="xygrid"
       id="grid9" />
    <sodipodi:guide
       position="111.73327,198.11942"
       orientation="0,-1"
       id="guide958"
       inkscape:locked="false" />
  </sodipodi:namedview>
  <defs
     id="defs2">
    <inkscape:path-effect
       effect="simplify"
       id="path-effect14166"
       is_visible="true"
       lpeversion="1"
       steps="1"
       threshold="0.00243902"
       smooth_angles="360"
       helper_size="0"
       simplify_individual_paths="false"
       simplify_just_coalesce="false" />
    <inkscape:path-effect
       effect="simplify"
       id="path-effect2574"
       is_visible="true"
       lpeversion="1"
       steps="1"
       threshold="0.00243902"
       smooth_angles="360"
       helper_size="0"
       simplify_individual_paths="false"
       simplify_just_coalesce="false" />
    <inkscape:path-effect
       effect="simplify"
       id="path-effect441"
       is_visible="true"
       lpeversion="1"
       steps="1"
       threshold="0.00243902"
       smooth_angles="360"
       helper_size="0"
       simplify_individual_paths="false"
       simplify_just_coalesce="false" />
    <inkscape:path-effect
       effect="simplify"
       id="path-effect437"
       is_visible="true"
       lpeversion="1"
       steps="1"
       threshold="0.00243902"
       smooth_angles="360"
       helper_size="0"
       simplify_individual_paths="false"
       simplify_just_coalesce="false" />
  </defs>
  <g
     inkscape:label="Ebene 1"
     inkscape:groupmode="layer"
     id="layer1">
    <path
       id="path373"
       style="fill:#ffffff;fill-opacity:1;stroke:#ffffff;stroke-width:0.179131;stroke-linecap:round;stroke-linejoin:round"
       d="m 77.183402,85.858321 c -0.400722,0.01376 -0.583803,0.417074 -0.75561,0.718677 -0.432361,0.798696 -0.788688,1.658504 -0.860086,2.573013 -0.11938,1.134109 -0.02723,2.303925 0.393459,3.371394 0.804553,2.195525 2.495434,3.968556 4.452003,5.19809 3.522192,2.218078 7.955577,2.976635 12.002096,1.968828 2.112899,-0.537727 4.164515,-1.581311 5.590452,-3.265072 0.744702,-0.872624 1.264015,-1.929768 1.542211,-3.039809 0.04256,-0.192313 0.01176,-0.406625 -0.164999,-0.519846 -0.112601,-0.148325 -0.263446,-0.236111 -0.44464,-0.273764 -5.625129,-1.801371 -11.255616,-3.58679 -16.889211,-5.360741 -1.446922,-0.442463 -2.883194,-0.924854 -4.348872,-1.302462 -0.169294,-0.03923 -0.341998,-0.07606 -0.516803,-0.06831 z m 10.520805,4.815208 c 0.802184,0.0048 1.670798,0.393425 1.99626,1.167371 0.220871,0.48043 0.02146,1.074327 -0.415367,1.35836 -0.387361,0.319492 -0.9105,0.285678 -1.381186,0.287901 -0.283107,0.01398 -0.561594,-0.04394 -0.804786,-0.192916 -0.455467,-0.258794 -0.931799,-0.643038 -1.019111,-1.19031 -0.04592,-0.421026 0.04253,-0.930513 0.451136,-1.149286 0.348519,-0.214204 0.769101,-0.285922 1.173054,-0.28112 z" />
    <path
       id="path375"
       style="fill:#ffffff;fill-opacity:1;stroke:none;stroke-width:0.179131;stroke-linecap:round;stroke-linejoin:round"
       d="m 139.53463,85.774605 c -1.72317,0.526692 -3.43773,1.085323 -5.15759,1.6243 -5.54702,1.758707 -11.09784,3.505581 -16.64108,5.276054 -0.13526,0.150029 -0.37046,0.245142 -0.35586,0.47752 -0.0132,0.30671 0.14811,0.59473 0.22461,0.88777 0.63663,1.891315 2.09591,3.414526 3.80511,4.39621 1.7696,1.019787 3.79733,1.556994 5.83005,1.672471 1.58672,0.0498 3.18416,-0.0951 4.73043,-0.457817 2.71354,-0.676387 5.31612,-2.029948 7.20208,-4.125176 1.32898,-1.47673 2.26111,-3.388249 2.28441,-5.400847 0.0195,-1.426914 -0.40914,-2.869673 -1.25605,-4.022857 -0.15747,-0.205902 -0.39744,-0.362971 -0.66611,-0.327628 z m -10.04693,4.899443 c 0.60915,0.02454 1.3135,0.271862 1.56229,0.87758 0.18714,0.462603 -0.14153,0.938755 -0.47398,1.238568 -0.64941,0.573238 -1.61296,0.65954 -2.41667,0.412826 -0.57487,-0.177342 -0.98015,-0.870614 -0.70614,-1.441185 0.35212,-0.753721 1.23766,-1.121217 2.0345,-1.087789 z" />
    <g
       id="g147"
       transform="matrix(0.98579404,-0.17382209,0.1330227,0.75440919,-10.697992,42.493669)"
       style="stroke-width:0.604293;stroke-dasharray:none">
      <path
         id="path15000"
         style="fill:#ffffff;stroke:#000000;stroke-width:0.604293;stroke-linecap:round;stroke-linejoin:round;stroke-dasharray:none"
         d="m 140.59483,89.958183 -23.21339,4.028474"
         sodipodi:nodetypes="cc" />
      <g
         id="g14927"
         transform="translate(1.0583344,0.52916718)"
         style="stroke-width:0.604293;stroke-dasharray:none">
        <path
           id="ellipse14901"
           style="fill:none;stroke:#000000;stroke-width:0.604293;stroke-linecap:round;stroke-linejoin:round;stroke-dasharray:none"
           transform="scale(-1,1)"
           d="m -124.21868,82.714371 a 12,11.5 0 0 1 7.71345,12.803419 12,11.5 0 0 1 -11.81769,9.50305 12,11.5 0 0 1 -11.81769,-9.50305 12,11.5 0 0 1 7.71345,-12.803419" />
        <circle
           style="fill:#000000;stroke:#000000;stroke-width:0.604293;stroke-linecap:round;stroke-linejoin:round;stroke-dasharray:none"
           id="circle14903"
           cx="-128.01076"
           cy="94.84333"
           transform="scale(-1,1)"
           r="2.0784409" />
      </g>
    </g>
    <g
       id="g154"
       transform="matrix(0.98579404,0.17382209,-0.1330227,0.75440919,13.780108,4.781522)"
       style="stroke-width:0.604293;stroke-dasharray:none">
      <g
         id="g14922"
         transform="translate(0.26458486,0.26457977)"
         style="stroke-width:0.604293;stroke-dasharray:none">
        <path
           id="path14106"
           style="fill:none;stroke:#000000;stroke-width:0.604293;stroke-linecap:round;stroke-linejoin:round;stroke-dasharray:none"
           d="M 91.416741,82.978958 A 12,11.5 0 0 1 99.130193,95.782377 12,11.5 0 0 1 87.3125,105.28542 12,11.5 0 0 1 75.494807,95.782378 12,11.5 0 0 1 83.208258,82.978958" />
        <path
           id="path14162"
           style="stroke:#000000;stroke-width:0.604293;stroke-linecap:round;stroke-linejoin:round;stroke-dasharray:none"
           d="m 89.693748,94.98542 a 1.984375,1.984375 0 0 1 -1.984375,1.984375 1.984375,1.984375 0 0 1 -1.984375,-1.984375 1.984375,1.984375 0 0 1 1.984375,-1.984375 1.984375,1.984375 0 0 1 1.984375,1.984375 z" />
      </g>
      <path
         id="ellipse14985"
         style="fill:#ffffff;stroke:#000000;stroke-width:0.604293;stroke-linecap:round;stroke-linejoin:round;stroke-dasharray:none"
         d="M 99.576934,93.992432 76.368982,89.958333"
         sodipodi:nodetypes="cc" />
      <path
         id="circle14987"
         style="stroke:#000000;stroke-width:0.604351;stroke-linecap:round;stroke-linejoin:round;stroke-dasharray:none"
         transform="matrix(0.99992067,0.01259612,0.00700623,0.99997546,0,0)"
         d="m 89.526628,94.34507 a 2.078897,2.1889029 0 0 1 -2.078897,2.188903 2.078897,2.1889029 0 0 1 -2.078897,-2.188903 2.078897,2.1889029 0 0 1 2.078897,-2.188903 2.078897,2.1889029 0 0 1 2.078897,2.188903 z" />
    </g>
  </g>
</svg>
