<?xml version="1.0" encoding="UTF-8" standalone="no"?>
<!-- Created with Inkscape (http://www.inkscape.org/) -->

<svg
   width="210mm"
   height="297mm"
   viewBox="0 0 210 297"
   version="1.1"
   id="mySVG"
   inkscape:version="1.2.1 (9c6d41e410, 2022-07-14)"
   sodipodi:docname="eyes_neutral_f.svg"
   xmlns:inkscape="http://www.inkscape.org/namespaces/inkscape"
   xmlns:sodipodi="http://sodipodi.sourceforge.net/DTD/sodipodi-0.dtd"
   xmlns="http://www.w3.org/2000/svg"
   xmlns:svg="http://www.w3.org/2000/svg">
  <sodipodi:namedview
     id="namedview7"
     pagecolor="#ffffff"
     bordercolor="#666666"
     borderopacity="1.0"
     inkscape:showpageshadow="2"
     inkscape:pageopacity="0.0"
     inkscape:pagecheckerboard="0"
     inkscape:deskcolor="#d1d1d1"
     inkscape:document-units="mm"
     showgrid="false"
     showguides="true"
     inkscape:zoom="2.0888418"
     inkscape:cx="292.74596"
     inkscape:cy="443.30787"
     inkscape:window-width="1920"
     inkscape:window-height="1009"
     inkscape:window-x="-8"
     inkscape:window-y="-8"
     inkscape:window-maximized="1"
     inkscape:current-layer="g14922">
    <inkscape:grid
       type="xygrid"
       id="grid9" />
  </sodipodi:namedview>
  <defs
     id="defs2">
    <inkscape:path-effect
       effect="simplify"
       id="path-effect14166"
       is_visible="true"
       lpeversion="1"
       steps="1"
       threshold="0.00243902"
       smooth_angles="360"
       helper_size="0"
       simplify_individual_paths="false"
       simplify_just_coalesce="false" />
    <inkscape:path-effect
       effect="simplify"
       id="path-effect2574"
       is_visible="true"
       lpeversion="1"
       steps="1"
       threshold="0.00243902"
       smooth_angles="360"
       helper_size="0"
       simplify_individual_paths="false"
       simplify_just_coalesce="false" />
    <inkscape:path-effect
       effect="simplify"
       id="path-effect441"
       is_visible="true"
       lpeversion="1"
       steps="1"
       threshold="0.00243902"
       smooth_angles="360"
       helper_size="0"
       simplify_individual_paths="false"
       simplify_just_coalesce="false" />
    <inkscape:path-effect
       effect="simplify"
       id="path-effect437"
       is_visible="true"
       lpeversion="1"
       steps="1"
       threshold="0.00243902"
       smooth_angles="360"
       helper_size="0"
       simplify_individual_paths="false"
       simplify_just_coalesce="false" />
  </defs>
  <g
     inkscape:label="Ebene 1"
     inkscape:groupmode="layer"
     id="layer1">
    <g
       id="g14922"
       transform="translate(0.26458486,0.26457977)">
      <path
         style="fill:none;stroke:#000000;stroke-width:0.529167;stroke-linecap:round;stroke-linejoin:round;stroke-dasharray:none"
         id="path14106"
         sodipodi:type="arc"
         sodipodi:cx="87.3125"
         sodipodi:cy="93.785423"
         sodipodi:rx="12"
         sodipodi:ry="11.5"
         sodipodi:start="5.0614548"
         sodipodi:end="4.3633231"
         sodipodi:arc-type="arc"
         d="M 91.416741,82.978958 A 12,11.5 0 0 1 99.130193,95.782377 12,11.5 0 0 1 87.3125,105.28542 12,11.5 0 0 1 75.494807,95.782378 12,11.5 0 0 1 83.208258,82.978958"
         sodipodi:open="true" />
      <circle
         style="fill:#000000;stroke:#000000;stroke-width:0.264583;stroke-linecap:round;stroke-linejoin:round;stroke-dasharray:none"
         id="path14162"
         cx="87.709373"
         cy="94.98542"
         r="1.984375" />
      <path
         style="fill:#000000;stroke:#000000;stroke-width:0.264583px;stroke-linecap:butt;stroke-linejoin:miter;stroke-opacity:1"
         d="m 98.526284,89.693753 c 0,0 -14.61762,-0.238143 -21.83736,-1.256107 -1.530178,-0.21575 -4.521463,-1.023865 -4.521463,-1.023865 0,0 1.639845,1.205957 2.230572,2.015389 0.519903,0.712386 1.090586,2.41055 1.090586,2.41055 l 0.615778,-2.145967 z"
         id="path301"
         sodipodi:nodetypes="cacaccc" />
      <path
         style="fill:#000000;stroke:#000000;stroke-width:0.264583px;stroke-linecap:butt;stroke-linejoin:miter;stroke-opacity:1"
         d="m 98.526284,89.693753 c 0,0 -14.61762,-0.238143 -21.83736,-1.256107 -1.530178,-0.21575 -4.521463,-1.023865 -4.521463,-1.023865 0,0 1.639845,1.205957 2.230572,2.015389 0.519903,0.712386 1.090586,2.41055 1.090586,2.41055 l 0.615778,-2.145967 z"
         id="path453"
         sodipodi:nodetypes="cacaccc" />
      <path
         style="fill:#000000;stroke:#000000;stroke-width:0.264583px;stroke-linecap:butt;stroke-linejoin:miter;stroke-opacity:1"
         d="m 117.90837,89.693603 c 0,0 14.61761,-0.238143 21.83735,-1.256107 1.53018,-0.21575 4.52147,-1.023865 4.52147,-1.023865 0,0 -1.63985,1.205957 -2.23058,2.015389 -0.5199,0.712386 -1.09058,2.41055 -1.09058,2.41055 l -0.61578,-2.145967 z"
         id="path457"
         sodipodi:nodetypes="cacaccc" />
    </g>
    <path
       id="path15000"
       style="fill:#ffffff;stroke:#000000;stroke-width:0.529167;stroke-linecap:round;stroke-linejoin:round"
       d="m 118.17295,89.958183 a 12,11.5 0 0 0 -0.79169,4.09174 12,11.5 0 0 0 11.99979,11.500077 12,11.5 0 0 0 11.99978,-11.500077 12,11.5 0 0 0 -0.786,-4.09174 z" />
    <g
       id="g14927"
       transform="translate(1.0583344,0.52916718)">
      <path
         style="fill:none;stroke:#000000;stroke-width:0.529167;stroke-linecap:round;stroke-linejoin:round;stroke-dasharray:none"
         id="ellipse14901"
         transform="scale(-1,1)"
         sodipodi:type="arc"
         sodipodi:cx="-128.32292"
         sodipodi:cy="93.520836"
         sodipodi:rx="12"
         sodipodi:ry="11.5"
         sodipodi:start="5.0614548"
         sodipodi:end="4.3633231"
         sodipodi:arc-type="arc"
         d="m -124.21868,82.714371 a 12,11.5 0 0 1 7.71345,12.803419 12,11.5 0 0 1 -11.81769,9.50305 12,11.5 0 0 1 -11.81769,-9.50305 12,11.5 0 0 1 7.71345,-12.803419"
         sodipodi:open="true" />
      <circle
         style="fill:#000000;stroke:#000000;stroke-width:0.264583;stroke-linecap:round;stroke-linejoin:round;stroke-dasharray:none"
         id="circle14903"
         cx="-127.92604"
         cy="94.720833"
         r="1.984375"
         transform="scale(-1,1)" />
    </g>
    <path
       id="ellipse14985"
       style="fill:#ffffff;stroke:#000000;stroke-width:0.529167;stroke-linecap:round;stroke-linejoin:round"
       d="M 76.368982 89.958333 A 12 11.5 0 0 0 75.577299 94.050073 A 12 11.5 0 0 0 87.577083 105.55015 A 12 11.5 0 0 0 99.576868 94.050073 A 12 11.5 0 0 0 98.790869 89.958333 L 76.368982 89.958333 z " />
    <circle
       style="fill:#000000;stroke:#000000;stroke-width:0.264583;stroke-linecap:round;stroke-linejoin:round;stroke-dasharray:none"
       id="circle14987"
       cx="87.973961"
       cy="95.25"
       r="1.984375" />
  </g>
</svg>
