<?xml version="1.0" encoding="UTF-8" standalone="no"?>
<!-- Created with Inkscape (http://www.inkscape.org/) -->

<svg
   width="840"
   height="880"
   viewBox="0 0 222.24999 232.83334"
   version="1.1"
   id="mySVG"
   inkscape:version="1.2.2 (732a01da63, 2022-12-09)"
   sodipodi:docname="klingon_forehead_connected.svg"
   xmlns:inkscape="http://www.inkscape.org/namespaces/inkscape"
   xmlns:sodipodi="http://sodipodi.sourceforge.net/DTD/sodipodi-0.dtd"
   xmlns="http://www.w3.org/2000/svg"
   xmlns:svg="http://www.w3.org/2000/svg">
  <sodipodi:namedview
     id="namedview7"
     pagecolor="#ffffff"
     bordercolor="#666666"
     borderopacity="1.0"
     inkscape:showpageshadow="2"
     inkscape:pageopacity="0.0"
     inkscape:pagecheckerboard="0"
     inkscape:deskcolor="#d1d1d1"
     inkscape:document-units="mm"
     showgrid="false"
     showguides="true"
     inkscape:zoom="8.3553672"
     inkscape:cx="387.47549"
     inkscape:cy="180.36311"
     inkscape:window-width="2560"
     inkscape:window-height="1369"
     inkscape:window-x="1912"
     inkscape:window-y="-8"
     inkscape:window-maximized="1"
     inkscape:current-layer="layer1"
     inkscape:pageshadow="2"
     units="px"
     inkscape:guide-bbox="true">
    <inkscape:grid
       type="xygrid"
       id="grid9" />
    <sodipodi:guide
       position="71.437497,125.67709"
       orientation="0,-1"
       id="guide1575"
       inkscape:locked="false" />
    <sodipodi:guide
       position="108.67865,166.58749"
       orientation="-1,0"
       id="guide2462"
       inkscape:locked="false"
       inkscape:label=""
       inkscape:color="rgb(0,134,229)" />
  </sodipodi:namedview>
  <defs
     id="defs2">
    <inkscape:path-effect
       effect="simplify"
       id="path-effect4085"
       is_visible="true"
       lpeversion="1"
       steps="1"
       threshold="0.00243902"
       smooth_angles="360"
       helper_size="0"
       simplify_individual_paths="false"
       simplify_just_coalesce="false" />
    <inkscape:path-effect
       effect="simplify"
       id="path-effect14166"
       is_visible="true"
       lpeversion="1"
       steps="1"
       threshold="0.00243902"
       smooth_angles="360"
       helper_size="0"
       simplify_individual_paths="false"
       simplify_just_coalesce="false" />
    <inkscape:path-effect
       effect="simplify"
       id="path-effect2574"
       is_visible="true"
       lpeversion="1"
       steps="1"
       threshold="0.00243902"
       smooth_angles="360"
       helper_size="0"
       simplify_individual_paths="false"
       simplify_just_coalesce="false" />
    <inkscape:path-effect
       effect="simplify"
       id="path-effect441"
       is_visible="true"
       lpeversion="1"
       steps="1"
       threshold="0.00243902"
       smooth_angles="360"
       helper_size="0"
       simplify_individual_paths="false"
       simplify_just_coalesce="false" />
    <inkscape:path-effect
       effect="simplify"
       id="path-effect437"
       is_visible="true"
       lpeversion="1"
       steps="1"
       threshold="0.00243902"
       smooth_angles="360"
       helper_size="0"
       simplify_individual_paths="false"
       simplify_just_coalesce="false" />
  </defs>
  <g
     inkscape:label="Ebene 1"
     inkscape:groupmode="layer"
     id="layer1">
    <path
       id="path3728"
       style="fill:none;fill-opacity:1;stroke:#000000;stroke-width:0.529167;stroke-linecap:round;stroke-dasharray:none;stroke-linejoin:round"
       d="m 141.59279,70.576772 c -0.80238,-1.619414 -6.01505,-2.863618 -12.27279,-2.888788 -5.71737,-0.023 -10.35548,1.909847 -11.72247,3.45973 -0.912,1.369702 -1.80299,1.508276 -2.44292,0.970683 -0.99811,-0.732337 -3.6218,-3.815544 -6.23638,-3.814303 -2.75852,0.0013 -4.82556,2.234157 -6.5884,3.73388 -0.81952,0.415966 -1.83465,0.449753 -2.65831,-0.788339 -0.747065,-0.940369 -4.856788,-3.53653 -10.564235,-3.513572 -6.25774,0.02517 -10.425419,1.30104 -11.227803,2.920454"
       sodipodi:nodetypes="csccsccsc" />
    <path
       id="species_special"
       style="fill:#784421;fill-opacity:1;stroke:#000000;stroke-width:0.529167;stroke-linecap:round;stroke-dasharray:none;stroke-linejoin:round"
       d="m 101.83873,43.097794 c -0.22167,-1.440384 3.65218,-6.962861 6.87158,-6.96658 2.96602,-0.0034 6.71325,5.621194 6.55493,6.96658"
       sodipodi:nodetypes="csc"
       inkscape:label="species_special" />
    <path
       id="path3724"
       style="fill:none;fill-opacity:1;stroke:#000000;stroke-width:0.529167;stroke-linecap:round;stroke-linejoin:round;stroke-dasharray:none"
       d="m 136.46634,58.352138 c -1.06267,-1.16415 -5.14153,-2.443892 -10.218,-2.005446 -4.56894,0.394612 -8.40065,2.984746 -9.15404,4.30131 -0.50651,0.796231 -1.45575,1.019612 -1.88842,0.341248 -0.75319,-1.430489 -3.65217,-4.536269 -6.34967,-4.533683 -2.79125,0.0027 -5.69456,2.713867 -6.65529,4.279412 -0.81005,0.885873 -1.32066,0.2173 -1.85091,-0.444768 -0.622649,-1.284529 -4.52616,-3.987528 -9.201713,-4.391348 -5.07647,-0.438446 -9.155326,0.841296 -10.218,2.005446"
       sodipodi:nodetypes="csccsccsc" />
    <path
       id="path3726"
       style="fill:none;fill-opacity:1;stroke:#000000;stroke-width:0.529167;stroke-linecap:round;stroke-dasharray:none;stroke-linejoin:round"
       d="m 101.85418,79.483727 c 0.53656,-0.959499 3.74503,-3.756353 6.99,-3.758708 2.98959,-0.0022 6.22778,2.880624 6.54319,3.669142"
       sodipodi:nodetypes="csc" />
    <path
       id="path3927"
       style="fill:none;stroke:#000000;stroke-width:0.529167;stroke-linecap:round;stroke-linejoin:round;stroke-dasharray:none"
       d="m 84.868837,48.68474 c 1.039479,-1.114814 4.00885,-2.650675 8.13288,-2.461462 4.12406,0.189212 5.521418,4.029861 6.853437,4.573785 0.844826,0.385072 1.714216,0.444882 2.189776,-0.446899 0.36358,-1.864832 3.88442,-6.550995 6.84995,-6.554394 2.77098,-0.0032 6.22381,4.905805 6.53683,6.648475 0.18874,0.899625 0.94717,0.684133 1.27,0.128314 0.9555,-1.295206 3.87555,-3.726294 7.69319,-3.901448 4.12403,-0.189211 7.0934,1.346648 8.13288,2.461462"
       sodipodi:nodetypes="csccsccsc" />
  </g>
</svg>
