<?xml version="1.0" encoding="UTF-8" standalone="no"?>
<!-- Created with Inkscape (http://www.inkscape.org/) -->

<svg
   width="210mm"
   height="297mm"
   viewBox="0 0 210 297"
   version="1.1"
   id="mySVG"
   inkscape:version="1.2.2 (732a01da63, 2022-12-09)"
   sodipodi:docname="eyes_tense.svg"
   xmlns:inkscape="http://www.inkscape.org/namespaces/inkscape"
   xmlns:sodipodi="http://sodipodi.sourceforge.net/DTD/sodipodi-0.dtd"
   xmlns="http://www.w3.org/2000/svg"
   xmlns:svg="http://www.w3.org/2000/svg">
  <sodipodi:namedview
     id="namedview7"
     pagecolor="#ffffff"
     bordercolor="#666666"
     borderopacity="1.0"
     inkscape:showpageshadow="2"
     inkscape:pageopacity="0.0"
     inkscape:pagecheckerboard="0"
     inkscape:deskcolor="#d1d1d1"
     inkscape:document-units="mm"
     showgrid="false"
     showguides="true"
     inkscape:zoom="5.9081368"
     inkscape:cx="389.29363"
     inkscape:cy="316.00487"
     inkscape:window-width="2560"
     inkscape:window-height="1369"
     inkscape:window-x="2552"
     inkscape:window-y="-8"
     inkscape:window-maximized="1"
     inkscape:current-layer="layer1">
    <inkscape:grid
       type="xygrid"
       id="grid9" />
    <sodipodi:guide
       position="111.73327,198.11942"
       orientation="0,-1"
       id="guide958"
       inkscape:locked="false" />
  </sodipodi:namedview>
  <defs
     id="defs2">
    <inkscape:path-effect
       effect="simplify"
       id="path-effect14166"
       is_visible="true"
       lpeversion="1"
       steps="1"
       threshold="0.00243902"
       smooth_angles="360"
       helper_size="0"
       simplify_individual_paths="false"
       simplify_just_coalesce="false" />
    <inkscape:path-effect
       effect="simplify"
       id="path-effect2574"
       is_visible="true"
       lpeversion="1"
       steps="1"
       threshold="0.00243902"
       smooth_angles="360"
       helper_size="0"
       simplify_individual_paths="false"
       simplify_just_coalesce="false" />
    <inkscape:path-effect
       effect="simplify"
       id="path-effect441"
       is_visible="true"
       lpeversion="1"
       steps="1"
       threshold="0.00243902"
       smooth_angles="360"
       helper_size="0"
       simplify_individual_paths="false"
       simplify_just_coalesce="false" />
    <inkscape:path-effect
       effect="simplify"
       id="path-effect437"
       is_visible="true"
       lpeversion="1"
       steps="1"
       threshold="0.00243902"
       smooth_angles="360"
       helper_size="0"
       simplify_individual_paths="false"
       simplify_just_coalesce="false" />
  </defs>
  <g
     inkscape:label="Ebene 1"
     inkscape:groupmode="layer"
     id="layer1">
    <path
       id="path373"
       style="fill:#ffffff;fill-opacity:1;stroke:#ffffff;stroke-width:0.179131;stroke-linecap:round;stroke-linejoin:round"
       d="m 77.249032,85.857292 c -0.02178,-3.42e-4 -0.04378,6.4e-5 -0.06563,0.001 -0.01296,4.45e-4 -0.02521,0.0024 -0.03772,0.0036 -1.051859,1.3415 -1.556519,2.914472 -1.458826,4.547009 0.265901,4.322081 4.645122,8.211042 10.385929,9.223209 5.740572,1.012059 11.185412,-1.144614 12.913424,-5.114933 0.223694,-0.514338 0.379412,-1.048625 0.465088,-1.595768 -0.02012,-0.021 -0.04183,-0.04098 -0.06821,-0.05788 -0.191767,-0.01374 -0.350822,-0.133317 -0.532016,-0.17097 -5.625123,-1.801369 -11.207803,-3.55478 -16.841393,-5.328729 -1.44692,-0.442463 -2.930911,-0.980571 -4.396587,-1.358179 -0.148132,-0.03433 -0.211577,-0.146018 -0.364053,-0.148412 z m 10.455175,4.816243 c 0.802184,0.0048 1.670799,0.393426 1.996261,1.167371 0.220871,0.480429 0.02135,1.07454 -0.415479,1.358573 -0.38736,0.319492 -0.910625,0.285615 -1.381311,0.287838 -0.283106,0.01398 -0.56141,-0.04429 -0.804602,-0.19327 -0.455466,-0.258794 -0.931747,-0.642837 -1.019059,-1.190108 -0.04592,-0.421026 0.04253,-0.930511 0.451135,-1.149284 0.348519,-0.214204 0.769103,-0.285922 1.173055,-0.28112 z"
       sodipodi:nodetypes="sccccccccccscccccccc" />
    <path
       id="path375"
       style="fill:#ffffff;fill-opacity:1;stroke:none;stroke-width:0.179131;stroke-linecap:round;stroke-linejoin:round"
       d="m 139.52343,85.942541 c -1.72317,0.526692 -3.37055,1.04054 -5.09041,1.579517 -5.54702,1.758707 -11.09784,3.539168 -16.64108,5.309641 -0.13526,0.150029 -0.42644,0.0884 -0.41184,0.32078 -0.0132,0.30671 0.14811,0.59473 0.22461,0.88777 0.63663,1.891315 2.09591,3.414526 3.80511,4.39621 1.7696,1.019787 3.79733,1.556994 5.83005,1.672471 1.58672,0.0498 3.18416,-0.0951 4.73043,-0.457817 2.71354,-0.676387 5.31612,-2.029948 7.20208,-4.125176 1.32898,-1.47673 2.26111,-3.388249 2.28441,-5.400847 0.0195,-1.426914 -0.40914,-2.869673 -1.25605,-4.022857 -0.15747,-0.205902 -0.40864,-0.195035 -0.67731,-0.159692 z m -10.03573,4.731507 c 0.60915,0.02454 1.3135,0.271862 1.56229,0.87758 0.18714,0.462603 -0.14153,0.938755 -0.47398,1.238568 -0.64941,0.573238 -1.61296,0.65954 -2.41667,0.412826 -0.57487,-0.177342 -0.98015,-0.870614 -0.70614,-1.441185 0.35212,-0.753721 1.23766,-1.121217 2.0345,-1.087789 z"
       sodipodi:nodetypes="cccccccccccccccccc" />
    <g
       id="g147"
       transform="matrix(0.98579404,-0.17382209,0.1330227,0.75440919,-10.697992,42.493669)"
       style="stroke-width:0.604293;stroke-dasharray:none">
      <path
         id="path15000"
         style="fill:#ffffff;stroke:#000000;stroke-width:0.604293;stroke-linecap:round;stroke-linejoin:round;stroke-dasharray:none"
         d="m 140.59483,89.958183 -23.21339,4.028474"
         sodipodi:nodetypes="cc" />
      <g
         id="g14927"
         transform="translate(1.0583344,0.52916718)"
         style="stroke-width:0.604293;stroke-dasharray:none">
        <path
           id="ellipse14901"
           style="fill:none;stroke:#000000;stroke-width:0.604293;stroke-linecap:round;stroke-linejoin:round;stroke-dasharray:none"
           transform="scale(-1,1)"
           d="m -124.21868,82.714371 a 12,11.5 0 0 1 7.71345,12.803419 12,11.5 0 0 1 -11.81769,9.50305 12,11.5 0 0 1 -11.81769,-9.50305 12,11.5 0 0 1 7.71345,-12.803419" />
        <circle
           style="fill:#000000;stroke:#000000;stroke-width:0.604293;stroke-linecap:round;stroke-linejoin:round;stroke-dasharray:none"
           id="circle14903"
           cx="-128.01076"
           cy="94.84333"
           transform="scale(-1,1)"
           r="2.0784409" />
      </g>
    </g>
    <g
       id="g154"
       transform="matrix(0.98579404,0.17382209,-0.1330227,0.75440919,13.780108,4.781522)"
       style="stroke-width:0.604293;stroke-dasharray:none">
      <g
         id="g14922"
         transform="translate(0.26458486,0.26457977)"
         style="stroke-width:0.604293;stroke-dasharray:none">
        <path
           id="path14106"
           style="fill:none;stroke:#000000;stroke-width:0.604293;stroke-linecap:round;stroke-linejoin:round;stroke-dasharray:none"
           d="M 91.416741,82.978958 A 12,11.5 0 0 1 99.130193,95.782377 12,11.5 0 0 1 87.3125,105.28542 12,11.5 0 0 1 75.494807,95.782378 12,11.5 0 0 1 83.208258,82.978958" />
        <path
           id="path14162"
           style="stroke:#000000;stroke-width:0.604293;stroke-linecap:round;stroke-linejoin:round;stroke-dasharray:none"
           d="m 89.693748,94.98542 a 1.984375,1.984375 0 0 1 -1.984375,1.984375 1.984375,1.984375 0 0 1 -1.984375,-1.984375 1.984375,1.984375 0 0 1 1.984375,-1.984375 1.984375,1.984375 0 0 1 1.984375,1.984375 z" />
      </g>
      <path
         id="ellipse14985"
         style="fill:#ffffff;stroke:#000000;stroke-width:0.604293;stroke-linecap:round;stroke-linejoin:round;stroke-dasharray:none"
         d="M 99.576934,93.992432 76.368982,89.958333"
         sodipodi:nodetypes="cc" />
      <path
         id="circle14987"
         style="stroke:#000000;stroke-width:0.604351;stroke-linecap:round;stroke-linejoin:round;stroke-dasharray:none"
         transform="matrix(0.99992067,0.01259612,0.00700623,0.99997546,0,0)"
         d="m 89.526628,94.34507 a 2.078897,2.1889029 0 0 1 -2.078897,2.188903 2.078897,2.1889029 0 0 1 -2.078897,-2.188903 2.078897,2.1889029 0 0 1 2.078897,-2.188903 2.078897,2.1889029 0 0 1 2.078897,2.188903 z" />
    </g>
  </g>
</svg>
